<svg width="119" height="120" viewBox="0 0 119 120" fill="none" xmlns="http://www.w3.org/2000/svg">
<path d="M68.5069 85.8698L101.142 8.65767L91.3256 12.0773L54.0351 82.6573L68.5069 85.8698Z" fill="#C4DBFF"/>
<path d="M80.6536 102.708L115.03 28.912L101.621 8.65764L55.6495 96.0196L80.6536 102.708Z" fill="#E2EEFF"/>
<path d="M66.4242 74.6818L79.5932 102.564L59.4805 117.295L49.9031 112.297L66.4242 74.6818Z" fill="#9EC4FC"/>
<path d="M100.85 8.94074L91.3802 12.0972L87.6976 33.9298L91.3802 28.932L100.85 8.94074Z" fill="#9EC4FC"/>
<path d="M21.4104 63.6338L64.7485 96.2512L49.6639 112.297L2.49487 76.2599L21.4104 63.6338Z" fill="#91B7F1"/>
<path d="M66.4243 74.4186L26.1989 43.6425L20.9312 64.6859L64.2691 95.9881L66.4243 74.4186Z" fill="#B3CFFA"/>
<path d="M8.9678 56.0141L26.2062 44.4605L21.9579 63.7797L3.23467 76.5184L8.9678 56.0141Z" fill="#7AA1DD"/>
<path d="M64.5498 95.7449L80.0719 102.564L59.7197 117.295L64.5498 95.7449Z" fill="#7AA1DD"/>
<path d="M95.5893 47.8711L114.528 29.458L79.8066 103.11L95.5893 47.8711Z" fill="#D5E6FF"/>
</svg>
