<svg width="121" height="119" viewBox="0 0 121 119" fill="none" xmlns="http://www.w3.org/2000/svg">
<path d="M70.5069 85.3466L103.142 8.13447L93.3256 11.5541L56.0351 82.1341L70.5069 85.3466Z" fill="#FFE450"/>
<path d="M82.6536 102.185L117.03 28.3888L103.621 8.13444L57.6495 95.4965L82.6536 102.185Z" fill="#FFF2AD"/>
<path d="M68.4242 74.1586L81.5932 102.041L61.4805 116.772L51.9031 111.774L68.4242 74.1586Z" fill="#91DE8A"/>
<path d="M102.85 8.41755L93.3802 11.574L89.6976 33.4066L93.3802 28.4088L102.85 8.41755Z" fill="#91DE8A"/>
<path d="M23.4104 63.1106L66.7485 95.728L51.6639 111.774L4.49487 75.7367L23.4104 63.1106Z" fill="#FFEA79"/>
<path d="M68.4243 73.8954L28.1989 43.1193L22.9312 64.1627L66.2691 95.4649L68.4243 73.8954Z" fill="#FFF7CA"/>
<path d="M10.9678 55.4909L28.2062 43.9373L23.9579 63.2565L5.23467 75.9952L10.9678 55.4909Z" fill="#8CBA88"/>
<path d="M66.5498 95.2217L82.0719 102.041L61.7197 116.771L66.5498 95.2217Z" fill="#8CBA88"/>
<path d="M97.5893 47.3479L116.528 28.9348L81.8066 102.587L97.5893 47.3479Z" fill="#91DE8A"/>
</svg>
