<svg width="290" height="179" viewBox="0 0 290 179" fill="none" xmlns="http://www.w3.org/2000/svg">
<g id="cloud1">
<path id="path67473" d="M36.4205 150.684L65.2043 162.203L62.1055 126.763L30.2207 98.4131L36.4205 150.684Z" fill="#807D8E"/>
<path id="path67471" d="M0.106689 77.5952L30.2208 98.4142L36.4207 150.685L2.7638 137.84L0.106689 77.5952Z" fill="#7F7990"/>
<path id="path67475" d="M65.2043 162.201L81.5894 148.468L85.1332 102.398L62.1055 126.761L65.2043 162.201Z" fill="#5F5C6D"/>
<path id="path67477" d="M85.1327 102.398L111.703 132.963L109.931 178.148L81.5898 148.468L85.1327 102.398Z" fill="#6E7180"/>
<path id="path67479" d="M85.1323 102.398L148.901 86.4507L111.703 132.963L85.1323 102.398Z" fill="#898697"/>
<path id="path67481" d="M148.902 86.4507L111.703 132.963L109.931 178.148L172.814 171.503L148.902 86.4507Z" fill="#8F90A2"/>
<path id="path67483" d="M30.2207 98.4131L85.1333 102.4L62.1055 126.763L30.2207 98.4131Z" fill="#888596"/>
<path id="path67485" d="M30.2209 98.4108L66.534 100.625L73.1766 46.5833L24.4641 47.0253L0.106689 77.5919L30.2209 98.4108Z" fill="#B6B4BF"/>
<path id="path67487" d="M66.5337 100.625L85.1334 102.397L73.1764 46.5833L66.5337 100.625Z" fill="#A1A0AE"/>
<path id="path67489" d="M73.1755 46.5836L84.6894 22.6628L104.174 64.7446L85.1324 102.398L73.1755 46.5836Z" fill="#969AAB"/>
<path id="path67491" d="M104.174 64.7461L148.901 86.4518L85.1323 102.399L104.174 64.7461Z" fill="#B2B0BE"/>
<path id="path67493" d="M104.176 64.7465L148.903 86.4522L127.647 8.93213L84.6914 22.6647L104.176 64.7465Z" fill="#ABA9B7"/>
<path id="path67495" d="M127.646 8.93197L175.472 0.958496L215.001 25.5769L127.646 8.93197Z" fill="#FCF7EB"/>
<path id="path67497" d="M127.646 8.93213L215.001 25.5771L229.056 53.6727L219.314 80.2505L206.029 92.654L148.902 86.4522L127.646 8.93213Z" fill="#CDCBD8"/>
<path id="path67499" d="M148.903 86.4507L206.029 92.6524L227.285 153.341L172.815 171.503L148.903 86.4507Z" fill="#9695A5"/>
<path id="path67501" d="M206.029 92.6535L219.314 80.25L231.27 137.395L227.284 153.342L206.029 92.6535Z" fill="#918A9E"/>
<path id="path67503" d="M219.313 80.25L261.383 89.9955L231.268 137.395L219.313 80.25Z" fill="#8C8B99"/>
<path id="path67505" d="M261.383 89.9966L289.281 118.348L239.24 144.484L231.269 137.396L261.383 89.9966Z" fill="#787F8B"/>
<path id="path67507" d="M261.383 89.9938L288.839 56.7717L241.012 38.1665L229.055 53.6705L219.313 80.2483L261.383 89.9938Z" fill="#C0BFC9"/>
<path id="path67509" d="M289.281 118.347L288.84 56.7729L261.383 89.9951L289.281 118.347Z" fill="#FFE4D2"/>
</g>
</svg>
