<svg width="449" height="260" viewBox="0 0 449 260" fill="none" xmlns="http://www.w3.org/2000/svg">
<g id="cloud2">
<path id="path67511" d="M0.700195 112.458L47.4052 142.841L57.0204 219.125L4.82118 200.378L0.700195 112.458Z" fill="#8F8D9C"/>
<path id="path67513" d="M57.0195 219.128L86.0039 232.806L96.8547 184.218L47.4043 142.844L57.0195 219.128Z" fill="#9795A3"/>
<path id="path67515" d="M86.0044 232.802L122.065 208.376L132.57 148.659L96.8554 184.215L86.0044 232.802Z" fill="#5D6079"/>
<path id="path67517" d="M132.569 148.659L167.515 161.003L223.638 253.569L171.031 259.208L122.064 208.377L132.569 148.659Z" fill="#7E7D8D"/>
<path id="path67519" d="M132.569 148.66L236.341 137.791L167.515 161.004L132.569 148.66Z" fill="#B5B4C2"/>
<path id="path67521" d="M236.342 137.791L167.516 161.004L223.638 253.57L268.558 249.512L236.342 137.791Z" fill="#9897A7"/>
<path id="path67523" d="M47.4043 142.843L109.037 134.115L132.569 148.661L96.8547 184.217L47.4043 142.843Z" fill="#8D8B99"/>
<path id="path67525" d="M47.4051 142.845L109.038 134.117L114.026 67.209L38.4765 67.8543L0.700195 112.462L47.4051 142.845Z" fill="#CDCDD9"/>
<path id="path67527" d="M109.037 134.117L132.569 148.663L114.025 67.2092L109.037 134.117Z" fill="#B1AFBD"/>
<path id="path67529" d="M114.026 67.2091L131.883 32.2996L162.103 93.7131L132.57 148.663L114.026 67.2091Z" fill="#A19FAC"/>
<path id="path67531" d="M162.102 93.7122L236.341 137.792L132.569 148.662L162.102 93.7122Z" fill="#C7C7D3"/>
<path id="path67533" d="M162.103 93.7114L236.342 137.792L198.504 12.2573L131.883 32.2979L162.103 93.7114Z" fill="#CBCBD7"/>
<path id="path67535" d="M198.505 12.2588L272.68 0.622314L333.986 36.5499L198.505 12.2588Z" fill="#FCF6F0"/>
<path id="path67537" d="M198.505 12.2573L333.987 36.5484L355.784 77.551L340.675 116.338L323.17 153.487L236.343 137.792L198.505 12.2573Z" fill="#D3D3DF"/>
<path id="path67539" d="M236.342 137.791L323.169 153.486L330.802 225.199L268.557 249.512L236.342 137.791Z" fill="#999AA8"/>
<path id="path67541" d="M323.17 153.486L340.675 116.337L359.217 199.733L340.511 202.959L323.17 153.486Z" fill="#878694"/>
<path id="path67543" d="M340.673 116.337L394.656 142.542L359.215 199.733L340.673 116.337Z" fill="#868997"/>
<path id="path67545" d="M394.657 142.541L434.784 177.885L371.579 210.076L359.216 199.732L394.657 142.541Z" fill="#878496"/>
<path id="path67547" d="M394.656 142.543L448.502 82.0761L374.327 54.9241L355.782 77.5509L340.673 116.338L394.656 142.543Z" fill="#DCD6E1"/>
<path id="path67549" d="M434.784 177.889L448.504 82.0771L394.657 142.544L434.784 177.889Z" fill="#FAE6DE"/>
<path id="path67551" d="M330.803 225.199L340.511 202.96L323.17 153.487L330.803 225.199Z" fill="#AEAEB7"/>
</g>
</svg>
