<svg width="2079" height="1601" viewBox="0 0 2079 1601" fill="none" xmlns="http://www.w3.org/2000/svg">
<path id="Vector" d="M780.741 1600.45C776.964 1600.47 773.186 1600.42 769.41 1600.3C740.597 1599.36 709.553 1595.04 682.773 1583.88C674.697 1580.51 674.008 1575.7 667.413 1571.13C664.122 1568.85 671.191 1548.1 672.371 1544.94C675.8 1535.76 680.889 1527.2 687.253 1519.76C693.331 1512.64 700.594 1506.52 708.722 1501.87C717.606 1496.79 726.309 1495.98 730.737 1485.59C733.451 1479.22 734.193 1472.22 735.095 1465.35C736.445 1455.09 743.079 1443.73 737.746 1433.6C734.529 1427.46 733.147 1417.7 730.629 1410.91C727.061 1401.3 724.534 1391.31 723.063 1381.16C720.499 1363.48 721.732 1346.3 724.909 1328.82C728.06 1311.47 725.077 1295.33 722.026 1278.11C718.562 1258.57 714.651 1239.1 710.298 1219.74C700.783 1177.4 687.674 1136.4 675.775 1094.76C667.527 1068.2 659.889 1041.46 652.869 1014.55C639.991 965.203 629.19 915.309 620.508 865.045C614.767 831.812 616.71 798.238 616.71 764.595C616.896 746.738 615.154 734.576 612.019 731.837C609.344 729.5 603.855 727.998 602.312 729.187C593.679 735.832 587.973 728.166 586.67 719.772C582.165 690.746 571.736 657.409 576.645 628.121C577.205 624.778 578.201 621.59 576.597 618.811C572.176 620.134 567.928 622.457 563.703 624.38C554.124 628.739 544.547 633.102 534.966 637.457C529.65 639.874 520.19 645.824 514.21 643.393C493.422 634.944 475.308 665.386 462.579 677.018C445.58 692.553 425.759 706.323 404.804 716.745C385.161 726.515 359.257 738.196 336.875 738.196C333.372 738.196 333.516 737.882 331.778 749.379C331.468 751.429 330.814 753.107 330.325 753.107C329.836 753.107 329.435 754.443 329.435 756.075C329.435 757.707 328.984 760.951 328.433 763.282C327.882 765.612 326.725 771.762 325.861 776.954C319.461 815.392 313.492 853.49 309.615 892.564C303.021 959.021 301.471 1025.47 284.892 1090.53C281.833 1102.29 278.149 1113.78 274.826 1125.45C271.17 1138.3 266.87 1150.96 261.949 1163.37C252.614 1186.92 241.484 1209.8 226.233 1230.12C206.638 1256.22 175.749 1290.08 142.427 1297.11C130.963 1299.53 119.147 1299.56 107.43 1299.58C97.0164 1299.6 86.6014 1299.62 76.1874 1299.64C68.6554 1299.65 54.5734 1302.7 48.9264 1297.11C46.3004 1294.52 42.5994 1290.92 40.7004 1289.11C34.3934 1283.11 35.9134 1272.72 42.8454 1274.46C44.6824 1274.92 45.1964 1274.53 45.6974 1272.28C46.8674 1267.02 47.3684 1265.55 48.4244 1264.23C50.1204 1262.11 49.9164 1259.23 47.9454 1257.45C46.9434 1256.54 46.1234 1255.2 46.1234 1254.46C46.1234 1253.55 44.7594 1253.13 41.8044 1253.13C32.3674 1253.13 32.7594 1238.6 42.3834 1231.76C50.1454 1226.25 57.1294 1221.81 66.5114 1224C78.8804 1226.88 89.9394 1231.37 102.87 1232.29C127.869 1234.07 143.133 1202.95 145.156 1181.68C145.78 1175.18 149.178 1168.99 150.493 1162.45C152.294 1153.51 153.921 1144.53 155.376 1135.53C158.194 1118.07 160.36 1100.52 161.871 1082.91C166.898 1024.33 162.892 966.637 160.314 908.237C159.162 882.147 158.771 856.024 159.139 829.911C159.545 800.902 160.894 771.905 163.175 742.983C164.316 728.522 165.69 714.079 167.298 699.663C168.82 686.015 172.959 672.707 174.388 659.303C168.221 662.131 160.948 679.241 155.68 685.437C148.33 694.081 139.905 701.807 130.691 708.425C100.267 730.28 39.6054 750.935 8.55144 719.154C2.41044 712.868 -4.84856 705.408 5.39344 698.547C9.27044 695.95 14.0164 695.099 18.5834 694.138C65.1174 684.355 106.79 656.881 135.353 619.015C141.442 610.944 147.963 601.976 152.387 592.906C156.294 584.897 157.363 575.498 164.112 568.383C157.693 563.903 155.769 554.917 157.437 547.269C159.105 539.621 163.659 532.969 168.098 526.522C180.383 508.682 179.133 493.287 176.557 472.326C173.926 450.915 168.857 429.89 162.976 409.163C162.123 406.156 160.962 400.341 160.397 396.24C158.08 379.421 157.382 373.539 156.919 366.916C155.942 352.957 150.917 339.69 148.143 325.99C144.987 310.405 142.939 294.598 142.001 278.725C138.987 227.705 148.227 175.385 163.568 126.815C174.689 91.6 188.344 52.735 215.38 26.745C224.979 17.518 236.472 10.246 248.976 5.65296C275.471 -4.08004 300.98 2.21796 327.783 5.60996C337.119 6.79196 344.376 8.34996 345.793 9.47696C346.362 9.92996 349.459 11.055 352.675 11.977C355.891 12.899 362.19 15.637 366.673 18.061C382.557 26.649 397.688 17.086 414.283 14.659C433.897 11.79 453.946 12.516 473.488 15.59C493.945 18.808 513.907 24.541 533.475 31.229C542.419 34.286 551.327 37.711 560.318 40.251C566.615 42.03 570.958 47.829 577.124 49.277C584.498 51.009 595.003 41.054 600.757 37.346C648.707 6.43796 702.307 1.68696 757.377 2.98196C806.083 4.12696 853.481 -0.61504 902.037 9.53896C927.917 14.952 953.239 23.047 977.441 33.694C1001.93 44.465 1022.33 58.918 1044.15 73.41C1056.24 81.459 1058.28 101.251 1069.98 111.239C1077.73 117.855 1087.64 121.542 1097.67 123.324C1115.61 126.509 1134.83 127.088 1153.02 128.726C1172.53 130.481 1192.13 131.128 1211.71 130.677C1267.07 129.401 1327.51 120.845 1378.97 99.506C1382.4 98.08 1388.46 96.294 1392.41 95.536C1396.37 94.778 1401.83 93.195 1404.55 92.016C1413.26 88.238 1420.04 86.779 1453.23 81.53C1478.69 77.505 1508.23 80.899 1533.57 84.553C1608.59 95.375 1677 131.994 1739.3 173.479C1779.61 200.323 1817.19 231.275 1851.24 265.723C1862.89 277.512 1874.13 289.71 1884.92 302.292C1938.79 365.107 1990.98 432.602 2023.14 509.342C2041.35 552.786 2057.07 597.332 2061.49 644.472C2064.69 678.574 2064.31 713.01 2060.39 747.032C2058.56 762.848 2056.38 778.862 2052.11 794.192C2047.57 810.45 2040.75 826.042 2036.9 842.49C2029.31 874.899 2025.89 906.931 2026.92 939.989C2027.17 947.906 2028.35 959.197 2029.81 967.522C2031.16 975.284 2032.27 983.373 2032.27 985.498C2032.27 987.623 2032.61 989.697 2033.02 990.107C2033.43 990.517 2033.85 994.73 2033.96 999.468C2034.14 1007.57 2034.41 1010.38 2035.71 1018.27C2036.01 1020.05 2036.43 1022.73 2036.66 1024.24C2037.53 1029.93 2039.15 1038.13 2040.64 1044.37C2046.35 1068.23 2047.74 1092.95 2048.06 1117.41C2048.22 1129.67 2048.07 1141.94 2047.9 1154.2C2047.82 1160.55 2047.55 1162.06 2050.85 1166.53C2053.72 1170.41 2057.9 1172.73 2060.21 1177.31C2061.52 1179.91 2062.84 1182.27 2063.14 1182.54C2064.12 1183.42 2068.16 1193.52 2068.63 1196.28C2068.89 1197.74 2069.46 1201.18 2069.91 1203.92C2070.36 1206.65 2071.47 1210.67 2072.37 1212.86C2077.13 1224.38 2080.22 1248.15 2076.96 1248.15C2076.44 1248.15 2075.68 1248.14 2075.27 1248.14C2074.86 1248.13 2074.48 1247.35 2074.43 1246.4C2074.17 1241.45 2072.67 1232.56 2071.88 1231.25C2071 1229.79 2071.34 1252.22 2072.29 1258.59C2073.79 1268.57 2074.18 1274.32 2073.58 1277.55C2072.62 1282.68 2071.05 1280.63 2070.4 1273.39C2069.62 1264.63 2069.37 1264.23 2066.53 1267.3C2065.18 1268.75 2064.05 1270.96 2064.01 1272.21C2063.89 1275.88 2061.56 1281.51 2060.72 1280.15C2059.81 1278.68 2056.13 1280.38 2056.13 1282.26C2056.13 1283.68 2062.12 1295.81 2065.16 1300.56C2067.37 1304.01 2067.03 1305.81 2064.16 1305.81C2060.95 1305.81 2057.42 1302.07 2056.26 1297.44C2055.64 1295 2054.69 1292.72 2054.14 1292.39C2052.37 1291.29 2053.13 1296.15 2056.16 1305.3C2057.78 1310.22 2059.11 1315.18 2059.11 1316.33C2059.11 1318.66 2061.21 1320.74 2065.33 1322.49C2070.52 1324.71 2068.36 1328.02 2061.03 1329.08C2055.64 1329.86 2052.24 1327.77 2049.51 1322.02C2047.65 1318.09 2045.42 1320.52 2046.6 1325.2C2047.23 1327.7 2046.28 1331.65 2045.06 1331.65C2043.55 1331.65 2042.14 1326.65 2042.07 1321.05C2041.98 1313.7 2039.46 1313.63 2039.04 1320.96C2038.81 1324.83 2038.32 1326.25 2037.11 1326.48C2035.5 1326.78 2032.77 1321.34 2033.74 1319.77C2033.99 1319.37 2033.35 1316.85 2032.32 1314.16C2030.06 1308.27 2029.56 1309.33 2029.04 1321.05C2028.62 1330.35 2027.96 1331.61 2023.45 1331.64C2021.31 1331.65 2021.15 1331.35 2021.77 1328.42C2023.71 1319.26 2024.38 1312.91 2023.74 1309.79C2022.74 1304.86 2022.5 1287.93 2023.39 1284.76C2023.96 1282.75 2023.68 1281.68 2022.24 1280.38C2021.2 1279.43 2020.35 1278.15 2020.35 1277.54C2020.35 1276.49 2015.39 1273 2013.91 1273C2013 1273 2014.44 1277.34 2015.6 1278.09C2019.86 1280.83 2015.93 1326.68 2011.44 1326.68C2009.76 1326.68 2009.22 1324.63 2010.49 1323.1C2011.18 1322.27 2011.86 1319.39 2011.99 1316.71C2012.13 1314.03 2012.8 1310.29 2013.49 1308.39C2014.5 1305.61 2014.49 1304.65 2013.45 1303.4C2011.54 1301.1 2010.41 1302.44 2010.41 1306.99C2010.41 1309.36 2009.55 1312.43 2008.34 1314.39C2006.81 1316.86 2006.44 1318.57 2006.94 1320.97C2007.84 1325.34 2012.43 1340.6 2013.51 1342.8C2013.99 1343.78 2014.83 1345.47 2015.38 1346.55C2016.86 1349.5 2016.61 1353.52 2014.95 1353.52C2013.3 1353.52 2010.02 1349.19 2008.92 1345.57C2008.51 1344.2 2006.95 1341.27 2005.47 1339.04C2003.49 1336.08 2002.58 1333.16 2002.07 1328.11C2001.69 1324.32 2000.99 1319.65 2000.52 1317.74C2000.05 1315.82 1999.39 1313.03 1999.05 1311.52C1998.21 1307.75 1996.49 1308.08 1996.49 1312.02C1996.49 1315.7 1998.66 1326.56 2001.02 1334.64C2003.65 1343.69 2003.91 1346.56 2002.07 1346.56C2001.12 1346.56 2000.47 1345.74 2000.47 1344.55C2000.47 1342.5 2000.02 1342.21 1995.38 1341.2C1986.34 1339.23 1993.24 1297 1990.53 1290.07C1988.75 1285.48 1986.2 1281.15 1985.18 1276.34C1982.99 1265.88 1988.34 1255.47 1993.52 1246.12C2003.16 1228.71 2012.55 1211.7 2017.68 1192.32C2020.29 1182.46 2022.21 1172.42 2023.42 1162.29C2026.42 1137.19 2024.24 1112.02 2020.59 1087.2C2018.98 1076.29 2017.38 1065.38 2015.78 1054.48C2010.94 1020.34 2005.52 986.536 2000.12 952.657C1997.4 935.566 1995.8 918.298 1995.32 900.999C1994.8 882.106 1995.61 863.176 1997.76 844.398C1999.87 825.958 2006.28 807.932 2008.33 789.887C2008.74 786.333 2009.69 782.307 2010.46 780.94C2011.22 779.573 2011.95 777.56 2012.08 776.467C2012.54 772.788 2013.55 750.733 2013.44 747.161C2012.48 717.764 2013.77 678.335 1996.46 652.799C1994.83 650.39 1993.05 646.588 1992.51 644.349C1991.96 642.113 1991.07 638.912 1990.52 637.232C1989.98 635.559 1989.99 626.163 1986.23 627.758C1985.04 628.263 1984.49 629.613 1984.06 630.832C1976.47 652.267 1968.87 673.701 1961.28 695.136C1957.58 705.578 1953.88 716.021 1950.18 726.463C1946.96 735.545 1941.38 742.902 1938.29 751.617C1925.78 786.91 1908.55 821.501 1894.14 856.217C1883.11 882.792 1872.07 909.368 1861.04 935.943C1856 948.076 1851.33 960.451 1845.85 972.389C1843.03 978.519 1839.8 984.478 1836.79 990.515C1834.5 995.116 1827.77 1004.05 1827.77 1009.14C1821.67 1023.18 1814.97 1036.98 1808.58 1050.89C1804.3 1060.13 1800.16 1069.43 1796.03 1078.74C1793.34 1084.8 1787.95 1089.77 1786.58 1095.96C1782.96 1112.43 1776.96 1126.8 1776.46 1144.18C1775.64 1173.18 1785.34 1199.86 1794.49 1226.81C1801.5 1247.46 1810.27 1267.25 1818.67 1287.34C1823.62 1298.99 1828.72 1311.17 1829.6 1323.95C1830.44 1336.14 1825.86 1347.08 1825.68 1358.77C1825.53 1368.29 1827.75 1377.94 1829.95 1387.14C1833.41 1401.65 1838.14 1416.08 1838.99 1431.07C1839.6 1441.85 1841.32 1459.42 1833.8 1468.34C1820.43 1484.2 1816.17 1488.35 1812.49 1489.08C1810.81 1489.42 1808.3 1490.59 1806.9 1491.69C1805.51 1492.79 1803.23 1493.69 1801.84 1493.69C1800.46 1493.69 1796.51 1495.06 1793.08 1496.73C1783.97 1501.17 1770.88 1504.29 1760.76 1504.44C1754.97 1504.52 1750.44 1505.2 1746.84 1506.52C1741.17 1508.6 1732.16 1510.43 1725.6 1510.84C1721.97 1511.06 1721.6 1511.34 1721.37 1514.07C1720.76 1521.18 1716.18 1530.9 1712.75 1532.35C1712.25 1532.56 1710.01 1534.41 1707.78 1536.44C1705.56 1538.48 1702.66 1540.48 1701.35 1540.89C1700.03 1541.3 1696.68 1542.98 1693.89 1544.63C1691.1 1546.28 1685.69 1548.28 1681.86 1549.08C1678.04 1549.87 1673.51 1551.37 1671.81 1552.42C1670.11 1553.46 1667.83 1554.32 1666.72 1554.32C1657.01 1554.4 1645.36 1558.74 1635.47 1560C1621.79 1561.74 1608.05 1562.91 1594.27 1563.52C1566.33 1564.75 1526.96 1569.55 1502.88 1553.42C1502.66 1553.27 1494.46 1555.26 1492.92 1555.04C1489.11 1554.49 1485.54 1552.59 1482.76 1549.96C1476.19 1543.73 1473.06 1536.6 1475.81 1527.82C1481.47 1509.72 1490.1 1492.58 1501.14 1477.17C1506.94 1469.09 1513.41 1461.48 1520.47 1454.46C1523.16 1451.79 1540.02 1440.79 1540.21 1437.93C1540.49 1433.63 1551.98 1424.89 1554.75 1421.51C1560.7 1414.23 1566.14 1406.54 1571.04 1398.51C1584.56 1376.38 1591.33 1352.35 1599.91 1328.17C1601.46 1323.8 1603.41 1318.21 1604.24 1315.75C1606.11 1310.16 1609.37 1295.6 1610.79 1286.42C1611.38 1282.6 1612.29 1277.56 1612.82 1275.22C1613.34 1272.89 1613.78 1268.87 1613.79 1266.28C1613.81 1263.69 1614.29 1259.78 1614.87 1257.59C1615.45 1255.41 1615.93 1252.72 1615.93 1251.63C1615.93 1250.54 1616.33 1247.63 1616.82 1245.17C1617.3 1242.71 1617.87 1238.01 1618.09 1234.73C1618.3 1231.45 1618.96 1226.08 1619.55 1222.8C1623.26 1202.31 1626.94 1181.81 1630.62 1161.31C1632.91 1148.6 1628.58 1140.48 1624.17 1128.86C1621.57 1122.03 1618.84 1115.09 1618.08 1113.45C1617.33 1111.81 1616.1 1107.69 1615.34 1104.29C1614.58 1100.89 1613.02 1096.91 1611.88 1095.46C1610.73 1094 1609.79 1092.38 1609.79 1091.86C1609.79 1091.33 1608.88 1089.72 1607.76 1088.26C1598.68 1076.42 1592.89 1063.48 1583.12 1052.12C1570.33 1037.22 1556.93 1022.85 1543.55 1008.48C1532.34 996.46 1518.75 984.775 1509.12 971.473C1503.74 964.028 1503.93 955.353 1503.93 946.45L1498.29 946.316C1495.2 946.242 1491.17 945.433 1489.35 944.518C1487.05 943.363 1481.47 942.559 1471.12 941.89C1462.94 941.361 1455.57 940.686 1454.72 940.387C1443.78 936.532 1430.53 937.238 1419.05 936.377C1400.45 934.962 1380.08 936.095 1362.77 928.569C1356.82 925.984 1346.34 924.08 1332.45 923.061C1317.61 921.973 1311.15 920.727 1305.98 917.959C1303.86 916.825 1300.56 915.596 1298.65 915.227C1296.2 914.756 1295.21 914.053 1295.31 912.859C1295.38 911.925 1295 911.16 1294.47 911.16C1293.84 911.16 1293.78 913.39 1294.31 917.373C1295.47 926.08 1295 932.314 1292.82 937.246C1291.79 939.574 1290.44 943.334 1289.82 945.602C1289.2 947.869 1288.02 949.98 1287.21 950.293C1286.39 950.606 1285.73 951.744 1285.73 952.822C1285.73 953.898 1285.24 955.08 1284.64 955.455C1277.04 960.21 1276.84 970.854 1275.89 978.707C1274.39 991.127 1273.57 1003.63 1273.42 1016.14C1273.1 1043.76 1278.08 1069.25 1282.64 1096.06C1289.07 1133.88 1294.77 1171.81 1300.27 1209.78C1305.41 1245.23 1306.85 1283.68 1318.55 1317.68C1322.72 1329.72 1328.14 1341.32 1334.71 1352.24C1338.15 1357.94 1342.06 1363.23 1345.89 1368.66C1348.39 1372.22 1351.32 1379.46 1355.1 1381.72C1356.76 1382.72 1357.1 1383.09 1366.3 1394.29C1383.5 1415.22 1399.56 1434.19 1401.64 1462.59C1403.29 1485.07 1395.71 1509.67 1381.79 1527.43C1379.41 1530.46 1377.17 1533.88 1376.81 1535.03C1374.05 1543.75 1362.82 1550.32 1355.15 1553.57C1348.67 1556.31 1342.19 1559.05 1335.71 1561.79C1326.68 1565.61 1317.48 1569.48 1307.74 1570.57C1304.52 1570.93 1301.28 1570.98 1298.04 1571.03C1289.31 1571.17 1280.57 1571.27 1271.84 1571.45C1263.66 1571.61 1260.67 1574.25 1253.21 1576.57C1247.23 1578.42 1240.44 1578.42 1234.37 1577.06C1218.25 1573.43 1205.19 1561.84 1189.17 1557.47C1174.63 1553.5 1165.01 1543.75 1164.85 1527.81C1164.74 1516.07 1169.56 1504.82 1175.48 1494.68C1183.33 1481.22 1193.1 1470.16 1194.74 1454.27C1195.64 1445.59 1193.28 1436.93 1190.95 1428.52C1188.02 1417.93 1185.07 1407.34 1182.15 1396.75C1180.26 1389.92 1178.63 1380.15 1172.52 1375.6C1166.65 1371.23 1153.52 1357.55 1153.52 1355.8C1153.52 1354.91 1152.88 1353.47 1152.11 1352.61C1150.49 1350.81 1146.56 1341.24 1146.56 1339.09C1146.56 1338.3 1144.99 1335.21 1143.08 1332.22C1141.17 1329.23 1139.6 1326.49 1139.6 1326.14C1139.6 1325.78 1139 1324.09 1138.27 1322.36C1123.08 1286.71 1118.94 1246.48 1107.04 1209.49C1099.46 1185.91 1090.7 1162.69 1080.82 1139.97C1071.58 1118.71 1058.81 1098.36 1051.44 1076.42C1050.07 1072.32 1047.42 1065.8 1045.56 1061.92C1043.7 1058.04 1042.18 1054.07 1042.18 1053.1C1042.18 1052.13 1040.2 1048.76 1037.78 1045.62C1035.36 1042.47 1030.88 1034.99 1027.82 1028.99C1001.39 977.17 975.226 919.298 970.191 860.708C970.038 858.928 969.175 856.656 968.273 855.659C967.372 854.663 966.632 852.766 966.629 851.443C966.6 838.923 951.212 831.065 940.883 827.959C929.176 824.438 912.3 827.97 902.728 819.848C900.866 818.268 899.558 817.977 891.83 817.421C889.233 817.234 887.108 817.449 887.108 817.898C887.108 818.347 887.741 818.715 888.514 818.715C889.554 818.715 890.072 820.713 890.506 826.406C892.114 847.511 895.947 868.768 898.165 889.924C899.007 897.853 899.83 905.784 900.66 913.714C901.113 918.041 904.082 928.247 901.845 932.283C901.162 933.515 900.321 938.997 899.977 944.465C899.633 949.933 898.845 955.748 898.226 957.388C897.607 959.028 896.346 963.054 895.424 966.335C894.501 969.615 893.104 973.054 892.318 973.976C891.532 974.898 891.164 976.098 891.5 976.641C891.836 977.184 891.714 977.874 891.227 978.175C888.01 980.187 886.782 993.876 886.147 997.146C884.412 1006.09 883.025 1015.1 881.979 1024.14C879.609 1044.63 880.12 1065.14 879.216 1085.6C878.286 1106.65 877.891 1127.73 878.546 1148.79C879.162 1168.6 882.571 1188.09 883.726 1207.71C887.398 1270.15 890.882 1334.22 899.783 1395.97C900.43 1400.46 900.688 1407.04 900.356 1410.59C900.012 1414.28 900.269 1419.66 900.957 1423.16C905.459 1446.09 907.131 1469.4 914.051 1491.93C918.588 1506.7 940.822 1526.06 932.187 1543.02C923.294 1560.49 900.51 1573.37 883.301 1580.74C860.748 1590.4 835.863 1595.84 811.629 1598.6C801.371 1599.76 791.055 1600.38 780.736 1600.44L780.741 1600.45Z" fill="black"/>
</svg>
