<svg width="724" height="1045" viewBox="0 0 724 1045" fill="none" xmlns="http://www.w3.org/2000/svg">
<path d="M390 0.333416L358 17.6667L405.333 10.3334L390 0.333416Z" fill="#967178"/>
<path d="M238 60.3333L294 36.3333L266 53.6666L238 60.3333Z" fill="#FAE5D8"/>
<path d="M390.001 0.333416L331.334 15.0001L358.001 17.6667L390.001 0.333416Z" fill="#A99082"/>
<path d="M294 36.3333L331.333 14.9999L359.333 17.6666L294 36.3333Z" fill="#9E867A"/>
<path d="M238 60.3333L331.333 14.9999L294 36.3333L238 60.3333Z" fill="#967178"/>
<path d="M24.667 934.333L52.667 999.667L96.667 914.333L24.667 934.333Z" fill="#9F6767"/>
<path d="M60.667 827.667L24.667 934.333L96.667 914.333L60.667 827.667Z" fill="#9C6966"/>
<path d="M75.334 1003.67L132.667 1045L96.6673 914.333L75.334 1003.67Z" fill="#975F62"/>
<path d="M110 790.333L154 895.667L96.667 914.333L60.667 827.667L110 790.333Z" fill="#C89887"/>
<path d="M99.3337 721L110 790.333L60.667 827.667L99.3337 721Z" fill="#D2AF96"/>
<path d="M12.667 823.667L60.667 827.667L48.667 806.333L12.667 823.667Z" fill="#653D48"/>
<path d="M24.667 934.333L12.667 823.667L60.667 827.667L24.667 934.333Z" fill="#693E53"/>
<path d="M10 731.667L12.6667 823.667L48.6667 806.333L59.3333 721L10 731.667Z" fill="#613954"/>
<path d="M24.6667 670.333L10 731.667L59.3333 721L24.6667 670.333Z" fill="#784A57"/>
<path d="M60.667 827.667L48.667 806.333L99.3337 721L60.667 827.667Z" fill="#CAE780"/>
<path d="M59.3337 721H99.3337L48.667 806.333L59.3337 721Z" fill="#CDE484"/>
<path d="M110.001 643.667L99.334 721H59.334L87.334 654.333L110.001 643.667Z" fill="#CAE28D"/>
<path d="M24.667 670.333L60.667 615.667L87.3337 654.333L59.3337 721L24.667 670.333Z" fill="#DFBCA3"/>
<path d="M110 593L87.3337 654.333L60.667 615.667L110 593Z" fill="#CFEB87"/>
<path d="M158.001 577L110.001 643.667L87.334 654.333L110.001 593L158.001 577Z" fill="#FDEDBB"/>
<path d="M199.333 750.333L264.667 702.333L158 650.333L199.333 750.333Z" fill="#F3C5BD"/>
<path d="M99.334 721L158.001 650.333L199.334 750.333L172.667 782.333L99.334 721Z" fill="#F6DAC3"/>
<path d="M154.001 895.667L172.667 782.333L99.334 721L110.001 790.333L154.001 895.667Z" fill="#FDD591"/>
<path d="M262 834.333L199.334 750.333L172.667 782.333L262 834.333Z" fill="#FF85B7"/>
<path d="M195.334 881L262 834.333L172.667 782.333L195.334 881Z" fill="#ED88A6"/>
<path d="M207.334 999.667L195.334 881L262.001 834.333L207.334 999.667Z" fill="#DA779C"/>
<path d="M96.667 914.333L207.334 999.667L195.334 881L172.667 782.333L154 895.667L96.667 914.333Z" fill="#E3A99D"/>
<path d="M132.667 1045L207.334 999.667L96.667 914.333L132.667 1045Z" fill="#D59D92"/>
<path d="M275.334 971.667L262.001 1039.67L207.334 999.667L275.334 971.667Z" fill="#C7867C"/>
<path d="M308.667 1045L311.334 939.667L336.667 873L356.667 962.333L308.667 1045Z" fill="#8E4A5D"/>
<path d="M275.334 971.667L308.667 1045L311.334 939.667L292.667 890.333L275.334 971.667Z" fill="#BD807E"/>
<path d="M262.001 834.333L292.667 890.333L275.334 971.667L207.334 999.667L262.001 834.333Z" fill="#D98F94"/>
<path d="M308.667 806.333L336.667 873L292.667 890.333L308.667 806.333Z" fill="#C98A88"/>
<path d="M311.334 939.667L292.667 890.333L336.667 873L311.334 939.667Z" fill="#C88881"/>
<path d="M370 983.667L352.667 1017L403.334 1035.67L370 983.667Z" fill="#C28377"/>
<path d="M412.667 899.667V1009L488.667 958.333L412.667 899.667Z" fill="#C88E7B"/>
<path d="M356.667 962.333L412.667 899.667V1009L356.667 962.333Z" fill="#C28377"/>
<path d="M372.667 809L412.667 899.667L336.667 873L372.667 809Z" fill="#B97C73"/>
<path d="M488.667 958.333L444.667 885L412.667 899.667L488.667 958.333Z" fill="#D59B88"/>
<path d="M372.667 809L444.667 885L412.667 899.667L372.667 809Z" fill="#D29885"/>
<path d="M336.667 873L412.667 899.667L356.667 962.333L336.667 873Z" fill="#B97971"/>
<path d="M412.667 1009L495.334 1045L488.667 958.333L412.667 1009Z" fill="#B27169"/>
<path d="M482 862.333L488.667 958.333L444.667 885L482 862.333Z" fill="#CC8F7E"/>
<path d="M372.667 809L482 862.333L444.667 885L372.667 809Z" fill="#CC8D7D"/>
<path d="M508.667 950.333L482 862.333L571.333 950.333H508.667Z" fill="#BA806E"/>
<path d="M507.334 974.333L526.001 1039.67L564.667 1001L507.334 974.333Z" fill="#B5746A"/>
<path d="M372.667 809L423.334 782.333L482 862.333L372.667 809Z" fill="#C37778"/>
<path d="M535.334 834.333L548.667 875.667H614.001L535.334 834.333Z" fill="#CC7E7D"/>
<path d="M423.334 782.333L492.667 831.667L423.334 739.667V782.333Z" fill="#BC4885"/>
<path d="M343.334 723.667L372.667 809L336.667 873L308.667 806.333L343.334 723.667Z" fill="#E2B7AC"/>
<path d="M264.667 702.333L308.667 806.333L292.667 890.333L262.001 834.333L199.334 750.333L264.667 702.333Z" fill="#ECB5B7"/>
<path d="M343.334 723.667L308.667 806.333L264.667 702.333L343.334 723.667Z" fill="#E86BA3"/>
<path d="M423.334 782.333L372.667 809L343.334 723.667L423.334 782.333Z" fill="#D08D89"/>
<path d="M423.334 739.667L383.334 705L423.334 782.333V739.667Z" fill="#C6469C"/>
<path d="M336.667 661L383.334 705L423.334 782.333L343.334 723.667L336.667 661Z" fill="#D1797C"/>
<path d="M292.667 615.667L336.667 661L343.334 723.667L264.667 702.333L292.667 615.667Z" fill="#E64CAF"/>
<path d="M158 577V650.333L216.667 679.667L223.333 595.667L158 577Z" fill="#FFF3E4"/>
<path d="M110.001 643.667L158.001 577V650.333L99.334 721L110.001 643.667Z" fill="#FCF4D1"/>
<path d="M336.667 661L380.667 606.333L339.334 614.333L336.667 661Z" fill="#270A1C"/>
<path d="M292.667 615.667L339.334 614.333L336.667 661L292.667 615.667Z" fill="#2D0E1A"/>
<path d="M314 585L339.334 614.333L292.667 615.667L314 585Z" fill="#310B20"/>
<path d="M359.334 565L380.667 606.333L418.001 577L359.334 565Z" fill="#320D23"/>
<path d="M314 585L359.333 565L380.667 606.333L339.333 614.333L314 585Z" fill="#2D0E20"/>
<path d="M292.667 615.667L314 585L250 587.667L292.667 615.667Z" fill="#2A1022"/>
<path d="M211.334 514.333L250.001 587.667L207.334 577L211.334 514.333Z" fill="#68223A"/>
<path d="M163.333 559.667L207.333 577H158L163.333 559.667Z" fill="#2D0E1A"/>
<path d="M211.334 514.333L163.334 559.667L207.334 577L211.334 514.333Z" fill="#672140"/>
<path d="M134 514.333L163.333 559.667L211.333 514.333H134Z" fill="#9A454D"/>
<path d="M110 593L111.333 537L163.333 559.667L158 577L110 593Z" fill="#301537"/>
<path d="M71.334 478.333L134.001 514.333L163.334 559.667L111.334 537L80.6673 519.667L71.334 478.333Z" fill="#783144"/>
<path d="M38 483.667L71.3333 478.333L80.6667 518.333L38 483.667Z" fill="#642043"/>
<path d="M28.667 437L38.0003 483.667L71.3337 478.333L28.667 437Z" fill="#59244D"/>
<path d="M3.33398 450.333L28.6673 437L38.0006 483.667L3.33398 450.333Z" fill="#3C1848"/>
<path d="M0.666992 422.333L3.33366 450.333L28.667 437L0.666992 422.333Z" fill="#59244D"/>
<path d="M211.334 514.333L210.001 446.333L171.334 458.333L211.334 514.333Z" fill="#B26F6D"/>
<path d="M164.667 514.333L171.334 458.333L211.334 514.333H164.667Z" fill="#9D5356"/>
<path d="M250 587.667L264.667 478.333L210 446.333L211.333 514.333L250 587.667Z" fill="#8D414F"/>
<path d="M314 585L264.667 478.333L250 587.667L314 585Z" fill="#6F2640"/>
<path d="M359.334 565L343.334 483.667L264.667 478.333L314 585L359.334 565Z" fill="#692344"/>
<path d="M418.001 577L403.334 558.333L343.334 483.667L359.334 565L418.001 577Z" fill="#331126"/>
<path d="M468.667 474.333L436.667 523.667L484.667 514.333L468.667 474.333Z" fill="#180710"/>
<path d="M463.334 527.667V573L484.667 530.333L463.334 527.667Z" fill="#230C32"/>
<path d="M534 537L562 514.333V543.667L534 537Z" fill="#22061E"/>
<path d="M515.334 551.667L488.667 585L534 570.333L515.334 551.667Z" fill="#6F4056"/>
<path d="M484.667 530.333L488.667 585L515.334 551.667L484.667 530.333Z" fill="#260E3A"/>
<path d="M534.001 537V570.333L515.334 551.667L534.001 537Z" fill="#401B43"/>
<path d="M484.667 530.333L534 537L515.334 551.667L484.667 530.333Z" fill="#401B43"/>
<path d="M534 570.333L562 543.667L534 537V570.333Z" fill="#1D001C"/>
<path d="M499.334 459.667L484.667 514.333L539.334 482.333L499.334 459.667Z" fill="#291229"/>
<path d="M562 514.333H484.667L539.334 482.333L562 514.333Z" fill="#2C0F28"/>
<path d="M484.667 530.333V514.333L534 537L484.667 530.333Z" fill="#481C44"/>
<path d="M562 514.333L534 537L484.667 514.333H562Z" fill="#200725"/>
<path d="M578.001 503.667L562.001 514.333L539.334 482.333L578.001 503.667Z" fill="#A65652"/>
<path d="M562 543.667L582 533L562 514.333V543.667Z" fill="#462342"/>
<path d="M578 503.667L582 533L562 514.333L578 503.667Z" fill="#4B1D3E"/>
<path d="M562 543.667V570.333L582 533L562 543.667Z" fill="#411437"/>
<path d="M534 570.333H562V543.667L534 570.333Z" fill="#521A3D"/>
<path d="M488.667 585L492.667 597L534 570.333L488.667 585Z" fill="#572246"/>
<path d="M562 570.333H534L492.667 597L562 570.333Z" fill="#4D213F"/>
<path d="M484.667 530.333L463.334 573L488.667 585L484.667 530.333Z" fill="#4D2446"/>
<path d="M492.667 597L438 595.667L418 577L463.333 573L488.667 585L492.667 597Z" fill="#6F2E4D"/>
<path d="M403.334 558.333H440.667L463.334 573L418.001 577L403.334 558.333Z" fill="#855057"/>
<path d="M463.334 527.667L440.667 558.333L463.334 573V527.667Z" fill="#783A4E"/>
<path d="M436.667 523.667L440.667 558.333H403.334L436.667 523.667Z" fill="#31152F"/>
<path d="M463.334 527.667L436.667 523.667L440.667 558.333L463.334 527.667Z" fill="#37162F"/>
<path d="M484.667 514.333V530.333L463.334 527.667L436.667 523.667L484.667 514.333Z" fill="#37142F"/>
<path d="M499.334 459.667L484.667 514.333L468.667 474.333L499.334 459.667Z" fill="#260725"/>
<path d="M410.001 503.667L436.667 523.667L403.334 558.333L410.001 503.667Z" fill="#250A17"/>
<path d="M381.201 531L410.001 503.667L403.335 558.333L381.201 531Z" fill="#250A1C"/>
<path d="M410.001 479.667V503.667L380.667 531.667L343.334 483.667L410.001 479.667Z" fill="#2A0E23"/>
<path d="M468.667 474.333L436.667 523.667L410 503.667V479.667L468.667 474.333Z" fill="#26091C"/>
<path d="M499.334 459.667L487.334 419.667L468.667 474.333L499.334 459.667Z" fill="#2A0725"/>
<path d="M508.667 401L499.334 459.667L487.334 419.667L508.667 401Z" fill="#522D50"/>
<path d="M551.334 375.667L499.334 459.667L508.667 401L551.334 375.667Z" fill="#351F3F"/>
<path d="M367.334 381L376.667 446.333L468.667 474.333L367.334 381Z" fill="#35132B"/>
<path d="M320.667 421L343.334 483.667L376.667 446.333L320.667 421Z" fill="#4B1539"/>
<path d="M468.667 474.333L376.667 446.333L343.334 483.667L410.001 479.667L468.667 474.333Z" fill="#230A16"/>
<path d="M264.667 478.333L320.667 421L343.334 483.667L264.667 478.333Z" fill="#521C41"/>
<path d="M367.334 381L376.667 446.333L320.667 421L367.334 381Z" fill="#5F1F3F"/>
<path d="M487.334 419.667L439.334 405L509.669 400.405L487.334 419.667Z" fill="#432C3A"/>
<path d="M478 373V391.667L508.667 401L478 373Z" fill="#421059"/>
<path d="M418 375.667L439.333 405L508.667 401L478 391.667L418 375.667Z" fill="#2D6C36"/>
<path d="M367.334 381L439.334 405L418.001 375.667L367.334 381Z" fill="#3D654B"/>
<path d="M468.667 474.333L487.334 419.667L367.334 381L468.667 474.333Z" fill="#482842"/>
<path d="M362 357L367.333 381L418 375.667L362 357Z" fill="#989629"/>
<path d="M391.334 338.333L418.001 375.667L427.334 355.667L391.334 338.333Z" fill="#14B0BA"/>
<path d="M362 357L391.333 338.333L418 375.667L362 357Z" fill="#03B4D6"/>
<path d="M427.333 355.667L478 373V391.667L418 375.667L427.333 355.667Z" fill="#4C2C6E"/>
<path d="M551.333 375.667L478 373L508.667 401L551.333 375.667Z" fill="#311444"/>
<path d="M524.667 351.667L551.333 375.667L478 373L524.667 351.667Z" fill="#260333"/>
<path d="M492.667 325L524.667 351.667L478 373L492.667 325Z" fill="#501146"/>
<path d="M427.334 331.667L492.667 325L478.001 373L427.334 331.667Z" fill="#4C144C"/>
<path d="M391.334 338.333L427.334 355.667L478.001 373L427.334 331.667L391.334 338.333Z" fill="#87386F"/>
<path d="M376.667 299.667L391.334 338.333L427.334 331.667L376.667 299.667Z" fill="#9A2963"/>
<path d="M367.334 322.333L376.667 299.667L391.334 338.333L367.334 322.333Z" fill="#1D1715"/>
<path d="M362 357L367.333 322.333L391.333 338.333L362 357Z" fill="#E2A631"/>
<path d="M399.334 315.667L492.667 325L427.334 331.667L399.334 315.667Z" fill="#0A020A"/>
<path d="M395.334 291.667L398.001 315.667L492.667 325L395.334 291.667Z" fill="#87386F"/>
<path d="M376.667 299.667L395.334 291.667L398 315.667L376.667 299.667Z" fill="#0A0B1F"/>
<path d="M492.667 279.667V325L472.667 303.667L492.667 279.667Z" fill="#9A6901"/>
<path d="M468.667 266.333L472.667 303.667L492.667 279.667L468.667 266.333Z" fill="#A5620E"/>
<path d="M551.334 261L492.667 325V279.667L551.334 261Z" fill="#6A345D"/>
<path d="M551.334 375.667V261L492.667 325L524.667 351.667L551.334 375.667Z" fill="#4B2548"/>
<path d="M560.667 221L551.334 261L580.667 355.667L579.334 279.667L560.667 221Z" fill="#422543"/>
<path d="M551.334 375.667V261L580.667 355.667L551.334 375.667Z" fill="#170B19"/>
<path d="M579.334 279.667L624.667 323.667L580.667 355.667L579.334 279.667Z" fill="#10080B"/>
<path d="M624.667 266.333V323.667L579.334 279.667L560.667 221L624.667 266.333Z" fill="#5B3450"/>
<path d="M624.667 217V266.333L594.079 244.667L624.667 217Z" fill="#5A334F"/>
<path d="M592.667 170.333L624.667 217L594 245L592.667 170.333Z" fill="#53314B"/>
<path d="M578.001 503.667L551.334 375.667L499.334 459.667L539.334 482.333L578.001 503.667Z" fill="#150516"/>
<path d="M634.001 441L551.334 375.667L578.001 503.667L634.001 441Z" fill="#150516"/>
<path d="M624.667 323.667L683.334 378.333L667.334 414.333L634.001 441L551.334 375.667L624.667 323.667Z" fill="#060305"/>
<path d="M624.667 266.333L686 319.667L683.334 378.333L624.667 323.667V266.333Z" fill="#190A1A"/>
<path d="M686 227.667L624.667 266.333L686 319.667L702 261L686 227.667Z" fill="#261E42"/>
<path d="M624.667 217V266.333L686 227.667L624.667 217Z" fill="#2B2347"/>
<path d="M683.334 378.333L710.001 323.667L723.334 273L710.001 207.667L683.334 155.667L686.001 227.667L702.001 261L686.001 319.667L683.334 378.333Z" fill="#060404"/>
<path d="M592.667 170.333L655.334 189L686 227.667L624.667 217L592.667 170.333Z" fill="#87587C"/>
<path d="M639.334 129L655.334 189L686.001 227.667L683.334 155.667L639.334 129Z" fill="#241B44"/>
<path d="M572.667 143.667L592.667 170.333L655.334 189L614 154.333L572.667 143.667Z" fill="#8A597E"/>
<path d="M639.333 129L614 154.333L655.333 189L639.333 129Z" fill="#4A384B"/>
<path d="M654.001 110.333L683.334 155.667L639.334 129L654.001 110.333Z" fill="#48354A"/>
<path d="M572.667 143.667L560.667 221L594 245L592.667 170.333L572.667 143.667Z" fill="#AE7C79"/>
<path d="M600.667 117L614 154.333L572.667 143.667L600.667 117Z" fill="#47384C"/>
<path d="M639.334 129L616.667 86.3333L654 110.333L639.334 129Z" fill="#513740"/>
<path d="M600.667 117L639.334 129L614 154.333L600.667 117Z" fill="#4B364C"/>
<path d="M572.667 110.333V143.667L600.667 117L572.667 110.333Z" fill="#4A394E"/>
<path d="M616.667 86.3333L600.667 117L639.334 129L616.667 86.3333Z" fill="#826462"/>
<path d="M572.667 77V110.333L600.667 117L572.667 77Z" fill="#816366"/>
<path d="M616.667 86.3333L600.667 117L572.667 77L616.667 86.3333Z" fill="#816366"/>
<path d="M546 92.9999L572.667 76.9999V110.333L546 92.9999Z" fill="#7E5E5E"/>
<path d="M534 61L572.667 77L546 93L534 61Z" fill="#623F54"/>
<path d="M616.667 86.3333L560.667 48.9999L572.667 76.9999L616.667 86.3333Z" fill="#664455"/>
<path d="M534 61L560.667 49L572.667 77L534 61Z" fill="#704457"/>
<path d="M484.667 217L492.667 279.667L551.334 261L484.667 217Z" fill="#8E505B"/>
<path d="M572.667 143.667L484.667 217L560.667 221L572.667 143.667Z" fill="#CFA392"/>
<path d="M551.334 261L484.667 217L560.667 221L551.334 261Z" fill="#A17166"/>
<path d="M468.667 234.333L492.667 279.667L468.667 266.333L452.667 243.667L468.667 234.333Z" fill="#010D2A"/>
<path d="M484.667 217L468.667 234.333L492.667 279.667L484.667 217Z" fill="#8B4140"/>
<path d="M472.667 303.667L468.667 266.333L410 254.333L460.667 291.667L472.667 303.667Z" fill="#211945"/>
<path d="M424.667 291.667L410 254.333L460.667 290.333L424.667 291.667Z" fill="#0C0812"/>
<path d="M388.667 257L395.334 291.667H424.667L388.667 257Z" fill="#12132F"/>
<path d="M360.667 269L388.667 257L395.334 291.667L360.667 269Z" fill="#214A4F"/>
<path d="M428.667 211.667V258.333L468.667 266.333L452.667 243.667L428.667 211.667Z" fill="#204E8C"/>
<path d="M410 254.333L428.667 211.667V258.333L410 254.333Z" fill="#12245F"/>
<path d="M468.667 234.333L428.667 211.667L452.667 243.667L468.667 234.333Z" fill="#BB6F97"/>
<path d="M484.667 217L428.667 211.667L468.667 234.333L484.667 217Z" fill="#742A34"/>
<path d="M428.667 182.333V211.667L484.667 217L428.667 182.333Z" fill="#C47452"/>
<path d="M448.667 170.333L484.667 217L428.667 182.333L448.667 170.333Z" fill="#D37F71"/>
<path d="M403.334 211.667L428.667 182.333V211.667H403.334Z" fill="#8B5DA3"/>
<path d="M410.001 254.333L403.334 211.667H428.667L410.001 254.333Z" fill="#732F9C"/>
<path d="M388.667 257L410 254.333L424.667 291.667L388.667 257Z" fill="#443C63"/>
<path d="M372.667 221L410 254.333L388.667 257L372.667 221Z" fill="#495D82"/>
<path d="M360.667 269L372.667 221L388.667 257L360.667 269Z" fill="#C7F2F9"/>
<path d="M403.333 211.667L358 178.333L428.667 182.333L403.333 211.667Z" fill="#401D64"/>
<path d="M372.667 221L358 178.333L403.333 211.667L410 254.333L372.667 221Z" fill="#16094E"/>
<path d="M310 234.333L372.667 221L360.667 269L310 234.333Z" fill="#C6FCFF"/>
<path d="M376.667 299.667L335.334 251.667L395.334 291.667L376.667 299.667Z" fill="#1B2239"/>
<path d="M367.334 322.333L335.334 289L376.667 299.667L367.334 322.333Z" fill="#0E0418"/>
<path d="M335.334 251.667V289L376.667 299.667L335.334 251.667Z" fill="#0A0106"/>
<path d="M310 234.333L315.333 274.333L335.333 289V251.667L310 234.333Z" fill="#7D5082"/>
<path d="M362.001 357L323.334 322.333L335.334 289L367.334 322.333L362.001 357Z" fill="#2BCDDB"/>
<path d="M307.334 355.667L323.334 322.333L362.001 357L307.334 355.667Z" fill="#DFCDCB"/>
<path d="M320.667 421L307.334 355.667L367.334 381L320.667 421Z" fill="#B75E57"/>
<path d="M362.001 357L307.334 355.667L367.334 381L362.001 357Z" fill="#CD866C"/>
<path d="M264.667 478.333L307.334 355.667L320.667 421L264.667 478.333Z" fill="#A9495E"/>
<path d="M242 369L307.333 355.667L264.667 478.333L242 369Z" fill="#C57776"/>
<path d="M210 446.333L218 414.333L264.667 478.333L210 446.333Z" fill="#AE6869"/>
<path d="M116.667 422.333L171.334 458.333L164.667 514.333L136.667 474.333L116.667 422.333Z" fill="#A7605C"/>
<path d="M71.334 478.333L136.667 474.333L164.667 514.333H134.001L71.334 478.333Z" fill="#A4595E"/>
<path d="M28.667 437L103.334 429V463.667L28.667 437Z" fill="#E4B4A0"/>
<path d="M136.667 474.333L103.334 463.667L116.667 422.333L136.667 474.333Z" fill="#B87D6E"/>
<path d="M71.3337 478.333L28.667 437L136.667 474.333L71.3337 478.333Z" fill="#B9706E"/>
<path d="M0.666992 422.333L55.3337 375.667L28.667 437L0.666992 422.333Z" fill="#EFCFBB"/>
<path d="M86.0003 399.667L28.667 437L103.334 429L86.0003 399.667Z" fill="#F8DFD7"/>
<path d="M20.667 367.667L0.666992 422.333L55.3337 375.667L20.667 367.667Z" fill="#F6CAB3"/>
<path d="M86.0003 399.667L55.3337 375.667L28.667 437L86.0003 399.667Z" fill="#FCE9E0"/>
<path d="M116.667 422.333L86 399.667L103.333 429V463.667L116.667 422.333Z" fill="#A7605C"/>
<path d="M218.001 414.333L210.001 446.333L175.334 411.667L218.001 414.333Z" fill="#B87D70"/>
<path d="M171.334 458.333L210 446.333L175.334 411.667L158 414.333L116.667 422.333L171.334 458.333Z" fill="#BB7E73"/>
<path d="M242.001 367.667L264.667 478.333L218.001 414.333L175.334 411.667L218.001 359.667L242.001 367.667Z" fill="#DDA18F"/>
<path d="M154 393L175.333 411.667L158 414.333L154 393Z" fill="#B13C6E"/>
<path d="M102 387.667L116.667 422.333L158 414.333L102 387.667Z" fill="#7E4454"/>
<path d="M86 399.667L102 387.667L116.667 422.333L86 399.667Z" fill="#5A2F47"/>
<path d="M55.334 375.667L102.001 387.667L86.0006 399.667L55.334 375.667Z" fill="#6B3457"/>
<path d="M20.667 367.667L52.667 305L54.0003 331.667L55.3337 350.333L20.667 367.667Z" fill="#E4B3A4"/>
<path d="M55.3337 375.667L20.667 367.667L55.3337 350.333V375.667Z" fill="#C9AB93"/>
<path d="M102 387.667L68.6667 359.667L55.2334 348.627L55.3334 375.667L102 387.667Z" fill="#400023"/>
<path d="M154 393L158 414.333L102 387.667L154 393Z" fill="#F66793"/>
<path d="M175.334 411.667L171.334 379.667L140.667 362.333L154 393L175.334 411.667Z" fill="#5B012F"/>
<path d="M55.334 349L76.6673 331.667L68.6673 359.667L55.334 349Z" fill="#F4417D"/>
<path d="M54 331.667H76.6667L55.3333 349L54 331.667Z" fill="#E83B72"/>
<path d="M98.0003 345L68.667 359.667L76.667 331.667L98.0003 345Z" fill="#FFBDD3"/>
<path d="M102 387.667L91.3337 367.667L68.667 359.667L102 387.667Z" fill="#D41757"/>
<path d="M98.0003 345L91.3337 367.667L68.667 359.667L98.0003 345Z" fill="#E61856"/>
<path d="M154.001 393L91.334 367.667L102.001 387.667L154.001 393Z" fill="#F9437E"/>
<path d="M126.001 362.333L154.001 393L91.334 367.667L98.0007 345L126.001 362.333Z" fill="#FDAD99"/>
<path d="M140.667 362.333L152.667 335.667L126 362.333H140.667Z" fill="#631A3D"/>
<path d="M154 393L126 362.333H140.667L154 393Z" fill="#35030A"/>
<path d="M108.667 317L126 362.333L98.0003 345L76.667 331.667L108.667 317Z" fill="#6A002C"/>
<path d="M130 315.667L126 362.333L108.667 317L130 315.667Z" fill="#88022C"/>
<path d="M152.667 335.667L126 362.333L130 315.667L152.667 335.667Z" fill="#600022"/>
<path d="M171.334 379.667L140.667 362.333L152.667 335.667L171.334 379.667Z" fill="#6E022E"/>
<path d="M54 331.667L96.6667 299.667L76.6667 331.667H54Z" fill="#7D0A2D"/>
<path d="M108.667 317L119.334 299.667H96.667L108.667 317Z" fill="#A60A40"/>
<path d="M76.667 331.667L96.667 299.667L108.667 317L76.667 331.667Z" fill="#A00140"/>
<path d="M130 315.667L119.334 299.667L108.667 317L130 315.667Z" fill="#B90241"/>
<path d="M152.667 335.667L146 317L130 315.667L152.667 335.667Z" fill="#D0154E"/>
<path d="M119.334 299.667H144.667L130.001 315.667L119.334 299.667Z" fill="#C18876"/>
<path d="M146 317L144.667 299.667L130 315.667L146 317Z" fill="#E08B82"/>
<path d="M152.667 335.667L187.333 322.333L146 317L152.667 335.667Z" fill="#DE9E9A"/>
<path d="M144.667 299.667L168.667 293L146 317L144.667 299.667Z" fill="#C68B83"/>
<path d="M187.333 322.333L168.667 293L146 317L187.333 322.333Z" fill="#D2AB9E"/>
<path d="M144.667 299.667L150.001 267.667L135.334 283.667L119.334 299.667H144.667Z" fill="#CA8D80"/>
<path d="M136.667 241L150.001 267.667L135.334 283.667L136.667 241Z" fill="#96566A"/>
<path d="M168.667 293V269L150 267.667L144.667 299.667L168.667 293Z" fill="#461932"/>
<path d="M187.334 322.333L207.334 317L168.667 293L187.334 322.333Z" fill="#6C315E"/>
<path d="M191.334 278.333L207.334 317L228.667 309L191.334 278.333Z" fill="#79394D"/>
<path d="M187.334 304.586L191.334 278.334L207.334 317L187.334 304.586Z" fill="#703541"/>
<path d="M200.667 266.333L191.334 278.333L228.667 309L200.667 266.333Z" fill="#7C4451"/>
<path d="M168.667 269V293L187.334 305L191.334 278.333L168.667 269Z" fill="#0D0004"/>
<path d="M136.667 241L168.667 269L150 267.667L136.667 241Z" fill="#41102A"/>
<path d="M175.334 241L191.334 278.333L200.667 266.333L175.334 241Z" fill="#722E46"/>
<path d="M136.667 241L168.667 269L191.334 278.333L175.334 241H136.667Z" fill="#763853"/>
<path d="M76.667 265L52.667 305L54.0003 331.667L76.667 265Z" fill="#F1D3C1"/>
<path d="M120.667 250.333L135.333 283.667L119.333 299.667H98L54 331.667L76.6667 265L120.667 250.333Z" fill="#FBCEB4"/>
<path d="M136.667 241L135.334 283.667L119.334 250.333L136.667 241Z" fill="#FFDCC8"/>
<path d="M76.667 265L96.667 226.333L119.334 191.667H138L116.667 219.667L119.334 250.333L76.667 265Z" fill="#FFE37B"/>
<path d="M156.667 201L136.667 241L119.334 250.333L116.667 219.667L156.667 201Z" fill="#FFD4C8"/>
<path d="M210 191.667L136.667 241L156.667 201L210 191.667Z" fill="#EEE1C9"/>
<path d="M138 191.667L116.667 219.667L156.667 201L138 191.667Z" fill="#F9D2C2"/>
<path d="M175.334 241L218.001 255.667L200.667 266.333L175.334 241Z" fill="#F4C9BC"/>
<path d="M210 191.667L176.667 241H136.667L210 191.667Z" fill="#FFEBDB"/>
<path d="M218 209V255.667L176.667 241L218 209Z" fill="#E9C1AE"/>
<path d="M210 191.667L218 209L176.667 241L210 191.667Z" fill="#FFF5EE"/>
<path d="M228.667 309L242.001 369L207.334 317L228.667 309Z" fill="#DEB5A6"/>
<path d="M175.334 411.667L171.334 379.667L152.667 335.667L187.334 322.333L207.334 317L242 369L218 359.667L175.334 411.667Z" fill="#EEC8B5"/>
<path d="M307.334 355.667L228.667 309L242 369L307.334 355.667Z" fill="#F1D0C3"/>
<path d="M323.333 322.333L290 255.667L254 290.333L323.333 322.333Z" fill="#FAEAD9"/>
<path d="M335.333 289L290 255.667L323.333 322.333L335.333 289Z" fill="#F7DFD2"/>
<path d="M307.334 355.667L323.334 322.333L228.667 309L307.334 355.667Z" fill="#FAEAD9"/>
<path d="M254 290.333L228.667 309L323.334 322.333L254 290.333Z" fill="#F1D0C3"/>
<path d="M372.667 221L318 191.667L358 178.333L372.667 221Z" fill="#060404"/>
<path d="M318 191.667L288.667 211.667L320.667 219.667L318 191.667Z" fill="#007770"/>
<path d="M372.667 221L318 191.667V221H372.667Z" fill="#013947"/>
<path d="M403.334 143.667L428.667 182.333L384.667 161L403.334 143.667Z" fill="#61485C"/>
<path d="M448.667 170.333L403.334 143.667L428.667 182.333L448.667 170.333Z" fill="#8A5464"/>
<path d="M384.667 161L358 178.333L428.667 182.333L384.667 161Z" fill="#2C494F"/>
<path d="M318 191.667L346 162.333L358 178.333L318 191.667Z" fill="#005C55"/>
<path d="M384.667 161L358 178.333L346 162.333L384.667 161Z" fill="#055650"/>
<path d="M360.667 139.667L384.667 161L346 162.333L360.667 139.667Z" fill="#616C64"/>
<path d="M403.334 143.667L360.667 139.667L384.667 161L403.334 143.667Z" fill="#C7908C"/>
<path d="M394 97.0001L403.334 143.667L360.667 139.667L394 97.0001Z" fill="#F7DCD0"/>
<path d="M292.667 129L306 98.3333L324.667 53L280.667 97L292.667 129Z" fill="#FD6B6B"/>
<path d="M360.667 139.667L292.667 129L306 98.3334L360.667 139.667Z" fill="#EFCABD"/>
<path d="M346 162.333L292.667 129L360.667 139.667L346 162.333Z" fill="#E3BAAC"/>
<path d="M280.667 97L278 123.667L292.667 129L280.667 97Z" fill="#F63451"/>
<path d="M251.334 143.667L280.667 97L275.334 149L251.334 143.667Z" fill="#470F3C"/>
<path d="M238 177L275.333 149L251.333 143.667L238 177Z" fill="#180F25"/>
<path d="M240.667 126.333L238 177L251.333 143.667L240.667 126.333Z" fill="#653C54"/>
<path d="M251.334 93.0001L240.667 126.333L251.334 143.667V93.0001Z" fill="#10582C"/>
<path d="M280.667 97.0001L251.334 93.0001V143.667L280.667 97.0001Z" fill="#6A1248"/>
<path d="M267.334 73L280.667 97L251.334 93L267.334 73Z" fill="#470F3C"/>
<path d="M216.667 98.3333L251.334 92.9999L240.667 126.333L216.667 98.3333Z" fill="#087C2C"/>
<path d="M284.667 63.6667L280.667 97L267.334 73L284.667 63.6667Z" fill="#611240"/>
<path d="M324.667 53L284.667 63.6667L280.667 97L324.667 53Z" fill="#FF6E81"/>
<path d="M206 126.333L216.667 98.3333L240.667 126.333H206Z" fill="#6A4359"/>
<path d="M179.334 153L206.001 126.333H240.667L238.001 177L179.334 153Z" fill="#C09A97"/>
<path d="M210 191.667L176.667 181L156.667 201L210 191.667Z" fill="#F84764"/>
<path d="M138 191.667L176.667 181L156.667 201L138 191.667Z" fill="#FB8D89"/>
<path d="M164.667 162.333L176.667 181L138 191.667L164.667 162.333Z" fill="#FA9BA0"/>
<path d="M119.334 191.667L164.667 162.333L138.001 191.667H119.334Z" fill="#EFB59F"/>
<path d="M176.667 181L238 177L210 191.667L176.667 181Z" fill="#600C1F"/>
<path d="M164.667 162.333L238 177L176.667 181L164.667 162.333Z" fill="#590015"/>
<path d="M179.334 153L164.667 162.333L238 177L179.334 153Z" fill="#140F31"/>
<path d="M196.667 117L179.334 153L206.001 126.333L196.667 117Z" fill="#44304E"/>
<path d="M166 127.667L179.334 153L164.667 162.333L166 127.667Z" fill="#0F0A18"/>
<path d="M216.667 98.3333L196.667 117L206 126.333L216.667 98.3333Z" fill="#120B0F"/>
<path d="M251.333 93L238 60.3333L267.333 73L251.333 93Z" fill="#734E63"/>
<path d="M216.667 98.3333V82.3333L238 60.3333L251.334 92.9999L216.667 98.3333Z" fill="#365F52"/>
<path d="M196.667 117L216.667 82.3333V98.3333L196.667 117Z" fill="#40B050"/>
<path d="M267.333 73L266 53L284.667 63.6667L267.333 73Z" fill="#F8EADA"/>
<path d="M238 60.3333L266 53L267.333 73L238 60.3333Z" fill="#F8D6C5"/>
<path d="M324.667 53.0001L358 59.6668L394 97.0001L360.667 139.667L306 98.3334L324.667 53.0001Z" fill="#F8EADA"/>
<path d="M294 35.6667L284.667 63.6667L266 53.0001L294 35.6667Z" fill="#F9E4CD"/>
<path d="M324.667 53L358 17L394 66.3333V97L358 59.6667L324.667 53Z" fill="#FAEADB"/>
<path d="M294 35.6667L358 17.0001L324.667 53.0001L284.667 63.6667L294 35.6667Z" fill="#F7E3D1"/>
<path d="M404.667 10.3333L394 66.3333L358 16.9999L404.667 10.3333Z" fill="#FAE5D8"/>
<path d="M422 19.6666L394 66.3333L404.667 10.3333L422 19.6666Z" fill="#FBD7C3"/>
<path d="M448.667 170.333L499.334 151.667L540.667 170.333L484.667 217L448.667 170.333Z" fill="#ECC6B0"/>
<path d="M534 61L472.667 30.3333L484.667 113L546 93L534 61Z" fill="#F8D6C2"/>
<path d="M572.667 110.333L518 135.667L572.667 143.667V110.333Z" fill="#EEC1A7"/>
<path d="M484.667 113L518 135.667L572.667 110.333L546 93.0001L484.667 113Z" fill="#E2BBA2"/>
<path d="M572.667 143.667L540.667 170.333L499.334 151.667L484.667 113L518 135.667L572.667 143.667Z" fill="#EAC3AD"/>
<path d="M403.334 143.667L484.667 113L499.334 151.667L448.667 170.333L403.334 143.667Z" fill="#F8DCCD"/>
<path d="M472.667 30.3333L511.334 22.3333L560.667 49L534 61L472.667 30.3333Z" fill="#8C6D74"/>
<path d="M422 19.6666L435.333 0.99992L472.667 30.3333L422 19.6666Z" fill="#9E867A"/>
<path d="M511.334 22.3333L435.334 0.99992L472.667 30.3333L511.334 22.3333Z" fill="#967178"/>
<path d="M391.333 0.333416L435.333 1.00008L422 19.6667L404.667 10.3334L390 0.333416H391.333Z" fill="#A99082"/>
<path d="M442 62.3333L472.667 30.3333L422 19.6666L442 62.3333Z" fill="#FBE1CB"/>
<path d="M394 97.0001L442 62.3334L484.667 113L403.333 143.667L394 97.0001Z" fill="#FBE3D7"/>
<path d="M422 19.6666L394 66.3333L442 62.3333L422 19.6666Z" fill="#FBE1CB"/>
<path d="M472.667 30.3333L442 62.3333L484.667 113L472.667 30.3333Z" fill="#FFE2D1"/>
<path d="M394 66.3333V97L442 62.3333L394 66.3333Z" fill="#FBE4D8"/>
<path d="M288.667 211.667L275.334 234.333H310.001L288.667 211.667Z" fill="#91AB9E"/>
<path d="M290 255.667L310 234.333L315.333 274.333L290 255.667Z" fill="#7D5082"/>
<path d="M275.334 234.333L290.001 255.667L310.001 234.333H275.334Z" fill="#F8D973"/>
<path d="M264.667 255.667H290L275.334 234.333L264.667 255.667Z" fill="#FAC9B0"/>
<path d="M243.334 226.333L264.667 255.667L275.334 234.333L243.334 226.333Z" fill="#D2A29E"/>
<path d="M254 290.333L264.667 255.667H290L254 290.333Z" fill="#F4D8C2"/>
<path d="M232.667 271.667L264.667 255.667L254 290.333L232.667 271.667Z" fill="#FFDBCF"/>
<path d="M228.667 309L232.667 271.667L254 290.333L228.667 309Z" fill="#DAAA97"/>
<path d="M243.334 226.333L232.667 271.667L264.667 255.667L243.334 226.333Z" fill="#D5A89C"/>
<path d="M218 255.667L232.667 271.667L200.667 266.333L218 255.667Z" fill="#E5A59E"/>
<path d="M228.667 309L232.667 271.667L200.667 266.333L228.667 309Z" fill="#DAA99C"/>
<path d="M283.334 181L288.667 211.667L318.001 191.667L283.334 181Z" fill="#9B685D"/>
<path d="M243.333 226.333L218 255.667L232.667 271.667L243.333 226.333Z" fill="#D5A89C"/>
<path d="M283.333 181L243.333 226.333L218 255.667V209L283.333 181Z" fill="#E5A59E"/>
<path d="M288.667 211.667L275.334 234.333L243.334 226.333L283.334 181L288.667 211.667Z" fill="#D2A99A"/>
<path d="M346.001 162.333L283.334 181L318.001 191.667L346.001 162.333Z" fill="#9E726B"/>
<path d="M238 177L264.667 189L210 191.667L238 177Z" fill="#FFFAFE"/>
<path d="M218 209L210 191.667L264.667 189L218 209Z" fill="#F1FBEE"/>
<path d="M275.333 149L264.667 189L238 177L275.333 149Z" fill="#EFD3BE"/>
<path d="M346 162.333L292.667 129L275.334 149L264.667 189L346 162.333Z" fill="#F0D6C3"/>
<path d="M278.001 123.667L292.667 129L275.334 149L278.001 123.667Z" fill="#F1D6C3"/>
<path d="M460.667 290.333L492.667 325L395.334 291.667L460.667 290.333Z" fill="#09001E"/>
<path d="M310 234.333L288.667 211.667L372.667 221L310 234.333Z" fill="#00867A"/>
<path d="M292.667 615.667L223.333 595.667L158 577H207.333L250 587.667L292.667 615.667Z" fill="#FAC8C1"/>
<path d="M264.667 702.333L216.667 679.667L223.334 595.667L292.667 615.667L264.667 702.333Z" fill="#FF7FCB"/>
</svg>
