<svg width="226" height="219" viewBox="0 0 226 219" fill="none" xmlns="http://www.w3.org/2000/svg">
<path d="M140.524 0.892176H74.2812L109.852 88.6455L140.524 0.892176Z" fill="#EF2F28"/>
<path d="M109 181.514L74.2812 0.892068L109.852 88.6454L109 181.514Z" fill="#ED1E24"/>
<path d="M140.524 0.892068L109 181.514L109.852 88.6454L140.524 0.892068Z" fill="#BE1E24"/>
<path d="M140.524 0.892068L109 181.514L189.087 84.3867L140.524 0.892068Z" fill="#EF2F28"/>
<path d="M109.001 181.514L74.282 0.892068L36.582 84.3867L109.001 181.514Z" fill="#EF2F28"/>
<path d="M140.524 0.892046L215.499 66.4947L189.087 84.3867L140.524 0.892046Z" fill="#ED1E24"/>
<path d="M0.797852 72.4587L74.2819 0.892046L36.5819 84.3867L0.797852 72.4587Z" fill="#EF342A"/>
<path d="M0.797852 72.4585V140.617L36.5819 84.3865L0.797852 72.4585Z" fill="#F2583A"/>
<path d="M225.722 140.288L215.499 66.4947L189.087 84.3868L225.722 140.288Z" fill="#BE1E24"/>
<path d="M157.989 171.289L109 181.514L189.087 84.3867L157.989 171.289Z" fill="#ED1E24"/>
<path d="M109.001 181.514L65.55 172.992L36.582 84.3867L109.001 181.514Z" fill="#ED1E24"/>
<path d="M109 181.514L65.5498 172.992L114.112 219L109 181.514Z" fill="#BE1E24"/>
<path d="M157.989 171.289L109 181.514L114.112 219L157.989 171.289Z" fill="#8C191D"/>
</svg>
