<svg width="1453" height="578" viewBox="0 0 1453 578" fill="none" xmlns="http://www.w3.org/2000/svg">
<g style="mix-blend-mode:difference">
<path d="M1169.73 348.838L1095.03 356.816L1132.43 447.567L1169.73 348.838Z" fill="#693C2C"/>
<path d="M1311.86 477.487L1261.42 492.443L1356.23 540.317L1311.86 477.487Z" fill="#603B32"/>
<path d="M115.912 37.6841L110.868 98.5186L159.266 46.6592L115.912 37.6841Z" fill="#D57C68"/>
<path d="M115.912 37.6841L94.731 69.5969L110.868 98.5186L115.912 37.6841Z" fill="#C46D5E"/>
<path d="M159.267 46.6592L174.399 79.5696L196.576 56.632L159.267 46.6592Z" fill="#DB8973"/>
<path d="M524.318 333.873L602.971 427.623L638.269 365.793L524.318 333.873Z" fill="#BC7B66"/>
<path d="M524.318 333.873L483.976 338.861L476.92 411.668L524.318 333.873Z" fill="#AD6E5E"/>
<path d="M419.444 305.952L418.433 327.895L473.897 305.952H419.444Z" fill="#9D594D"/>
<path d="M498.097 430.612L461.788 438.59L508.175 470.51L498.097 430.612Z" fill="#5A3C34"/>
<path d="M562.638 459.533L529.352 498.43L584.816 509.397L562.638 459.533Z" fill="#633B34"/>
<path d="M562.638 459.533L508.175 470.509L529.352 498.43L562.638 459.533Z" fill="#603A31"/>
<path d="M968.011 377.759L879.271 417.646L1000.29 405.68L968.011 377.759Z" fill="#85543B"/>
<path d="M665.49 450.556L584.816 509.397L707.844 465.521L665.49 450.556Z" fill="#5A3B32"/>
<path d="M498.097 430.612L508.175 470.51L562.638 459.533L498.097 430.612Z" fill="#4F312E"/>
<path d="M430.533 346.839L399.268 409.669L436.578 390.725L430.533 346.839Z" fill="#482B27"/>
<path d="M461.788 438.59L529.351 498.431L508.175 470.51L461.788 438.59Z" fill="#563A30"/>
<path d="M1343.19 435.601L1311.86 477.487L1356.23 540.317L1343.19 435.601Z" fill="#5D362C"/>
<path d="M358.936 324.906L328.682 364.793L399.268 409.669L358.936 324.906Z" fill="#623D32"/>
<path d="M1169.73 348.838L1261.41 492.442L1297.8 389.725L1169.73 348.838Z" fill="#794637"/>
<path d="M852.049 363.793L795.574 437.6L879.271 417.646L852.049 363.793Z" fill="#624136"/>
<path d="M1297.8 389.725L1311.86 477.487L1343.19 435.6L1297.8 389.725Z" fill="#79402D"/>
<path d="M602.97 427.623L562.638 459.533L584.816 509.397L602.97 427.623Z" fill="#442B26"/>
<path d="M602.97 427.623L584.816 509.397L665.49 450.556L602.97 427.623Z" fill="#472E29"/>
<path d="M602.97 427.623L498.097 430.612L562.638 459.533L602.97 427.623Z" fill="#9B5F4D"/>
<path d="M476.92 411.668L461.788 438.589L498.097 430.612L476.92 411.668Z" fill="#56382F"/>
<path d="M451.71 194.258L372.046 199.246L396.246 244.122L451.71 194.258Z" fill="#DF978B"/>
<path d="M1297.8 389.725L1261.42 492.442L1311.86 477.487L1297.8 389.725Z" fill="#593024"/>
<path d="M159.266 46.6592L110.868 98.5186L174.398 79.5696L159.266 46.6592Z" fill="#DC7D6B"/>
<path d="M399.268 409.669L529.352 498.431L461.788 438.59L399.268 409.669Z" fill="#623D32"/>
<path d="M436.578 390.725L461.788 438.59L476.92 411.668L436.578 390.725Z" fill="#563A30"/>
<path d="M436.578 390.725L399.268 409.669L461.788 438.59L436.578 390.725Z" fill="#644239"/>
<path d="M1095.03 356.816L1073.91 430.612L1132.43 447.567L1095.03 356.816Z" fill="#512F27"/>
<path d="M638.268 365.793L602.97 427.623L665.49 450.556L638.268 365.793Z" fill="#472C26"/>
<path d="M771.374 345.849L707.844 465.521L795.574 437.6L771.374 345.849Z" fill="#55332A"/>
<path d="M358.936 324.906L430.533 346.839L418.433 327.895L358.936 324.906Z" fill="#7B423E"/>
<path d="M358.936 324.906L399.268 409.669L430.533 346.839L358.936 324.906Z" fill="#52342A"/>
<path d="M955.912 202.235L941.791 315.929L1022.46 207.224L955.912 202.235Z" fill="#CC8C71"/>
<path d="M1358.25 347.839L1343.19 435.601L1356.23 540.317L1358.25 347.839Z" fill="#834A34"/>
<path d="M955.912 202.235L915.58 247.111L941.791 315.929L955.912 202.235Z" fill="#B37053"/>
<path d="M196.576 56.6318L212.719 91.5377L237.929 93.532L196.576 56.6318Z" fill="#DE977D"/>
<path d="M1358.25 347.839L1297.8 389.725L1343.19 435.601L1358.25 347.839Z" fill="#AE6847"/>
<path d="M1095.03 356.816L1000.29 405.68L1073.91 430.612L1095.03 356.816Z" fill="#51342D"/>
<path d="M1095.03 356.816L968.012 377.759L1000.29 405.68L1095.03 356.816Z" fill="#593529"/>
<path d="M1322.97 293.986L1254.44 330.884L1297.81 389.725L1322.97 293.986Z" fill="#BD6D49"/>
<path d="M1169.73 348.838L1132.43 447.567L1261.42 492.442L1169.73 348.838Z" fill="#472A1F"/>
<path d="M1321.96 234.145L1322.97 293.986L1358.25 240.133L1321.96 234.145Z" fill="#B87251"/>
<path d="M524.318 333.873L476.92 411.668L498.097 430.612L524.318 333.873Z" fill="#955A4A"/>
<path d="M524.318 333.873L498.097 430.612L602.97 427.623L524.318 333.873Z" fill="#AE6A55"/>
<path d="M771.375 345.849L795.574 437.6L852.049 363.793L771.375 345.849Z" fill="#462722"/>
<path d="M805.662 307.951L852.049 363.793L884.315 325.895L805.662 307.951Z" fill="#7C4E40"/>
<path d="M483.975 338.861L430.533 346.839L436.577 390.725L483.975 338.861Z" fill="#855747"/>
<path d="M483.975 338.861L436.578 390.725L476.92 411.668L483.975 338.861Z" fill="#875748"/>
<path d="M1254.44 330.884L1169.73 348.839L1297.8 389.725L1254.44 330.884Z" fill="#B16445"/>
<path d="M424.478 285.009L419.444 305.952H473.897L424.478 285.009Z" fill="#A8614D"/>
<path d="M400.278 311.94L358.936 324.906L418.433 327.895L400.278 311.94Z" fill="#BB7C74"/>
<path d="M419.444 305.952L400.279 311.94L418.433 327.895L419.444 305.952Z" fill="#AE665A"/>
<path d="M805.662 307.951L771.375 345.849L852.049 363.793L805.662 307.951Z" fill="#724133"/>
<path d="M884.315 325.896L879.271 417.646L968.011 377.759L884.315 325.896Z" fill="#5C362C"/>
<path d="M884.315 325.896L852.049 363.793L879.271 417.646L884.315 325.896Z" fill="#5C362B"/>
<path d="M736.076 322.907L707.844 465.521L771.374 345.849L736.076 322.907Z" fill="#543127"/>
<path d="M736.076 322.907L665.49 450.556L707.844 465.521L736.076 322.907Z" fill="#4B2C28"/>
<path d="M633.225 308.941L638.269 365.793L736.077 322.906L633.225 308.941Z" fill="#CD8D6F"/>
<path d="M254.062 254.099L248.007 293.986L335.737 270.054L254.062 254.099Z" fill="#A36758"/>
<path d="M736.077 322.907L638.269 365.793L665.49 450.556L736.077 322.907Z" fill="#7C4C3E"/>
<path d="M372.046 199.246L313.56 203.235L352.881 253.099L372.046 199.246Z" fill="#DF9781"/>
<path d="M1060.77 282.02L1095.03 356.816L1125.36 287.008L1060.77 282.02Z" fill="#BC704F"/>
<path d="M941.79 315.929L884.314 325.896L968.011 377.759L941.79 315.929Z" fill="#794637"/>
<path d="M733.054 276.032L736.076 322.907L805.662 307.952L733.054 276.032Z" fill="#C58063"/>
<path d="M1322.97 293.986L1297.8 389.725L1358.25 347.839L1322.97 293.986Z" fill="#B86B51"/>
<path d="M633.225 308.941L524.318 333.873L638.269 365.793L633.225 308.941Z" fill="#D59880"/>
<path d="M805.662 307.951L736.076 322.906L771.374 345.849L805.662 307.951Z" fill="#A56853"/>
<path d="M733.054 276.032L633.225 308.941L736.077 322.907L733.054 276.032Z" fill="#9E604F"/>
<path d="M473.897 305.952L430.533 346.839L483.975 338.862L473.897 305.952Z" fill="#693E33"/>
<path d="M473.897 305.952L418.433 327.895L430.533 346.839L473.897 305.952Z" fill="#864F45"/>
<path d="M335.737 270.054L248.007 293.986L328.682 364.793L335.737 270.054Z" fill="#533128"/>
<path d="M473.897 305.952L483.975 338.862L524.318 333.873L473.897 305.952Z" fill="#63352F"/>
<path d="M1125.36 287.008L1169.73 348.839L1187.83 303.963L1125.36 287.008Z" fill="#BC7052"/>
<path d="M1187.83 303.963L1169.73 348.839L1254.44 330.884L1187.83 303.963Z" fill="#C37855"/>
<path d="M1125.36 287.008L1095.03 356.816L1169.73 348.839L1125.36 287.008Z" fill="#B2684F"/>
<path d="M335.737 270.054L328.682 364.793L358.936 324.906L335.737 270.054Z" fill="#58342B"/>
<path d="M352.881 253.099L360.947 298.974L371.035 255.088L352.881 253.099Z" fill="#DA948E"/>
<path d="M360.947 298.974L358.936 324.906L400.278 311.94L360.947 298.974Z" fill="#98524B"/>
<path d="M1159.62 190.269L1022.46 207.224L1060.77 282.02L1159.62 190.269Z" fill="#DB9777"/>
<path d="M352.881 253.099L335.737 270.054L360.947 298.974L352.881 253.099Z" fill="#D79493"/>
<path d="M1060.77 282.02L941.791 315.929L968.012 377.759L1060.77 282.02Z" fill="#A05D43"/>
<path d="M1060.77 282.02L968.012 377.759L1095.03 356.816L1060.77 282.02Z" fill="#A26045"/>
<path d="M220.785 191.269L178.432 213.202L202.631 238.134L220.785 191.269Z" fill="#674134"/>
<path d="M389.19 277.031L419.444 305.952L424.478 285.009L389.19 277.031Z" fill="#BD7976"/>
<path d="M389.19 277.031L360.947 298.974L400.279 311.94L389.19 277.031Z" fill="#B56A67"/>
<path d="M389.19 277.031L400.279 311.94L419.444 305.952L389.19 277.031Z" fill="#A85C5B"/>
<path d="M389.19 244.122V277.032L396.246 244.122H389.19Z" fill="#DD9B9E"/>
<path d="M1221.08 249.11L1125.36 287.008L1187.83 303.963L1221.08 249.11Z" fill="#C87F5B"/>
<path d="M1159.62 190.269L1060.77 282.02L1125.36 287.008L1159.62 190.269Z" fill="#CF886B"/>
<path d="M335.737 270.054L358.936 324.906L360.947 298.974L335.737 270.054Z" fill="#BD6E66"/>
<path d="M544.484 262.076L524.318 333.873L633.225 308.941L544.484 262.076Z" fill="#864D3F"/>
<path d="M544.484 262.076L473.897 305.952L524.318 333.873L544.484 262.076Z" fill="#965446"/>
<path d="M422.466 257.088L424.478 285.009L473.897 305.952L422.466 257.088Z" fill="#BB6D59"/>
<path d="M422.466 257.088L389.19 277.031L424.478 285.009L422.466 257.088Z" fill="#D29492"/>
<path d="M611.037 255.088L544.484 262.076L633.225 308.941L611.037 255.088Z" fill="#C07E66"/>
<path d="M274.228 190.269L220.786 191.269L254.062 254.099L274.228 190.269Z" fill="#C97D67"/>
<path d="M1267.48 217.19L1321.96 234.145L1358.25 240.133L1267.48 217.19Z" fill="#CC8959"/>
<path d="M724.988 217.19L663.479 232.156L733.054 276.032L724.988 217.19Z" fill="#CB816E"/>
<path d="M371.035 255.088L360.947 298.974L389.19 277.031L371.035 255.088Z" fill="#D38988"/>
<path d="M824.817 237.144L884.315 325.896L915.58 247.111L824.817 237.144Z" fill="#BB7656"/>
<path d="M202.631 238.134L248.007 293.986L254.062 254.099L202.631 238.134Z" fill="#7C4E3E"/>
<path d="M1221.08 249.11L1187.83 303.963L1254.44 330.884L1221.08 249.11Z" fill="#C97E5C"/>
<path d="M1221.08 249.11L1254.44 330.884L1322.97 293.986L1221.08 249.11Z" fill="#C77C5A"/>
<path d="M915.579 247.111L884.314 325.896L941.79 315.929L915.579 247.111Z" fill="#A36448"/>
<path d="M174.398 79.5693L158.266 122.451L188.51 124.45L174.398 79.5693Z" fill="#DD8577"/>
<path d="M396.246 244.122L389.19 277.032L422.466 257.088L396.246 244.122Z" fill="#DEA8A7"/>
<path d="M724.987 217.19L733.054 276.032L824.817 237.144L724.987 217.19Z" fill="#DA947C"/>
<path d="M178.432 213.202L248.007 293.986L202.631 238.134L178.432 213.202Z" fill="#75503F"/>
<path d="M274.228 190.269L254.062 254.099L313.56 203.235L274.228 190.269Z" fill="#E89B8F"/>
<path d="M212.719 91.5376L188.51 124.45L230.864 132.428L212.719 91.5376Z" fill="#DF8270"/>
<path d="M94.731 69.5967L147.167 174.314L110.868 98.5184L94.731 69.5967Z" fill="#FEDDAB"/>
<path d="M389.19 244.122L371.035 255.089L389.19 277.032V244.122Z" fill="#DF9999"/>
<path d="M1358.25 240.133L1322.97 293.986L1358.25 347.839V240.133Z" fill="#C67B57"/>
<path d="M1267.48 217.19L1322.98 293.986L1321.96 234.145L1267.48 217.19Z" fill="#BD7959"/>
<path d="M824.817 237.144L733.054 276.032L805.662 307.951L824.817 237.144Z" fill="#D38E72"/>
<path d="M1022.46 207.224L941.791 315.929L1060.77 282.02L1022.46 207.224Z" fill="#CC8061"/>
<path d="M451.71 194.258L396.246 244.122L422.467 257.088L451.71 194.258Z" fill="#DF9B86"/>
<path d="M824.817 237.144L805.662 307.951L884.315 325.896L824.817 237.144Z" fill="#AD6A51"/>
<path d="M372.046 199.246L389.19 244.122H396.246L372.046 199.246Z" fill="#DC908C"/>
<path d="M663.479 232.156L611.037 255.088L633.224 308.941L663.479 232.156Z" fill="#D39580"/>
<path d="M663.479 232.156L633.225 308.941L733.054 276.032L663.479 232.156Z" fill="#CA866B"/>
<path d="M1267.48 217.19L1221.08 249.11L1322.97 293.986L1267.48 217.19Z" fill="#B0694A"/>
<path d="M1159.62 190.269L1125.36 287.008L1221.08 249.11L1159.62 190.269Z" fill="#C87F5D"/>
<path d="M174.398 79.5693L110.868 98.5183L158.266 122.451L174.398 79.5693Z" fill="#DD8B80"/>
<path d="M244.985 150.382L274.228 190.269L298.427 160.349L244.985 150.382Z" fill="#DF9781"/>
<path d="M736.077 149.382L648.347 155.36L724.988 217.191L736.077 149.382Z" fill="#E9B19B"/>
<path d="M237.929 93.5322L230.864 132.428L264.14 114.474L237.929 93.5322Z" fill="#D9917B"/>
<path d="M313.559 203.235L254.062 254.099L335.737 270.053L313.559 203.235Z" fill="#D88B77"/>
<path d="M313.56 203.235L335.737 270.053L352.881 253.099L313.56 203.235Z" fill="#D38A7E"/>
<path d="M372.046 199.246L352.881 253.099L371.035 255.088L372.046 199.246Z" fill="#E09792"/>
<path d="M372.046 199.246L371.035 255.088L389.19 244.122L372.046 199.246Z" fill="#DD9692"/>
<path d="M451.71 194.258L473.898 305.952L544.484 262.076L451.71 194.258Z" fill="#CD8068"/>
<path d="M451.71 194.258L422.466 257.088L473.897 305.952L451.71 194.258Z" fill="#D79581"/>
<path d="M851.038 188.27L915.58 247.111L955.912 202.235L851.038 188.27Z" fill="#B47156"/>
<path d="M578.771 185.281L611.037 255.088L663.479 232.156L578.771 185.281Z" fill="#DFA18D"/>
<path d="M578.771 185.281L524.318 186.28L544.484 262.076L578.771 185.281Z" fill="#E5A893"/>
<path d="M220.785 191.269L202.631 238.134L254.062 254.098L220.785 191.269Z" fill="#623C32"/>
<path d="M1159.62 190.269L1221.08 249.11L1267.48 217.19L1159.62 190.269Z" fill="#AD7857"/>
<path d="M237.929 93.5322L264.14 114.474L328.682 134.417L237.929 93.5322Z" fill="#DC9576"/>
<path d="M244.985 150.382L223.808 168.326L274.228 190.269L244.985 150.382Z" fill="#EB9F91"/>
<path d="M1035.6 155.36L1022.46 207.224L1159.62 190.269L1035.6 155.36Z" fill="#C07C60"/>
<path d="M851.038 188.27L824.817 237.144L915.58 247.111L851.038 188.27Z" fill="#B46F5D"/>
<path d="M831.883 124.45L736.076 149.382L851.038 188.27L831.883 124.45Z" fill="#E0A890"/>
<path d="M578.771 185.281L544.484 262.076L611.037 255.088L578.771 185.281Z" fill="#DBA08A"/>
<path d="M524.318 186.28L451.71 194.258L544.484 262.076L524.318 186.28Z" fill="#E2A592"/>
<path d="M1035.6 155.36L955.912 202.235L1022.45 207.224L1035.6 155.36Z" fill="#DFA088"/>
<path d="M196.576 56.6318L174.398 79.5695L212.719 91.5377L196.576 56.6318Z" fill="#D2866E"/>
<path d="M212.719 91.5376L230.864 132.428L237.929 93.532L212.719 91.5376Z" fill="#D58B79"/>
<path d="M198.598 171.325L147.167 174.314L178.432 213.202L198.598 171.325Z" fill="#5D382F"/>
<path d="M198.598 171.325L178.432 213.202L220.785 191.269L198.598 171.325Z" fill="#925746"/>
<path d="M223.808 168.326L198.598 171.325L220.785 191.269L223.808 168.326Z" fill="#D17B72"/>
<path d="M223.808 168.326L220.786 191.269L274.228 190.269L223.808 168.326Z" fill="#DF9081"/>
<path d="M387.168 164.337L372.046 199.246L451.71 194.258L387.168 164.337Z" fill="#E0A18D"/>
<path d="M298.427 160.349L274.228 190.269L313.559 203.235L298.427 160.349Z" fill="#E1967F"/>
<path d="M736.076 149.382L824.817 237.144L851.038 188.27L736.076 149.382Z" fill="#CC9077"/>
<path d="M892.381 98.5186L809.695 102.507L831.883 124.45L892.381 98.5186Z" fill="#D3A38F"/>
<path d="M648.347 155.36L663.479 232.156L724.988 217.191L648.347 155.36Z" fill="#E1A694"/>
<path d="M648.346 155.36L578.771 185.281L663.479 232.156L648.346 155.36Z" fill="#E3B5A2"/>
<path d="M736.076 149.382L724.987 217.191L824.817 237.144L736.076 149.382Z" fill="#CD8773"/>
<path d="M110.868 98.5186L147.167 174.314L158.266 122.451L110.868 98.5186Z" fill="#804A3E"/>
<path d="M328.681 134.417L298.427 160.349L313.559 203.235L328.681 134.417Z" fill="#D5987E"/>
<path d="M328.682 134.417L372.046 199.246L387.168 164.337L328.682 134.417Z" fill="#D08575"/>
<path d="M328.682 134.417L313.56 203.235L372.046 199.246L328.682 134.417Z" fill="#D08773"/>
<path d="M709.866 121.451L648.347 155.36L736.077 149.382L709.866 121.451Z" fill="#D49B89"/>
<path d="M949.867 125.45L955.912 202.235L1035.6 155.36L949.867 125.45Z" fill="#CE926F"/>
<path d="M230.863 132.428L198.598 171.325L223.808 168.326L230.863 132.428Z" fill="#E2988C"/>
<path d="M230.864 132.428L223.808 168.326L244.985 150.382L230.864 132.428Z" fill="#DF8878"/>
<path d="M949.867 125.45L851.038 188.27L955.912 202.235L949.867 125.45Z" fill="#CD8A70"/>
<path d="M188.51 124.45L147.167 174.314L198.598 171.325L188.51 124.45Z" fill="#AE5F50"/>
<path d="M188.51 124.45L198.598 171.325L230.864 132.428L188.51 124.45Z" fill="#DF8B83"/>
<path d="M174.398 79.5693L188.51 124.45L212.719 91.5375L174.398 79.5693Z" fill="#DC816F"/>
<path d="M892.381 98.5186L949.867 125.45L1035.6 155.36L892.381 98.5186Z" fill="#FF8A8A"/>
<path d="M158.266 122.451L147.167 174.314L188.51 124.45L158.266 122.451Z" fill="#C37064"/>
<path d="M264.14 114.473L298.428 160.348L328.682 134.417L264.14 114.473Z" fill="#E29787"/>
<path d="M892.381 98.5186L851.038 188.27L949.867 125.45L892.381 98.5186Z" fill="#D89D89"/>
<path d="M264.14 114.473L230.864 132.427L244.985 150.382L264.14 114.473Z" fill="#C67963"/>
<path d="M264.14 114.473L244.985 150.382L298.427 160.348L264.14 114.473Z" fill="#CA7966"/>
<path d="M892.381 98.5186L831.883 124.45L851.038 188.27L892.381 98.5186Z" fill="#DEA991"/>
<path d="M809.695 102.507L736.076 149.382L831.883 124.45L809.695 102.507Z" fill="#E0A993"/>
<path d="M809.695 102.507L709.865 121.451L736.076 149.382L809.695 102.507Z" fill="#D79F90"/>
<path d="M1169.73 348.838L1095.03 356.816L1132.43 447.567L1169.73 348.838Z" fill="#693C2C"/>
<path d="M1311.86 477.487L1261.42 492.443L1356.23 540.317L1311.86 477.487Z" fill="#603B32"/>
<path d="M115.912 37.6841L110.868 98.5186L159.266 46.6592L115.912 37.6841Z" fill="#D57C68"/>
<path d="M115.912 37.6841L94.731 69.5969L110.868 98.5186L115.912 37.6841Z" fill="#C46D5E"/>
<path d="M159.267 46.6592L174.399 79.5696L196.576 56.632L159.267 46.6592Z" fill="#DB8973"/>
<path d="M524.318 333.873L602.971 427.623L638.269 365.793L524.318 333.873Z" fill="#BC7B66"/>
<path d="M524.318 333.873L483.976 338.861L476.92 411.668L524.318 333.873Z" fill="#AD6E5E"/>
<path d="M419.444 305.952L418.433 327.895L473.897 305.952H419.444Z" fill="#9D594D"/>
<path d="M498.097 430.612L461.788 438.59L508.175 470.51L498.097 430.612Z" fill="#5A3C34"/>
<path d="M562.638 459.533L529.352 498.43L584.816 509.397L562.638 459.533Z" fill="#633B34"/>
<path d="M562.638 459.533L508.175 470.509L529.352 498.43L562.638 459.533Z" fill="#603A31"/>
<path d="M968.011 377.759L879.271 417.646L1000.29 405.68L968.011 377.759Z" fill="#85543B"/>
<path d="M665.49 450.556L584.816 509.397L707.844 465.521L665.49 450.556Z" fill="#5A3B32"/>
<path d="M498.097 430.612L508.175 470.51L562.638 459.533L498.097 430.612Z" fill="#4F312E"/>
<path d="M430.533 346.839L399.268 409.669L436.578 390.725L430.533 346.839Z" fill="#482B27"/>
<path d="M461.788 438.59L529.351 498.431L508.175 470.51L461.788 438.59Z" fill="#563A30"/>
<path d="M1343.19 435.601L1311.86 477.487L1356.23 540.317L1343.19 435.601Z" fill="#5D362C"/>
<path d="M358.936 324.906L328.682 364.793L399.268 409.669L358.936 324.906Z" fill="#623D32"/>
<path d="M1169.73 348.838L1261.41 492.442L1297.8 389.725L1169.73 348.838Z" fill="#794637"/>
<path d="M852.049 363.793L795.574 437.6L879.271 417.646L852.049 363.793Z" fill="#624136"/>
<path d="M1297.8 389.725L1311.86 477.487L1343.19 435.6L1297.8 389.725Z" fill="#79402D"/>
<path d="M602.97 427.623L562.638 459.533L584.816 509.397L602.97 427.623Z" fill="#442B26"/>
<path d="M602.97 427.623L584.816 509.397L665.49 450.556L602.97 427.623Z" fill="#472E29"/>
<path d="M602.97 427.623L498.097 430.612L562.638 459.533L602.97 427.623Z" fill="#9B5F4D"/>
<path d="M476.92 411.668L461.788 438.589L498.097 430.612L476.92 411.668Z" fill="#56382F"/>
<path d="M451.71 194.258L372.046 199.246L396.246 244.122L451.71 194.258Z" fill="#DF978B"/>
<path d="M1297.8 389.725L1261.42 492.442L1311.86 477.487L1297.8 389.725Z" fill="#593024"/>
<path d="M159.266 46.6592L110.868 98.5186L174.398 79.5696L159.266 46.6592Z" fill="#DC7D6B"/>
<path d="M399.268 409.669L529.352 498.431L461.788 438.59L399.268 409.669Z" fill="#623D32"/>
<path d="M436.578 390.725L461.788 438.59L476.92 411.668L436.578 390.725Z" fill="#563A30"/>
<path d="M436.578 390.725L399.268 409.669L461.788 438.59L436.578 390.725Z" fill="#644239"/>
<path d="M1095.03 356.816L1073.91 430.612L1132.43 447.567L1095.03 356.816Z" fill="#512F27"/>
<path d="M638.268 365.793L602.97 427.623L665.49 450.556L638.268 365.793Z" fill="#472C26"/>
<path d="M771.374 345.849L707.844 465.521L795.574 437.6L771.374 345.849Z" fill="#55332A"/>
<path d="M358.936 324.906L430.533 346.839L418.433 327.895L358.936 324.906Z" fill="#7B423E"/>
<path d="M358.936 324.906L399.268 409.669L430.533 346.839L358.936 324.906Z" fill="#52342A"/>
<path d="M955.912 202.235L941.791 315.929L1022.46 207.224L955.912 202.235Z" fill="#CC8C71"/>
<path d="M1358.25 347.839L1343.19 435.601L1356.23 540.317L1358.25 347.839Z" fill="#834A34"/>
<path d="M955.912 202.235L915.58 247.111L941.791 315.929L955.912 202.235Z" fill="#B37053"/>
<path d="M196.576 56.6318L212.719 91.5377L237.929 93.532L196.576 56.6318Z" fill="#DE977D"/>
<path d="M1358.25 347.839L1297.8 389.725L1343.19 435.601L1358.25 347.839Z" fill="#AE6847"/>
<path d="M1095.03 356.816L1000.29 405.68L1073.91 430.612L1095.03 356.816Z" fill="#51342D"/>
<path d="M1095.03 356.816L968.012 377.759L1000.29 405.68L1095.03 356.816Z" fill="#593529"/>
<path d="M1322.97 293.986L1254.44 330.884L1297.81 389.725L1322.97 293.986Z" fill="#BD6D49"/>
<path d="M1169.73 348.838L1132.43 447.567L1261.42 492.442L1169.73 348.838Z" fill="#472A1F"/>
<path d="M1321.96 234.145L1322.97 293.986L1358.25 240.133L1321.96 234.145Z" fill="#B87251"/>
<path d="M524.318 333.873L476.92 411.668L498.097 430.612L524.318 333.873Z" fill="#955A4A"/>
<path d="M524.318 333.873L498.097 430.612L602.97 427.623L524.318 333.873Z" fill="#AE6A55"/>
<path d="M771.375 345.849L795.574 437.6L852.049 363.793L771.375 345.849Z" fill="#462722"/>
<path d="M805.662 307.951L852.049 363.793L884.315 325.895L805.662 307.951Z" fill="#7C4E40"/>
<path d="M483.975 338.861L430.533 346.839L436.577 390.725L483.975 338.861Z" fill="#855747"/>
<path d="M483.975 338.861L436.578 390.725L476.92 411.668L483.975 338.861Z" fill="#875748"/>
<path d="M1254.44 330.884L1169.73 348.839L1297.8 389.725L1254.44 330.884Z" fill="#B16445"/>
<path d="M424.478 285.009L419.444 305.952H473.897L424.478 285.009Z" fill="#A8614D"/>
<path d="M400.278 311.94L358.936 324.906L418.433 327.895L400.278 311.94Z" fill="#BB7C74"/>
<path d="M419.444 305.952L400.279 311.94L418.433 327.895L419.444 305.952Z" fill="#AE665A"/>
<path d="M805.662 307.951L771.375 345.849L852.049 363.793L805.662 307.951Z" fill="#724133"/>
<path d="M884.315 325.896L879.271 417.646L968.011 377.759L884.315 325.896Z" fill="#5C362C"/>
<path d="M884.315 325.896L852.049 363.793L879.271 417.646L884.315 325.896Z" fill="#5C362B"/>
<path d="M736.076 322.907L707.844 465.521L771.374 345.849L736.076 322.907Z" fill="#543127"/>
<path d="M736.076 322.907L665.49 450.556L707.844 465.521L736.076 322.907Z" fill="#4B2C28"/>
<path d="M633.225 308.941L638.269 365.793L736.077 322.906L633.225 308.941Z" fill="#CD8D6F"/>
<path d="M254.062 254.099L248.007 293.986L335.737 270.054L254.062 254.099Z" fill="#A36758"/>
<path d="M736.077 322.907L638.269 365.793L665.49 450.556L736.077 322.907Z" fill="#7C4C3E"/>
<path d="M372.046 199.246L313.56 203.235L352.881 253.099L372.046 199.246Z" fill="#DF9781"/>
<path d="M1060.77 282.02L1095.03 356.816L1125.36 287.008L1060.77 282.02Z" fill="#BC704F"/>
<path d="M941.79 315.929L884.314 325.896L968.011 377.759L941.79 315.929Z" fill="#794637"/>
<path d="M733.054 276.032L736.076 322.907L805.662 307.952L733.054 276.032Z" fill="#C58063"/>
<path d="M1322.97 293.986L1297.8 389.725L1358.25 347.839L1322.97 293.986Z" fill="#B86B51"/>
<path d="M633.225 308.941L524.318 333.873L638.269 365.793L633.225 308.941Z" fill="#D59880"/>
<path d="M805.662 307.951L736.076 322.906L771.374 345.849L805.662 307.951Z" fill="#A56853"/>
<path d="M733.054 276.032L633.225 308.941L736.077 322.907L733.054 276.032Z" fill="#9E604F"/>
<path d="M473.897 305.952L430.533 346.839L483.975 338.862L473.897 305.952Z" fill="#693E33"/>
<path d="M473.897 305.952L418.433 327.895L430.533 346.839L473.897 305.952Z" fill="#864F45"/>
<path d="M335.737 270.054L248.007 293.986L328.682 364.793L335.737 270.054Z" fill="#533128"/>
<path d="M473.897 305.952L483.975 338.862L524.318 333.873L473.897 305.952Z" fill="#63352F"/>
<path d="M1125.36 287.008L1169.73 348.839L1187.83 303.963L1125.36 287.008Z" fill="#BC7052"/>
<path d="M1187.83 303.963L1169.73 348.839L1254.44 330.884L1187.83 303.963Z" fill="#C37855"/>
<path d="M1125.36 287.008L1095.03 356.816L1169.73 348.839L1125.36 287.008Z" fill="#B2684F"/>
<path d="M335.737 270.054L328.682 364.793L358.936 324.906L335.737 270.054Z" fill="#58342B"/>
<path d="M352.881 253.099L360.947 298.974L371.035 255.088L352.881 253.099Z" fill="#DA948E"/>
<path d="M360.947 298.974L358.936 324.906L400.278 311.94L360.947 298.974Z" fill="#98524B"/>
<path d="M1159.62 190.269L1022.46 207.224L1060.77 282.02L1159.62 190.269Z" fill="#DB9777"/>
<path d="M352.881 253.099L335.737 270.054L360.947 298.974L352.881 253.099Z" fill="#D79493"/>
<path d="M1060.77 282.02L941.791 315.929L968.012 377.759L1060.77 282.02Z" fill="#A05D43"/>
<path d="M1060.77 282.02L968.012 377.759L1095.03 356.816L1060.77 282.02Z" fill="#A26045"/>
<path d="M220.785 191.269L178.432 213.202L202.631 238.134L220.785 191.269Z" fill="#674134"/>
<path d="M389.19 277.031L419.444 305.952L424.478 285.009L389.19 277.031Z" fill="#BD7976"/>
<path d="M389.19 277.031L360.947 298.974L400.279 311.94L389.19 277.031Z" fill="#B56A67"/>
<path d="M389.19 277.031L400.279 311.94L419.444 305.952L389.19 277.031Z" fill="#A85C5B"/>
<path d="M389.19 244.122V277.032L396.246 244.122H389.19Z" fill="#DD9B9E"/>
<path d="M1221.08 249.11L1125.36 287.008L1187.83 303.963L1221.08 249.11Z" fill="#C87F5B"/>
<path d="M1159.62 190.269L1060.77 282.02L1125.36 287.008L1159.62 190.269Z" fill="#CF886B"/>
<path d="M335.737 270.054L358.936 324.906L360.947 298.974L335.737 270.054Z" fill="#BD6E66"/>
<path d="M544.484 262.076L524.318 333.873L633.225 308.941L544.484 262.076Z" fill="#864D3F"/>
<path d="M544.484 262.076L473.897 305.952L524.318 333.873L544.484 262.076Z" fill="#965446"/>
<path d="M422.466 257.088L424.478 285.009L473.897 305.952L422.466 257.088Z" fill="#BB6D59"/>
<path d="M422.466 257.088L389.19 277.031L424.478 285.009L422.466 257.088Z" fill="#D29492"/>
<path d="M611.037 255.088L544.484 262.076L633.225 308.941L611.037 255.088Z" fill="#C07E66"/>
<path d="M274.228 190.269L220.786 191.269L254.062 254.099L274.228 190.269Z" fill="#C97D67"/>
<path d="M1267.48 217.19L1321.96 234.145L1358.25 240.133L1267.48 217.19Z" fill="#CC8959"/>
<path d="M724.988 217.19L663.479 232.156L733.054 276.032L724.988 217.19Z" fill="#CB816E"/>
<path d="M371.035 255.088L360.947 298.974L389.19 277.031L371.035 255.088Z" fill="#D38988"/>
<path d="M824.817 237.144L884.315 325.896L915.58 247.111L824.817 237.144Z" fill="#BB7656"/>
<path d="M202.631 238.134L248.007 293.986L254.062 254.099L202.631 238.134Z" fill="#7C4E3E"/>
<path d="M1221.08 249.11L1187.83 303.963L1254.44 330.884L1221.08 249.11Z" fill="#C97E5C"/>
<path d="M1221.08 249.11L1254.44 330.884L1322.97 293.986L1221.08 249.11Z" fill="#C77C5A"/>
<path d="M915.579 247.111L884.314 325.896L941.79 315.929L915.579 247.111Z" fill="#A36448"/>
<path d="M174.398 79.5693L158.266 122.451L188.51 124.45L174.398 79.5693Z" fill="#DD8577"/>
<path d="M396.246 244.122L389.19 277.032L422.466 257.088L396.246 244.122Z" fill="#DEA8A7"/>
<path d="M724.987 217.19L733.054 276.032L824.817 237.144L724.987 217.19Z" fill="#DA947C"/>
<path d="M178.432 213.202L248.007 293.986L202.631 238.134L178.432 213.202Z" fill="#75503F"/>
<path d="M274.228 190.269L254.062 254.099L313.56 203.235L274.228 190.269Z" fill="#E89B8F"/>
<path d="M212.719 91.5376L188.51 124.45L230.864 132.428L212.719 91.5376Z" fill="#DF8270"/>
<path d="M94.731 69.5967L147.167 174.314L110.868 98.5184L94.731 69.5967Z" fill="#FEDDAB"/>
<path d="M389.19 244.122L371.035 255.089L389.19 277.032V244.122Z" fill="#DF9999"/>
<path d="M1358.25 240.133L1322.97 293.986L1358.25 347.839V240.133Z" fill="#C67B57"/>
<path d="M1267.48 217.19L1322.98 293.986L1321.96 234.145L1267.48 217.19Z" fill="#BD7959"/>
<path d="M824.817 237.144L733.054 276.032L805.662 307.951L824.817 237.144Z" fill="#D38E72"/>
<path d="M1022.46 207.224L941.791 315.929L1060.77 282.02L1022.46 207.224Z" fill="#CC8061"/>
<path d="M451.71 194.258L396.246 244.122L422.467 257.088L451.71 194.258Z" fill="#DF9B86"/>
<path d="M824.817 237.144L805.662 307.951L884.315 325.896L824.817 237.144Z" fill="#AD6A51"/>
<path d="M372.046 199.246L389.19 244.122H396.246L372.046 199.246Z" fill="#DC908C"/>
<path d="M663.479 232.156L611.037 255.088L633.224 308.941L663.479 232.156Z" fill="#D39580"/>
<path d="M663.479 232.156L633.225 308.941L733.054 276.032L663.479 232.156Z" fill="#CA866B"/>
<path d="M1267.48 217.19L1221.08 249.11L1322.97 293.986L1267.48 217.19Z" fill="#B0694A"/>
<path d="M1159.62 190.269L1125.36 287.008L1221.08 249.11L1159.62 190.269Z" fill="#C87F5D"/>
<path d="M174.398 79.5693L110.868 98.5183L158.266 122.451L174.398 79.5693Z" fill="#DD8B80"/>
<path d="M244.985 150.382L274.228 190.269L298.427 160.349L244.985 150.382Z" fill="#DF9781"/>
<path d="M736.077 149.382L648.347 155.36L724.988 217.191L736.077 149.382Z" fill="#E9B19B"/>
<path d="M237.929 93.5322L230.864 132.428L264.14 114.474L237.929 93.5322Z" fill="#D9917B"/>
<path d="M313.559 203.235L254.062 254.099L335.737 270.053L313.559 203.235Z" fill="#D88B77"/>
<path d="M313.56 203.235L335.737 270.053L352.881 253.099L313.56 203.235Z" fill="#D38A7E"/>
<path d="M372.046 199.246L352.881 253.099L371.035 255.088L372.046 199.246Z" fill="#E09792"/>
<path d="M372.046 199.246L371.035 255.088L389.19 244.122L372.046 199.246Z" fill="#DD9692"/>
<path d="M451.71 194.258L473.898 305.952L544.484 262.076L451.71 194.258Z" fill="#CD8068"/>
<path d="M451.71 194.258L422.466 257.088L473.897 305.952L451.71 194.258Z" fill="#D79581"/>
<path d="M851.038 188.27L915.58 247.111L955.912 202.235L851.038 188.27Z" fill="#B47156"/>
<path d="M578.771 185.281L611.037 255.088L663.479 232.156L578.771 185.281Z" fill="#DFA18D"/>
<path d="M578.771 185.281L524.318 186.28L544.484 262.076L578.771 185.281Z" fill="#E5A893"/>
<path d="M220.785 191.269L202.631 238.134L254.062 254.098L220.785 191.269Z" fill="#623C32"/>
<path d="M1159.62 190.269L1221.08 249.11L1267.48 217.19L1159.62 190.269Z" fill="#AD7857"/>
<path d="M237.929 93.5322L264.14 114.474L328.682 134.417L237.929 93.5322Z" fill="#DC9576"/>
<path d="M244.985 150.382L223.808 168.326L274.228 190.269L244.985 150.382Z" fill="#EB9F91"/>
<path d="M1035.6 155.36L1022.46 207.224L1159.62 190.269L1035.6 155.36Z" fill="#C07C60"/>
<path d="M851.038 188.27L824.817 237.144L915.58 247.111L851.038 188.27Z" fill="#B46F5D"/>
<path d="M831.883 124.45L736.076 149.382L851.038 188.27L831.883 124.45Z" fill="#E0A890"/>
<path d="M578.771 185.281L544.484 262.076L611.037 255.088L578.771 185.281Z" fill="#DBA08A"/>
<path d="M524.318 186.28L451.71 194.258L544.484 262.076L524.318 186.28Z" fill="#E2A592"/>
<path d="M1035.6 155.36L955.912 202.235L1022.45 207.224L1035.6 155.36Z" fill="#DFA088"/>
<path d="M196.576 56.6318L174.398 79.5695L212.719 91.5377L196.576 56.6318Z" fill="#D2866E"/>
<path d="M212.719 91.5376L230.864 132.428L237.929 93.532L212.719 91.5376Z" fill="#D58B79"/>
<path d="M198.598 171.325L147.167 174.314L178.432 213.202L198.598 171.325Z" fill="#5D382F"/>
<path d="M198.598 171.325L178.432 213.202L220.785 191.269L198.598 171.325Z" fill="#925746"/>
<path d="M223.808 168.326L198.598 171.325L220.785 191.269L223.808 168.326Z" fill="#D17B72"/>
<path d="M223.808 168.326L220.786 191.269L274.228 190.269L223.808 168.326Z" fill="#DF9081"/>
<path d="M387.168 164.337L372.046 199.246L451.71 194.258L387.168 164.337Z" fill="#E0A18D"/>
<path d="M298.427 160.349L274.228 190.269L313.559 203.235L298.427 160.349Z" fill="#E1967F"/>
<path d="M736.076 149.382L824.817 237.144L851.038 188.27L736.076 149.382Z" fill="#CC9077"/>
<path d="M892.381 98.5186L809.695 102.507L831.883 124.45L892.381 98.5186Z" fill="#D3A38F"/>
<path d="M648.347 155.36L663.479 232.156L724.988 217.191L648.347 155.36Z" fill="#E1A694"/>
<path d="M648.346 155.36L578.771 185.281L663.479 232.156L648.346 155.36Z" fill="#E3B5A2"/>
<path d="M736.076 149.382L724.987 217.191L824.817 237.144L736.076 149.382Z" fill="#CD8773"/>
<path d="M110.868 98.5186L147.167 174.314L158.266 122.451L110.868 98.5186Z" fill="#804A3E"/>
<path d="M328.681 134.417L298.427 160.349L313.559 203.235L328.681 134.417Z" fill="#D5987E"/>
<path d="M328.682 134.417L372.046 199.246L387.168 164.337L328.682 134.417Z" fill="#D08575"/>
<path d="M328.682 134.417L313.56 203.235L372.046 199.246L328.682 134.417Z" fill="#D08773"/>
<path d="M709.866 121.451L648.347 155.36L736.077 149.382L709.866 121.451Z" fill="#D49B89"/>
<path d="M949.867 125.45L955.912 202.235L1035.6 155.36L949.867 125.45Z" fill="#CE926F"/>
<path d="M230.863 132.428L198.598 171.325L223.808 168.326L230.863 132.428Z" fill="#E2988C"/>
<path d="M230.864 132.428L223.808 168.326L244.985 150.382L230.864 132.428Z" fill="#DF8878"/>
<path d="M949.867 125.45L851.038 188.27L955.912 202.235L949.867 125.45Z" fill="#CD8A70"/>
<path d="M188.51 124.45L147.167 174.314L198.598 171.325L188.51 124.45Z" fill="#AE5F50"/>
<path d="M188.51 124.45L198.598 171.325L230.864 132.428L188.51 124.45Z" fill="#DF8B83"/>
<path d="M174.398 79.5693L188.51 124.45L212.719 91.5375L174.398 79.5693Z" fill="#DC816F"/>
<path d="M892.381 98.5186L949.867 125.45L1035.6 155.36L892.381 98.5186Z" fill="#FF8A8A"/>
<path d="M158.266 122.451L147.167 174.314L188.51 124.45L158.266 122.451Z" fill="#C37064"/>
<path d="M264.14 114.473L298.428 160.348L328.682 134.417L264.14 114.473Z" fill="#E29787"/>
<path d="M892.381 98.5186L851.038 188.27L949.867 125.45L892.381 98.5186Z" fill="#D89D89"/>
<path d="M264.14 114.473L230.864 132.427L244.985 150.382L264.14 114.473Z" fill="#C67963"/>
<path d="M264.14 114.473L244.985 150.382L298.427 160.348L264.14 114.473Z" fill="#CA7966"/>
<path d="M892.381 98.5186L831.883 124.45L851.038 188.27L892.381 98.5186Z" fill="#DEA991"/>
<path d="M809.695 102.507L736.076 149.382L831.883 124.45L809.695 102.507Z" fill="#E0A993"/>
<path d="M809.695 102.507L709.865 121.451L736.076 149.382L809.695 102.507Z" fill="#D79F90"/>
</g>
</svg>
