<svg width="1090" height="968" viewBox="0 0 1090 968" fill="none" xmlns="http://www.w3.org/2000/svg">
<path id="Vector" d="M42.7576 967.259C28.3203 965.764 27.6483 962.847 38.8418 950.275C48.9253 938.95 48.9093 938.621 38.602 945.258C25.5546 953.66 7.78238 957.429 2.9216 952.824L0.75 950.767L5.59958 945.412C8.26685 942.466 11.5643 938.761 12.9272 937.177C14.2902 935.594 16.4802 933.222 17.7939 931.907C23.4583 926.238 44.1817 900.795 43.6047 900.219C43.3938 900.008 42.2359 900.385 41.0317 901.058C39.8274 901.73 37.9984 902.356 36.9671 902.449C35.936 902.542 33.8267 902.858 32.2799 903.151C30.733 903.444 27.991 903.912 26.1863 904.191C24.3817 904.47 21.6396 904.938 20.0928 905.231C-3.02813 909.613 -4.62605 905.934 14.4674 892.286C16.0669 891.143 31.9766 877.613 38.0423 872.237C41.2117 869.428 45.0084 866.214 46.4794 865.095C47.9504 863.976 50.5791 861.842 52.3209 860.354L55.4879 857.649L51.8522 858.24C43.6021 859.583 29.8272 860.39 26.9373 859.7C17.7311 857.502 16.4518 855.231 22.6415 852.073C24.8167 850.963 27.9806 848.951 29.6724 847.601C31.3641 846.251 33.1702 845.094 33.6858 845.03C34.2014 844.965 34.9796 844.86 35.415 844.795C35.8504 844.731 37.4324 843.613 38.9305 842.311C40.4286 841.008 44.3963 838.066 47.7477 835.771C51.0992 833.476 55.3177 830.288 57.1223 828.686C62.6281 823.797 70.8567 817.14 74.1535 814.906C75.8719 813.742 79.809 810.879 82.9025 808.543C85.9961 806.208 90.206 803.152 92.2578 801.754C94.3096 800.355 98.6784 796.68 101.966 793.586C105.254 790.493 109.883 786.582 112.253 784.897C114.623 783.211 116.793 781.521 117.075 781.141C117.357 780.761 119.62 778.976 122.105 777.175C126.012 774.341 139.168 763.544 143.368 759.726C145.464 757.819 163.124 746.245 163.937 746.245C164.323 746.245 165.402 745.401 166.336 744.37C167.269 743.339 168.434 742.495 168.924 742.495C169.414 742.495 171.353 741.295 173.232 739.828C175.111 738.361 178.546 736.053 180.866 734.698C183.186 733.343 186.31 731.169 187.809 729.865C189.307 728.562 190.883 727.496 191.312 727.496C191.74 727.496 194.166 725.492 196.702 723.043C199.238 720.594 202.302 717.717 203.511 716.65C206.555 713.963 219.399 706.901 227.271 703.587C231.023 702.006 233.221 700.73 244.614 693.52C247.965 691.399 255.769 687.074 261.957 683.908C268.144 680.743 275.066 676.916 277.34 675.404C285.207 670.173 286.349 669.467 290.315 667.384C292.506 666.233 294.299 664.945 294.299 664.521C294.299 664.096 294.866 663.749 295.56 663.749C296.253 663.749 297.624 662.86 298.607 661.773C299.589 660.686 302.336 658.811 304.712 657.606C307.087 656.402 310.251 654.392 311.743 653.139C313.234 651.887 317.654 648.972 321.565 646.662C325.477 644.352 331.383 640.363 334.69 637.798C340.984 632.916 354.662 624.376 356.187 624.376C357.429 624.376 370.233 612.176 370.233 610.993C370.233 610.46 371.288 608.64 372.577 606.95C375.41 603.237 375.395 603.622 372.811 600.722C371.651 599.42 369.226 596.444 367.421 594.108C365.616 591.773 362.975 589.163 361.55 588.31C360.126 587.457 358.065 584.993 356.969 582.835C353.477 575.953 349.831 571.015 341.172 561.438C339.883 560.012 337.875 557.614 336.71 556.109C335.545 554.604 332.803 552.16 330.617 550.676C328.43 549.193 326.43 547.704 326.173 547.367C324.378 545.018 319.507 545.922 316.897 549.088C312.585 554.319 309.387 552.029 308.796 543.287C308.287 535.768 315.554 524.801 322.455 522.674C323.727 522.282 325.521 521.17 326.444 520.203C327.366 519.236 328.496 518.445 328.955 518.445C329.414 518.445 330.371 517.862 331.083 517.151C332.824 515.41 342.363 510.945 344.342 510.945C345.213 510.945 346.86 510.377 348.001 509.683C349.143 508.989 352.82 507.677 356.171 506.767C359.523 505.858 363.108 504.736 364.14 504.275C373.607 500.045 394.457 504.03 422.731 515.474C428.86 517.955 430.604 518.265 436.324 517.892C451.052 516.934 464.504 516.882 465.939 517.778C469.512 520.009 480.898 510.943 514.546 479.072C515.362 478.298 518.114 475.978 520.661 473.916C523.207 471.853 528.898 466.729 533.305 462.527C537.713 458.326 543.213 453.264 545.528 451.278C547.842 449.292 550.795 446.452 552.09 444.966C553.384 443.481 556.376 440.317 558.739 437.936C562.556 434.087 578.931 413.221 587.753 400.963C589.541 398.479 592.481 394.595 594.285 392.333C601.982 382.685 604.315 379.487 612.73 367.045C615.171 363.436 622.139 353.825 628.214 345.687C634.289 337.549 641.639 327.214 644.549 322.719C647.459 318.224 651.18 312.86 652.819 310.798C655.728 307.138 663.34 295.504 666.786 289.451C667.733 287.786 669.883 284.948 671.562 283.143C673.241 281.338 675.498 278.378 676.577 276.565C677.656 274.751 679.62 272.252 680.941 271.011C682.262 269.77 683.343 268.195 683.343 267.512C683.343 266.828 683.66 266.245 684.046 266.216C685.183 266.132 693.278 255.318 700.149 244.707C706.45 234.975 708.821 232.323 715.217 227.847C717.022 226.584 718.978 225.116 719.565 224.583C720.152 224.05 722.825 221.927 725.506 219.865C728.186 217.802 732.973 214.053 736.144 211.533C739.315 209.014 743.392 205.998 745.203 204.831C749.675 201.951 757.18 194.49 761.086 189.041C764.936 183.671 774.654 173.304 789.17 159.078C800.267 148.204 814.284 133.883 834.243 113.022C844.635 102.161 866.603 79.755 886.724 59.4949C894.616 51.5489 896.027 51.2581 897.761 57.2206C900.963 68.2281 899.837 72.5099 889.755 87.6832C882.771 98.1928 883 98.4497 891.706 89.8678C895.539 86.0883 899.267 82.5333 899.989 81.9677C900.711 81.4022 906.575 75.324 913.021 68.4603C924.664 56.0609 937.408 43.4265 946.214 35.5498C948.745 33.2866 953.179 29.1147 956.068 26.279C958.957 23.4432 964.902 17.8775 969.278 13.9105C988.507 -3.51568 988.998 -3.57067 994.681 11.0891C995.712 13.7478 995.784 20.6539 994.781 20.6539C994.377 20.6539 993.252 22.025 992.282 23.7007C991.311 25.3764 989.428 28.0583 988.095 29.6603C983.179 35.5725 982.392 36.627 982.391 37.3045C982.39 37.6853 981.441 39.1215 980.281 40.4961C979.122 41.8706 977.435 43.8794 976.533 44.9597C975.63 46.0402 974.892 47.3054 974.892 47.7714C974.892 48.2374 973.627 49.8132 972.08 51.2731C970.533 52.733 969.267 54.4563 969.267 55.1024C969.267 55.7486 968.917 56.2773 968.488 56.2773C968.06 56.2773 967.111 57.4374 966.379 58.8553C965.647 60.2732 963.576 62.7733 961.777 64.4111C959.977 66.0489 958.811 67.6948 959.185 68.0686C959.558 68.4425 960.975 67.638 962.332 66.281C963.689 64.924 966.059 62.8563 967.6 61.686C969.14 60.5158 972.782 57.3058 975.693 54.5527C978.604 51.7995 982.125 48.952 983.517 48.2249C984.909 47.4977 986.386 46.3521 986.798 45.6791C987.21 45.006 990.29 42.2424 993.641 39.5376C996.993 36.833 1000.79 33.6553 1002.08 32.4762C1003.37 31.297 1006.32 29.0225 1008.64 27.4217C1010.96 25.8209 1015.39 22.1766 1018.48 19.3235C1021.58 16.4703 1024.42 14.1259 1024.8 14.1138C1025.18 14.1017 1028.22 11.7715 1031.57 8.93575C1034.91 6.09998 1038.04 3.77979 1038.53 3.77979C1039.02 3.77979 1039.58 3.30316 1039.77 2.72064C1039.98 2.08861 1041.24 2.62474 1042.9 4.05008C1048.87 9.19334 1046.65 22.8802 1038.09 33.7787C1035.86 36.6145 1031.18 42.7314 1027.7 47.3721C1020.31 57.2201 1020.88 56.4987 1016.13 61.9024C1012 66.5942 1011.3 68.3953 1014.47 66.1741C1015.62 65.3715 1017.17 64.7148 1017.92 64.7148C1018.68 64.7148 1022.27 62.4663 1025.92 59.7181C1029.56 56.9699 1034.44 53.582 1036.76 52.1894C1044.88 47.3206 1058.49 37.712 1068.17 30.0284C1082.05 19.0089 1087.47 17.25 1089 23.2732C1090.44 28.9469 1089.11 37.7655 1086.43 40.3414C1086.17 40.5992 1083.14 44.185 1079.71 48.3098C1076.28 52.4347 1071.95 57.2305 1070.08 58.9674C1068.22 60.7042 1065.55 63.6571 1064.15 65.5296C1062.75 67.402 1059.85 70.6213 1057.7 72.6838L1053.79 76.4337L1054.71 83.7603C1055.29 88.3507 1055.31 91.5018 1054.76 92.1974C1054.27 92.8082 1053.59 95.2732 1053.24 97.6753C1052.63 101.949 1042.47 123.824 1039.93 126.371C1039.22 127.079 1038.64 127.945 1038.64 128.295C1038.64 128.645 1037.47 130.197 1036.06 131.743C1034.64 133.29 1032.24 136.454 1030.71 138.774C1029.19 141.094 1026.78 144.114 1025.36 145.483C1022.83 147.927 1022.8 148.086 1023.76 153.92C1026.35 169.517 1022.75 178.691 1008.88 191.83L1003.84 196.606L1002.99 205.617C1001.69 219.321 999.288 226.332 993.356 233.721C991.61 235.896 989.905 238.451 989.566 239.398C989.227 240.346 987.734 241.58 986.248 242.141C983.846 243.048 983.588 243.532 983.918 246.512C985.331 259.284 985.317 265.008 983.87 266.209C983.057 266.883 982.362 267.911 982.327 268.492C982.259 269.588 972.124 278.137 969.865 279.005C968.875 279.385 968.615 281.842 968.724 289.757C968.803 295.4 968.563 300.018 968.193 300.018C967.822 300.018 967.282 300.763 966.993 301.674C966.397 303.554 952.571 311.267 949.798 311.267C945.824 311.267 942.784 315.612 943.376 320.447C943.673 322.875 944.175 328.024 944.491 331.892L945.067 338.923L940.996 341.311C938.757 342.625 935.448 344.267 933.644 344.96C931.839 345.654 928.464 347.096 926.144 348.167C923.824 349.237 921.827 350.154 921.707 350.204C921.587 350.255 921.939 351.745 922.488 353.515C924.488 359.959 925.231 363.398 925.713 368.453L926.205 373.609L920.784 377.069C917.803 378.973 914.22 380.96 912.823 381.485C911.425 382.01 909.432 383.29 908.394 384.328C907.355 385.367 905.415 386.49 904.082 386.825C902.394 387.248 901.827 387.873 902.215 388.883C902.521 389.681 903.19 392.265 903.701 394.626C904.213 396.988 904.888 399.553 905.201 400.326C906.011 402.326 905.534 409.063 904.508 410.123C904.033 410.612 903.645 411.757 903.645 412.666C903.645 414.916 896.644 421.479 891.683 423.881L887.63 425.843L887.763 438.335C887.881 449.349 887.692 451.03 886.162 452.556C883.125 455.585 876.19 458.273 869.663 458.949C863.501 459.588 863.335 459.674 863.335 462.25C863.335 469.986 859.622 480.326 857.181 479.389C856.45 479.109 855.592 479.556 855.274 480.382C854.957 481.209 853.964 481.886 853.068 481.886C852.172 481.886 850.768 482.624 849.948 483.526C849.128 484.429 845.551 486.626 842 488.41L835.543 491.653L834.141 498.537C833.37 502.324 833.092 505.64 833.523 505.906C834.34 506.411 825.409 515.414 820.922 518.609C819.503 519.619 818.088 521.455 817.779 522.689C817.469 523.923 816.652 525.4 815.962 525.973C815.272 526.545 814.415 528.349 814.056 529.982C813.08 534.426 811.041 536.983 807.555 538.134C805.834 538.702 803.942 539.749 803.352 540.461C802.761 541.172 801.034 541.719 799.513 541.676C795.834 541.571 795.968 541.28 795.302 550.843C794.554 561.6 790.834 565.32 780.825 565.32C779.764 565.32 778.964 565.948 778.964 566.781C778.964 567.585 778.541 567.982 778.024 567.662C776.875 566.952 775.214 571.058 775.214 574.61C775.214 576.043 774.37 577.98 773.339 578.913C772.308 579.846 771.464 581.121 771.464 581.746C771.464 583.074 766.64 586.304 759.042 590.063C756.072 591.532 753.652 593.359 753.652 594.131C753.652 599.106 742.43 611.255 737.835 611.255C734.255 611.255 732.26 613.505 731.239 618.698C729.856 625.729 727.053 628.337 717.16 631.799C709.534 634.469 709.31 634.635 706.435 639.795C703.077 645.819 697.014 649.423 690.077 649.519C683.678 649.607 682.85 650.579 685.653 654.709C686.96 656.635 688.03 658.408 688.03 658.649C688.03 658.889 689.822 661.641 692.014 664.764C694.205 667.886 696.522 671.413 697.163 672.601C699.068 676.133 700.785 677.039 708.899 678.799C713.147 679.721 719.364 681.141 722.716 681.955C726.068 682.77 732.185 684.083 736.31 684.874C740.434 685.665 744.653 686.664 745.684 687.094C747.636 687.91 757.892 690.957 766.777 693.362C769.613 694.129 772.777 695.131 773.808 695.587C774.839 696.043 780.534 697.952 786.463 699.83C801.339 704.541 809.247 707.226 816.931 710.175C820.54 711.56 825.181 713.315 827.243 714.075C829.305 714.834 832.258 716.015 833.805 716.697C838.23 718.651 847.378 719.949 853.099 719.435L858.331 718.966L859.559 726.861C861.223 737.56 861.081 738.009 853.266 746.717C852.341 747.748 850.326 751.042 848.788 754.038C846.829 757.853 844.589 760.492 841.305 762.854C838.727 764.708 836.477 766.581 836.305 767.017C836.133 767.453 835.441 767.81 834.768 767.81C833.506 767.81 829.587 775.186 829.587 777.559C829.587 779.02 824.942 783.271 822.326 784.204C821.421 784.526 819.204 786.646 817.4 788.914C815.287 791.57 812.926 793.384 810.77 794.008C808.546 794.653 805.11 797.362 800.537 802.078C796.751 805.983 792.001 810.021 789.981 811.051C787.961 812.081 785.606 814.243 784.746 815.854C783.132 818.876 781.927 820.149 773.596 827.628C770.902 830.047 765.628 835.064 761.878 838.778C757.529 843.084 753.531 846.115 750.84 847.148C746.682 848.744 745.146 850.037 740.53 855.827C739.242 857.443 737.343 859.027 736.311 859.346C735.279 859.666 733.315 860.716 731.946 861.679C730.578 862.643 728.544 863.431 727.427 863.431C726.31 863.431 723.423 865.059 721.01 867.049C714.33 872.559 706.698 875.387 703.866 873.402C700.994 871.391 698.59 871.466 694.199 873.705C690.321 875.682 685.23 876.905 681.468 876.762C673.687 876.467 671.608 875.942 670.654 874.029C669.955 872.626 669.252 872.279 668.249 872.84C667.069 873.5 666.493 871.924 664.793 863.387C662.767 853.205 658.606 843.069 653.846 836.713C652.687 835.166 651.425 832.846 651.042 831.557C650.658 830.268 649.399 827.737 648.245 825.933C647.09 824.128 645.348 821.386 644.374 819.839C643.4 818.292 640.34 812.597 637.574 807.184C634.808 801.77 630.5 793.332 628 788.434C625.5 783.536 621.997 775.943 620.215 771.56C614.779 758.187 613.83 756.196 612.388 755.141C611.624 754.582 610.708 752.669 610.352 750.89C609.715 747.706 609.526 747.594 598.48 743.843C592.306 741.747 586.621 739.78 585.848 739.473C585.075 739.165 583.106 738.489 581.473 737.97L578.505 737.026L576.412 742.34C575.26 745.263 573.749 748.123 573.052 748.695C572.356 749.268 571.786 750.201 571.786 750.769C571.786 752.295 564.414 754.006 559.987 753.507C555.414 752.992 554.12 754.443 553.165 761.158C552.643 764.823 552.205 765.515 550.229 765.795C548.951 765.976 546.845 766.862 545.55 767.765C544.254 768.667 541.132 770.181 538.611 771.128L534.029 772.851L532.259 770.665L530.49 768.48L528.494 773.204C526.346 778.289 522.399 780.083 517.243 778.317C511.041 776.194 508.735 777.27 507.615 782.809C506.006 790.767 503.481 794.938 498.665 797.593C496.345 798.871 493.44 800.709 492.211 801.676C490.981 802.643 489.011 803.434 487.832 803.434C486.212 803.434 485.538 804.122 485.07 806.255C483.772 812.165 479.812 818.433 477.377 818.433C476.656 818.433 474.515 819.488 472.618 820.777C470.721 822.066 468.317 823.135 467.277 823.152C463.294 823.219 458.255 826.574 455.259 831.155C451.817 836.415 448.638 838.257 441.958 838.866C436.64 839.351 434.918 840.356 434.918 842.977C434.918 843.976 434.586 844.587 434.179 844.336C433.772 844.084 432.48 845.97 431.307 848.527C428.123 855.468 423.464 859.736 419.166 859.649C411.289 859.489 409.506 860.871 405.028 870.6C404.085 872.651 389.241 876.955 386.603 875.943C385.985 875.706 385.213 876.485 384.888 877.674C384.388 879.5 384.139 879.618 383.287 878.43C382.39 877.18 382.217 877.18 381.73 878.43C379.989 882.897 375.061 886.066 370.841 885.433C366.06 884.716 363.169 885.897 362.195 888.963C361.829 890.117 360.481 892.647 359.198 894.584L356.867 898.106L349.179 897.795C341.819 897.497 341.506 897.567 341.837 899.441C342.2 901.493 339.619 904.679 331.693 911.958L327.369 915.929L322.318 914.975C319.54 914.451 316.588 913.809 315.758 913.548C314.833 913.257 312.84 914.482 310.602 916.718C303.131 924.184 298.694 925.711 293.831 922.491C290.175 920.069 289.973 920.107 288.816 923.428C288.276 924.975 287.424 926.24 286.922 926.24C286.42 926.24 283.179 928.139 279.718 930.459C276.258 932.779 272.956 934.687 272.38 934.698C271.804 934.71 270.278 935.544 268.988 936.553C266.156 938.768 263.048 938.895 257.714 937.012C252.789 935.275 248.83 936.364 243.275 940.987C237.985 945.388 231.432 945.045 226.832 940.126C224.982 938.146 224.728 938.097 223.905 939.56C223.406 940.448 222.388 940.926 221.622 940.632C220.863 940.34 220.241 940.502 220.241 940.992C220.241 941.482 218.765 942.677 216.96 943.649C215.155 944.621 213.679 945.691 213.679 946.027C213.679 946.362 212.413 947.161 210.867 947.802C209.32 948.443 208.054 949.258 208.054 949.613C208.054 949.969 205.927 950.805 203.327 951.472C198.29 952.762 196.621 951.839 192.323 945.386C191.436 944.053 190.983 943.902 190.587 944.807C190.292 945.481 189.567 946.424 188.975 946.903C179.008 954.969 175.855 955.939 168.103 953.32C164.787 952.2 161.807 951.551 161.48 951.878C161.153 952.205 160.373 952.047 159.746 951.527C158.958 950.873 157.489 951.137 154.973 952.386C144.105 957.782 141.445 958.975 135.956 960.91C130.124 962.967 129.864 962.98 127.126 961.363C125.574 960.446 122.006 958.537 119.197 957.119L114.088 954.543L109.47 957.266C106.93 958.764 104.483 959.989 104.032 959.989C103.58 959.989 102.017 960.58 100.557 961.303C93.7709 964.663 90.4657 965.673 88.0209 965.136C86.5939 964.823 85.1602 964.997 84.8348 965.524C84.4604 966.129 83.0834 965.83 81.0855 964.708C79.3488 963.732 77.6945 963.167 77.4094 963.453C77.1243 963.738 75.4795 963.138 73.7544 962.12L70.6179 960.27L65.9804 962.28C63.4298 963.385 59.4446 964.84 57.1244 965.512C54.8042 966.184 52.273 967.024 51.4996 967.379C50.7262 967.734 46.7933 967.682 42.7597 967.264L42.7576 967.259Z" fill="black"/>
</svg>
