<svg width="3536" height="1512" viewBox="0 0 3536 1512" fill="none" xmlns="http://www.w3.org/2000/svg">
<g id="horizon">
<g id="mountain">
<path id="grass" d="M2431.32 833.304L3536 970.047V1155L0 1297.99V966.827L332.182 901.804L2431.32 833.304Z" fill="url(#paint0_linear)"/>
<path id="path68392" d="M1132.2 955.249L1211.74 1030.14L1406.53 1116.55L1489.39 984.318L1327.17 945.995L1132.2 955.249Z" fill="#6C7D53"/>
<path id="path68390" d="M146.207 937.615L191.433 1056.11L296.277 1041.3L335.336 1095L499.851 996.657L551.19 998.716L508.019 1098.7L530.633 1126.47L686.87 1104.26L742.375 1078.33L998.986 944.776L614.918 806.153L261.208 907.615L146.207 937.615Z" fill="#506850"/>
<path id="path67439" d="M368.828 867.893L441.526 745.217L628.46 478.236L871.473 247.333L964.94 514.315L1061.08 656.224L1132.2 955.25L493.551 960.179L368.828 867.893Z" fill="#320D40"/>
<path id="path67441" d="M628.46 478.235L804.326 96.9448L871.474 247.332L628.46 478.235" fill="#898795"/>
<path id="path67443" d="M804.326 96.9435L992.214 0L1150.83 449.851L871.475 247.331L804.326 96.9435Z" fill="#BAB8C5"/>
<path id="path67445" d="M992.212 0L1162.16 204.942L1238.64 332.498L1150.83 449.851L992.212 0Z" fill="#FFFFD7"/>
<path id="path68394" d="M1357.6 913.31L1327.17 945.996L1197.23 968.65L1132.2 955.25L1061.08 656.224L1150.83 721.974L1357.6 913.31Z" fill="#4B1B43"/>
<path id="path67449" d="M1150.83 449.853L1238.64 332.5L1362.32 571.457L1493.56 674.353L1452.93 825.178L1390.05 870.485L1357.6 913.309L1260.35 544.245L1150.83 449.853Z" fill="#662044"/>
<path id="path67453" d="M1460.51 369.916L1412.36 610.573L1362.32 571.456L1310.39 471.111L1460.51 369.916Z" fill="#391342"/>
<path id="path67455" d="M1493.56 674.352L1543.6 629.281L1460.52 369.916L1412.36 610.573L1493.56 674.352Z" fill="#4D1B41"/>
<path id="path67457" d="M1460.52 369.916L1600.25 539.141L1543.6 629.281L1460.52 369.916Z" fill="#5F2141"/>
<path id="path67459" d="M1600.25 539.14L1694.67 549.77L1543.6 629.28L1600.25 539.14Z" fill="#381444"/>
<path id="path67461" d="M1694.67 549.771L1821.82 742.114L1675.11 798.748L1543.6 629.281L1694.67 549.771Z" fill="#3C1742"/>
<path id="path67463" d="M1493.56 674.353L1543.6 629.282L1675.1 798.749L1628.99 847.831L1493.56 674.353Z" fill="#632244"/>
<path id="path67465" d="M1452.93 825.176L1493.56 674.351L1628.99 847.829L1452.93 825.176Z" fill="#571D43"/>
<path id="path67467" d="M1246.66 345.68L1377.43 338.452L1268.38 388.625L1246.66 345.68Z" fill="#FEDAD1"/>
<path id="path68396" d="M1357.6 913.31L1489.39 984.319L1327.18 945.996L1357.6 913.31Z" fill="#7A8953"/>
<path id="path68729" d="M1516.28 917.544L1590.42 914.271L1628.99 847.828L1452.93 825.175L1516.28 917.544Z" fill="#8C9552"/>
<path id="path68731" d="M1516.28 917.544L1517.73 956.821L1489.39 984.316L1357.6 913.306L1390.05 870.482L1452.93 825.175L1516.28 917.544Z" fill="#9A9E54"/>
<path id="path68733" d="M1516.28 917.545L1590.42 914.272L1692.9 893.324L1753.95 922.782L1820.82 943.076H1736.51L1567.88 981.044L1517.73 956.823L1516.28 917.545Z" fill="#607C54"/>
<path id="path68735" d="M1628.99 847.829L1692.9 893.323L1590.42 914.271L1628.99 847.829Z" fill="#748455"/>
<path id="path68737" d="M1675.1 798.747L1783.02 918.854L1820.82 943.075L1753.95 922.781L1692.9 893.323L1628.99 847.829L1675.1 798.747Z" fill="#9D9F54"/>
<path id="path68739" d="M1675.1 798.75L1821.82 742.116L1795.38 783.349L1783.02 918.856L1675.1 798.75Z" fill="#677D53"/>
<path id="path68741" d="M1736.51 943.077L1700.89 1034.07L1567.89 981.045L1736.51 943.077Z" fill="#738458"/>
<path id="path68743" d="M1517.73 956.821L1567.89 981.042L1700.89 1034.07L1653.65 1085.78L1489.39 984.315L1517.73 956.821Z" fill="#979B58"/>
<path id="path68745" d="M1489.39 984.317L1653.65 1085.78L1569.34 1162.38L1406.53 1116.55L1489.39 984.317Z" fill="#7F8E57"/>
<path id="path68747" d="M1821.82 742.116L1872.91 826.611L1922.25 921.503L1932.01 954.831L1820.82 943.078L1783.02 918.856L1795.38 783.349L1821.82 742.116Z" fill="#7B8956"/>
<path id="path68749" d="M1821.82 742.116L1972.73 791.198L2048.19 836.505L2076.43 850.218L2075.91 965.941L1932.01 954.832L1922.25 921.504L1821.82 742.116Z" fill="#989B56"/>
<path id="path69310" d="M871.473 247.333L964.94 514.315L1061.08 656.224L1357.6 913.31L1260.35 544.245L1150.83 449.853L871.473 247.333Z" fill="#3B1641"/>
<path id="path69312" d="M1268.38 388.625L1377.43 338.452L1460.51 369.916L1310.39 471.111L1268.38 388.625Z" fill="#BEBDC5"/>
</g>
<g id="trees">
<path id="path67585" d="M1883.27 795.995L1864.47 827.729L1885.76 814.984L1883.27 795.995Z" fill="#2D4042"/>
<path id="path67587" d="M1864.47 827.729L1883.07 854.728L1887.63 880.444L1903.17 875.947L1931.6 816.525L1885.77 814.983L1864.47 827.729Z" fill="#282F3F"/>
<path id="path67589" d="M1883.27 795.993L1906.94 779.621L1966.54 789.497L1931.6 816.523L1885.76 814.981L1883.27 795.993Z" fill="#445D4C"/>
<path id="path67591" d="M1931.6 816.523L1958.68 832.519L1966.54 789.498L1931.6 816.523Z" fill="#55664F"/>
<path id="path67595" d="M1931.6 816.523L1958.68 832.519L1965.92 871.198L1945.41 881.941L1903.16 875.945L1931.6 816.523Z" fill="#324043"/>
<path id="path67597" d="M1913.92 882.926L1905.57 961.368H1938.97L1930.62 882.573L1913.92 882.926Z" fill="#431B40"/>
<path id="path67599" d="M1887.62 880.443L1919.57 890.419L1945.41 881.942L1903.16 875.946L1887.62 880.443Z" fill="#2D2A3D"/>
<path id="path67609" d="M1966.54 789.498L1987.13 829.021L1987.05 851.96L1965.92 871.199L1958.68 832.519L1966.54 789.498Z" fill="#52624F"/>
<path id="path67617" d="M1864.47 827.728L1867.3 862.712L1887.63 880.443L1883.07 854.727L1864.47 827.728Z" fill="#232134"/>
<path id="path67585-1-9-6" d="M2222.09 798.451L2201.56 825.074L2222.42 815.074L2222.09 798.451Z" fill="#2D4042"/>
<path id="path67587-2-7-3" d="M2201.56 825.075L2215.88 849.473L2217.42 872.046L2232.16 868.922L2264.38 818.728L2222.43 815.075L2201.56 825.075Z" fill="#282F3F"/>
<path id="path67589-3-2-4" d="M2222.09 798.45L2245.51 785.419L2299.25 797.008L2264.38 818.726L2222.42 815.073L2222.09 798.45Z" fill="#445D4C"/>
<path id="path67591-6-3-6" d="M2264.38 818.727L2287.62 833.991L2299.25 797.008L2264.38 818.727Z" fill="#55664F"/>
<path id="path67597-0-5-4" d="M2263.17 867.476L2292.91 912.936L2286.59 1004.85L2317.69 1004.34L2312.79 915.257L2343.38 872.553L2334.75 872.458L2306.38 903.206L2268.6 858.424L2263.17 867.476Z" fill="#431B40"/>
<path id="path67595-8-5-0" d="M2264.38 818.728L2287.62 833.992L2290.29 867.964L2270.35 876.264L2232.15 868.922L2264.38 818.728Z" fill="#324043"/>
<path id="path67599-5-8-4" d="M2217.42 872.045L2245.74 882.325L2270.35 876.263L2232.15 868.921L2217.42 872.045Z" fill="#2D2A3D"/>
<path id="path67609-1-1-6" d="M2299.25 797.008L2314.11 832.387L2311.68 852.314L2290.3 867.963L2287.62 833.991L2299.25 797.008Z" fill="#52624F"/>
<path id="path67617-0-9-24" d="M2201.56 825.073L2200.57 855.613L2217.43 872.044L2215.88 849.471L2201.56 825.073Z" fill="#232134"/>
<path id="path67585-1-9-1-2" d="M2346.7 818.479L2328.66 830.428L2342.41 830L2346.7 818.479Z" fill="#2D4042"/>
<path id="path67587-2-7-0-0" d="M2328.66 830.431L2329.7 851.611L2324.45 867.594L2333.11 869.997L2363.68 845.466L2342.42 830.007L2328.66 830.431Z" fill="#282F3F"/>
<path id="path67589-3-2-8-3" d="M2346.7 818.483L2362.62 816.763L2388 841.313L2363.68 845.466L2342.41 830.004L2346.7 818.483Z" fill="#445D4C"/>
<path id="path67591-6-3-9-7" d="M2363.68 845.462L2371.89 863.12L2388 841.309L2363.68 845.462Z" fill="#55664F"/>
<path id="path67595-8-5-5-6" d="M2363.68 845.462L2371.89 863.12L2364.19 887.282L2351.38 886.826L2333.1 869.989L2363.68 845.462Z" fill="#324043"/>
<path id="path67599-5-8-1-5" d="M2324.45 867.589L2336.7 883.394L2351.38 886.829L2333.1 869.992L2324.45 867.589Z" fill="#2D2A3D"/>
<path id="path67609-1-1-1-4" d="M2388 841.309L2386.37 870.198L2379.73 883.135L2364.19 887.283L2371.89 863.12L2388 841.309Z" fill="#52624F"/>
<path id="path67617-0-9-2-4" d="M2328.66 830.428L2319.93 851.101L2324.46 867.591L2329.7 851.608L2328.66 830.428Z" fill="#232134"/>
<path id="path67585-1-9-6-8" d="M2601.11 851.28L2582.86 888.252L2605.22 872.121L2601.11 851.28Z" fill="#2D4042"/>
<path id="path67587-2-7-3-2" d="M2582.86 888.252L2605.19 916.482L2612.06 944.598L2628.73 938.159L2655.49 869.56L2605.23 872.121L2582.86 888.252Z" fill="#282F3F"/>
<path id="path67589-3-2-4-5" d="M2601.11 851.281L2625.8 830.904L2691.73 836.311L2655.49 869.561L2605.22 872.123L2601.11 851.281Z" fill="#445D4C"/>
<path id="path67591-6-3-6-2" d="M2655.49 869.56L2686.28 884.789L2691.73 836.311L2655.49 869.56Z" fill="#55664F"/>
<path id="path67597-0-5-4-2" d="M2667.39 936.615L2697.13 982.075L2690.82 1073.99L2721.92 1073.48L2717.01 984.396L2747.6 941.692L2738.98 941.598L2710.61 972.345L2672.83 927.563L2667.39 936.615Z" fill="#431B40"/>
<path id="path67595-8-5-0-9" d="M2655.49 869.56L2686.28 884.789L2697.03 927.042L2675.38 940.876L2628.71 938.16L2655.49 869.56Z" fill="#324043"/>
<path id="path67599-5-8-4-4" d="M2612.05 944.601L2647.73 952.695L2675.38 940.878L2628.71 938.162L2612.05 944.601Z" fill="#2D2A3D"/>
<path id="path67609-1-1-6-7" d="M2691.73 836.311L2717.15 878.255L2718.74 903.721L2697.04 927.042L2686.28 884.789L2691.73 836.311Z" fill="#52624F"/>
<path id="path67617-0-9-24-7" d="M2582.86 888.251L2588.52 926.814L2612.06 944.597L2605.19 916.482L2582.86 888.251Z" fill="#232134"/>
<path id="path67585-1-9-1-2-0" d="M2755.75 890.087L2733.49 902.036L2750.46 901.607L2755.75 890.087Z" fill="#2D4042"/>
<path id="path67587-2-7-0-0-7" d="M2733.49 902.035L2734.78 923.215L2728.31 939.198L2738.98 941.601L2776.69 917.07L2750.46 901.611L2733.49 902.035Z" fill="#282F3F"/>
<path id="path67589-3-2-8-3-2" d="M2755.75 890.086L2775.39 888.367L2806.69 912.917L2776.69 917.07L2750.46 901.608L2755.75 890.086Z" fill="#445D4C"/>
<path id="path67591-6-3-9-7-3" d="M2776.69 917.071L2786.83 934.728L2806.69 912.917L2776.69 917.071Z" fill="#55664F"/>
<path id="path67595-8-5-5-6-7" d="M2776.69 917.07L2786.83 934.728L2777.32 958.89L2761.53 958.433L2738.97 941.597L2776.69 917.07Z" fill="#324043"/>
<path id="path67599-5-8-1-5-6" d="M2728.3 939.193L2743.42 954.998L2761.53 958.433L2738.97 941.596L2728.3 939.193Z" fill="#2D2A3D"/>
<path id="path67609-1-1-1-4-8" d="M2806.69 912.917L2804.69 941.807L2796.49 954.743L2777.32 958.891L2786.83 934.728L2806.69 912.917Z" fill="#52624F"/>
<path id="path67617-0-9-2-4-9" d="M2733.49 902.036L2722.73 922.708L2728.31 939.199L2734.78 923.215L2733.49 902.036Z" fill="#232134"/>
<path id="path67585-5" d="M2442.02 832.921L2423.22 864.654L2444.51 851.909L2442.02 832.921Z" fill="#2D4042"/>
<path id="path67587-3" d="M2423.22 864.654L2441.82 891.653L2446.38 917.369L2461.92 912.872L2490.35 853.45L2444.52 851.908L2423.22 864.654Z" fill="#282F3F"/>
<path id="path67589-8" d="M2442.02 832.918L2465.69 816.546L2525.29 826.423L2490.35 853.448L2444.51 851.906L2442.02 832.918Z" fill="#445D4C"/>
<path id="path67591-5" d="M2490.35 853.449L2517.43 869.445L2525.29 826.423L2490.35 853.449Z" fill="#55664F"/>
<path id="path67595-7" d="M2490.35 853.448L2517.43 869.445L2524.67 908.124L2504.16 918.867L2461.91 912.87L2490.35 853.448Z" fill="#324043"/>
<path id="path67597-3" d="M2472.67 919.851L2464.32 998.293H2497.72L2489.37 919.498L2472.67 919.851Z" fill="#431B40"/>
<path id="path67599-4" d="M2446.37 917.369L2478.32 927.345L2504.16 918.868L2461.91 912.871L2446.37 917.369Z" fill="#2D2A3D"/>
<path id="path67609-3" d="M2525.29 826.423L2545.88 865.946L2545.8 888.885L2524.67 908.124L2517.43 869.445L2525.29 826.423Z" fill="#52624F"/>
<path id="path67617-5" d="M2423.22 864.653L2426.05 899.638L2446.38 917.368L2441.82 891.652L2423.22 864.653Z" fill="#232134"/>
<path id="path67585-1" d="M1018.42 892.006L987.044 941.624L1022.57 921.696L1018.42 892.006Z" fill="#2D4042"/>
<path id="path67587-2" d="M987.044 941.623L1018.09 983.839L1025.7 1024.05L1051.62 1017.02L1099.06 924.105L1022.59 921.694L987.044 941.623Z" fill="#282F3F"/>
<path id="path67589-3" d="M1018.42 892.006L1057.91 866.406L1157.36 881.849L1099.06 924.105L1022.57 921.694L1018.42 892.006Z" fill="#445D4C"/>
<path id="path67591-6" d="M1099.06 924.107L1144.24 949.117L1157.36 881.851L1099.06 924.107Z" fill="#55664F"/>
<path id="path67595-8" d="M1099.06 924.104L1144.25 949.115L1156.32 1009.59L1122.11 1026.39L1051.6 1017.01L1099.06 924.104Z" fill="#324043"/>
<path id="path67597-0" d="M1069.56 1027.93L1055.63 1150.58H1111.35L1097.42 1027.37L1069.56 1027.93Z" fill="#431B40"/>
<path id="path67599-5" d="M1025.68 1024.05L1078.98 1039.65L1122.1 1026.39L1051.6 1017.02L1025.68 1024.05Z" fill="#2D2A3D"/>
<path id="path67609-1" d="M1157.36 881.851L1191.72 943.648L1191.58 979.514L1156.32 1009.59L1144.25 949.117L1157.36 881.851Z" fill="#52624F"/>
<path id="path67617-0" d="M987.044 941.621L991.775 996.322L1025.7 1024.05L1018.09 983.837L987.044 941.621Z" fill="#232134"/>
<path id="path67585-1-9" d="M674.377 837.532L624.51 859.899L662.52 859.1L674.377 837.532Z" fill="#2D4042"/>
<path id="path67587-2-7" d="M624.509 859.897L627.38 899.546L612.884 929.468L636.797 933.966L721.303 888.043L662.533 859.104L624.509 859.897Z" fill="#282F3F"/>
<path id="path67589-3-2" d="M674.377 837.529L718.385 834.309L788.539 880.267L721.304 888.043L662.522 859.097L674.377 837.529Z" fill="#445D4C"/>
<path id="path67591-6-3" d="M721.303 888.045L744.019 921.101L788.538 880.269L721.303 888.045Z" fill="#55664F"/>
<path id="path67597-0-5" d="M724.165 950.946L763.917 1009.14L755.477 1126.8L797.043 1126.14L790.489 1012.11L831.378 957.444L819.85 957.311L781.932 996.67L731.433 939.346L724.165 950.946Z" fill="#431B40"/>
<path id="path67595-8-5" d="M721.305 888.043L744.02 921.099L722.715 966.33L687.325 965.478L636.786 933.959L721.305 888.043Z" fill="#324043"/>
<path id="path67599-5-8" d="M612.871 929.463L646.749 959.05L687.323 965.48L636.785 933.961L612.871 929.463Z" fill="#2D2A3D"/>
<path id="path67609-1-1" d="M788.538 880.269L784.043 934.351L765.68 958.568L722.716 966.333L744.018 921.101L788.538 880.269Z" fill="#52624F"/>
<path id="path67617-0-9" d="M624.509 859.899L600.382 898.6L612.884 929.47L627.38 899.548L624.509 859.899Z" fill="#232134"/>
<path id="path67585-1-9-1" d="M840.308 900.741L813.17 913.864L833.856 913.394L840.308 900.741Z" fill="#2D4042"/>
<path id="path67587-2-7-0" d="M813.17 913.863L814.733 937.125L806.844 954.68L819.858 957.319L865.847 930.377L833.864 913.398L813.17 913.863Z" fill="#282F3F"/>
<path id="path67589-3-2-8" d="M840.308 900.739L864.258 898.85L902.436 925.813L865.846 930.375L833.856 913.393L840.308 900.739Z" fill="#445D4C"/>
<path id="path67591-6-3-9" d="M865.846 930.376L878.208 949.77L902.436 925.814L865.846 930.376Z" fill="#55664F"/>
<path id="path67595-8-5-5" d="M865.847 930.375L878.209 949.768L866.614 976.305L847.354 975.805L819.851 957.313L865.847 930.375Z" fill="#324043"/>
<path id="path67599-5-8-1" d="M806.836 954.675L825.273 972.034L847.354 975.806L819.85 957.314L806.836 954.675Z" fill="#2D2A3D"/>
<path id="path67609-1-1-1" d="M902.436 925.814L899.99 957.544L889.996 971.752L866.615 976.308L878.208 949.77L902.436 925.814Z" fill="#52624F"/>
<path id="path67617-0-9-2" d="M813.17 913.86L800.04 936.566L806.844 954.677L814.733 937.122L813.17 913.86Z" fill="#232134"/>
<path id="path67553" d="M284.564 792.115L257.23 822.782L287.231 814.965L284.564 792.115Z" fill="#2C3743"/>
<path id="path67555" d="M257.231 822.782L253.231 863.069L289.231 893.736L305.898 888.324L319.899 828.795L287.231 814.964L257.231 822.782Z" fill="#283048"/>
<path id="path67557" d="M284.565 792.116L328.678 775.199L373.9 784.299L319.899 828.796L287.232 814.966L284.565 792.116Z" fill="#495A47"/>
<path id="path67559" d="M319.898 828.797L385.566 833.006L373.899 784.3L319.898 828.797Z" fill="#53614B"/>
<path id="path67561" d="M373.899 784.3L396.819 825.176L395.899 859.463L373.232 882.614L385.566 833.006L373.899 784.3Z" fill="#66724A"/>
<path id="path67563" d="M319.899 828.796L385.566 833.005L373.233 882.613L351.233 895.541L305.899 888.325L319.899 828.796Z" fill="#3D414A"/>
<path id="path67567" d="M317.447 896.723L308.49 991.115H344.318L335.361 896.298L317.447 896.723Z" fill="#3B1A47"/>
<path id="path67565" d="M289.231 893.738L323.504 905.742L351.232 895.541L305.898 888.326L289.231 893.738Z" fill="#1E1834"/>
<path id="path67569" d="M284.564 792.115L257.23 822.782L287.231 814.965L284.564 792.115Z" fill="#2C3743"/>
<path id="path67571" d="M257.231 822.782L253.231 863.069L289.231 893.736L305.898 888.324L319.899 828.795L287.231 814.964L257.231 822.782Z" fill="#283048"/>
<path id="path67573" d="M284.565 792.116L328.678 775.199L373.9 784.299L319.899 828.796L287.232 814.966L284.565 792.116Z" fill="#495A47"/>
<path id="path67575" d="M319.898 828.797L385.566 833.006L373.899 784.3L319.898 828.797Z" fill="#53614B"/>
<path id="path67577" d="M373.899 784.3L396.819 825.176L395.899 859.463L373.232 882.614L385.566 833.006L373.899 784.3Z" fill="#66724A"/>
<path id="path67579" d="M319.899 828.796L385.566 833.005L373.233 882.613L351.233 895.541L305.899 888.325L319.899 828.796Z" fill="#3D414A"/>
<path id="path67581" d="M317.447 896.723L308.49 991.115H344.318L335.361 896.298L317.447 896.723Z" fill="#3B1A47"/>
<path id="path67583" d="M289.231 893.738L323.504 905.742L351.232 895.541L305.898 888.326L289.231 893.738Z" fill="#1E1834"/>
<path id="path69314" d="M1943.76 1136.14L2074.67 1110.92L2191.6 1105.19L2289.46 1110.92L2429.27 1099.46L2690.82 1073.99L2721.92 1073.48L2422.91 1115.51L2354.28 1122.39L2243.71 1129.26L2067.04 1143.02L1943.76 1136.14Z" fill="#648155"/>
<path id="path69314-7" d="M1996.51 1060.95L2080.83 1035.73L2156.14 1030L2219.18 1035.73L2309.23 1024.27L2464.32 998.292H2497.72L2305.13 1040.32L2260.93 1047.2L2189.71 1054.08L2075.92 1067.83L1996.51 1060.95Z" fill="#648155"/>
<path id="path69314-7-0" d="M1913.39 1034.67L1981.52 1009.45L2042.37 1003.72L2093.3 1009.45L2165.73 1008.07L2286.59 1004.85L2317.69 1004.34L2278.23 1012.74L2127.04 1020.91L2069.49 1027.79L1977.55 1041.55L1913.39 1034.67Z" fill="#648155"/>
<path id="path69314-7-0-1" d="M1625.1 991.698L1677.99 966.478L1725.23 960.747L1764.77 966.478L1820.99 965.1L1913.04 961.37H1938.97L1908.34 969.767L1790.96 977.942L1746.28 984.82L1674.91 998.576L1625.1 991.698Z" fill="#607C54"/>
<path id="path69314-7-4" d="M610.149 1213.24L694.466 1188.02L769.779 1182.29L832.812 1188.02L922.86 1176.56L1055.63 1150.58H1111.35L918.767 1192.61L874.562 1199.48L803.342 1206.36L689.555 1220.12L610.149 1213.24Z" fill="#425C42"/>
<path id="path69314-7-4-8" d="M0 1032.72L56.6449 1007.5L107.24 1001.77L149.586 994.464L210.081 996.036L308.49 991.115H344.318L207.331 1012.08L177.634 1005.93L129.788 1025.84L53.3453 1039.6L0 1032.72Z" fill="#425C42"/>
<path id="path69314-7-4-8-8" d="M418.135 1130.88L485.786 1116.29L529.306 1113.4L602.313 1129.49L662.808 1131.06L761.217 1126.14H797.044L660.058 1147.11L625.643 1154.43L529.842 1183.56L450.254 1166.83L418.135 1130.88Z" fill="#425C42"/>
</g>
<g id="river">
<path id="path69636" d="M3566 1005L2822.28 1099.34L1968.96 1139.71L1098.22 1245.68L88.1672 1260.82L-1113.45 1321.37L-1426.91 1427.34L-2733.02 1397.06L-3470.81 1477.96L-4094 1507.01L-3455.47 1507.47L-2733.02 1447.53L-1479.16 1467.71L-956.715 1366.79L227.485 1316.33L1045.98 1301.19L2003.79 1180.08H2857.11L3563.89 1086.3L3566 1005Z" fill="#402F14"/>
<path id="path73086" d="M3230.91 1131.51L3563.13 1232.42L3563.94 1086.29L3230.91 1131.51Z" fill="#94B2A8"/>
<path id="path73088" d="M2857.11 1180.08L3268.42 1259.93L3230.92 1131.51L2857.11 1180.08Z" fill="#ACCCBB"/>
<path id="path73090" d="M2169.96 1253.82L2857.1 1180.07H2003.78L2169.96 1253.82Z" fill="#94B2A8"/>
<path id="path73094" d="M2866.55 1296.62L3268.42 1259.93L2857.11 1180.07L2866.55 1296.62Z" fill="#8CB8A1"/>
<path id="path73100" d="M2303.92 1308.85L2857.1 1180.07L2169.96 1253.82L2303.92 1308.85Z" fill="#87A99D"/>
<path id="path73102" d="M1614.92 1312.36L2003.79 1180.07L1531.74 1239.26L1614.92 1312.36Z" fill="#94B2A8"/>
<path id="path73104" d="M2303.92 1308.85L2866.55 1296.62L2857.1 1180.07L2303.92 1308.85Z" fill="#6D9790"/>
<path id="path73108" d="M1614.92 1312.36L2169.97 1253.82L2003.79 1180.07L1614.92 1312.36Z" fill="#6D9790"/>
<path id="path73110" d="M1614.92 1312.36L1923.48 1353.19L2169.97 1253.82L1614.92 1312.36Z" fill="#709993"/>
<path id="path73112" d="M1199.54 1365.94L1531.73 1239.28L1029.04 1301.2L1199.54 1365.94Z" fill="#CCEDD3"/>
<path id="path73114" d="M1923.48 1353.19L2303.93 1308.86L2169.97 1253.82L1923.48 1353.19Z" fill="#8FAFAA"/>
<path id="path73116" d="M1199.55 1365.94L1614.92 1312.37L1531.74 1239.28L1199.55 1365.94Z" fill="#BAD4C6"/>
<path id="path73118" d="M1660.93 1402.12L1923.48 1353.2L1614.92 1312.37L1660.93 1402.12Z" fill="#668A80"/>
<path id="path73120" d="M275.054 1396.33L645.947 1308.41L227.481 1316.33L275.054 1396.33Z" fill="#94B2A8"/>
<path id="path73122" d="M275.051 1396.33L669.095 1415.78L645.942 1308.41L275.051 1396.33Z" fill="#6D9790"/>
<path id="path73124" d="M1199.55 1365.94L1660.92 1402.12L1614.92 1312.37L1199.55 1365.94Z" fill="#ACCCBB"/>
<path id="path73126" d="M669.103 1415.78L1029.05 1301.19L645.949 1308.41L669.103 1415.78Z" fill="#94B2A8"/>
<path id="path73128" d="M-293.283 1335.78L275.053 1396.32L227.48 1316.32L-293.283 1335.78Z" fill="#CCEDD3"/>
<path id="path73134" d="M669.106 1415.78L1199.55 1365.93L1029.05 1301.19L669.106 1415.78Z" fill="#8FAFAA"/>
<path id="path73138" d="M-289.494 1419.03L275.053 1396.33L-293.283 1335.79L-289.494 1419.03Z" fill="#8FAFAA"/>
<path id="path73140" d="M1191.7 1421.87L1660.92 1402.11L1199.54 1365.93L1191.7 1421.87Z" fill="#8CB8A1"/>
<path id="path73142" d="M669.106 1415.78L1191.7 1421.87L1199.55 1365.93L669.106 1415.78Z" fill="#8FAFAA"/>
<path id="path73154" d="M688.432 1466.84L1191.7 1421.87L669.106 1415.78L688.432 1466.84Z" fill="#8FAFAA"/>
<path id="path73160" d="M-289.493 1419.02L146.233 1508.75L275.055 1396.32L-289.493 1419.02Z" fill="#ACCCBB"/>
<path id="path73164" d="M275.051 1396.32L688.421 1466.84L669.096 1415.78L275.051 1396.32Z" fill="#709993"/>
<path id="path73170" d="M146.234 1508.75L688.425 1466.84L275.055 1396.32L146.234 1508.75Z" fill="#72978D"/>
<path id="path73176" d="M-622.907 1508.76H146.239L-289.485 1419.03L-622.907 1508.76Z" fill="#94B2A8"/>
<path id="path73184" d="M1923.48 1353.19L2866.55 1296.62L2303.93 1308.86L1923.48 1353.19Z" fill="#668A80"/>
<path id="path73188" d="M3268.42 1259.93L3563.13 1232.41L3230.91 1131.51L3268.42 1259.93Z" fill="#8CB8A1"/>
</g>
</g>
<defs>
<linearGradient id="paint0_linear" x1="189.43" y1="1005.69" x2="3336.63" y2="1051.42" gradientUnits="userSpaceOnUse">
<stop stop-color="#7F8954"/>
<stop offset="1" stop-color="#879755"/>
</linearGradient>
</defs>
</svg>
