<svg width="3538" height="1246" viewBox="0 0 3538 1246" fill="none" xmlns="http://www.w3.org/2000/svg">
<g id="horizon">
<g id="mountain">
<path id="grass" d="M2432.89 798L3536 928.95V1243H5V925.867L336.712 863.598L2432.89 798Z" fill="url(#paint0_linear)"/>
<path id="path68392" d="M1135.6 914.779L1215.03 986.499L1409.54 1069.25L1492.28 942.616L1330.3 905.917L1135.6 914.779Z" fill="#6C7D53"/>
<path id="path68390" d="M151 897.892L196.163 1011.37L300.858 997.186L339.862 1048.61L504.144 954.433L555.411 956.405L512.301 1052.15L534.882 1078.75L690.898 1057.47L746.325 1032.65L1002.57 904.749L619.049 772L265.838 869.163L151 897.892Z" fill="#506850"/>
<path id="path67439" d="M373.307 831.124L445.902 713.645L632.571 457.975L875.241 236.855L968.576 492.525L1064.58 628.422L1135.6 914.78L497.853 919.5L373.307 831.124Z" fill="#320D40"/>
<path id="path67441" d="M632.572 457.974L808.188 92.8379L875.242 236.854L632.572 457.974Z" fill="#898795"/>
<path id="path67443" d="M808.189 92.8364L995.811 0L1154.21 430.792L875.243 236.853L808.189 92.8364Z" fill="#BAB8C5"/>
<path id="path67445" d="M995.809 0L1165.52 196.259L1241.89 318.412L1154.2 430.792L995.809 0Z" fill="#FFFFD7"/>
<path id="path68394" d="M1360.68 874.616L1330.3 905.918L1200.53 927.612L1135.6 914.78L1064.58 628.422L1154.2 691.387L1360.68 874.616Z" fill="#4B1B43"/>
<path id="path67449" d="M1154.2 430.794L1241.89 318.414L1365.4 547.247L1496.45 645.783L1455.88 790.218L1393.09 833.606L1360.68 874.616L1263.57 521.187L1154.2 430.794Z" fill="#662044"/>
<path id="path67453" d="M1463.45 354.244L1415.37 584.706L1365.4 547.245L1313.54 451.152L1463.45 354.244Z" fill="#391342"/>
<path id="path67455" d="M1496.45 645.782L1546.42 602.621L1463.45 354.244L1415.37 584.706L1496.45 645.782Z" fill="#4D1B41"/>
<path id="path67457" d="M1463.45 354.244L1602.99 516.3L1546.42 602.621L1463.45 354.244Z" fill="#5F2141"/>
<path id="path67459" d="M1602.99 516.298L1697.27 526.478L1546.42 602.62L1602.99 516.298Z" fill="#381444"/>
<path id="path67461" d="M1697.27 526.479L1824.25 710.674L1677.74 764.908L1546.42 602.621L1697.27 526.479Z" fill="#3C1742"/>
<path id="path67463" d="M1496.45 645.783L1546.42 602.622L1677.74 764.909L1631.69 811.912L1496.45 645.783Z" fill="#632244"/>
<path id="path67465" d="M1455.88 790.217L1496.45 645.782L1631.69 811.91L1455.88 790.217Z" fill="#571D43"/>
<path id="path67467" d="M1249.9 331.035L1380.48 324.113L1271.59 372.16L1249.9 331.035Z" fill="#FEDAD1"/>
<path id="path68396" d="M1360.68 874.617L1492.28 942.618L1330.3 905.918L1360.68 874.617Z" fill="#7A8953"/>
<path id="path68729" d="M1519.14 878.671L1593.17 875.536L1631.69 811.909L1455.88 790.215L1519.14 878.671Z" fill="#8C9552"/>
<path id="path68731" d="M1519.14 878.671L1520.59 916.284L1492.28 942.614L1360.68 874.613L1393.09 833.603L1455.88 790.215L1519.14 878.671Z" fill="#9A9E54"/>
<path id="path68733" d="M1519.14 878.672L1593.17 875.538L1695.5 855.477L1756.47 883.687L1823.24 903.121H1739.05L1570.67 939.481L1520.59 916.286L1519.14 878.672Z" fill="#607C54"/>
<path id="path68735" d="M1631.69 811.91L1695.5 855.477L1593.17 875.538L1631.69 811.91Z" fill="#748455"/>
<path id="path68737" d="M1677.74 764.907L1785.5 879.925L1823.24 903.12L1756.47 883.687L1695.5 855.476L1631.69 811.909L1677.74 764.907Z" fill="#9D9F54"/>
<path id="path68739" d="M1677.73 764.91L1824.24 710.676L1797.84 750.161L1785.5 879.928L1677.73 764.91Z" fill="#677D53"/>
<path id="path68741" d="M1739.05 903.123L1703.49 990.261L1570.67 939.482L1739.05 903.123Z" fill="#738458"/>
<path id="path68743" d="M1520.59 916.284L1570.67 939.479L1703.49 990.258L1656.31 1039.78L1492.28 942.614L1520.59 916.284Z" fill="#979B58"/>
<path id="path68745" d="M1492.28 942.616L1656.31 1039.78L1572.12 1113.13L1409.54 1069.25L1492.28 942.616Z" fill="#7F8E57"/>
<path id="path68747" d="M1824.25 710.676L1875.26 791.591L1924.53 882.463L1934.28 914.379L1823.24 903.123L1785.5 879.928L1797.84 750.161L1824.25 710.676Z" fill="#7B8956"/>
<path id="path68749" d="M1824.25 710.676L1974.94 757.678L2050.29 801.066L2078.49 814.198L2077.98 925.018L1934.28 914.379L1924.53 882.463L1824.25 710.676Z" fill="#989B56"/>
<path id="path69310" d="M875.241 236.855L968.576 492.525L1064.58 628.422L1360.68 874.616L1263.57 521.188L1154.2 430.795L875.241 236.855Z" fill="#3B1641"/>
<path id="path69312" d="M1271.58 372.16L1380.48 324.113L1463.45 354.244L1313.54 451.152L1271.58 372.16Z" fill="#BEBDC5"/>
</g>
<g id="trees">
<path id="path67585" d="M1883.27 762.271L1864.47 792.661L1885.76 780.455L1883.27 762.271Z" fill="#2D4042"/>
<path id="path67587" d="M1864.47 792.661L1883.07 818.516L1887.63 843.143L1903.17 838.836L1931.6 781.932L1885.77 780.455L1864.47 792.661Z" fill="#282F3F"/>
<path id="path67589" d="M1883.27 762.27L1906.94 746.591L1966.54 756.049L1931.6 781.93L1885.76 780.453L1883.27 762.27Z" fill="#445D4C"/>
<path id="path67591" d="M1931.6 781.93L1958.68 797.248L1966.54 756.05L1931.6 781.93Z" fill="#55664F"/>
<path id="path67595" d="M1931.6 781.93L1958.68 797.248L1965.92 834.288L1945.41 844.576L1903.16 838.834L1931.6 781.93Z" fill="#324043"/>
<path id="path67597" d="M1913.92 845.52L1905.57 920.638H1938.97L1930.62 845.181L1913.92 845.52Z" fill="#431B40"/>
<path id="path67599" d="M1887.62 843.142L1919.57 852.695L1945.41 844.577L1903.16 838.835L1887.62 843.142Z" fill="#2D2A3D"/>
<path id="path67609" d="M1966.54 756.05L1987.13 793.898L1987.05 815.866L1965.92 834.289L1958.68 797.248L1966.54 756.05Z" fill="#52624F"/>
<path id="path67617" d="M1864.47 792.66L1867.3 826.162L1887.63 843.142L1883.07 818.515L1864.47 792.66Z" fill="#232134"/>
<path id="path67585-1-9-6" d="M2222.09 764.624L2201.56 790.119L2222.42 780.542L2222.09 764.624Z" fill="#2D4042"/>
<path id="path67587-2-7-3" d="M2201.56 790.12L2215.88 813.484L2217.42 835.101L2232.16 832.109L2264.38 784.041L2222.43 780.543L2201.56 790.12Z" fill="#282F3F"/>
<path id="path67589-3-2-4" d="M2222.09 764.623L2245.51 752.144L2299.25 763.241L2264.38 784.04L2222.42 780.542L2222.09 764.623Z" fill="#445D4C"/>
<path id="path67591-6-3-6" d="M2264.38 784.04L2287.62 798.658L2299.25 763.242L2264.38 784.04Z" fill="#55664F"/>
<path id="path67597-0-5-4" d="M2263.17 830.725L2292.91 874.259L2286.59 962.28L2317.69 961.79L2312.79 876.481L2343.38 835.586L2334.75 835.496L2306.38 864.94L2268.6 822.056L2263.17 830.725Z" fill="#431B40"/>
<path id="path67595-8-5-0" d="M2264.38 784.042L2287.62 798.659L2290.29 831.192L2270.35 839.14L2232.15 832.109L2264.38 784.042Z" fill="#324043"/>
<path id="path67599-5-8-4" d="M2217.42 835.1L2245.74 844.944L2270.35 839.139L2232.15 832.108L2217.42 835.1Z" fill="#2D2A3D"/>
<path id="path67609-1-1-6" d="M2299.25 763.242L2314.11 797.122L2311.68 816.204L2290.3 831.191L2287.62 798.658L2299.25 763.242Z" fill="#52624F"/>
<path id="path67617-0-9-24" d="M2201.56 790.118L2200.57 819.364L2217.42 835.099L2215.88 813.482L2201.56 790.118Z" fill="#232134"/>
<path id="path67585-1-9-1-2" d="M2346.7 783.803L2328.66 795.245L2342.41 794.835L2346.7 783.803Z" fill="#2D4042"/>
<path id="path67587-2-7-0-0" d="M2328.66 795.248L2329.7 815.531L2324.45 830.837L2333.11 833.138L2363.67 809.646L2342.42 794.842L2328.66 795.248Z" fill="#282F3F"/>
<path id="path67589-3-2-8-3" d="M2346.7 783.806L2362.62 782.16L2388 805.669L2363.68 809.647L2342.41 794.84L2346.7 783.806Z" fill="#445D4C"/>
<path id="path67591-6-3-9-7" d="M2363.68 809.643L2371.89 826.553L2388 805.666L2363.68 809.643Z" fill="#55664F"/>
<path id="path67595-8-5-5-6" d="M2363.68 809.643L2371.89 826.553L2364.19 849.691L2351.38 849.254L2333.1 833.13L2363.68 809.643Z" fill="#324043"/>
<path id="path67599-5-8-1-5" d="M2324.45 830.833L2336.7 845.968L2351.38 849.257L2333.1 833.134L2324.45 830.833Z" fill="#2D2A3D"/>
<path id="path67609-1-1-1-4" d="M2388 805.666L2386.37 833.331L2379.73 845.72L2364.19 849.692L2371.89 826.553L2388 805.666Z" fill="#52624F"/>
<path id="path67617-0-9-2-4" d="M2328.66 795.246L2319.93 815.043L2324.46 830.835L2329.7 815.529L2328.66 795.246Z" fill="#232134"/>
<path id="path67585-1-9-6-8" d="M2601.11 815.214L2582.86 850.619L2605.22 835.173L2601.11 815.214Z" fill="#2D4042"/>
<path id="path67587-2-7-3-2" d="M2582.86 850.619L2605.19 877.654L2612.06 904.579L2628.73 898.412L2655.49 832.72L2605.23 835.172L2582.86 850.619Z" fill="#282F3F"/>
<path id="path67589-3-2-4-5" d="M2601.11 815.215L2625.8 795.702L2691.73 800.88L2655.49 832.721L2605.22 835.174L2601.11 815.215Z" fill="#445D4C"/>
<path id="path67591-6-3-6-2" d="M2655.49 832.72L2686.28 847.303L2691.73 800.879L2655.49 832.72Z" fill="#55664F"/>
<path id="path67597-0-5-4-2" d="M2667.39 896.935L2697.13 940.469L2690.82 1028.49L2721.92 1028L2717.01 942.691L2747.6 901.796L2738.98 901.706L2710.61 931.151L2672.83 888.266L2667.39 896.935Z" fill="#431B40"/>
<path id="path67595-8-5-0-9" d="M2655.49 832.72L2686.28 847.303L2697.03 887.766L2675.38 901.015L2628.71 898.413L2655.49 832.72Z" fill="#324043"/>
<path id="path67599-5-8-4-4" d="M2612.05 904.581L2647.73 912.333L2675.38 901.017L2628.71 898.415L2612.05 904.581Z" fill="#2D2A3D"/>
<path id="path67609-1-1-6-7" d="M2691.73 800.879L2717.15 841.046L2718.74 865.434L2697.04 887.766L2686.28 847.304L2691.73 800.879Z" fill="#52624F"/>
<path id="path67617-0-9-24-7" d="M2582.86 850.619L2588.52 887.548L2612.06 904.578L2605.19 877.654L2582.86 850.619Z" fill="#232134"/>
<path id="path67585-1-9-1-2-0" d="M2755.75 852.377L2733.49 863.82L2750.46 863.409L2755.75 852.377Z" fill="#2D4042"/>
<path id="path67587-2-7-0-0-7" d="M2733.49 863.819L2734.78 884.101L2728.31 899.408L2738.98 901.709L2776.69 878.217L2750.46 863.413L2733.49 863.819Z" fill="#282F3F"/>
<path id="path67589-3-2-8-3-2" d="M2755.75 852.377L2775.39 850.73L2806.69 874.24L2776.69 878.217L2750.46 863.41L2755.75 852.377Z" fill="#445D4C"/>
<path id="path67591-6-3-9-7-3" d="M2776.69 878.218L2786.83 895.127L2806.69 874.24L2776.69 878.218Z" fill="#55664F"/>
<path id="path67595-8-5-5-6-7" d="M2776.69 878.217L2786.83 895.127L2777.32 918.265L2761.53 917.828L2738.97 901.705L2776.69 878.217Z" fill="#324043"/>
<path id="path67599-5-8-1-5-6" d="M2728.3 899.403L2743.42 914.538L2761.53 917.828L2738.97 901.704L2728.3 899.403Z" fill="#2D2A3D"/>
<path id="path67609-1-1-1-4-8" d="M2806.69 874.24L2804.69 901.906L2796.49 914.294L2777.32 918.267L2786.83 895.128L2806.69 874.24Z" fill="#52624F"/>
<path id="path67617-0-9-2-4-9" d="M2733.49 863.82L2722.73 883.617L2728.31 899.409L2734.78 884.102L2733.49 863.82Z" fill="#232134"/>
<path id="path67585-5" d="M2442.02 797.633L2423.22 828.022L2444.51 815.817L2442.02 797.633Z" fill="#2D4042"/>
<path id="path67587-3" d="M2423.22 828.022L2441.82 853.877L2446.38 878.504L2461.92 874.197L2490.35 817.292L2444.52 815.816L2423.22 828.022Z" fill="#282F3F"/>
<path id="path67589-8" d="M2442.02 797.631L2465.69 781.952L2525.29 791.41L2490.35 817.29L2444.51 815.814L2442.02 797.631Z" fill="#445D4C"/>
<path id="path67591-5" d="M2490.35 817.291L2517.43 832.61L2525.29 791.411L2490.35 817.291Z" fill="#55664F"/>
<path id="path67595-7" d="M2490.35 817.291L2517.43 832.609L2524.67 869.649L2504.16 879.938L2461.91 874.195L2490.35 817.291Z" fill="#324043"/>
<path id="path67597-3" d="M2472.67 880.88L2464.32 955.999H2497.72L2489.37 880.542L2472.67 880.88Z" fill="#431B40"/>
<path id="path67599-4" d="M2446.37 878.503L2478.32 888.056L2504.16 879.938L2461.91 874.196L2446.37 878.503Z" fill="#2D2A3D"/>
<path id="path67609-3" d="M2525.29 791.411L2545.88 829.259L2545.8 851.226L2524.67 869.65L2517.43 832.609L2525.29 791.411Z" fill="#52624F"/>
<path id="path67617-5" d="M2423.22 828.021L2426.05 861.523L2446.38 878.503L2441.82 853.876L2423.22 828.021Z" fill="#232134"/>
<path id="path67585-1" d="M1018.42 854.215L987.044 901.73L1022.57 882.647L1018.42 854.215Z" fill="#2D4042"/>
<path id="path67587-2" d="M987.044 901.73L1018.09 942.157L1025.7 980.663L1051.62 973.929L1099.06 884.954L1022.59 882.646L987.044 901.73Z" fill="#282F3F"/>
<path id="path67589-3" d="M1018.42 854.215L1057.91 829.699L1157.36 844.488L1099.06 884.954L1022.57 882.645L1018.42 854.215Z" fill="#445D4C"/>
<path id="path67591-6" d="M1099.06 884.955L1144.24 908.907L1157.36 844.49L1099.06 884.955Z" fill="#55664F"/>
<path id="path67595-8" d="M1099.06 884.953L1144.25 908.904L1156.32 966.82L1122.11 982.906L1051.6 973.927L1099.06 884.953Z" fill="#324043"/>
<path id="path67597-0" d="M1069.56 984.378L1055.63 1101.83H1111.35L1097.42 983.849L1069.56 984.378Z" fill="#431B40"/>
<path id="path67599-5" d="M1025.68 980.663L1078.98 995.6L1122.1 982.907L1051.6 973.929L1025.68 980.663Z" fill="#2D2A3D"/>
<path id="path67609-1" d="M1157.36 844.49L1191.72 903.669L1191.58 938.016L1156.32 966.822L1144.25 908.907L1157.36 844.49Z" fill="#52624F"/>
<path id="path67617-0" d="M987.044 901.728L991.775 954.112L1025.7 980.661L1018.09 942.155L987.044 901.728Z" fill="#232134"/>
<path id="path67585-1-9" d="M674.377 802.048L624.51 823.468L662.52 822.703L674.377 802.048Z" fill="#2D4042"/>
<path id="path67587-2-7" d="M624.509 823.466L627.38 861.436L612.884 890.09L636.797 894.397L721.303 850.42L662.533 822.707L624.509 823.466Z" fill="#282F3F"/>
<path id="path67589-3-2" d="M674.377 802.045L718.385 798.962L788.539 842.973L721.304 850.42L662.522 822.7L674.377 802.045Z" fill="#445D4C"/>
<path id="path67591-6-3" d="M721.303 850.422L744.019 882.077L788.538 842.975L721.303 850.422Z" fill="#55664F"/>
<path id="path67597-0-5" d="M724.165 910.657L763.917 966.384L755.477 1079.06L797.043 1078.43L790.488 969.228L831.378 916.88L819.85 916.753L781.932 954.445L731.433 899.549L724.165 910.657Z" fill="#431B40"/>
<path id="path67595-8-5" d="M721.305 850.42L744.02 882.075L722.715 925.39L687.325 924.574L636.786 894.39L721.305 850.42Z" fill="#324043"/>
<path id="path67599-5-8" d="M612.871 890.085L646.749 918.419L687.323 924.576L636.785 894.392L612.871 890.085Z" fill="#2D2A3D"/>
<path id="path67609-1-1" d="M788.538 842.975L784.044 894.766L765.68 917.957L722.716 925.393L744.018 882.077L788.538 842.975Z" fill="#52624F"/>
<path id="path67617-0-9" d="M624.509 823.468L600.382 860.529L612.884 890.092L627.38 861.438L624.509 823.468Z" fill="#232134"/>
<path id="path67585-1-9-1" d="M840.308 862.58L813.17 875.147L833.856 874.697L840.308 862.58Z" fill="#2D4042"/>
<path id="path67587-2-7-0" d="M813.17 875.147L814.733 897.423L806.844 914.234L819.858 916.761L865.847 890.96L833.864 874.701L813.17 875.147Z" fill="#282F3F"/>
<path id="path67589-3-2-8" d="M840.308 862.578L864.258 860.769L902.436 886.59L865.846 890.959L833.856 874.696L840.308 862.578Z" fill="#445D4C"/>
<path id="path67591-6-3-9" d="M865.846 890.96L878.208 909.532L902.436 886.591L865.846 890.96Z" fill="#55664F"/>
<path id="path67595-8-5-5" d="M865.847 890.958L878.209 909.53L866.614 934.943L847.354 934.464L819.851 916.755L865.847 890.958Z" fill="#324043"/>
<path id="path67599-5-8-1" d="M806.836 914.229L825.273 930.852L847.354 934.465L819.85 916.756L806.836 914.229Z" fill="#2D2A3D"/>
<path id="path67609-1-1-1" d="M902.436 886.591L899.99 916.976L889.996 930.583L866.615 934.945L878.208 909.532L902.436 886.591Z" fill="#52624F"/>
<path id="path67617-0-9-2" d="M813.17 875.144L800.04 896.887L806.844 914.231L814.733 897.42L813.17 875.144Z" fill="#232134"/>
<path id="path67553" d="M284.564 758.556L257.23 787.924L287.231 780.438L284.564 758.556Z" fill="#2C3743"/>
<path id="path67555" d="M257.231 787.923L253.231 826.504L289.231 855.872L305.898 850.689L319.899 793.681L287.231 780.437L257.231 787.923Z" fill="#283048"/>
<path id="path67557" d="M284.565 758.557L328.678 742.357L373.9 751.072L319.899 793.683L287.232 780.439L284.565 758.557Z" fill="#495A47"/>
<path id="path67559" d="M319.898 793.684L385.566 797.715L373.899 751.072L319.898 793.684Z" fill="#53614B"/>
<path id="path67561" d="M373.899 751.072L396.819 790.216L395.899 823.051L373.232 845.221L385.566 797.715L373.899 751.072Z" fill="#66724A"/>
<path id="path67563" d="M319.899 793.683L385.566 797.714L373.233 845.22L351.233 857.6L305.899 850.69L319.899 793.683Z" fill="#3D414A"/>
<path id="path67567" d="M317.447 858.732L308.49 949.125H344.318L335.361 858.325L317.447 858.732Z" fill="#3B1A47"/>
<path id="path67565" d="M289.231 855.873L323.504 867.369L351.232 857.6L305.898 850.69L289.231 855.873Z" fill="#1E1834"/>
<path id="path67569" d="M284.564 758.556L257.23 787.924L287.231 780.438L284.564 758.556Z" fill="#2C3743"/>
<path id="path67571" d="M257.231 787.923L253.231 826.504L289.231 855.872L305.898 850.689L319.899 793.681L287.231 780.437L257.231 787.923Z" fill="#283048"/>
<path id="path67573" d="M284.565 758.557L328.678 742.357L373.9 751.072L319.899 793.683L287.232 780.439L284.565 758.557Z" fill="#495A47"/>
<path id="path67575" d="M319.898 793.684L385.566 797.715L373.899 751.072L319.898 793.684Z" fill="#53614B"/>
<path id="path67577" d="M373.899 751.072L396.819 790.216L395.899 823.051L373.232 845.221L385.566 797.715L373.899 751.072Z" fill="#66724A"/>
<path id="path67579" d="M319.899 793.683L385.566 797.714L373.233 845.22L351.233 857.6L305.899 850.69L319.899 793.683Z" fill="#3D414A"/>
<path id="path67581" d="M317.447 858.732L308.49 949.125H344.318L335.361 858.325L317.447 858.732Z" fill="#3B1A47"/>
<path id="path67583" d="M289.231 855.873L323.504 867.369L351.232 857.6L305.898 850.69L289.231 855.873Z" fill="#1E1834"/>
<path id="path69314" d="M1943.76 1088.01L2074.67 1063.86L2191.6 1058.37L2289.46 1063.86L2429.27 1052.88L2690.82 1028.49L2721.92 1028L2422.91 1068.25L2354.28 1074.83L2243.71 1081.42L2067.04 1094.59L1943.76 1088.01Z" fill="#648155"/>
<path id="path69314-7" d="M1996.51 1016.01L2080.83 991.855L2156.14 986.366L2219.18 991.855L2309.23 980.877L2464.32 955.998H2497.72L2305.13 996.246L2260.93 1002.83L2189.71 1009.42L2075.92 1022.59L1996.51 1016.01Z" fill="#648155"/>
<path id="path69314-7-0" d="M1913.39 990.833L1981.52 966.681L2042.37 961.192L2093.3 966.681L2165.73 965.361L2286.59 962.279L2317.69 961.789L2278.23 969.831L2127.04 977.659L2069.49 984.246L1977.55 997.419L1913.39 990.833Z" fill="#648155"/>
<path id="path69314-7-0-1" d="M1625.1 949.684L1677.99 925.533L1725.23 920.043L1764.77 925.533L1820.99 924.212L1913.04 920.64H1938.97L1908.34 928.682L1790.96 936.51L1746.28 943.097L1674.91 956.27L1625.1 949.684Z" fill="#607C54"/>
<path id="path69314-7-4" d="M610.149 1161.84L694.466 1137.69L769.779 1132.2L832.812 1137.69L922.86 1126.71L1055.63 1101.83H1111.35L918.767 1142.08L874.562 1148.67L803.342 1155.25L689.555 1168.43L610.149 1161.84Z" fill="#425C42"/>
<path id="path69314-7-4-8" d="M0 988.967L56.6449 964.816L107.24 959.327L149.587 952.331L210.081 953.837L308.49 949.125H344.318L207.331 969.206L177.634 963.309L129.788 982.379L53.3453 995.553L0 988.967Z" fill="#425C42"/>
<path id="path69314-7-4-8-8" d="M418.135 1082.97L485.786 1069L529.306 1066.23L602.313 1081.64L662.808 1083.15L761.217 1078.43H797.044L660.058 1098.51L625.643 1105.52L529.842 1133.42L450.254 1117.39L418.135 1082.97Z" fill="#425C42"/>
</g>
<g id="river">
<path id="path69636" d="M3537.87 1043L3341.85 1080.71L3116.95 1096.85L2887.46 1139.21L2621.25 1145.27L2304.55 1169.47L2221.94 1211.83L1877.7 1199.73L1683.25 1232.07L1519 1243.68L1687.29 1243.87L1877.7 1219.91L2208.17 1227.97L2345.86 1187.63L2657.97 1167.46L2873.69 1161.4L3126.13 1112.99H3351.03L3537.31 1075.5L3537.87 1043Z" fill="#402F14"/>
<path id="path73086" d="M3449.55 1093.58L3537.11 1133.91L3537.33 1075.5L3449.55 1093.58Z" fill="#94B2A8"/>
<path id="path73088" d="M3351.03 1112.99L3459.44 1144.91L3449.55 1093.57L3351.03 1112.99Z" fill="#ACCCBB"/>
<path id="path73090" d="M3169.93 1142.47L3351.03 1112.99H3126.13L3169.93 1142.47Z" fill="#94B2A8"/>
<path id="path73094" d="M3353.52 1159.58L3459.44 1144.91L3351.03 1112.99L3353.52 1159.58Z" fill="#8CB8A1"/>
<path id="path73100" d="M3205.23 1164.47L3351.03 1112.99L3169.93 1142.47L3205.23 1164.47Z" fill="#87A99D"/>
<path id="path73102" d="M3023.64 1165.87L3126.13 1112.99L3001.72 1136.65L3023.64 1165.87Z" fill="#94B2A8"/>
<path id="path73104" d="M3205.24 1164.47L3353.52 1159.58L3351.03 1112.99L3205.24 1164.47Z" fill="#6D9790"/>
<path id="path73108" d="M3023.64 1165.87L3169.93 1142.47L3126.13 1112.99L3023.64 1165.87Z" fill="#6D9790"/>
<path id="path73110" d="M3023.64 1165.87L3104.97 1182.19L3169.93 1142.47L3023.64 1165.87Z" fill="#709993"/>
<path id="path73112" d="M2914.17 1187.29L3001.72 1136.65L2869.23 1161.41L2914.17 1187.29Z" fill="#CCEDD3"/>
<path id="path73114" d="M3104.97 1182.19L3205.24 1164.47L3169.93 1142.47L3104.97 1182.19Z" fill="#8FAFAA"/>
<path id="path73116" d="M2914.17 1187.29L3023.64 1165.87L3001.72 1136.65L2914.17 1187.29Z" fill="#BAD4C6"/>
<path id="path73118" d="M3035.77 1201.75L3104.97 1182.2L3023.64 1165.87L3035.77 1201.75Z" fill="#668A80"/>
<path id="path73120" d="M2670.51 1199.44L2768.26 1164.29L2657.97 1167.46L2670.51 1199.44Z" fill="#94B2A8"/>
<path id="path73122" d="M2670.51 1199.44L2774.36 1207.21L2768.26 1164.29L2670.51 1199.44Z" fill="#6D9790"/>
<path id="path73124" d="M2914.17 1187.29L3035.77 1201.75L3023.64 1165.87L2914.17 1187.29Z" fill="#ACCCBB"/>
<path id="path73126" d="M2774.36 1207.21L2869.23 1161.41L2768.26 1164.29L2774.36 1207.21Z" fill="#94B2A8"/>
<path id="path73128" d="M2520.72 1175.23L2670.51 1199.43L2657.97 1167.45L2520.72 1175.23Z" fill="#CCEDD3"/>
<path id="path73134" d="M2774.36 1207.21L2914.17 1187.29L2869.23 1161.41L2774.36 1207.21Z" fill="#8FAFAA"/>
<path id="path73136" d="M2357.95 1212.83L2520.72 1175.24L2328.99 1188.63L2357.95 1212.83Z" fill="#D0F1D4"/>
<path id="path73138" d="M2521.72 1208.51L2670.51 1199.44L2520.72 1175.24L2521.72 1208.51Z" fill="#8FAFAA"/>
<path id="path73140" d="M2912.1 1209.65L3035.77 1201.75L2914.17 1187.28L2912.1 1209.65Z" fill="#8CB8A1"/>
<path id="path73142" d="M2774.36 1207.21L2912.1 1209.65L2914.17 1187.28L2774.36 1207.21Z" fill="#8FAFAA"/>
<path id="path73148" d="M2357.94 1212.83L2521.72 1208.51L2520.72 1175.24L2357.94 1212.83Z" fill="#B5D1C2"/>
<path id="path73152" d="M2433.84 1244.38L2521.72 1208.51L2357.94 1212.83L2433.84 1244.38Z" fill="#99B9AD"/>
<path id="path73154" d="M2779.46 1227.62L2912.1 1209.65L2774.36 1207.21L2779.46 1227.62Z" fill="#8FAFAA"/>
<path id="path73156" d="M2328.99 1188.63L2306.02 1244.81L2357.95 1212.83L2328.99 1188.63Z" fill="#ADCBC0"/>
<path id="path73158" d="M2065.36 1245.68L2192.56 1226.81L2002.45 1225.8L2065.36 1245.68Z" fill="#C8E4D5"/>
<path id="path73160" d="M2521.72 1208.51L2636.56 1244.38L2670.51 1199.43L2521.72 1208.51Z" fill="#ACCCBB"/>
<path id="path73162" d="M2192.56 1226.81L2306.02 1244.81L2328.99 1188.63L2192.56 1226.81Z" fill="#8DAAA0"/>
<path id="path73164" d="M2670.51 1199.43L2779.45 1227.62L2774.36 1207.21L2670.51 1199.43Z" fill="#709993"/>
<path id="path73166" d="M1866.63 1245.24L2002.44 1225.8L1858.64 1219.32L1866.63 1245.24Z" fill="#5F8892"/>
<path id="path73170" d="M2636.56 1244.38L2779.46 1227.62L2670.51 1199.43L2636.56 1244.38Z" fill="#72978D"/>
<path id="path73172" d="M2306.02 1244.81L2433.84 1244.38L2357.95 1212.83L2306.02 1244.81Z" fill="#586D6B"/>
<path id="path73174" d="M1660.92 1241.36L1866.63 1245.24L1858.64 1219.32L1660.92 1241.36Z" fill="#BFDBCA"/>
<path id="path73176" d="M2433.84 1244.38H2636.56L2521.72 1208.51L2433.84 1244.38Z" fill="#94B2A8"/>
<path id="path73178" d="M1866.63 1245.24L2065.36 1245.68L2002.44 1225.8L1866.63 1245.24Z" fill="#86A7A0"/>
<path id="path73182" d="M2065.36 1245.68L2306.02 1244.81L2192.56 1226.81L2065.36 1245.68Z" fill="#98B9B1"/>
<path id="path73184" d="M3104.97 1182.19L3353.52 1159.58L3205.24 1164.47L3104.97 1182.19Z" fill="#668A80"/>
<path id="path73188" d="M3459.44 1144.91L3537.11 1133.91L3449.55 1093.57L3459.44 1144.91Z" fill="#8CB8A1"/>
<path id="path73585" d="M2636.56 1244.38L2645.8 1243.13L2779.46 1227.62L2912.1 1209.65L3035.77 1201.75L3104.97 1182.19L3353.52 1159.58L3459.44 1144.91L3537.11 1133.91L3536.78 1154.39L3465.28 1151.58L3359.78 1170.14L3326.45 1178.54L3211.35 1175.09L3117.69 1198.93L3055.38 1213.37L2920.48 1224.16L2781.76 1233.78L2675.96 1243.62L2636.56 1244.38Z" fill="#B4C02B"/>
</g>
</g>
<defs>
<linearGradient id="paint0_linear" x1="194.162" y1="963.078" x2="3336.85" y2="1010.7" gradientUnits="userSpaceOnUse">
<stop stop-color="#7F8954"/>
<stop offset="1" stop-color="#879755"/>
</linearGradient>
</defs>
</svg>
