<svg width="1919" height="517" viewBox="0 0 1919 517" fill="none" xmlns="http://www.w3.org/2000/svg">
<path id="Vector" d="M728.441 514.928C728.441 512.191 733.908 507.638 741.041 504.434C744.62 502.826 749.881 499.728 752.733 497.549C755.585 495.37 759.659 492.532 761.787 491.243C767.317 487.893 774.979 482.973 794.87 470.002C804.482 463.734 813.823 457.661 815.628 456.508C817.432 455.354 825.237 451.182 832.972 447.235C846.137 440.518 849.224 439.088 862.503 433.555C865.338 432.374 871.36 429.864 875.883 427.977C880.407 426.091 885.891 423.528 888.071 422.282C890.251 421.035 892.899 420.011 893.956 420.004C895.013 419.997 896.281 419.59 896.774 419.098C897.696 418.176 908.827 411.987 915.472 408.703C917.534 407.683 921.12 405.605 923.44 404.085C925.761 402.565 929.979 400.223 932.815 398.881C935.651 397.539 938.604 396.067 939.378 395.609C947.125 391.02 956.86 385.415 961.678 382.769C967.542 379.547 978.21 372.272 986.253 366.006C988.573 364.198 993.605 360.313 997.435 357.372C1001.26 354.431 1010.39 347.173 1017.7 341.243C1038.87 324.09 1051.44 315.102 1065.2 307.283C1073.55 302.531 1074.42 300.986 1068.75 300.942C1067.46 300.932 1065.03 300.085 1063.35 299.058C1061.66 298.032 1057.69 296.316 1054.51 295.245C1051.33 294.175 1047.22 292.542 1045.38 291.616C1043.54 290.691 1035.92 288.123 1028.44 285.911C1015.93 282.208 1011.46 280.694 1006.41 278.453C1005.38 277.995 1000.74 276.295 996.097 274.677C991.457 273.058 985.55 270.982 982.972 270.064C980.394 269.146 971.956 266.264 964.223 263.66C946.181 257.585 939.608 255.3 930.942 252.091C925.093 249.925 908.299 244.806 886.88 238.661C884.56 237.995 879.075 236.354 874.692 235.014C858.176 229.964 855.351 229.389 834.38 226.815C814.001 224.314 802.827 225.533 798.755 230.701C797.602 232.165 792.032 234.37 789.488 234.37C787.949 234.37 783.604 235.032 779.832 235.842C775.822 236.704 768.715 237.293 762.716 237.261C757.074 237.231 750.746 237.675 748.654 238.247C746.562 238.819 741.414 240.01 737.214 240.894C730.208 242.367 728.738 243.112 719.409 249.919C705.204 260.283 686.6 272.016 678.626 275.639C677.265 276.258 675.692 277.772 675.13 279.004C674.251 280.933 673.456 281.244 669.402 281.244C658.117 281.244 666.524 284.455 680.272 285.396C696.818 286.527 721.907 293.017 733.354 299.126C734.249 299.603 735.39 299.994 735.89 299.994C737.735 299.994 761.909 312.077 767.35 315.718C781.474 325.17 782.479 329.093 776.289 350.619C775.325 353.971 774.042 358.611 773.437 360.931C772.832 363.251 771.284 366.073 769.998 367.202C767.661 369.253 766.361 369.661 758.443 370.827C756.123 371.168 753.592 371.995 752.818 372.663C751.436 373.858 736.49 378.743 734.216 378.743C733.576 378.743 732.121 379.624 730.983 380.7C727.96 383.557 722.345 386.24 719.341 386.264C716.961 386.283 711.367 388.528 707.819 390.889C707.045 391.404 701.772 393.961 696.1 396.573C683.01 402.599 678.938 404.772 675.637 407.495C674.179 408.697 672.648 409.68 672.234 409.68C671.82 409.68 667.529 413.516 662.697 418.203C657.865 422.891 652.857 427.28 651.568 427.958C648.236 429.709 645.326 433.06 643.646 437.081C642.401 440.059 639.878 442.493 638.036 442.493C636.779 442.493 637.648 437.916 639.726 433.587C643.506 425.677 644.986 421.877 644.986 420.067C644.986 417.85 656.508 406.455 660.818 404.41C662.622 403.554 665.177 401.852 666.496 400.629C667.814 399.405 669.728 398.139 670.748 397.815C674.755 396.541 681.024 389.988 678.236 389.988C676.903 389.988 652.803 402.456 644.621 407.379C639.522 410.447 632.578 414.493 629.191 416.371C625.804 418.249 621.861 421.097 620.429 422.699C618.997 424.302 617.63 425.613 617.391 425.613C617.152 425.613 615.081 426.879 612.789 428.425C610.497 429.972 608.111 431.238 607.488 431.238C605.828 431.238 583.929 448.278 577.97 454.207C576.415 455.754 571.873 459.749 567.878 463.084C563.882 466.42 560.612 469.465 560.612 469.85C560.612 470.235 558.766 472.63 556.509 475.171C554.252 477.712 551.692 481.84 550.82 484.343C544.606 502.192 542.364 495.07 547.531 473.894C550.104 463.348 570.534 441.908 594.658 424.436C597.331 422.5 600.362 420.158 601.393 419.232C604.642 416.314 614.415 409.216 616.954 407.931C618.294 407.253 620.52 405.727 621.902 404.539C623.284 403.352 625.668 401.861 627.2 401.227C628.733 400.592 629.987 399.71 629.987 399.268C629.987 398.825 631.569 397.613 633.503 396.574C635.436 395.536 638.553 393.734 640.428 392.571C642.304 391.408 646.206 389.054 649.1 387.341C651.994 385.627 654.362 383.834 654.362 383.356C654.362 381.847 650.019 382.416 647.691 384.23C644.481 386.732 639.729 389.047 637.768 389.066C636.84 389.074 633.128 390.551 629.518 392.346C625.909 394.142 622.302 395.611 621.503 395.612C620.703 395.612 619.649 395.976 619.159 396.42C618.669 396.864 615.104 398.908 611.237 400.962C588.351 413.12 567.516 427.628 560.612 436.213C553.026 445.646 550.579 442.226 556.557 430.546C559.743 424.32 581.832 401.238 584.603 401.238C584.991 401.238 585.974 400.66 586.788 399.954C588.766 398.24 602.709 390.58 610.299 387.039C613.651 385.475 619.559 382.58 623.428 380.605C629.288 377.615 639.017 374.073 651.49 370.389C654.317 369.554 655.174 367.488 652.693 367.488C647.829 367.488 622.393 374.89 616.121 378.13C613.692 379.385 610.228 380.952 608.424 381.613C606.619 382.274 604.023 383.585 602.654 384.526C601.285 385.467 599.882 386.237 599.537 386.237C599.191 386.237 596.092 387.899 592.65 389.93C589.208 391.961 585.127 393.917 583.58 394.276C580.097 395.086 572.186 400.543 569.049 404.301C567.76 405.845 565.368 408.634 563.734 410.497L560.763 413.885L560.102 411.253C558.807 406.092 566.924 394.129 575.185 389.023C576.845 387.997 578.686 386.002 579.276 384.588C580.961 380.555 594.529 372.036 602.026 370.305C604.771 369.672 610.417 367.524 614.572 365.533C621.253 362.331 626.62 360.746 639.687 358.118C645.161 357.017 647.435 354.362 642.904 354.362C641.022 354.362 638.45 354.755 637.189 355.234C634.761 356.157 622.246 358.213 617.066 358.539C613.907 358.738 602.853 363.473 601.666 365.136C601.231 365.745 600.663 365.727 600.021 365.084C598.989 364.052 603.05 359.226 607.297 356.439C608.481 355.662 610.031 353.635 610.741 351.937C613.336 345.725 628.594 342.107 653.345 341.835C669.041 341.661 670.718 339.336 656.048 338.087C653.108 337.837 648.046 336.797 644.798 335.775C641.549 334.754 637.204 333.462 635.142 332.904C627.467 330.827 619.138 328.022 615.478 326.28C613.402 325.292 608.54 323.83 604.673 323.031C591.842 320.38 571.861 311.633 571.861 308.667C571.861 308.48 570.972 303.909 569.885 298.509L567.909 288.69L569.85 281.549C571.953 273.813 573.662 270.896 583.228 258.713C590.873 248.977 606.427 233.948 614.453 228.542C618.167 226.04 612.411 226.373 602.33 229.243C596.142 231.004 590.11 232.455 588.924 232.467C587.738 232.478 585.629 233.062 584.236 233.764C582.844 234.465 579.806 235.314 577.486 235.65C572.914 236.312 568.03 237.323 556.392 240.016C552.267 240.971 546.15 242.227 542.798 242.807C539.447 243.387 534.234 244.501 531.214 245.282C528.195 246.064 524.771 246.464 523.607 246.172C522.442 245.88 514.883 246.479 506.808 247.504C498.733 248.529 488.235 249.602 483.478 249.889C478.721 250.176 473.701 250.846 472.321 251.378C470.676 252.012 469.25 252.031 468.181 251.433C467.184 250.875 465.429 250.842 463.666 251.347C462.079 251.802 459.451 251.925 457.826 251.62C456.2 251.315 452.4 250.926 449.381 250.755C446.363 250.585 440.053 250.187 435.36 249.871L426.826 249.297L427.273 256.249L427.719 263.2L423.149 269.158C409.923 286.406 388.566 304.455 371.237 313.03C362.641 317.284 356.66 320.9 342.175 330.6C335.214 335.261 327.831 339.649 325.769 340.35C323.706 341.051 321.334 342.187 320.497 342.875C319.623 343.593 315.631 344.32 311.122 344.582C306.803 344.833 301.582 345.425 299.519 345.897C297.456 346.37 294.525 347.02 293.004 347.343C287.207 348.572 270.985 366.405 262.314 381.08C260.182 384.69 256.681 389.963 254.534 392.799C249.272 399.752 249.387 399.507 248.331 406.06C247.341 412.208 246.11 415.299 244.652 415.299C243.397 415.299 244.645 395.74 246.086 392.8C246.718 391.51 247.264 389.109 247.298 387.463C247.343 385.284 249.928 380.653 256.799 370.441C268.578 352.935 268.971 349.419 258.27 357.278C256.207 358.793 252.525 361.425 250.088 363.127C238.534 371.196 220.077 392.573 216.907 401.556C216.152 403.697 214.331 406.716 212.862 408.265C209.103 412.227 206.621 417.592 204.341 426.683C202.481 434.098 199.556 439.866 198.295 438.605C197.98 438.291 198.359 436.399 199.137 434.401C199.915 432.403 201.404 426.338 202.444 420.925C206.71 398.736 208.118 395.035 216.516 383.94C219.113 380.509 221.238 377.384 221.238 376.996C221.238 375.646 242.357 355.619 246.082 353.438C252.067 349.933 253.277 348.659 252.04 347.168C250.555 345.379 249.356 345.895 232.687 355.496C224.585 360.162 215.637 365.253 212.801 366.811C199.655 374.029 176.715 402.508 172.048 417.404C169.886 424.304 168.35 426.498 166.77 424.941C165.853 424.037 165.926 423.065 167.119 420.254C167.948 418.303 168.804 413.332 169.022 409.207C169.48 400.54 173.489 389.315 178.377 383.016C190.303 367.647 206.94 353.683 222.41 346.057C226.922 343.833 230.613 341.615 230.613 341.128C230.613 339.373 227.721 339.187 224.464 340.733C222.637 341.6 219.582 342.537 217.675 342.815C209.616 343.992 196.773 348.508 187.267 353.507C186.372 353.978 185.077 354.363 184.39 354.363C183.702 354.363 180.849 356.098 178.049 358.217C175.249 360.337 171.589 362.662 169.916 363.384C168.243 364.106 165.795 366.407 164.475 368.498C161.913 372.556 159.664 372.947 160.094 369.26C161.241 359.444 188.688 334.676 198.419 334.676C198.697 334.676 200.254 334.081 201.878 333.352C208.064 330.581 215.39 328.265 219.869 327.666C227.958 326.585 238.125 324.203 237.686 323.493C236.345 321.322 204.82 322.963 199.442 325.484C195.318 327.417 194.052 327.695 194.052 326.668C194.052 325.93 195.49 324.726 197.247 323.991C199.005 323.257 202.8 321.148 205.681 319.305C217.424 311.794 237.642 308.654 262.489 310.484C281.249 311.866 289.2 309.471 302.155 298.54C311.83 290.376 313.628 288.969 316.395 287.401C317.942 286.524 321.95 284.168 325.301 282.166C333.17 277.464 354.318 266.715 357.162 265.972C360.734 265.038 357.789 262.49 353.137 262.49C350.569 262.49 348.651 261.854 347.251 260.539C343.981 257.467 308.444 257.486 298.113 260.566C294.246 261.718 288.76 262.793 285.921 262.955C283.083 263.117 278.246 264.133 275.172 265.213C268.639 267.51 268.113 267.568 268.113 265.993C268.113 264.839 279.72 258.684 281.826 258.721C282.407 258.732 283.409 258.106 284.051 257.332C287.442 253.247 268.031 257.139 260.613 262.031C259.839 262.541 256.675 262.976 253.581 262.997C250.488 263.017 246.543 263.395 244.815 263.836C239.624 265.16 241.253 261.605 246.55 260.049C251.821 258.5 257.165 255.54 260.24 252.465C262.825 249.88 262.699 248.698 259.99 250.111C259.043 250.604 255.316 251.298 251.706 251.651C241.85 252.617 233.484 254.88 228.417 257.952C225.921 259.465 222.079 261.04 219.881 261.45C217.683 261.861 213.557 263.529 210.713 265.156C204.705 268.594 201.551 268.988 201.551 266.303C201.551 265.239 202.422 264.226 203.66 263.849C209.914 261.946 215.765 258.344 220.917 253.225C225.062 249.107 227.388 247.49 229.167 247.49C230.529 247.49 232.961 246.809 234.57 245.977C236.18 245.145 238.795 244.295 240.383 244.088C241.97 243.882 244.746 243.316 246.55 242.83C248.355 242.345 252.047 241.465 254.754 240.875C259.595 239.821 260.869 238.774 258.444 237.843C256.995 237.287 252.494 237.921 249.832 239.055C248.8 239.495 245.004 240.298 241.394 240.84C230.48 242.48 225.838 244.201 216.562 250.049C208.055 255.411 204.363 256.452 204.363 253.487C204.363 252.781 205.84 251.586 207.645 250.832C209.449 250.078 210.926 249.026 210.926 248.495C210.926 247.963 212.672 246.637 214.807 245.548C216.942 244.459 219.504 242.809 220.499 241.882C222.76 239.775 237.66 232.502 239.807 232.457C249.342 232.258 243.218 227.542 232.02 226.46C210.692 224.399 199.761 224.985 193.418 228.53C178.586 236.817 127.483 234.203 105.582 224.035C100.559 221.704 92.0233 219.472 84.3643 218.489C81.0127 218.059 75.3818 216.611 71.8514 215.272C68.3206 213.932 62.6253 212.561 59.1954 212.225C55.7653 211.889 52.537 211.287 52.0214 210.889C51.5058 210.49 48.7636 208.929 45.9276 207.42C30.8277 199.383 22.4297 193.926 16.3387 188.193C12.6411 184.713 9.24288 181.86 8.78708 181.853C6.68039 181.824 -0.160274 174.239 0.516623 172.684C0.899601 171.804 1.40344 169.732 1.63632 168.081C1.88717 166.301 2.94591 164.497 4.23481 163.653C5.4312 162.869 6.71009 161.282 7.07699 160.126C9.36718 152.91 20.3629 138.979 27.1769 134.659C29.4972 133.188 32.5748 130.657 34.016 129.034C38.1049 124.43 47.8019 111.418 47.8019 110.536C47.8019 110.1 49.8791 108.146 52.4178 106.195C54.9566 104.243 60.6436 99.77 65.0557 96.2545C86.8236 78.9106 121.292 74.3506 139.07 86.4626C140.54 87.4638 140.974 87.3702 141.883 85.8561C143.759 82.732 155.677 69.8801 157.797 68.6951C162.018 66.335 162.016 67.7853 157.786 76.6892C154.127 84.3898 155.763 83.6326 166.179 72.8049C171.471 67.3037 176.336 62.803 176.991 62.803C178.408 62.803 177.169 65.5522 174.904 67.4319C173.177 68.8649 170.419 74.1698 171.065 74.8157C171.612 75.3628 178.514 69.0743 189.156 58.3328C195.815 51.6111 201.665 47.6029 202.945 48.8831C203.142 49.0808 200.784 51.9772 197.705 55.3196C194.625 58.6621 189.996 63.7983 187.418 66.7336C184.84 69.6687 181.318 72.9428 179.592 74.0094C175.169 76.7429 169.305 85.4634 170.134 88.0754C171.101 91.1227 172.651 89.9866 175.914 83.8395C179.37 77.3292 178.17 78.5548 189.339 70.1265C194.223 66.4407 198.653 63.0834 199.183 62.6659C199.713 62.2484 203.36 59.3768 207.288 56.2847C211.371 53.0705 214.939 49.4345 215.618 47.7952C217.513 43.2213 224.052 39.0535 224.052 42.42C224.052 43.0682 222.154 45.9129 219.833 48.7414C217.513 51.57 215.614 54.3186 215.614 54.8493C215.614 55.38 214.425 57.2814 212.97 59.0747C206.371 67.213 198.93 80.7696 200.713 81.4076C201.799 81.7966 204.364 79.8024 204.364 78.5692C204.364 76.7133 219.544 59.0583 225.665 53.7953C229.198 50.7578 234.344 45.6241 237.103 42.3874C242.668 35.8561 247.505 31.8994 247.465 33.9124C247.451 34.5921 244.076 38.6894 239.965 43.0176C235.854 47.3458 232.49 51.2775 232.49 51.7548C232.49 52.2321 231.305 54.3861 229.857 56.5415C228.409 58.6969 226.675 62.3589 226.004 64.6792C224.984 68.2057 222.941 73.7747 220.588 79.4451C217.634 86.5658 233.164 68.1652 243.337 52.4922C244.843 50.1719 246.876 47.68 247.854 46.9546C248.833 46.2291 250.522 44.5425 251.608 43.2063C262.087 30.3183 267.206 29.3493 258.466 41.9069C255.671 45.9242 251.69 52.7968 249.621 57.1798C247.553 61.5626 244.502 68.0288 242.842 71.5497C241.182 75.0705 240.054 78.1812 240.335 78.4624C241.385 79.512 243.74 77.7953 243.74 75.9805C243.74 74.945 244.707 73.4643 245.888 72.6902C247.069 71.9161 248.61 69.6915 249.311 67.7468C250.823 63.554 270.24 42.6019 281.938 32.5399C290.215 25.4204 293.792 23.1665 289.443 27.8104C288.025 29.3244 286.864 31.0465 286.864 31.6372C286.864 32.2279 286.317 33.0486 285.647 33.4609C283.743 34.6331 275.979 45.1629 273.634 49.7538C272.469 52.0333 270.54 55.3673 269.347 57.1628C268.154 58.9583 267.177 61.1864 267.177 62.1141C267.177 63.0418 266.545 64.0437 265.771 64.3405C264.241 64.9235 263.871 67.4705 265.361 67.4705C265.888 67.4705 266.799 66.4158 267.387 65.1267C267.974 63.8376 268.809 62.7829 269.242 62.7829C269.674 62.7829 270.029 62.2017 270.029 61.4914C270.029 60.7811 270.731 59.6209 271.59 58.9133C272.449 58.2056 274.507 55.5173 276.165 52.9391C280.195 46.6696 292.599 33.9742 299.559 28.9942C302.653 26.7809 306.768 23.5639 308.703 21.8454C312.243 18.7024 315.033 17.7994 315.033 19.7954C315.033 20.7701 311.488 25.0918 303.783 33.5123C302.236 35.2027 300.97 36.8467 300.97 37.1657C300.97 37.6677 294.898 45.5378 293.502 46.8451C292.102 48.155 285.032 59.076 285.032 59.925C285.032 61.821 286.799 60.88 288.908 57.8614C290.078 56.1856 291.267 54.6036 291.551 54.3458C291.834 54.088 294.807 50.7285 298.158 46.8804C301.509 43.0322 305.602 38.6819 307.253 37.2131C308.904 35.7443 312.52 32.3537 315.287 29.6786C318.055 27.0035 322.821 22.9402 325.878 20.6491C328.936 18.358 332.803 15.2228 334.471 13.6819C338.574 9.89193 339.506 11.2578 335.535 15.2416C330.622 20.1712 322.963 29.2655 321.651 31.7285C320.999 32.9533 319.1 35.7439 317.431 37.9298C313.351 43.2698 307.531 53.7907 307.531 55.8157C307.531 58.2728 310.393 55.4638 317.145 46.3775C323.071 38.4043 334.309 26.8356 341.281 21.5326C343.601 19.7678 347.352 16.7257 349.616 14.7724C353.104 11.7632 356.281 10.2428 356.281 11.5829C356.281 11.782 353.693 14.6296 350.53 17.911C347.367 21.1924 343.417 25.5646 341.754 27.627C338.006 32.2734 327.906 52.8269 328.321 54.9649C328.988 58.4061 331.063 56.9171 335.965 49.479C341.495 41.0889 357.688 24.8832 367.168 18.2522C370.117 16.1897 373.83 13.3251 375.421 11.8864C379.043 8.61014 386.067 4.43076 387.275 4.83336C387.775 5.00006 383.428 9.98593 377.614 15.9133C368.75 24.9504 358.156 38.4532 358.156 40.7132C358.156 41.0471 357.101 42.8724 355.812 44.7695C349.847 53.5485 354.924 50.9526 364.869 40.1384C377.147 26.7885 388.014 17.5315 398.937 11.1185C412.353 3.24187 412.46 4.14826 399.641 17.1145C379.695 37.2894 373.39 55.3963 392.943 36.3504C413.703 16.1305 434.553 -0.0294189 439.893 -0.0294189C441.561 -0.0294189 440.373 1.50807 433.911 7.70494C426.504 14.81 418.308 24.9879 413.905 32.5488C412.929 34.2246 411.867 35.5957 411.546 35.5957C411.013 35.5957 408.785 39.7923 408.785 40.7961C408.785 42.4193 411.906 40.4933 415.851 36.4363C418.41 33.8048 422.824 29.9351 425.66 27.837C428.496 25.7389 432.292 22.4837 434.097 20.6032C435.902 18.7227 439.066 16.129 441.128 14.8394C450.947 8.69984 461.784 1.39047 462.066 0.718477C462.522 -0.370717 466.91 -0.198548 466.91 0.908517C466.91 1.42413 466.572 1.84601 466.158 1.84601C464.459 1.84601 436.142 30.8389 434.082 34.6869C431.574 39.3735 434.486 38.2698 440.426 32.2829C450.103 22.5283 454.955 19.3289 479.742 6.35499C492.889 -0.525877 496.942 0.426919 485.894 7.80108C473.218 16.262 453.226 38.4089 458.265 38.4089C458.667 38.4089 461.725 35.6334 465.062 32.2413C468.399 28.8491 473.238 25.0041 475.816 23.6969C478.394 22.3897 481.136 20.8153 481.91 20.1983C482.683 19.5812 487.745 17.0516 493.159 14.5771C498.574 12.1025 505.167 9.04458 507.813 7.78178C512.073 5.74869 521.273 2.82571 523.508 2.79531C525.352 2.77023 521.621 5.80669 516.372 8.60478C513.29 10.247 507.546 14.3673 503.605 17.7609C499.664 21.1546 494.906 25.0927 493.032 26.5124C489.884 28.8957 484.722 35.2984 484.722 36.8183C484.722 38.3933 487.121 37.1342 492.975 32.4873C499.319 27.4509 508.227 21.5333 509.465 21.5333C509.835 21.5333 511.907 20.7308 514.07 19.7499C521.056 16.5819 535.267 11.2209 536.677 11.2209C537.431 11.2209 538.309 10.799 538.627 10.2834C539.298 9.19888 542.851 9.00098 542.835 10.049C542.829 10.4357 541.14 11.5591 539.082 12.5455C535.638 14.1954 526.293 20.6984 514.018 29.9864C510.955 32.3041 509.096 34.4208 509.096 35.5907C509.096 38.17 509.278 38.0961 516.069 32.7589C519.367 30.1674 525.791 26.342 530.346 24.2579C543.533 18.2242 545.24 17.6093 553.55 15.9043C556.601 15.2782 561.607 13.942 564.675 12.935C570.805 10.9226 573.875 11.1948 571.899 13.5755C571.269 14.3415 570.219 14.9695 569.569 14.9695C568.129 14.9695 548.646 25.7735 546.366 27.8364C542.749 31.11 545.861 31.1082 553.282 27.8325C555.021 27.0651 558.342 25.6012 560.662 24.5793C562.982 23.5574 566.357 22.2789 568.162 21.7381C581.921 17.615 585.251 16.7453 585.67 17.1647C585.933 17.4279 584.738 18.3695 583.015 19.2572C578.82 21.4174 556.912 35.6641 556.912 36.2321C556.912 37.0721 562.841 35.3809 569.024 32.7772C572.417 31.3484 581.046 28.2154 588.2 25.8151C595.353 23.4147 602.819 20.6283 604.79 19.6231C607.159 18.4145 608.58 18.1317 608.986 18.7883C609.785 20.082 610.217 19.7726 600.501 24.8761C586.066 32.4587 574.724 41.387 574.724 45.168C574.724 48.4255 578.628 47.0201 586.006 41.1057C588.344 39.2318 592.563 36.5573 595.381 35.1625C598.2 33.7677 601.23 32.2443 602.116 31.777C603.002 31.3099 605.693 30.487 608.096 29.9485C610.499 29.4099 616.472 27.2642 621.368 25.1801C629.571 21.6887 636.282 21.1916 630.974 24.4686C630.201 24.9461 627.361 26.6953 624.665 28.3559C601.435 42.6598 591.998 51.8028 610.858 41.7319C618.828 37.4756 643.745 28.0189 646.734 28.1149C648.299 28.1654 641.99 32.2067 634.021 36.2573C629.251 38.6816 625.349 40.9995 625.349 41.408C625.349 41.8167 623.871 43.787 622.065 45.7864C616.139 52.3457 620.896 53.2416 632.449 47.742C635.58 46.2513 640.57 44.3992 643.536 43.6264C646.504 42.8536 650.264 41.5564 651.893 40.744C653.776 39.8044 654.973 39.6242 655.181 40.2487C655.361 40.7888 655.959 40.9519 656.511 40.6113C657.132 40.2272 657.236 40.4394 656.785 41.1698C656.384 41.8177 654.575 42.9672 652.763 43.7242C649.556 45.0641 639.411 52.2312 639.411 53.1568C639.411 53.4112 641.272 53.3402 643.546 52.9992C645.821 52.6581 647.921 52.7651 648.212 53.237C648.822 54.2238 655.07 52.9215 660.022 50.7753C661.819 49.9964 664.509 49.2172 665.999 49.0436C667.49 48.8701 671.549 47.8823 675.021 46.8485C685.754 43.6518 687.915 45.6585 677.697 49.3332C671.599 51.526 666.038 56.2171 666.893 58.4463C667.45 59.8982 668.145 59.7199 673.413 56.7739C679.953 53.1166 702.818 47.0633 704.34 48.5862C704.853 49.0996 704.134 50.0023 702.536 50.8505C690.552 57.2115 688.473 58.6685 687.82 61.1684C686.917 64.623 688.546 64.8332 694.331 62.0084C701.948 58.2897 724.723 53.0074 724.723 54.9597C724.723 55.43 723.352 56.5972 721.676 57.5533C714.154 61.8449 708.715 65.8499 709.05 66.8494C709.595 68.4711 721.137 68.0099 723.886 66.2566C725.12 65.4698 728.871 64.1269 732.223 63.2723C735.574 62.4177 740.369 61.1139 742.878 60.375C752.492 57.5428 752.102 59.5147 742.109 64.2579C723.799 72.9489 728.176 76.4868 751.749 72.0498C763.992 69.7453 766.98 70.5299 759.704 74.1378C750.153 78.8739 754.803 80.7264 768.828 77.7725C776.767 76.1006 780.847 75.8383 779.02 77.1174C778.805 77.2677 776.822 78.5493 774.612 79.9652C767.607 84.4538 773.55 85.997 784.166 82.4459C791.886 79.8632 793.296 79.9789 792.962 83.1677C792.698 85.6818 792.854 85.7681 799.723 86.9052C803.59 87.5454 807.809 88.4814 809.098 88.9852C810.387 89.489 814.817 90.7684 818.942 91.8283C823.067 92.8882 828.762 94.422 831.598 95.2366C834.434 96.0512 838.864 97.2759 841.442 97.958C857.332 102.162 870.2 106.095 893.941 114.005C940.222 129.424 944.626 131.103 981.488 147.371C988.509 150.47 996.785 154.028 999.879 155.279C1005.12 157.4 1010.72 160.168 1027.07 168.718C1030.68 170.607 1036.16 173.121 1039.25 174.305C1043.94 176.1 1050.72 178.859 1064.57 184.61C1065.6 185.039 1069.31 186.7 1072.81 188.303C1076.31 189.906 1079.35 191.217 1079.55 191.217C1080.92 191.217 1097.71 199.761 1098.71 200.968C1099.39 201.793 1100.93 202.467 1102.12 202.467C1104.13 202.467 1121.87 210.819 1134.88 217.895C1144.54 223.151 1156.96 229.733 1168.16 235.542C1174.09 238.617 1179.34 241.503 1179.83 241.956C1180.32 242.41 1181.49 242.78 1182.44 242.78C1183.38 242.78 1186.69 244.063 1189.79 245.63C1194.91 248.21 1197.72 249.055 1207.3 250.881C1210.3 251.454 1216.65 249.045 1236.13 239.941C1239.22 238.496 1244.71 236.153 1248.32 234.735C1251.92 233.317 1257.63 230.821 1260.99 229.187C1264.36 227.554 1270.25 225.263 1274.09 224.098C1277.92 222.933 1283.4 220.808 1286.25 219.377C1289.1 217.946 1292.49 216.457 1293.78 216.068C1297.36 214.991 1324.05 201.492 1334.1 195.684C1338.99 192.852 1347.64 188.079 1353.31 185.078C1358.99 182.076 1366.79 177.947 1370.66 175.901C1388.07 166.691 1406.89 157.485 1408.32 157.477C1409.18 157.472 1411.17 156.387 1412.75 155.065C1415.3 152.916 1431.64 145.281 1433.68 145.281C1434.13 145.281 1437.74 143.734 1441.72 141.844C1449.44 138.169 1456.5 134.884 1466.28 130.415C1469.63 128.884 1475.59 126.137 1479.53 124.311C1493.46 117.839 1499.15 115.281 1499.6 115.281C1499.84 115.281 1504.16 113.51 1509.18 111.346C1525.24 104.426 1563.38 91.8513 1568.36 91.8363C1569.71 91.8324 1573.55 90.9895 1576.91 89.9633C1580.26 88.9371 1586.16 87.4129 1590.03 86.5763C1593.9 85.7397 1598.54 84.7148 1600.34 84.2988C1610.81 81.8852 1616.71 80.7563 1624.25 79.7252C1628.89 79.0902 1635.43 77.9883 1638.78 77.2767C1645.8 75.787 1651.75 74.6925 1663.62 72.7101C1682.96 69.4812 1691.52 68.4933 1704.4 68.0015C1711.88 67.7161 1721.16 67.0929 1725.03 66.6166C1758.16 62.5362 1816.41 69.8585 1836.72 80.6565C1838.59 81.6532 1840.58 82.4686 1841.12 82.4686C1842 82.4686 1847.5 85.6118 1856.71 91.3748C1858.36 92.406 1861.09 94.0936 1862.78 95.1248C1872.33 100.967 1884.38 112.524 1890.63 121.844C1892.53 124.68 1895.69 129.374 1897.66 132.277C1899.63 135.179 1901.67 138.691 1902.2 140.082C1902.73 141.473 1904.39 144.4 1905.9 146.586C1907.4 148.773 1909.97 154.752 1911.61 159.874C1913.25 164.996 1915.2 171.044 1915.94 173.314C1919.66 184.661 1919.35 213.635 1915.4 224.299C1910.1 238.599 1908.56 242.337 1907.03 244.56C1906.11 245.901 1903.79 249.741 1901.87 253.093C1891.88 270.608 1880.69 283.985 1863.31 299.182C1859.19 302.789 1853.49 307.922 1850.65 310.589C1847.82 313.255 1842.42 317.757 1838.66 320.593C1834.9 323.428 1830.25 326.971 1828.35 328.464C1825.29 330.853 1816.95 335.078 1799.03 343.319C1782.04 351.129 1768.04 356.503 1740.5 365.776C1734.31 367.859 1728.41 369.932 1727.37 370.383C1724.75 371.53 1711.08 376.046 1707.69 376.886C1706.14 377.269 1700.02 378.858 1694.09 380.415C1675.95 385.182 1656.84 389.067 1642.06 390.991C1628.73 392.728 1623.36 393.508 1620.97 394.055C1607.37 397.166 1510.53 397.584 1489.72 394.621C1486.37 394.144 1480.25 393.737 1476.12 393.717C1472 393.696 1465.04 393.059 1460.66 392.301C1456.27 391.543 1446.99 390.293 1440.03 389.524C1425.79 387.949 1422.13 387.514 1411.44 386.13C1407.31 385.596 1401.19 384.807 1397.84 384.375C1384.08 382.604 1349.09 376.948 1348.09 376.335C1347.74 376.119 1344.14 375.518 1340.07 374.999C1336.01 374.48 1328.26 373.19 1322.84 372.132C1312.55 370.12 1311.27 369.858 1293.78 366.188C1287.85 364.943 1277.51 362.816 1270.81 361.46C1250.66 357.384 1237.51 354.318 1233.78 352.826C1231.84 352.049 1225.67 350.155 1220.06 348.616C1214.46 347.077 1208.4 345.388 1206.59 344.863C1204.79 344.338 1201.49 343.522 1199.27 343.048C1197.04 342.575 1194.72 341.865 1194.11 341.471C1193.5 341.078 1190.89 340.279 1188.31 339.696C1185.73 339.114 1182.36 338.167 1180.81 337.593C1179.27 337.018 1171.67 334.602 1163.94 332.224C1156.2 329.845 1148.61 327.366 1147.06 326.715C1144.14 325.484 1141.23 324.522 1125.5 319.597C1114.68 316.208 1098.78 308.944 1098.78 307.387C1098.78 304.8 1082.05 313.399 1070.19 322.082C1067.09 324.346 1063.93 326.484 1063.16 326.832C1062.38 327.181 1060.06 328.594 1058 329.974C1055.94 331.354 1052.56 333.599 1050.5 334.964C1044.51 338.928 1034.91 345.853 1025.49 353.011C1016.05 360.18 1014.91 361.011 1001.37 370.466C979.588 385.679 968.284 392.917 960.972 396.33C948.883 401.972 944.199 404.029 943.435 404.029C943.007 404.029 941.188 405.023 939.392 406.238C935.294 409.012 889.143 432.638 885.971 433.586C883.597 434.295 870.927 439.898 867.937 441.561C867.042 442.059 865.694 442.466 864.942 442.466C864.19 442.466 859.649 444.384 854.851 446.729C850.053 449.074 843.425 452.033 840.123 453.305C836.821 454.576 830.443 457.72 825.949 460.291C821.456 462.862 817.408 464.967 816.954 464.968C816.5 464.969 813.745 466.551 810.832 468.484C807.919 470.416 803.337 473.263 800.65 474.81C797.962 476.356 794.65 478.265 793.29 479.051C791.929 479.837 788.149 482.263 784.89 484.442C781.631 486.62 778.645 488.403 778.254 488.403C777.507 488.403 772.433 491.539 762.134 498.367C758.734 500.621 755.751 502.466 755.505 502.466C755.26 502.466 749.995 505.367 743.806 508.912C730.362 516.615 728.472 517.353 728.472 514.9L728.441 514.928ZM1593.8 342.228C1600.15 341.405 1609.61 340.441 1641.14 337.403C1646.81 336.857 1654.62 335.997 1658.48 335.493C1662.35 334.989 1667.84 334.407 1670.67 334.201C1673.51 333.995 1679.2 333.131 1683.33 332.282C1687.45 331.433 1693.15 330.406 1695.98 330C1698.82 329.594 1704.09 328.213 1707.7 326.931C1711.31 325.649 1717.39 324.113 1721.21 323.518C1729.01 322.302 1750.83 316.173 1760.44 312.497C1763.92 311.167 1768.36 309.706 1770.3 309.251C1774.44 308.279 1786.95 302.848 1801.48 295.708C1807.17 292.913 1812.23 290.627 1812.73 290.626C1813.23 290.625 1816.02 288.971 1818.93 286.951C1821.84 284.93 1825.64 282.552 1827.37 281.666C1829.1 280.78 1832.41 278.488 1834.73 276.572C1837.05 274.656 1840.64 271.965 1842.7 270.593C1859.8 259.21 1870.05 247.566 1875.53 233.287C1877.38 228.473 1879.67 222.847 1880.63 220.784C1885.66 209.899 1887.02 189.154 1883.43 178.016C1882.37 174.726 1881.13 170.085 1880.67 167.703C1880.2 165.321 1878.5 161.118 1876.88 158.364C1875.25 155.61 1872.41 150.612 1870.57 147.258C1865.71 138.417 1859.85 131.076 1852.74 124.93C1849.3 121.963 1845.22 118.207 1843.66 116.584C1839.1 111.829 1814.36 103.142 1797.7 100.445C1794.09 99.8607 1787.13 98.7054 1782.23 97.8772C1761.4 94.3547 1725.22 93.7274 1701.74 96.4813C1696.41 97.1076 1691.83 97.4099 1691.57 97.1532C1691.31 96.8965 1690.17 97.0396 1689.04 97.4713C1687.9 97.9029 1680.89 98.5451 1673.45 98.8982C1666.01 99.2514 1659.62 99.7221 1659.27 99.9442C1658.91 100.166 1656.16 100.574 1653.16 100.85C1650.16 101.126 1643.69 102.232 1638.8 103.307C1633.9 104.383 1626.73 105.553 1622.86 105.908C1618.99 106.263 1612.66 107.517 1608.8 108.695C1595.25 112.822 1593.3 113.354 1589.58 113.941C1585.16 114.638 1559.43 121.164 1550.67 123.809C1547.32 124.821 1541.41 126.504 1537.55 127.548C1533.68 128.593 1528.62 130.217 1526.3 131.159C1523.98 132.1 1517.65 134.216 1512.24 135.859C1496.14 140.746 1482.05 145.429 1477.55 147.384C1471.22 150.133 1449.79 161.018 1442.86 165.004C1439.51 166.931 1434.66 169.55 1432.08 170.825C1429.5 172.099 1416.84 178.512 1403.95 185.076C1391.06 191.641 1375.66 199.056 1369.73 201.555C1357.02 206.917 1335.09 216.843 1330.19 219.456C1328.3 220.469 1319.02 224.467 1309.57 228.341C1294.76 234.412 1288.53 236.813 1271.77 242.912C1270.22 243.474 1266.21 244.956 1262.86 246.204C1253.08 249.847 1240.12 254.296 1237.08 255.057C1233.1 256.05 1221.73 260.198 1221.01 260.915C1220.68 261.244 1221.63 261.977 1223.12 262.543C1224.61 263.108 1226.46 264.14 1227.23 264.834C1228.87 266.299 1230.71 267.033 1251.96 274.668C1260.66 277.795 1268.9 281.153 1270.28 282.13C1271.65 283.108 1275.08 284.723 1277.89 285.72C1280.71 286.716 1287.24 289.026 1292.39 290.853C1297.55 292.681 1303.67 294.692 1305.99 295.324C1308.31 295.956 1314.72 298.111 1320.24 300.113C1325.76 302.115 1331.27 303.753 1332.48 303.753C1333.69 303.753 1337.19 304.547 1340.26 305.518C1347.15 307.702 1350.81 308.694 1362.7 311.612C1367.86 312.877 1376.2 315.001 1381.23 316.333C1386.27 317.664 1391.24 318.753 1392.28 318.753C1393.32 318.753 1397.43 319.964 1401.41 321.444C1405.39 322.924 1413.92 325.095 1420.36 326.268C1426.81 327.44 1435.24 328.978 1439.11 329.685C1442.98 330.391 1449.9 331.396 1454.49 331.918C1459.08 332.439 1465.4 333.458 1468.55 334.181C1475.06 335.679 1493.8 338.299 1502.86 338.978C1506.21 339.229 1514.44 339.835 1521.14 340.325C1527.84 340.815 1535.23 341.599 1537.55 342.069C1543.31 343.235 1585.11 343.355 1593.8 342.23L1593.8 342.228Z" fill="black"/>
</svg>
