<svg width="600" height="976" viewBox="0 0 600 976" fill="none" xmlns="http://www.w3.org/2000/svg">
<g id="parrot 1">
<g id="layer1">
<g id="Group">
<g id="Group_2">
<path id="Vector" d="M321.956 453.225C321.948 453.234 321.686 453.263 321.378 453.288C321.07 453.317 320.704 453.363 320.567 453.396C320.43 453.433 320.176 453.487 320.005 453.521C319.165 453.683 318.841 453.762 318.591 453.858C318.512 453.887 318.379 453.924 318.3 453.937C318.084 453.978 317.76 454.086 317.735 454.128C317.722 454.149 317.66 454.165 317.597 454.165C317.535 454.165 317.468 454.178 317.452 454.195C317.439 454.211 317.402 454.228 317.373 454.232C317.281 454.244 316.79 454.423 316.441 454.565C316.254 454.644 316.075 454.706 316.046 454.706C316.013 454.706 315.967 454.727 315.942 454.752C315.913 454.781 315.784 454.835 315.651 454.881C315.43 454.956 315.231 455.043 314.661 455.313C314.545 455.367 314.436 455.413 314.416 455.413C314.395 455.413 314.345 455.438 314.312 455.467C314.274 455.501 314.154 455.559 314.037 455.6C313.925 455.642 313.821 455.688 313.808 455.704C313.796 455.717 313.629 455.804 313.434 455.891C313.243 455.983 313.006 456.099 312.914 456.145C312.823 456.195 312.581 456.324 312.373 456.432C312.17 456.54 311.962 456.648 311.916 456.673C311.87 456.702 311.666 456.815 311.458 456.927C311.255 457.039 310.993 457.193 310.876 457.264C310.506 457.497 310.381 457.572 310.161 457.68C310.044 457.738 309.936 457.8 309.924 457.821C309.899 457.859 309.416 458.154 309.067 458.349C308.98 458.399 308.855 458.487 308.792 458.549C308.726 458.607 308.647 458.657 308.614 458.657C308.58 458.657 308.526 458.686 308.489 458.72C308.422 458.782 307.902 459.136 307.628 459.302C307.553 459.348 307.32 459.506 307.104 459.651C306.53 460.051 306.467 460.088 306.447 460.117C306.434 460.13 306.363 460.175 306.293 460.217C306.218 460.263 306.156 460.313 306.156 460.329C306.156 460.346 306.081 460.4 305.993 460.442C305.906 460.487 305.806 460.55 305.777 460.579C305.744 460.608 305.627 460.699 305.519 460.778C305.411 460.857 305.228 460.995 305.12 461.078C305.008 461.165 304.895 461.236 304.87 461.236C304.845 461.236 304.825 461.265 304.825 461.298C304.825 461.332 304.8 461.361 304.775 461.361C304.746 461.361 304.637 461.427 304.538 461.506C304.438 461.585 304.342 461.652 304.33 461.652C304.317 461.652 304.201 461.748 304.076 461.86C303.951 461.972 303.835 462.068 303.818 462.068C303.801 462.068 303.664 462.172 303.514 462.297C303.369 462.421 303.232 462.525 303.215 462.525C303.198 462.525 303.069 462.629 302.932 462.754L302.683 462.983H302.184C301.909 462.987 301.601 463.004 301.497 463.024C301.065 463.103 300.857 463.153 300.815 463.187C300.79 463.203 300.682 463.241 300.574 463.27C300.366 463.32 299.85 463.578 299.551 463.777C299.451 463.844 299.297 463.935 299.206 463.981C299.118 464.027 299.043 464.081 299.043 464.102C299.043 464.118 298.993 464.16 298.931 464.193C298.819 464.247 298.727 464.326 298.382 464.651C298.295 464.73 298.174 464.829 298.112 464.867C298.053 464.908 298.004 464.967 298.004 465C298.004 465.029 297.97 465.067 297.929 465.079C297.883 465.096 297.825 465.154 297.796 465.208C297.767 465.266 297.725 465.312 297.708 465.312C297.671 465.312 296.797 466.373 296.797 466.414C296.797 466.427 296.752 466.501 296.693 466.576C296.635 466.651 296.589 466.734 296.589 466.759C296.589 466.788 296.573 466.809 296.556 466.809C296.535 466.809 296.436 466.942 296.327 467.104C296.186 467.321 296.065 467.45 295.853 467.595C295.699 467.708 295.546 467.828 295.512 467.866C295.483 467.903 295.437 467.932 295.412 467.932C295.387 467.932 295.317 467.978 295.259 468.036C295.1 468.19 294.926 468.348 294.905 468.348C294.834 468.348 293.786 469.384 293.412 469.825C292.983 470.336 292.979 470.34 292.771 470.648C292.364 471.251 292.123 471.68 291.994 472.029C291.952 472.141 291.89 472.274 291.861 472.32C291.831 472.366 291.806 472.424 291.806 472.457C291.806 472.486 291.769 472.59 291.723 472.682C291.678 472.778 291.64 472.907 291.64 472.969C291.64 473.094 291.553 473.193 291.49 473.135C291.47 473.114 291.407 473.09 291.349 473.081C291.262 473.069 291.241 473.04 291.22 472.882C291.187 472.653 291.041 472.266 290.954 472.179C290.921 472.141 290.792 472.104 290.671 472.091C290.322 472.058 290.334 472.016 290.879 471.243C291.133 470.881 291.187 470.033 290.946 470.124C290.871 470.153 290.871 470.141 290.995 469.683C291.079 469.371 291.062 469.13 290.946 468.901C290.883 468.781 290.842 468.747 290.771 468.756C290.667 468.772 290.663 468.756 290.75 468.585C290.8 468.49 290.821 468.336 290.825 468.015C290.825 467.624 290.817 467.558 290.729 467.412C290.559 467.129 290.521 467.117 290.342 467.296C290.155 467.479 290.151 467.462 290.255 466.951C290.313 466.647 290.317 466.555 290.272 466.298C290.243 466.131 290.209 465.923 290.197 465.832C290.184 465.74 290.159 465.649 290.139 465.624C290.118 465.603 290.101 465.549 290.101 465.499C290.097 465.395 289.997 465.204 289.964 465.254C289.951 465.274 289.931 465.403 289.914 465.541C289.902 465.678 289.864 465.857 289.831 465.936C289.802 466.015 289.748 466.173 289.714 466.289L289.656 466.493L289.602 466.331C289.573 466.239 289.494 466.065 289.432 465.944L289.315 465.719L289.382 465.362C289.465 464.879 289.444 463.777 289.344 463.565C289.311 463.486 289.253 463.353 289.224 463.274C289.195 463.195 289.128 463.074 289.074 463.012C289.02 462.945 288.978 462.879 288.978 462.858C288.978 462.771 288.849 462.783 288.804 462.879C288.729 463.045 288.687 462.958 288.687 462.633C288.687 462.463 288.662 462.234 288.629 462.126C288.596 462.014 288.55 461.827 288.525 461.714C288.467 461.469 288.167 460.82 288.109 460.82C288.088 460.82 288.055 460.907 288.042 461.016C288.026 461.128 287.988 461.307 287.959 461.423C287.909 461.61 287.868 461.793 287.83 462.047C287.797 462.259 287.739 462.513 287.701 462.608C287.676 462.667 287.622 462.862 287.581 463.045C287.543 463.228 287.485 463.424 287.46 463.482C287.431 463.54 287.394 463.661 287.381 463.752C287.344 463.948 287.231 464.318 287.19 464.376C287.173 464.397 287.144 464.493 287.132 464.584C287.115 464.676 287.078 464.788 287.048 464.834C287.019 464.879 286.944 465.079 286.882 465.279C286.815 465.482 286.745 465.645 286.724 465.645C286.703 465.645 286.695 465.661 286.707 465.678C286.732 465.719 286.603 466.152 286.541 466.231C286.516 466.264 286.458 466.41 286.416 466.551C286.362 466.739 286.3 466.847 286.221 466.905C285.892 467.154 285.584 467.633 285.505 468.007L285.476 468.148L285.364 468.04C285.227 467.911 285.181 467.907 285.023 468.02C284.902 468.107 284.736 468.373 284.736 468.485C284.736 468.519 284.711 468.569 284.678 468.593C284.57 468.685 284.532 469.014 284.491 470.307C284.474 470.869 284.445 471.351 284.432 471.372C284.416 471.397 284.424 471.571 284.449 471.763C284.474 471.954 284.507 472.308 284.528 472.549C284.57 473.048 284.64 473.46 284.694 473.526C284.715 473.551 284.744 473.651 284.761 473.747C284.777 473.842 284.807 473.934 284.823 473.946C284.844 473.959 284.861 474.063 284.861 474.175C284.861 474.292 284.882 474.42 284.902 474.466C284.927 474.508 284.956 474.67 284.969 474.828C284.981 474.982 285.002 475.136 285.015 475.169C285.031 475.202 285.035 475.248 285.031 475.269C285.019 475.323 285.106 475.701 285.173 475.876C285.21 475.98 285.235 476.442 285.256 477.457C285.285 478.929 285.256 479.582 285.127 480.451C285.089 480.692 285.035 481.054 285.006 481.262C284.977 481.466 284.936 481.691 284.911 481.761C284.886 481.828 284.844 481.965 284.819 482.061L284.773 482.24H284.449C284.166 482.24 284.12 482.231 284.104 482.165C284.083 482.086 283.858 482.032 283.546 482.032C283.467 482.032 283.405 482.011 283.405 481.99C283.405 481.965 283.434 481.948 283.472 481.948C283.526 481.948 283.53 481.936 283.492 481.89C283.467 481.861 283.318 481.824 283.155 481.807C282.864 481.778 282.798 481.736 282.939 481.674C283.022 481.637 282.723 481.583 282.398 481.578C282.261 481.574 282.191 481.553 282.166 481.503C282.136 481.454 282.053 481.429 281.87 481.416C281.729 481.408 281.617 481.383 281.617 481.362C281.617 481.341 281.642 481.325 281.671 481.325C281.704 481.325 281.7 481.308 281.658 481.283C281.625 481.262 281.479 481.241 281.334 481.241C281.18 481.241 281.08 481.225 281.097 481.204C281.134 481.137 280.98 481.079 280.685 481.05C280.514 481.033 280.41 481.004 280.41 480.971C280.41 480.905 280.14 480.826 279.886 480.817C279.732 480.813 279.716 480.809 279.816 480.796C280.098 480.759 279.936 480.705 279.525 480.692C279.163 480.68 279.117 480.672 279.204 480.63C279.296 480.588 279.262 480.58 278.975 480.58C278.793 480.58 278.576 480.593 278.493 480.613C278.339 480.647 278.239 480.622 278.243 480.551C278.243 480.53 278.106 480.518 277.932 480.526C277.753 480.53 277.628 480.522 277.64 480.501C277.665 480.46 276.817 480.389 276.755 480.426C276.734 480.439 276.53 480.46 276.297 480.468C275.964 480.484 275.848 480.505 275.736 480.572C275.661 480.622 275.573 480.659 275.544 480.659C275.515 480.659 275.336 480.734 275.145 480.826C274.954 480.917 274.779 480.992 274.762 480.992C274.741 480.992 274.675 481.029 274.613 481.079C274.554 481.125 274.488 481.154 274.467 481.142C274.371 481.079 273.731 481.624 273.448 482.003C273.323 482.173 273.132 482.518 273.132 482.581C273.132 482.606 273.09 482.693 273.04 482.772C272.891 483.017 272.758 483.45 272.758 483.695C272.758 483.878 272.783 483.962 272.882 484.111C273.007 484.298 273.04 484.461 272.97 484.502C272.949 484.519 272.92 484.606 272.903 484.706C272.887 484.802 272.845 484.943 272.816 485.022C272.72 485.255 272.666 486.12 272.712 486.69C272.749 487.139 272.853 487.605 272.97 487.821C272.991 487.863 273.007 487.921 273.007 487.954C273.007 487.983 273.032 488.033 273.065 488.058C273.099 488.087 273.157 488.166 273.19 488.241C273.348 488.545 273.46 488.707 273.752 489.023C274.172 489.481 274.675 489.818 275.211 489.996C275.336 490.034 275.49 490.096 275.553 490.125C275.611 490.159 275.69 490.184 275.727 490.184C275.81 490.184 275.815 490.084 275.731 490.017C275.698 489.988 275.669 489.942 275.669 489.913C275.669 489.884 275.64 489.838 275.607 489.809C275.503 489.722 275.137 488.911 275.182 488.869C275.195 488.857 275.378 488.869 275.586 488.898C276.243 488.986 277.333 488.894 277.728 488.711C278.077 488.553 278.189 488.491 278.268 488.412C278.356 488.316 278.684 488.229 279.067 488.2C279.287 488.179 279.287 488.179 279.508 488.403C279.624 488.524 279.753 488.641 279.791 488.666C279.828 488.686 279.936 488.761 280.036 488.832C280.248 488.982 280.639 489.206 280.785 489.269C280.843 489.289 280.918 489.327 280.951 489.352C280.984 489.373 281.172 489.468 281.363 489.564C281.629 489.701 281.716 489.764 281.75 489.859C281.77 489.922 281.808 489.976 281.829 489.976C281.849 489.976 281.908 490.046 281.966 490.13C282.095 490.337 283.031 491.257 283.322 491.469C283.447 491.56 283.609 491.677 283.684 491.731C283.758 491.785 283.829 491.876 283.842 491.935C283.854 491.997 283.921 492.134 283.991 492.238C284.058 492.346 284.112 492.446 284.112 492.459C284.112 492.471 284.208 492.621 284.32 492.791C284.436 492.958 284.528 493.107 284.528 493.124C284.528 493.137 284.603 493.249 284.694 493.37C284.786 493.49 284.861 493.602 284.861 493.611C284.861 493.636 285.185 494.077 285.372 494.301C285.435 494.38 285.551 494.522 285.622 494.609C285.697 494.696 286.046 495.066 286.4 495.432L287.044 496.09L287.369 496.722C287.548 497.071 287.71 497.375 287.726 497.396C287.747 497.421 287.793 497.533 287.834 497.649C287.876 497.762 287.934 497.886 287.959 497.92C287.988 497.953 288.026 498.036 288.038 498.107C288.055 498.173 288.097 498.261 288.126 498.294C288.18 498.356 288.475 499.192 288.558 499.521C288.583 499.612 288.637 499.82 288.683 499.987C288.725 500.153 288.787 500.511 288.816 500.789C288.878 501.384 288.866 501.417 288.596 501.318C288.496 501.276 288.338 501.247 288.242 501.247C288.101 501.247 288.047 501.276 287.905 501.409C287.751 501.559 287.726 501.567 287.552 501.551C287.152 501.505 286.965 501.65 286.379 502.453C285.984 502.994 285.797 503.376 285.738 503.742C285.638 504.366 285.797 504.578 286.408 504.645C286.57 504.662 286.616 504.649 286.678 504.578C286.716 504.528 286.761 504.491 286.774 504.491C286.786 504.491 286.84 504.574 286.899 504.674C287.086 505.019 287.335 505.04 287.805 504.753C288.167 504.533 288.296 504.4 288.438 504.079C288.504 503.93 288.454 503.925 288.317 504.071C288.25 504.142 288.18 504.2 288.155 504.2C288.134 504.2 288.092 504.229 288.063 504.262C288.034 504.296 287.997 504.325 287.98 504.325C287.926 504.325 287.901 504.063 287.938 503.888C287.959 503.796 287.997 503.618 288.026 503.493C288.055 503.368 288.097 503.235 288.126 503.202C288.151 503.168 288.2 503.073 288.234 502.994C288.263 502.915 288.334 502.782 288.388 502.698C288.471 502.57 288.517 502.54 288.675 502.52C288.779 502.507 288.878 502.507 288.899 502.52C288.957 502.553 288.945 503.01 288.887 503.073C288.849 503.106 288.833 503.256 288.833 503.505C288.829 503.909 288.754 504.179 288.625 504.225C288.591 504.237 288.562 504.271 288.562 504.291C288.562 504.316 288.517 504.37 288.458 504.416C288.234 504.591 288.379 504.628 288.704 504.474C288.908 504.375 289.049 504.258 289.24 504.025C289.29 503.967 289.373 503.905 289.427 503.888C289.515 503.863 289.519 503.871 289.519 504.121C289.519 504.433 289.619 504.624 289.856 504.741C290.051 504.845 290.438 504.853 290.517 504.761C290.596 504.666 290.621 504.682 290.671 504.874C290.7 504.973 290.775 505.107 290.85 505.177C290.966 505.285 291.012 505.302 291.287 505.315C291.586 505.331 291.603 505.327 291.711 505.211C291.777 505.144 291.902 505.036 291.994 504.969C292.085 504.903 292.21 504.799 292.272 504.732C292.331 504.67 292.435 504.608 292.501 504.595C292.563 504.583 292.647 504.553 292.68 504.533C292.713 504.512 292.817 504.458 292.909 504.408C293 504.362 293.137 504.237 293.212 504.138C293.287 504.034 293.379 503.95 293.412 503.95C293.449 503.95 293.549 503.876 293.637 503.788C293.857 503.564 293.886 503.356 293.765 502.873C293.67 502.478 293.657 502.328 293.72 502.328C293.74 502.328 293.807 502.245 293.865 502.145C293.923 502.041 294.044 501.883 294.127 501.792C294.21 501.7 294.352 501.488 294.443 501.322C294.531 501.155 294.626 500.989 294.655 500.956C294.685 500.923 294.739 500.794 294.784 500.673C294.826 500.557 294.88 500.457 294.909 500.457C294.934 500.457 295.046 500.573 295.159 500.715C295.271 500.86 295.392 501.006 295.425 501.047C295.516 501.147 295.658 501.33 295.774 501.496C295.949 501.746 296.327 502.295 296.502 502.557C296.594 502.694 296.71 502.861 296.756 502.931C297.01 503.306 297.213 503.618 297.213 503.634C297.213 503.643 297.301 503.78 297.405 503.938C297.509 504.092 297.613 504.258 297.638 504.304C297.658 504.35 297.742 504.499 297.821 504.637C297.895 504.774 297.999 504.969 298.045 505.073C298.091 505.177 298.145 505.29 298.17 505.323C298.191 505.356 298.286 505.543 298.382 505.739C298.474 505.934 298.569 506.121 298.59 506.155C298.623 506.209 298.952 506.853 299.185 507.307C299.226 507.394 299.285 507.481 299.314 507.506C299.339 507.527 299.389 507.615 299.418 507.694C299.484 507.86 299.638 508.139 300.25 509.212C300.374 509.432 300.516 509.682 300.561 509.765C300.665 509.952 300.765 510.114 300.919 510.343C300.986 510.439 301.04 510.526 301.04 510.538C301.04 510.551 301.127 510.697 301.239 510.859C301.348 511.021 301.464 511.208 301.497 511.266C301.535 511.329 301.639 511.491 301.726 511.624C301.818 511.753 301.926 511.923 301.971 511.994C302.013 512.065 302.059 512.131 302.075 512.144C302.092 512.156 302.15 512.24 302.204 512.331C302.258 512.423 302.329 512.514 302.358 512.531C302.387 512.547 302.412 512.585 302.412 512.606C302.412 512.631 302.487 512.759 302.579 512.893C302.67 513.026 302.745 513.159 302.745 513.18C302.745 513.204 302.762 513.225 302.782 513.225C302.803 513.225 302.837 513.267 302.849 513.317C302.866 513.371 302.924 513.471 302.978 513.546C303.032 513.616 303.078 513.691 303.078 513.712C303.078 513.733 303.132 513.812 303.198 513.891C303.261 513.97 303.361 514.119 303.415 514.219C303.573 514.51 303.602 514.552 303.689 514.652C303.735 514.702 303.856 514.872 303.955 515.034C304.051 515.192 304.159 515.355 304.188 515.388C304.222 515.421 304.317 515.554 304.409 515.679C304.575 515.916 304.696 516.066 304.858 516.245C304.908 516.303 304.949 516.361 304.949 516.374C304.949 516.407 305.315 516.844 305.436 516.952C305.49 517.002 305.532 517.052 305.532 517.064C305.532 517.102 306.21 517.767 306.551 518.058C307.208 518.624 307.27 518.674 307.303 518.674C307.324 518.674 307.374 518.624 307.424 518.566L307.507 518.462L307.694 518.636C307.977 518.898 308.684 519.51 308.855 519.643C308.938 519.705 309.025 519.78 309.046 519.809C309.084 519.855 309.142 519.905 309.433 520.121C309.487 520.159 309.574 520.229 309.624 520.275C309.857 520.483 310.348 520.753 310.726 520.882C310.943 520.953 311.105 520.982 311.105 520.949C311.105 520.832 310.731 520.321 310.294 519.847C309.786 519.293 309.483 518.944 309.404 518.828C309.366 518.774 309.291 518.686 309.237 518.628C309.188 518.574 309.092 518.462 309.034 518.383C308.971 518.304 308.838 518.133 308.734 518.008C308.63 517.884 308.505 517.721 308.46 517.651C308.418 517.576 308.318 517.447 308.243 517.359C308.065 517.143 307.283 516.02 307.05 515.633C307.029 515.596 306.933 515.454 306.842 515.321C306.58 514.926 306.363 514.519 306.363 514.411C306.363 514.373 306.339 514.29 306.305 514.232C306.239 514.095 306.168 513.882 306.131 513.67C306.118 513.587 306.089 513.504 306.068 513.491C306.047 513.479 306.031 513.429 306.031 513.379C306.031 513.304 306.043 513.313 306.135 513.433C306.193 513.512 306.239 513.6 306.239 513.629C306.239 513.658 306.255 513.683 306.276 513.683C306.297 513.683 306.347 513.737 306.393 513.803C306.459 513.916 306.742 514.34 306.917 514.598C306.958 514.656 307.075 514.831 307.183 514.993C307.374 515.276 307.595 515.575 308.152 516.324C308.302 516.523 308.493 516.79 308.576 516.919C308.663 517.043 308.809 517.239 308.901 517.347C308.992 517.455 309.067 517.559 309.067 517.58C309.067 517.597 309.138 517.692 309.225 517.788C309.308 517.888 309.445 518.05 309.524 518.154C309.774 518.478 309.978 518.732 310.044 518.811C310.082 518.853 310.177 518.973 310.256 519.081C310.34 519.189 310.439 519.31 310.481 519.348C310.523 519.389 310.643 519.543 310.751 519.689C310.855 519.838 310.959 519.963 310.976 519.971C310.997 519.98 311.08 520.067 311.167 520.171C311.354 520.404 311.662 520.757 311.845 520.957C311.97 521.09 311.982 521.099 311.953 521.003C311.937 520.945 311.887 520.841 311.837 520.774C311.716 520.604 311.654 520.495 311.608 520.4C311.587 520.354 311.504 520.225 311.421 520.109C311.338 519.996 311.271 519.884 311.271 519.867C311.271 519.847 311.217 519.751 311.146 519.651C311.08 519.551 311.022 519.46 311.022 519.451C311.022 519.443 310.922 519.281 310.805 519.098C310.427 518.516 310.265 518.25 310.286 518.233C310.306 518.212 310.689 518.599 310.822 518.778C310.876 518.844 311.013 518.998 311.126 519.11C311.242 519.227 311.467 519.46 311.629 519.63C312.012 520.038 312.877 520.849 313.251 521.157C313.746 521.56 313.817 521.618 314.141 521.855C314.312 521.98 314.474 522.084 314.499 522.084C314.524 522.084 314.569 522.113 314.599 522.147C314.628 522.18 314.744 522.255 314.865 522.317C314.981 522.375 315.181 522.479 315.306 522.546C315.534 522.667 315.963 522.812 315.992 522.783C316.004 522.775 315.763 522.533 315.464 522.246C314.203 521.053 312.332 519.144 312.195 518.915C312.157 518.853 312.103 518.799 312.074 518.799C312.045 518.799 312.02 518.774 312.02 518.74C312.02 518.707 311.978 518.645 311.928 518.603C311.829 518.524 311.384 518.017 311.167 517.742C311.101 517.651 310.943 517.476 310.826 517.347C310.706 517.218 310.606 517.102 310.606 517.085C310.606 517.06 310.531 516.969 310.19 516.553C310.044 516.374 309.695 515.925 309.516 515.683C309.441 515.583 309.346 515.467 309.308 515.425C309.267 515.38 309.233 515.33 309.233 515.309C309.233 515.292 309.192 515.23 309.138 515.176C309.084 515.122 308.946 514.943 308.834 514.785C308.722 514.623 308.618 514.486 308.597 514.481C308.58 514.473 308.535 514.406 308.497 514.336C308.46 514.261 308.364 514.124 308.285 514.024C308.206 513.928 308.09 513.774 308.031 513.683C307.973 513.595 307.811 513.358 307.674 513.159C307.536 512.959 307.391 512.747 307.353 512.689C307.316 512.631 307.266 512.56 307.241 512.531C307.216 512.506 307.158 512.406 307.112 512.319C307.062 512.227 306.987 512.119 306.946 512.081C306.9 512.04 306.863 511.99 306.863 511.969C306.863 511.948 306.725 511.724 306.555 511.466C306.11 510.788 305.968 510.559 305.902 510.405C305.873 510.335 305.831 510.272 305.814 510.272C305.798 510.272 305.735 510.185 305.677 510.073C305.552 509.84 305.461 509.686 305.32 509.461C305.257 509.37 305.199 509.253 305.182 509.199C305.166 509.149 305.137 509.108 305.12 509.108C305.099 509.108 305.062 509.045 305.033 508.97C304.999 508.9 304.954 508.808 304.924 508.775C304.875 508.713 304.675 508.355 304.529 508.06C304.488 507.976 304.434 507.897 304.413 507.881C304.392 507.868 304.35 507.789 304.321 507.702C304.296 507.619 304.242 507.511 304.201 507.465C304.159 507.419 304.039 507.203 303.93 506.987C303.822 506.77 303.681 506.496 303.614 506.383C303.552 506.267 303.481 506.138 303.456 506.092C303.39 505.938 303.015 505.19 302.924 505.015C302.874 504.924 302.832 504.815 302.832 504.778C302.828 504.741 302.799 504.687 302.766 504.657C302.733 504.628 302.703 504.583 302.703 504.558C302.703 504.533 302.674 504.454 302.637 504.387C302.599 504.316 302.533 504.171 302.487 504.054C302.441 503.942 302.362 503.751 302.308 503.634C302.254 503.518 302.196 503.351 302.184 503.272C302.167 503.189 302.129 503.102 302.096 503.073C302.063 503.048 302.038 503.002 302.038 502.973C302.038 502.94 302.009 502.865 301.976 502.798C301.942 502.736 301.867 502.57 301.805 502.432C301.747 502.295 301.672 502.133 301.639 502.07C301.605 502.012 301.58 501.933 301.58 501.904C301.58 501.871 301.526 501.734 301.46 501.596C301.393 501.463 301.298 501.247 301.248 501.122C301.198 500.997 301.144 500.877 301.127 500.852C301.11 500.831 301.069 500.727 301.04 500.623C301.006 500.519 300.948 500.386 300.907 500.324C300.865 500.265 300.832 500.203 300.832 500.182C300.832 500.166 300.778 500.041 300.711 499.899C300.645 499.758 300.578 499.587 300.566 499.513C300.549 499.442 300.507 499.359 300.474 499.33C300.441 499.305 300.416 499.259 300.416 499.226C300.416 499.163 300.295 498.889 300.229 498.793C300.204 498.76 300.15 498.627 300.104 498.502C300.062 498.377 299.992 498.215 299.95 498.148C299.908 498.078 299.875 497.999 299.875 497.965C299.875 497.932 299.85 497.874 299.821 497.841C299.788 497.803 299.721 497.662 299.667 497.524C299.613 497.387 299.559 497.254 299.542 497.233C299.526 497.208 299.48 497.088 299.434 496.963C299.393 496.838 299.343 496.713 299.326 496.688C299.276 496.618 299.343 496.585 299.414 496.643C299.505 496.722 300.071 496.88 300.254 496.88C300.445 496.88 300.524 496.788 300.561 496.535C300.591 496.347 300.665 496.277 300.728 496.381C300.778 496.464 301.352 496.709 301.647 496.776C301.809 496.813 302.063 496.838 302.208 496.83L302.475 496.817L302.462 496.056C302.45 495.333 302.45 495.291 302.525 495.312C302.566 495.324 302.645 495.349 302.703 495.362C302.762 495.378 302.866 495.416 302.932 495.445C303.19 495.549 303.369 495.595 303.635 495.62C303.789 495.632 303.922 495.661 303.935 495.678C303.947 495.699 303.989 495.715 304.03 495.715C304.105 495.715 304.109 495.67 304.084 494.921L304.063 494.122L304.184 494.151C304.251 494.164 304.45 494.189 304.625 494.205C304.895 494.226 304.954 494.218 304.974 494.164C304.987 494.126 304.978 493.748 304.954 493.32C304.933 492.887 304.916 492.534 304.92 492.529C304.924 492.525 305.045 492.542 305.186 492.563C305.328 492.588 305.511 492.592 305.598 492.579L305.752 492.55L305.719 492.313C305.673 491.951 305.656 491.078 305.698 491.011C305.731 490.961 305.756 490.961 305.873 491.02C306.097 491.132 306.247 491.173 306.509 491.203C306.863 491.24 306.904 491.198 306.85 490.849C306.813 490.595 306.804 490.075 306.825 489.227C306.833 488.878 306.808 488.661 306.738 488.499C306.675 488.354 306.571 488.008 306.571 487.946C306.571 487.909 306.642 487.942 306.775 488.037C306.888 488.121 306.991 488.187 307.004 488.187C307.021 488.187 307.129 488.258 307.249 488.345C307.482 488.516 308.069 488.811 308.177 488.811C308.21 488.811 308.273 488.828 308.31 488.849C308.418 488.907 308.913 488.944 308.98 488.903C309.025 488.869 309.017 488.769 308.926 488.308C308.859 487.954 308.817 487.58 308.813 487.281C308.805 487.023 308.784 486.719 308.759 486.607C308.738 486.494 308.73 486.39 308.742 486.378C308.755 486.365 308.855 486.403 308.963 486.461C309.071 486.519 309.192 486.565 309.225 486.565C309.262 486.565 309.321 486.594 309.358 486.628C309.512 486.765 310.277 486.977 310.639 486.981C310.818 486.981 310.855 486.969 310.855 486.906C310.855 486.831 310.764 486.395 310.697 486.149C310.672 486.07 310.643 485.775 310.631 485.492L310.61 484.985H310.993C311.334 484.981 311.725 484.918 311.791 484.856C311.804 484.843 311.775 484.685 311.725 484.502C311.641 484.178 311.587 483.816 311.525 483.175C311.492 482.83 311.454 482.689 311.334 482.46C311.296 482.385 311.275 482.306 311.292 482.281C311.305 482.26 311.417 482.24 311.533 482.24C311.762 482.24 312.124 482.123 312.315 481.99C312.403 481.924 312.432 481.865 312.452 481.67C312.494 481.304 312.411 480.767 312.265 480.468C312.199 480.326 312.145 480.181 312.145 480.143C312.145 480.106 312.128 480.077 312.103 480.077C312.082 480.077 312.032 480.015 311.995 479.94C311.958 479.869 311.912 479.798 311.895 479.786C311.879 479.773 311.845 479.723 311.816 479.669C311.65 479.357 310.88 478.571 310.198 478.022C309.89 477.773 309.849 477.702 310.053 477.777C310.165 477.818 310.219 477.835 310.772 477.981C311.221 478.097 311.567 478.164 311.874 478.189C312.037 478.205 312.19 478.239 312.224 478.263C312.303 478.326 313.775 478.326 313.854 478.263C313.887 478.239 313.991 478.205 314.091 478.193C314.328 478.164 314.769 477.939 314.96 477.752C315.152 477.565 315.393 477.232 315.468 477.053C315.518 476.933 315.514 476.903 315.455 476.812C315.418 476.754 315.372 476.708 315.351 476.708C315.331 476.708 315.306 476.683 315.293 476.65C315.277 476.608 315.364 476.546 315.584 476.442C315.88 476.3 316.3 475.997 316.495 475.785C316.67 475.593 316.811 475.34 316.786 475.265C316.757 475.177 316.582 474.986 316.25 474.682C316.121 474.562 316.013 474.458 316.013 474.445C316.013 474.437 316.075 474.416 316.15 474.4C316.703 474.287 317.389 474.009 317.71 473.767C318.188 473.406 318.658 472.765 318.733 472.366C318.762 472.208 318.758 472.199 318.471 471.921C318.309 471.763 318.15 471.634 318.126 471.634C318.034 471.634 318.35 471.484 318.645 471.388C318.799 471.334 318.924 471.28 318.924 471.268C318.924 471.251 318.982 471.214 319.057 471.18C319.128 471.147 319.298 471.043 319.436 470.952C319.573 470.856 319.718 470.76 319.756 470.74C319.852 470.681 320.151 470.378 320.351 470.132C320.5 469.945 320.754 469.492 320.754 469.409C320.75 469.301 320.492 469.118 319.993 468.86C319.901 468.81 319.889 468.785 319.922 468.739C319.951 468.71 320.014 468.673 320.06 468.656C320.193 468.618 320.783 468.319 321.045 468.161C321.17 468.082 321.328 467.986 321.399 467.949C321.607 467.828 322.093 467.433 322.355 467.167C322.584 466.934 322.958 466.456 322.958 466.393C322.958 466.352 322.759 466.268 322.671 466.268C322.63 466.268 322.534 466.239 322.459 466.202C322.389 466.165 322.276 466.135 322.214 466.135C322.156 466.135 322.089 466.119 322.064 466.102C322.043 466.086 321.881 466.061 321.711 466.044C321.54 466.027 321.249 465.99 321.066 465.957C320.883 465.923 320.509 465.886 320.234 465.869C319.96 465.848 319.718 465.832 319.694 465.828C319.673 465.824 319.382 465.815 319.049 465.811C318.583 465.807 318.467 465.794 318.541 465.761C318.591 465.736 318.633 465.699 318.633 465.678C318.633 465.661 318.65 465.645 318.675 465.645C318.695 465.645 318.849 465.582 319.016 465.503C319.182 465.428 319.365 465.349 319.423 465.333C319.481 465.316 319.565 465.283 319.61 465.254C319.656 465.225 319.777 465.179 319.881 465.15C319.985 465.121 320.134 465.062 320.213 465.021C320.292 464.979 320.442 464.917 320.546 464.875C320.65 464.838 320.787 464.78 320.85 464.746C320.916 464.713 320.991 464.688 321.016 464.688C321.041 464.688 321.145 464.651 321.249 464.601C321.353 464.555 321.478 464.497 321.524 464.48C321.806 464.359 322.335 464.135 322.439 464.089C322.509 464.056 322.638 464.002 322.73 463.964C322.821 463.927 322.925 463.877 322.958 463.856C322.992 463.835 323.087 463.786 323.166 463.748C323.245 463.711 323.399 463.636 323.503 463.582C323.611 463.528 323.724 463.482 323.757 463.482C323.79 463.482 323.853 463.444 323.89 463.403C323.932 463.357 324.011 463.311 324.073 463.295C324.131 463.282 324.231 463.232 324.294 463.187C324.356 463.145 324.485 463.07 324.585 463.024C324.859 462.895 325.113 462.754 325.196 462.683C325.233 462.65 325.416 462.534 325.6 462.425C326.049 462.163 326.094 462.134 326.119 462.109C326.161 462.068 326.477 461.872 326.548 461.847C326.585 461.835 326.618 461.806 326.618 461.789C326.618 461.768 326.693 461.71 326.785 461.652C326.876 461.594 326.951 461.523 326.951 461.49C326.951 461.44 326.781 461.436 325.82 461.456C325.196 461.473 324.564 461.506 324.414 461.531C324.264 461.556 323.873 461.602 323.541 461.635C322.626 461.723 322.247 461.772 322.193 461.814C322.168 461.831 321.998 461.86 321.815 461.876L321.482 461.906L321.607 461.827C321.677 461.785 321.798 461.727 321.877 461.693C321.956 461.664 322.139 461.585 322.285 461.519C322.43 461.456 322.563 461.402 322.58 461.402C322.638 461.402 323.649 460.932 323.832 460.82C323.865 460.799 323.977 460.745 324.081 460.695C324.185 460.65 324.377 460.55 324.506 460.475C324.863 460.271 325.171 460.096 325.288 460.026C325.346 459.997 325.4 459.955 325.412 459.942C325.441 459.905 325.787 459.647 325.932 459.556C326.348 459.289 327.209 458.337 327.305 458.033L327.334 457.938L326.473 457.967C325.995 457.984 325.562 458.017 325.508 458.038C325.404 458.075 325.371 458.017 325.471 457.963C325.562 457.913 325.99 457.538 326.182 457.343C326.552 456.96 326.818 456.598 326.768 456.544C326.727 456.503 324.651 456.524 324.185 456.569C323.977 456.59 323.765 456.628 323.72 456.657C323.67 456.682 323.566 456.702 323.483 456.702C323.403 456.702 323.295 456.719 323.241 456.74C323.187 456.757 323.033 456.786 322.896 456.802L322.647 456.827L322.763 456.736C322.825 456.682 322.979 456.582 323.1 456.515C323.354 456.374 323.928 456 323.957 455.958C323.969 455.941 324.048 455.887 324.135 455.833C324.219 455.783 324.289 455.725 324.289 455.708C324.289 455.692 324.343 455.65 324.406 455.613C324.655 455.463 325.703 454.394 325.703 454.286C325.703 454.232 325.562 454.199 325.204 454.161C323.952 454.041 323.782 454.007 323.977 453.933C324.011 453.916 324.04 453.887 324.04 453.866C324.04 453.845 324.123 453.741 324.227 453.637C324.331 453.537 324.414 453.425 324.414 453.396C324.414 453.334 324.377 453.325 323.765 453.255C323.403 453.213 321.994 453.188 321.956 453.225ZM291.37 498.598C291.44 498.623 291.569 498.672 291.661 498.714C291.752 498.756 291.881 498.801 291.944 498.818C292.052 498.843 292.264 499.101 292.264 499.201C292.264 499.221 292.301 499.28 292.347 499.334C292.393 499.388 292.443 499.479 292.459 499.538C292.472 499.596 292.526 499.704 292.58 499.779C292.634 499.849 292.68 499.937 292.68 499.966C292.68 499.995 292.713 500.087 292.755 500.166C292.88 500.398 293.083 501.359 293.025 501.417C292.996 501.442 292.796 501.413 292.243 501.305C292.143 501.284 292.068 501.313 291.856 501.455C291.628 501.609 291.574 501.63 291.44 501.605C291.232 501.571 290.979 501.646 290.837 501.779C290.771 501.842 290.625 502.029 290.513 502.195C290.397 502.366 290.272 502.536 290.234 502.578C290.197 502.619 290.101 502.74 290.022 502.848C289.889 503.027 289.872 503.035 289.823 502.969C289.793 502.927 289.768 502.836 289.768 502.761C289.768 502.686 289.752 502.611 289.727 502.599C289.66 502.557 289.677 502.428 289.781 502.258C289.831 502.17 289.893 501.979 289.922 501.829C290.031 501.23 290.147 500.989 290.176 501.309C290.189 501.434 290.201 501.451 290.251 501.409C290.284 501.384 290.309 501.334 290.309 501.305C290.309 501.272 290.326 501.214 290.351 501.172C290.459 500.981 290.75 500.199 290.808 499.937C290.829 499.845 290.879 499.666 290.916 499.542C290.954 499.417 291.008 499.134 291.037 498.918C291.066 498.702 291.091 498.514 291.095 498.506C291.095 498.498 291.133 498.506 291.174 498.523C291.212 498.539 291.303 498.573 291.37 498.598ZM292.946 502.674C292.971 502.827 292.963 502.927 292.909 503.102C292.871 503.227 292.83 503.418 292.825 503.526C292.817 503.634 292.805 503.751 292.792 503.784C292.784 503.817 292.784 503.834 292.792 503.813C292.825 503.759 292.888 503.784 292.888 503.851C292.888 503.93 292.759 504.158 292.713 504.158C292.697 504.158 292.692 504.1 292.709 504.029C292.73 503.909 292.726 503.905 292.655 503.95C292.613 503.98 292.522 504.075 292.459 504.167C292.343 504.333 292.073 504.487 291.902 504.491C291.732 504.491 291.777 504.096 292.014 503.472C292.031 503.426 292.085 503.302 292.135 503.198C292.181 503.094 292.222 502.99 292.222 502.969C292.222 502.915 292.385 502.611 292.464 502.524C292.514 502.47 292.58 502.453 292.717 502.461L292.909 502.474L292.946 502.674Z" fill="black"/>
</g>
</g>
</g>
</g>
</svg>
