<svg width="2560" height="1440" viewBox="0 0 2560 1440" fill="none" xmlns="http://www.w3.org/2000/svg">
<g id="pink-tree 1" clip-path="url(#clip0)">
<g id="tree">
<g id="g12">
<g id="g14">
<g id="g20">
<g id="g32">
<g id="g30" opacity="0.130005">
<path id="path28" opacity="0.130005" d="M2476 1314H-84V-126H2476V1314Z" fill="#7B1F42"/>
</g>
</g>
</g>
</g>
</g>
<g id="g76">
<path id="path78" d="M1474.67 291.333L1512.67 337.333L1416.67 321.333L1474.67 291.333Z" fill="#FF7CB7"/>
</g>
<g id="g80">
<path id="path82" d="M1562 361.333L1512.67 337.333L1475.33 292L1498 270.667L1562 361.333Z" fill="#DB6193"/>
</g>
<g id="g84">
<path id="path86" d="M1416.67 321.333L1460.67 370.667L1532.67 409.333L1512.67 337.333L1416.67 321.333Z" fill="#E26C9E"/>
</g>
<g id="g88">
<path id="path90" d="M1562 361.333L1532.67 409.333L1512.67 337.333L1562 361.333Z" fill="#AE3767"/>
</g>
<g id="g92">
<path id="path94" d="M1578 413.333L1562 361.333L1532.67 409.333L1519.33 452L1578 413.333Z" fill="#EE6EA2"/>
</g>
<g id="g96">
<path id="path98" d="M1663.33 416L1682 452L1718 434.667L1663.33 416Z" fill="#FF8DCE"/>
</g>
<g id="g100">
<path id="path102" d="M1634 388L1628.67 429.333L1665.95 416.893L1634 388Z" fill="#FF8DCE"/>
</g>
<g id="g104">
<path id="path106" d="M1602 406.667L1634 388L1628.67 429.333L1602 406.667Z" fill="#FFA6E9"/>
</g>
<g id="g108">
<path id="path110" d="M1640.67 452H1682L1663.33 416L1640.67 452Z" fill="#FC5595"/>
</g>
<g id="g112">
<path id="path114" d="M1628.67 468L1640.67 452H1682L1660.67 476L1628.67 468Z" fill="#D74E7F"/>
</g>
<g id="g116">
<path id="path118" d="M1599.33 448L1628.67 468L1640.67 452L1599.33 448Z" fill="#C76E92"/>
</g>
<g id="g120">
<path id="path122" d="M1595.33 440L1628.67 429.333L1663.33 416L1640.67 452L1595.33 440Z" fill="#FF6EB4"/>
</g>
<g id="g124">
<path id="path126" d="M1548.67 476L1496.67 520L1514 468L1548.67 476Z" fill="#C76E92"/>
</g>
<g id="g128">
<path id="path130" d="M1572.67 448L1640.67 452L1595.33 440L1572.67 448Z" fill="#FFC1E8"/>
</g>
<g id="g132">
<path id="path134" d="M1578 413.333L1562 446.667L1519.33 452L1578 413.333Z" fill="#D28CAB"/>
</g>
<g id="g136">
<path id="path138" d="M1572.67 482.667L1514 468L1553.82 454.283L1572.67 482.667Z" fill="#D894B2"/>
</g>
<g id="g140">
<path id="path142" d="M1496.67 520L1570 500L1572.67 482.667L1535.33 473.333L1496.67 520Z" fill="#D092AC"/>
</g>
<g id="g144">
<path id="path146" d="M1584.67 560L1560.67 512L1595.33 520L1584.67 560Z" fill="#FFCFF5"/>
</g>
<g id="g148">
<path id="path150" d="M1584.67 560L1542 528L1523.33 554.667L1584.67 560Z" fill="#AF728B"/>
</g>
<g id="g152">
<path id="path154" d="M1496.67 520L1512.67 574.667L1523.33 512L1496.67 520Z" fill="#AE6381"/>
</g>
<g id="g156">
<path id="path158" d="M1584.67 560L1560.67 512L1542.67 535.597L1584.67 560Z" fill="#FFB7E0"/>
</g>
<g id="g160">
<path id="path162" d="M1474 548L1496.67 520L1512.67 574.667L1474 548Z" fill="#995371"/>
</g>
<g id="g164">
<path id="path166" d="M1459.33 476L1496.67 520L1450 493.333L1459.33 476Z" fill="#D74E7F"/>
</g>
<g id="g168">
<path id="path170" d="M1459.33 565.333L1474 548L1475.33 546.667L1496.67 520L1439.33 530.667L1459.33 565.333Z" fill="#9E5D78"/>
</g>
<g id="g172">
<path id="path174" d="M1450 493.333L1439.33 530.667L1496.67 520L1450 493.333Z" fill="#D1658F"/>
</g>
<g id="g176">
<path id="path178" d="M1459.33 565.333H1434L1440.67 530.667L1459.33 565.333Z" fill="#9A5472"/>
</g>
<g id="g180">
<path id="path182" d="M1382 537.333L1428.67 565.333L1439.33 529.333L1450 493.333L1382 537.333Z" fill="#B74C77"/>
</g>
<g id="g184">
<path id="path186" d="M1368.67 445.333L1382 537.333L1459.33 476L1368.67 445.333Z" fill="#E09DBD"/>
</g>
<g id="g188">
<path id="path190" d="M1450 493.333L1382 537.333L1459.33 476L1450 493.333Z" fill="#C78AA6"/>
</g>
<g id="g192">
<path id="path194" d="M1368.67 373.334V445.333L1460.67 370.667L1368.67 373.334Z" fill="#FFBEDF"/>
</g>
<g id="g196">
<path id="path198" d="M1468.67 406.667L1459.33 476L1496.67 520L1519.33 452L1532.67 409.333L1468.67 406.667Z" fill="#DB6595"/>
</g>
<g id="g200">
<path id="path202" d="M1460.67 370.667L1450 389.333L1468.67 406.667L1532.67 409.333L1460.67 370.667Z" fill="#FC5595"/>
</g>
<g id="g204">
<path id="path206" d="M1368.67 445.333L1468.67 406.667L1459.33 476L1368.67 445.333Z" fill="#DA9BB8"/>
</g>
<g id="g208">
<path id="path210" d="M1460.67 370.667L1450 389.333L1468.67 406.667L1368.67 445.333L1460.67 370.667Z" fill="#FFBEDF"/>
</g>
<g id="g212">
<path id="path214" d="M1368.67 373.333L1416.67 321.333L1460.67 370.667L1368.67 373.333Z" fill="#FFC2E3"/>
</g>
<g id="g216">
<path id="path218" d="M1352.67 237.333V304L1368.67 373.333L1416.67 321.333L1475.33 292L1416.67 270.667L1403.33 252L1352.67 237.333Z" fill="#E3A0BE"/>
</g>
<g id="g220">
<path id="path222" d="M1454 218.667L1403.33 252L1352.67 237.333L1454 218.667Z" fill="#BC668B"/>
</g>
<g id="g224">
<path id="path226" d="M1498 270.667L1435.33 244L1491.33 242.667L1498 270.667Z" fill="#C85381"/>
</g>
<g id="g228">
<path id="path230" d="M1454 218.667L1435.33 244L1491.33 242.667L1454 218.667Z" fill="#D086A9"/>
</g>
<g id="g232">
<path id="path234" d="M1475.33 292L1435.33 244L1498 270.667L1475.33 292Z" fill="#AE3767"/>
</g>
<g id="g236">
<path id="path238" d="M1416.67 270.667L1435.33 244L1475.33 292L1416.67 270.667Z" fill="#A33762"/>
</g>
<g id="g240">
<path id="path242" d="M1602 406.667L1599.33 435.341L1628.67 429.333L1602 406.667Z" fill="#FFD2F8"/>
</g>
<g id="g244">
<path id="path246" d="M1382 537.333L1302 485.333L1368.67 445.333L1382 537.333Z" fill="#D795B5"/>
</g>
<g id="g248">
<path id="path250" d="M1368.67 373.333L1302 485.333L1368.67 445.333V373.333Z" fill="#FFE9FF"/>
</g>
<g id="g252">
<path id="path254" d="M1352.67 304L1302 485.333L1368.67 373.334L1352.67 304Z" fill="#FFB7E0"/>
</g>
<g id="g256">
<path id="path258" d="M1276.67 401.333L1302 485.333L1352.67 305.333L1276.67 401.333Z" fill="#F6A4CC"/>
</g>
<g id="g260">
<path id="path262" d="M1263.33 572L1330 568L1346 569.333L1331.33 581.333L1263.33 572Z" fill="#B5788F"/>
</g>
<g id="g264">
<path id="path266" d="M1382 537.333L1330 568L1346 569.333L1352.67 565.333L1378 581.333L1428.67 565.333L1382 537.333Z" fill="#B36A87"/>
</g>
<g id="g268">
<path id="path270" d="M1302 485.333L1286 520L1263.33 572L1330 568L1382 537.333L1302 485.333Z" fill="#ECA7C8"/>
</g>
<g id="g272">
<path id="path274" d="M1232.67 502.667L1302 485.333L1286 520L1232.67 502.667Z" fill="#D485A7"/>
</g>
<g id="g276">
<path id="path278" d="M1263.33 572L1220.67 506.667L1232.67 502.667L1286 520L1263.33 572Z" fill="#D795B5"/>
</g>
<g id="g280">
<path id="path282" d="M1235.33 560L1263.33 572L1220.67 506.667L1235.33 560Z" fill="#BC7A98"/>
</g>
<g id="g284">
<path id="path286" d="M1203.33 581.333L1235.33 560L1220.67 506.667L1203.33 581.333Z" fill="#A56983"/>
</g>
<g id="g288">
<path id="path290" d="M1184.67 502.667L1203.33 581.333L1220.67 506.667L1184.67 502.667Z" fill="#B86F8D"/>
</g>
<g id="g292">
<path id="path294" d="M1156.67 529.333L1184.67 502.667L1203.33 581.333L1178 620L1156.67 529.333Z" fill="#C37897"/>
</g>
<g id="g296">
<path id="path298" d="M1196.67 432L1220.67 506.667L1179.33 492L1196.67 432Z" fill="#FF76AF"/>
</g>
<g id="g300">
<path id="path302" d="M1219.33 445.333L1223.33 482.667L1242 436L1219.33 445.333Z" fill="#7D372F"/>
</g>
<g id="g304">
<path id="path306" d="M1231.33 377.333L1242 436L1196.67 432L1231.33 377.333Z" fill="#FB6EA9"/>
</g>
<g id="g308">
<path id="path310" d="M1219.33 445.333L1196.67 432L1242 436L1219.33 445.333Z" fill="#C93F75"/>
</g>
<g id="g312">
<path id="path314" d="M1223.33 482.667L1220.67 506.667L1232.67 502.667L1223.33 482.667Z" fill="#D795B5"/>
</g>
<g id="g316">
<path id="path318" d="M1196.67 432L1220.67 506.667L1223.33 482.667L1196.67 432Z" fill="#BF7092"/>
</g>
<g id="g320">
<path id="path322" d="M1219.33 445.333L1223.33 482.667L1196.67 432L1219.33 445.333Z" fill="#EB6098"/>
</g>
<g id="g324">
<path id="path326" d="M1302 485.333L1242 436L1223.33 482.667L1232.67 502.667L1302 485.333Z" fill="#FFC3E8"/>
</g>
<g id="g328">
<path id="path330" d="M1276.67 401.333L1231.33 377.333L1242 436L1302 485.333L1276.67 401.333Z" fill="#FFD2F8"/>
</g>
<g id="g332">
<path id="path334" d="M1352.67 305.333L1304.67 292L1352.67 237.333V305.333Z" fill="#E3A0BE"/>
</g>
<g id="g336">
<path id="path338" d="M1231.33 377.333L1304.67 292L1352.67 305.334L1276.67 401.333L1231.33 377.333Z" fill="#FFDFFF"/>
</g>
<g id="g340">
<path id="path342" d="M1387.33 168L1352.67 237.333L1454 218.667L1387.33 168Z" fill="#FFDDFF"/>
</g>
<g id="g344">
<path id="path346" d="M1292.67 274.667L1352.67 237.333L1304.67 292L1292.67 274.667Z" fill="#FFBEDF"/>
</g>
<g id="g348">
<path id="path350" d="M1387.33 168L1342 206.667L1292.67 274.667L1352.67 237.333L1387.33 168Z" fill="#FFEEFF"/>
</g>
<g id="g352">
<path id="path354" d="M1248.67 309.333L1283.33 261.333L1292.67 274.667L1304.67 292L1248.67 309.333Z" fill="#FFECFF"/>
</g>
<g id="g356">
<path id="path358" d="M1231.33 377.333L1248.67 309.334L1304.67 292L1231.33 377.333Z" fill="#FBF9FE"/>
</g>
<g id="g360">
<path id="path362" d="M1220.67 326.667L1239.84 343.979L1248.67 309.333L1220.67 326.667Z" fill="#FF60AC"/>
</g>
<g id="g364">
<path id="path366" d="M1220.67 300V326.667L1248.67 309.333L1220.67 300Z" fill="#FFAFDA"/>
</g>
<g id="g368">
<path id="path370" d="M1188.67 316L1220.67 326.667V300L1188.67 316Z" fill="#C93F75"/>
</g>
<g id="g372">
<path id="path374" d="M1231.33 377.333L1220.67 326.667L1242 344L1231.33 377.333Z" fill="#FF8ED4"/>
</g>
<g id="g376">
<path id="path378" d="M1188.67 316L1231.33 377.333L1220.67 326.667L1188.67 316Z" fill="#FF6EB4"/>
</g>
<g id="g380">
<path id="path382" d="M1174 281.333L1188.67 316L1220.67 300L1174 281.333Z" fill="#EB86AD"/>
</g>
<g id="g384">
<path id="path386" d="M1231.33 377.333L1196.67 432V384L1164.67 337.333L1174 281.333L1188.67 316L1231.33 377.333Z" fill="#FF8ED4"/>
</g>
<g id="g388">
<path id="path390" d="M1104.67 326.667L1164.67 337.333L1174 281.333L1104.67 326.667Z" fill="#FC5595"/>
</g>
<g id="g392">
<path id="path394" d="M1114 285.333L1104.67 326.667L1174 281.333L1114 285.333Z" fill="#FF8ECA"/>
</g>
<g id="g396">
<path id="path398" d="M1088.67 292L1114 285.333L1104.67 326.667L1088.67 292Z" fill="#FF70AE"/>
</g>
<g id="g400">
<path id="path402" d="M1139.33 389.333L1164.67 337.333L1104.67 326.667L1139.33 389.333Z" fill="#C93F75"/>
</g>
<g id="g404">
<path id="path406" d="M1171.33 389.333L1196.67 384V432L1164.67 413.333L1171.33 389.333Z" fill="#D24A7E"/>
</g>
<g id="g408">
<path id="path410" d="M1139.33 389.333H1171.33L1164.67 337.333L1139.33 389.333Z" fill="#FF5D9F"/>
</g>
<g id="g412">
<path id="path414" d="M1196.67 384L1171.33 389.333L1164.67 337.333L1196.67 384Z" fill="#FC5595"/>
</g>
<g id="g416">
<path id="path418" d="M1139.33 441.333L1196.67 432L1164.67 413.333L1139.33 441.333Z" fill="#7B1F42"/>
</g>
<g id="g420">
<path id="path422" d="M1139.33 473.333L1156.67 529.333L1184.67 502.667L1139.33 473.333Z" fill="#F272A8"/>
</g>
<g id="g424">
<path id="path426" d="M1131.33 554.667V485.333L1156.67 529.333L1131.33 554.667Z" fill="#D14F81"/>
</g>
<g id="g428">
<path id="path430" d="M1160.67 470.667L1184.67 502.667L1220.67 506.667L1180.67 490.667L1196.67 432L1139.33 441.333L1160.67 470.667Z" fill="#D74A81"/>
</g>
<g id="g432">
<path id="path434" d="M1139.33 473.333L1184.67 502.667L1160.98 470.616L1139.33 441.333V473.333Z" fill="#FF76AF"/>
</g>
<g id="g436">
<path id="path438" d="M1131.33 485.333L1156.67 529.333L1139.33 473.333L1131.33 485.333Z" fill="#FF72AD"/>
</g>
<g id="g440">
<path id="path442" d="M1108.67 530.667L1131.33 485.333V554.667L1108.67 530.667Z" fill="#FF9DE1"/>
</g>
<g id="g444">
<path id="path446" d="M1139.33 389.333L1164.67 413.333L1171.33 389.333H1139.33Z" fill="#A33762"/>
</g>
<g id="g448">
<path id="path450" d="M1094 482.667L1131.33 485.333L1108.67 530.667L1094 482.667Z" fill="#FF85C4"/>
</g>
<g id="g452">
<path id="path454" d="M1139.33 389.333L1094 482.667L1131.33 485.333L1139.33 473.333V441.333V389.333Z" fill="#F272A8"/>
</g>
<g id="g456">
<path id="path458" d="M1152 401.333L1139.33 441.333L1164.67 413.333L1152 401.333Z" fill="#C93F75"/>
</g>
<g id="g460">
<path id="path462" d="M1139.33 389.333V441.333L1152.67 401.333L1139.33 389.333Z" fill="#C93F75"/>
</g>
<g id="g464">
<path id="path466" d="M1076.67 438.667L1139.33 389.333L1094 482.667L1076.67 438.667Z" fill="#E05C8E"/>
</g>
<g id="g468">
<path id="path470" d="M964.667 430.667L1076.67 438.667L1094 482.667L964.667 430.667Z" fill="#FF75B0"/>
</g>
<g id="g472">
<path id="path474" d="M982 512L1108.67 530.667L1094 482.667L964.667 430.667L982 512Z" fill="#FF89C8"/>
</g>
<g id="g476">
<path id="path478" d="M931.333 528L982 512L962 533.333L919.333 546.667L931.333 528Z" fill="#FF81BF"/>
</g>
<g id="g480">
<path id="path482" d="M919.333 496L931.333 528L982 512L919.333 496Z" fill="#FF73AE"/>
</g>
<g id="g484">
<path id="path486" d="M951.333 464L982 512L919.333 496L951.333 464Z" fill="#FFA5EB"/>
</g>
<g id="g488">
<path id="path490" d="M982 512L962 533.333L999.333 538.667L1014 568L1108.67 530.667L982 512Z" fill="#E06698"/>
</g>
<g id="g492">
<path id="path494" d="M1014 389.333H1139.33L1076.67 438.667L964.667 430.667L1014 389.333Z" fill="#FF90D0"/>
</g>
<g id="g496">
<path id="path498" d="M1052.67 321.334L1088.67 292L1139.33 389.333H1014L1051.33 362.667L1052.67 321.334Z" fill="#FF9DE1"/>
</g>
<g id="g500">
<path id="path502" d="M1006 340L1014 389.333L1051.33 362.667L1006 340Z" fill="#FF75AF"/>
</g>
<g id="g504">
<path id="path506" d="M1052.67 321.333L1051.33 362.667L1006 340L1052.67 321.333Z" fill="#FFA9F3"/>
</g>
<g id="g508">
<path id="path510" d="M979.333 370.667L1006 340L1014 389.333L979.333 370.667Z" fill="#FF90D8"/>
</g>
<g id="g512">
<path id="path514" d="M964.667 430.667L979.333 370.667L1014 389.333L964.667 430.667Z" fill="#FFA7EC"/>
</g>
<g id="g516">
<path id="path518" d="M951.333 464L964.666 430.667L982 512L951.333 464Z" fill="#FF74AF"/>
</g>
<g id="g520">
<path id="path522" d="M935.333 409.333L979.333 370.667L951.333 430.667L935.333 409.333Z" fill="#FF7FC0"/>
</g>
<g id="g524">
<path id="path526" d="M951.333 464V430.667H964.666L951.333 464Z" fill="#E05C8E"/>
</g>
<g id="g528">
<path id="path530" d="M935.333 409.333L951.333 464V430.667L935.333 409.333Z" fill="#FF74AF"/>
</g>
<g id="g532">
<path id="path534" d="M979.333 370.667L964.666 430.667H951.333L979.333 370.667Z" fill="#C8497A"/>
</g>
<g id="g536">
<path id="path538" d="M1039.33 567.412L1038 592L1064.67 565.333L1039.33 567.412Z" fill="#CD7EA0"/>
</g>
<g id="g540">
<path id="path542" d="M1130 585.333L1116.67 565.333L1053.36 564L1130 585.333Z" fill="#D47EA2"/>
</g>
<g id="g544">
<path id="path546" d="M1263.33 758.667L1232.67 725.333L1304.67 766.667L1263.33 758.667Z" fill="#79332B"/>
</g>
<g id="g548">
<path id="path550" d="M1263.33 572L1230 704L1242 714.667L1263.33 572Z" fill="#612422"/>
</g>
<g id="g560">
<path id="path562" d="M1334 810.667L1358 764L1352.67 841.333L1334 810.667Z" fill="#521A15"/>
</g>
<g id="g564">
<g id="g566">
<g id="g572">
<path id="path574" d="M1330 581.334C1330 581.334 1346 613.334 1339.33 676L1327.33 725.333L1304.67 766.667L1319.33 789.333L1350 676C1350 676 1356.67 582.667 1346 568C1335.33 553.334 1330 581.334 1330 581.334Z" fill="#612422"/>
</g>
<g id="g576">
<path id="path578" d="M1358 714.667L1350 676L1319.33 789.333L1334 810.667L1358 764L1382 696L1358 725.333V714.667Z" fill="#79312A"/>
</g>
<g id="g580">
<path id="path582" d="M1368.67 706.667L1358 711.307V725.333L1382 696L1420.67 634.667L1403.33 650.667L1384.67 668L1368.67 706.667Z" fill="#813730"/>
</g>
<g id="g584">
<path id="path586" d="M1490.07 559.333L1454 597.333L1420.67 622.667V634.667L1459.33 601.333L1498.91 565.333L1490.07 559.333Z" fill="#52221C"/>
</g>
<g id="g588">
<path id="path590" d="M1131.33 554.667L1151.33 612L1168.55 631.257L1171.33 661.333L1131.33 682.667L1106 714.667L1112.67 693.333L1124.67 680L992.667 697.333L1139.33 670.667L1164.67 650.667L1131.33 588L1116.67 565.333L1131.33 554.667Z" fill="#692821"/>
</g>
<g id="g596">
<path id="path598" d="M1106 714.667L1122 725.333L1090 736L1106 714.667Z" fill="#C37897"/>
</g>
<g id="g600">
<path id="path602" d="M1122 750.667L1090 736L1122 725.333V750.667Z" fill="#FF74AF"/>
</g>
<g id="g612">
<path id="path614" d="M1082 761.333L1050 736H1090L1082 761.333Z" fill="#E06698"/>
</g>
<g id="g616">
<path id="path618" d="M1039.33 752L1082 761.333L1050 736L1039.33 752Z" fill="#DFB9C9"/>
</g>
<g id="g620">
<path id="path622" d="M992.667 697.333L1023.33 773.333L1050 736L992.667 697.333Z" fill="#FF74AF"/>
</g>
<g id="g624">
<path id="path626" d="M958 721.333L992.667 697.333L1022 773.333L958 721.333Z" fill="#C37897"/>
</g>
<g id="g628">
<path id="path630" d="M910 714.667L958 721.333L992.667 697.333H962L910 714.667Z" fill="#FFA5EB"/>
</g>
<g id="g632">
<path id="path634" d="M1006 616L962 697.333L958 654.667L1006 616Z" fill="#FF74AF"/>
</g>
<g id="g636">
<path id="path638" d="M992.667 697.333L1035.33 654.667L962 697.333H992.667Z" fill="#E15A8E"/>
</g>
<g id="g640">
<path id="path642" d="M1006 616L962 697.333L1035.33 654.667L1006 616Z" fill="#E06698"/>
</g>
<g id="g644">
<path id="path646" d="M992.667 697.333L1056.03 685.813L1035.33 654.667L992.667 697.333Z" fill="#C94072"/>
</g>
<g id="g648">
<path id="path650" d="M910 714.667L936.667 741.333L958 721.333L910 714.667Z" fill="#FF74AF"/>
</g>
<g id="g652">
<path id="path654" d="M990 758.667L992.666 773.333L975.333 776L990 758.667Z" fill="#FFA7EC"/>
</g>
<g id="g660">
<path id="path662" d="M1006 797.333V820L1014 808L1006 797.333Z" fill="#E06698"/>
</g>
<g id="g716">
<path id="path718" d="M958 654.667L910 714.667L962 697.333L958 654.667Z" fill="#FFA7EC"/>
</g>
<g id="g720">
<path id="path722" d="M1282 1014.67L1304.67 1020L1314 873.333L1282 1014.67Z" fill="#863C35"/>
</g>
<g id="g724">
<path id="path726" d="M1304.67 766.667L1314 873.333L1282 1014.67L1304.67 804L1263.33 758.667L1304.67 766.667Z" fill="#60261C"/>
</g>
<g id="g728">
<path id="path730" d="M1334 1020L1350 1014.67L1334 980V1020Z" fill="#521A15"/>
</g>
<g id="g732">
<path id="path734" d="M1352.67 841.333L1323.33 946.667L1314 873.333L1304.67 766.667L1334 810.667L1352.67 841.333Z" fill="#79332B"/>
</g>
<g id="g736">
<path id="path738" d="M1304.67 1020H1334V980L1323.33 946.667L1314 873.333L1304.67 1020Z" fill="#7E3530"/>
</g>
<g id="g740">
<path id="path742" d="M1342 879.637L1323.33 946.666L1334 980L1342 879.637Z" fill="#521A15"/>
</g>
<g id="g744">
<path id="path746" d="M1512.67 574.667L1561.37 511.233L1570 500L1523.33 512L1512.67 574.667Z" fill="#C687A4"/>
</g>
<g id="g748">
<path id="path750" d="M1416.67 270.667L1454 218.667L1403.33 252L1416.67 270.667Z" fill="#7B1F42"/>
</g>
<g id="g752">
<path id="path754" d="M1160.36 542.667L1171.33 661.333L1232.67 725.333L1304.67 766.667L1186 650.667L1160.36 542.667Z" fill="#692821"/>
</g>
<g id="g756">
<path id="path758" d="M1514 468L1628.67 429.333L1519.33 452L1514 468Z" fill="#7D372F"/>
</g>
<g id="g760">
<path id="path762" d="M1420.67 634.667L1450 493.333L1439.13 529.989L1428.64 565.333L1403.33 650.667L1420.67 634.667Z" fill="#76322C"/>
</g>
<g id="g764">
<path id="path766" d="M1108.67 530.667L1014 568L1116.67 565.333L1131.33 554.667L1108.67 530.667Z" fill="#D76191"/>
</g>
</g>
</g>
</g>
<g id="leafs3">
<g id="g604">
<path id="path606" d="M1214 744H1227.33L1203.33 761.333L1214 744Z" fill="#FFA5EB"/>
</g>
<g id="g712">
<path id="path714" d="M914 773.333H942L928.667 789.333L914 773.333Z" fill="#E26C9E"/>
</g>
<g id="g696">
<path id="path698" d="M774 744L822 714.667L819.333 729.333L774 744Z" fill="#FFA7EC"/>
</g>
<g id="g708">
<path id="path710" d="M704.667 893.333L796.667 832L768.667 870.667L704.667 893.333Z" fill="#FFDCFF"/>
</g>
</g>
<g id="leafs2">
<g id="g608">
<path id="path610" d="M1087.33 789.333V820L1063.33 804L1087.33 789.333Z" fill="#FFDFFF"/>
</g>
<g id="g664">
<path id="path666" d="M896.667 789.333V810.667L854 829.333L896.667 789.333Z" fill="#E05C8E"/>
</g>
<g id="g692">
<path id="path694" d="M796.667 644L787.333 676L776.667 664L796.667 644Z" fill="#E06698"/>
</g>
<g id="g704">
<path id="path706" d="M692.667 778.667L696.667 797.333H674L692.667 778.667Z" fill="#BB7894"/>
</g>
</g>
<g id="leafs1">
<path id="path558" d="M1319.33 626.667L1304.67 650.667L1323.33 648L1319.33 626.667Z" fill="#E06698"/>
<g id="g688">
<path id="path690" d="M832.667 581.333H864.667L844.667 606.667L832.667 581.333Z" fill="#C93F75"/>
</g>
<g id="g592">
<path id="path594" d="M1160.67 736L1203.33 712L1182 706.667L1160.67 736Z" fill="#E06698"/>
</g>
<g id="g700">
<path id="path702" d="M770 785.333L787.333 789.333L740.667 813.333L770 785.333Z" fill="#E06698"/>
</g>
</g>
</g>
<defs>
<clipPath id="clip0">
<rect width="2560" height="1440" fill="white"/>
</clipPath>
</defs>
</svg>
