<svg width="2476" height="1314" viewBox="0 0 2476 1314" fill="none" xmlns="http://www.w3.org/2000/svg">
<g opacity="0.130005">
<path opacity="0.130005" d="M2476 1314H-84V-126H2476V1314Z" fill="#7B1F42"/>
</g>
<path d="M1474.67 291.333L1512.67 337.333L1416.67 321.333L1474.67 291.333Z" fill="#FF7CB7"/>
<path d="M1562 361.333L1512.67 337.333L1475.33 292L1498 270.667L1562 361.333Z" fill="#DB6193"/>
<path d="M1416.67 321.333L1460.67 370.667L1532.67 409.333L1512.67 337.333L1416.67 321.333Z" fill="#E26C9E"/>
<path d="M1562 361.333L1532.67 409.333L1512.67 337.333L1562 361.333Z" fill="#AE3767"/>
<path d="M1578 413.333L1562 361.333L1532.67 409.333L1519.33 452L1578 413.333Z" fill="#EE6EA2"/>
<path d="M1663.33 416L1682 452L1718 434.667L1663.33 416Z" fill="#FF8DCE"/>
<path d="M1634 388L1628.67 429.333L1665.95 416.893L1634 388Z" fill="#FF8DCE"/>
<path d="M1602 406.667L1634 388L1628.67 429.333L1602 406.667Z" fill="#FFA6E9"/>
<path d="M1640.67 452H1682L1663.33 416L1640.67 452Z" fill="#FC5595"/>
<path d="M1628.67 468L1640.67 452H1682L1660.67 476L1628.67 468Z" fill="#D74E7F"/>
<path d="M1599.33 448L1628.67 468L1640.67 452L1599.33 448Z" fill="#C76E92"/>
<path d="M1595.33 440L1628.67 429.333L1663.33 416L1640.67 452L1595.33 440Z" fill="#FF6EB4"/>
<path d="M1548.67 476L1496.67 520L1514 468L1548.67 476Z" fill="#C76E92"/>
<path d="M1572.67 448L1640.67 452L1595.33 440L1572.67 448Z" fill="#FFC1E8"/>
<path d="M1578 413.333L1562 446.667L1519.33 452L1578 413.333Z" fill="#D28CAB"/>
<path d="M1572.67 482.667L1514 468L1553.82 454.283L1572.67 482.667Z" fill="#D894B2"/>
<path d="M1496.67 520L1570 500L1572.67 482.667L1535.33 473.333L1496.67 520Z" fill="#D092AC"/>
<path d="M1584.67 560L1560.67 512L1595.33 520L1584.67 560Z" fill="#FFCFF5"/>
<path d="M1584.67 560L1542 528L1523.33 554.667L1584.67 560Z" fill="#AF728B"/>
<path d="M1496.67 520L1512.67 574.667L1523.33 512L1496.67 520Z" fill="#AE6381"/>
<path d="M1584.67 560L1560.67 512L1542.67 535.597L1584.67 560Z" fill="#FFB7E0"/>
<path d="M1474 548L1496.67 520L1512.67 574.667L1474 548Z" fill="#995371"/>
<path d="M1459.33 476L1496.67 520L1450 493.333L1459.33 476Z" fill="#D74E7F"/>
<path d="M1459.33 565.333L1474 548L1475.33 546.667L1496.67 520L1439.33 530.667L1459.33 565.333Z" fill="#9E5D78"/>
<path d="M1450 493.333L1439.33 530.667L1496.67 520L1450 493.333Z" fill="#D1658F"/>
<path d="M1459.33 565.333H1434L1440.67 530.667L1459.33 565.333Z" fill="#9A5472"/>
<path d="M1382 537.333L1428.67 565.333L1439.33 529.333L1450 493.333L1382 537.333Z" fill="#B74C77"/>
<path d="M1368.67 445.333L1382 537.333L1459.33 476L1368.67 445.333Z" fill="#E09DBD"/>
<path d="M1450 493.333L1382 537.333L1459.33 476L1450 493.333Z" fill="#C78AA6"/>
<path d="M1368.67 373.334V445.333L1460.67 370.667L1368.67 373.334Z" fill="#FFBEDF"/>
<path d="M1468.67 406.667L1459.33 476L1496.67 520L1519.33 452L1532.67 409.333L1468.67 406.667Z" fill="#DB6595"/>
<path d="M1460.67 370.667L1450 389.333L1468.67 406.667L1532.67 409.333L1460.67 370.667Z" fill="#FC5595"/>
<path d="M1368.67 445.333L1468.67 406.667L1459.33 476L1368.67 445.333Z" fill="#DA9BB8"/>
<path d="M1460.67 370.667L1450 389.333L1468.67 406.667L1368.67 445.333L1460.67 370.667Z" fill="#FFBEDF"/>
<path d="M1368.67 373.333L1416.67 321.333L1460.67 370.667L1368.67 373.333Z" fill="#FFC2E3"/>
<path d="M1352.67 237.333V304L1368.67 373.333L1416.67 321.333L1475.33 292L1416.67 270.667L1403.33 252L1352.67 237.333Z" fill="#E3A0BE"/>
<path d="M1454 218.667L1403.33 252L1352.67 237.333L1454 218.667Z" fill="#BC668B"/>
<path d="M1498 270.667L1435.33 244L1491.33 242.667L1498 270.667Z" fill="#C85381"/>
<path d="M1454 218.667L1435.33 244L1491.33 242.667L1454 218.667Z" fill="#D086A9"/>
<path d="M1475.33 292L1435.33 244L1498 270.667L1475.33 292Z" fill="#AE3767"/>
<path d="M1416.67 270.667L1435.33 244L1475.33 292L1416.67 270.667Z" fill="#A33762"/>
<path d="M1602 406.667L1599.33 435.341L1628.67 429.333L1602 406.667Z" fill="#FFD2F8"/>
<path d="M1382 537.333L1302 485.333L1368.67 445.333L1382 537.333Z" fill="#D795B5"/>
<path d="M1368.67 373.333L1302 485.333L1368.67 445.333V373.333Z" fill="#FFE9FF"/>
<path d="M1352.67 304L1302 485.333L1368.67 373.334L1352.67 304Z" fill="#FFB7E0"/>
<path d="M1276.67 401.333L1302 485.333L1352.67 305.333L1276.67 401.333Z" fill="#F6A4CC"/>
<path d="M1263.33 572L1330 568L1346 569.333L1331.33 581.333L1263.33 572Z" fill="#B5788F"/>
<path d="M1382 537.333L1330 568L1346 569.333L1352.67 565.333L1378 581.333L1428.67 565.333L1382 537.333Z" fill="#B36A87"/>
<path d="M1302 485.333L1286 520L1263.33 572L1330 568L1382 537.333L1302 485.333Z" fill="#ECA7C8"/>
<path d="M1232.67 502.667L1302 485.333L1286 520L1232.67 502.667Z" fill="#D485A7"/>
<path d="M1263.33 572L1220.67 506.667L1232.67 502.667L1286 520L1263.33 572Z" fill="#D795B5"/>
<path d="M1235.33 560L1263.33 572L1220.67 506.667L1235.33 560Z" fill="#BC7A98"/>
<path d="M1203.33 581.333L1235.33 560L1220.67 506.667L1203.33 581.333Z" fill="#A56983"/>
<path d="M1184.67 502.667L1203.33 581.333L1220.67 506.667L1184.67 502.667Z" fill="#B86F8D"/>
<path d="M1156.67 529.333L1184.67 502.667L1203.33 581.333L1178 620L1156.67 529.333Z" fill="#C37897"/>
<path d="M1196.67 432L1220.67 506.667L1179.33 492L1196.67 432Z" fill="#FF76AF"/>
<path d="M1219.33 445.333L1223.33 482.667L1242 436L1219.33 445.333Z" fill="#7D372F"/>
<path d="M1231.33 377.333L1242 436L1196.67 432L1231.33 377.333Z" fill="#FB6EA9"/>
<path d="M1219.33 445.333L1196.67 432L1242 436L1219.33 445.333Z" fill="#C93F75"/>
<path d="M1223.33 482.667L1220.67 506.667L1232.67 502.667L1223.33 482.667Z" fill="#D795B5"/>
<path d="M1196.67 432L1220.67 506.667L1223.33 482.667L1196.67 432Z" fill="#BF7092"/>
<path d="M1219.33 445.333L1223.33 482.667L1196.67 432L1219.33 445.333Z" fill="#EB6098"/>
<path d="M1302 485.333L1242 436L1223.33 482.667L1232.67 502.667L1302 485.333Z" fill="#FFC3E8"/>
<path d="M1276.67 401.333L1231.33 377.333L1242 436L1302 485.333L1276.67 401.333Z" fill="#FFD2F8"/>
<path d="M1352.67 305.333L1304.67 292L1352.67 237.333V305.333Z" fill="#E3A0BE"/>
<path d="M1231.33 377.333L1304.67 292L1352.67 305.334L1276.67 401.333L1231.33 377.333Z" fill="#FFDFFF"/>
<path d="M1387.33 168L1352.67 237.333L1454 218.667L1387.33 168Z" fill="#FFDDFF"/>
<path d="M1292.67 274.667L1352.67 237.333L1304.67 292L1292.67 274.667Z" fill="#FFBEDF"/>
<path d="M1387.33 168L1342 206.667L1292.67 274.667L1352.67 237.333L1387.33 168Z" fill="#FFEEFF"/>
<path d="M1248.67 309.333L1283.33 261.333L1292.67 274.667L1304.67 292L1248.67 309.333Z" fill="#FFECFF"/>
<path d="M1231.33 377.333L1248.67 309.334L1304.67 292L1231.33 377.333Z" fill="#FBF9FE"/>
<path d="M1220.67 326.667L1239.84 343.979L1248.67 309.333L1220.67 326.667Z" fill="#FF60AC"/>
<path d="M1220.67 300V326.667L1248.67 309.333L1220.67 300Z" fill="#FFAFDA"/>
<path d="M1188.67 316L1220.67 326.667V300L1188.67 316Z" fill="#C93F75"/>
<path d="M1231.33 377.333L1220.67 326.667L1242 344L1231.33 377.333Z" fill="#FF8ED4"/>
<path d="M1188.67 316L1231.33 377.333L1220.67 326.667L1188.67 316Z" fill="#FF6EB4"/>
<path d="M1174 281.333L1188.67 316L1220.67 300L1174 281.333Z" fill="#EB86AD"/>
<path d="M1231.33 377.333L1196.67 432V384L1164.67 337.333L1174 281.333L1188.67 316L1231.33 377.333Z" fill="#FF8ED4"/>
<path d="M1104.67 326.667L1164.67 337.333L1174 281.333L1104.67 326.667Z" fill="#FC5595"/>
<path d="M1114 285.333L1104.67 326.667L1174 281.333L1114 285.333Z" fill="#FF8ECA"/>
<path d="M1088.67 292L1114 285.333L1104.67 326.667L1088.67 292Z" fill="#FF70AE"/>
<path d="M1139.33 389.333L1164.67 337.333L1104.67 326.667L1139.33 389.333Z" fill="#C93F75"/>
<path d="M1171.33 389.333L1196.67 384V432L1164.67 413.333L1171.33 389.333Z" fill="#D24A7E"/>
<path d="M1139.33 389.333H1171.33L1164.67 337.333L1139.33 389.333Z" fill="#FF5D9F"/>
<path d="M1196.67 384L1171.33 389.333L1164.67 337.333L1196.67 384Z" fill="#FC5595"/>
<path d="M1139.33 441.333L1196.67 432L1164.67 413.333L1139.33 441.333Z" fill="#7B1F42"/>
<path d="M1139.33 473.333L1156.67 529.333L1184.67 502.667L1139.33 473.333Z" fill="#F272A8"/>
<path d="M1131.33 554.667V485.333L1156.67 529.333L1131.33 554.667Z" fill="#D14F81"/>
<path d="M1160.67 470.667L1184.67 502.667L1220.67 506.667L1180.67 490.667L1196.67 432L1139.33 441.333L1160.67 470.667Z" fill="#D74A81"/>
<path d="M1139.33 473.333L1184.67 502.667L1160.98 470.616L1139.33 441.333V473.333Z" fill="#FF76AF"/>
<path d="M1131.33 485.333L1156.67 529.333L1139.33 473.333L1131.33 485.333Z" fill="#FF72AD"/>
<path d="M1108.67 530.667L1131.33 485.333V554.667L1108.67 530.667Z" fill="#FF9DE1"/>
<path d="M1139.33 389.333L1164.67 413.333L1171.33 389.333H1139.33Z" fill="#A33762"/>
<path d="M1094 482.667L1131.33 485.333L1108.67 530.667L1094 482.667Z" fill="#FF85C4"/>
<path d="M1139.33 389.333L1094 482.667L1131.33 485.333L1139.33 473.333V441.333V389.333Z" fill="#F272A8"/>
<path d="M1152 401.333L1139.33 441.333L1164.67 413.333L1152 401.333Z" fill="#C93F75"/>
<path d="M1139.33 389.333V441.333L1152.67 401.333L1139.33 389.333Z" fill="#C93F75"/>
<path d="M1076.67 438.667L1139.33 389.333L1094 482.667L1076.67 438.667Z" fill="#E05C8E"/>
<path d="M964.667 430.667L1076.67 438.667L1094 482.667L964.667 430.667Z" fill="#FF75B0"/>
<path d="M982 512L1108.67 530.667L1094 482.667L964.667 430.667L982 512Z" fill="#FF89C8"/>
<path d="M931.333 528L982 512L962 533.333L919.333 546.667L931.333 528Z" fill="#FF81BF"/>
<path d="M919.333 496L931.333 528L982 512L919.333 496Z" fill="#FF73AE"/>
<path d="M951.333 464L982 512L919.333 496L951.333 464Z" fill="#FFA5EB"/>
<path d="M982 512L962 533.333L999.333 538.667L1014 568L1108.67 530.667L982 512Z" fill="#E06698"/>
<path d="M1014 389.333H1139.33L1076.67 438.667L964.667 430.667L1014 389.333Z" fill="#FF90D0"/>
<path d="M1052.67 321.334L1088.67 292L1139.33 389.333H1014L1051.33 362.667L1052.67 321.334Z" fill="#FF9DE1"/>
<path d="M1006 340L1014 389.333L1051.33 362.667L1006 340Z" fill="#FF75AF"/>
<path d="M1052.67 321.333L1051.33 362.667L1006 340L1052.67 321.333Z" fill="#FFA9F3"/>
<path d="M979.333 370.667L1006 340L1014 389.333L979.333 370.667Z" fill="#FF90D8"/>
<path d="M964.667 430.667L979.333 370.667L1014 389.333L964.667 430.667Z" fill="#FFA7EC"/>
<path d="M951.333 464L964.666 430.667L982 512L951.333 464Z" fill="#FF74AF"/>
<path d="M935.333 409.333L979.333 370.667L951.333 430.667L935.333 409.333Z" fill="#FF7FC0"/>
<path d="M951.333 464V430.667H964.666L951.333 464Z" fill="#E05C8E"/>
<path d="M935.333 409.333L951.333 464V430.667L935.333 409.333Z" fill="#FF74AF"/>
<path d="M979.333 370.667L964.666 430.667H951.333L979.333 370.667Z" fill="#C8497A"/>
<path d="M1039.33 567.412L1038 592L1064.67 565.333L1039.33 567.412Z" fill="#CD7EA0"/>
<path d="M1130 585.333L1116.67 565.333L1053.36 564L1130 585.333Z" fill="#D47EA2"/>
<path d="M1263.33 758.667L1232.67 725.333L1304.67 766.667L1263.33 758.667Z" fill="#79332B"/>
<path d="M1263.33 572L1230 704L1242 714.667L1263.33 572Z" fill="#612422"/>
<path d="M1334 810.667L1358 764L1352.67 841.333L1334 810.667Z" fill="#521A15"/>
<path d="M1330 581.334C1330 581.334 1346 613.334 1339.33 676L1327.33 725.333L1304.67 766.667L1319.33 789.333L1350 676C1350 676 1356.67 582.667 1346 568C1335.33 553.334 1330 581.334 1330 581.334Z" fill="#612422"/>
<path d="M1358 714.667L1350 676L1319.33 789.333L1334 810.667L1358 764L1382 696L1358 725.333V714.667Z" fill="#79312A"/>
<path d="M1368.67 706.667L1358 711.307V725.333L1382 696L1420.67 634.667L1403.33 650.667L1384.67 668L1368.67 706.667Z" fill="#813730"/>
<path d="M1490.07 559.333L1454 597.333L1420.67 622.667V634.667L1459.33 601.333L1498.91 565.333L1490.07 559.333Z" fill="#52221C"/>
<path d="M1131.33 554.667L1151.33 612L1168.55 631.257L1171.33 661.333L1131.33 682.667L1106 714.667L1112.67 693.333L1124.67 680L992.667 697.333L1139.33 670.667L1164.67 650.667L1131.33 588L1116.67 565.333L1131.33 554.667Z" fill="#692821"/>
<path d="M1106 714.667L1122 725.333L1090 736L1106 714.667Z" fill="#C37897"/>
<path d="M1122 750.667L1090 736L1122 725.333V750.667Z" fill="#FF74AF"/>
<path d="M1082 761.333L1050 736H1090L1082 761.333Z" fill="#E06698"/>
<path d="M1039.33 752L1082 761.333L1050 736L1039.33 752Z" fill="#DFB9C9"/>
<path d="M992.667 697.333L1023.33 773.333L1050 736L992.667 697.333Z" fill="#FF74AF"/>
<path d="M958 721.333L992.667 697.333L1022 773.333L958 721.333Z" fill="#C37897"/>
<path d="M910 714.667L958 721.333L992.667 697.333H962L910 714.667Z" fill="#FFA5EB"/>
<path d="M1006 616L962 697.333L958 654.667L1006 616Z" fill="#FF74AF"/>
<path d="M992.667 697.333L1035.33 654.667L962 697.333H992.667Z" fill="#E15A8E"/>
<path d="M1006 616L962 697.333L1035.33 654.667L1006 616Z" fill="#E06698"/>
<path d="M992.667 697.333L1056.03 685.813L1035.33 654.667L992.667 697.333Z" fill="#C94072"/>
<path d="M910 714.667L936.667 741.333L958 721.333L910 714.667Z" fill="#FF74AF"/>
<path d="M990 758.667L992.666 773.333L975.333 776L990 758.667Z" fill="#FFA7EC"/>
<path d="M1006 797.333V820L1014 808L1006 797.333Z" fill="#E06698"/>
<path d="M958 654.667L910 714.667L962 697.333L958 654.667Z" fill="#FFA7EC"/>
<path d="M1282 1014.67L1304.67 1020L1314 873.333L1282 1014.67Z" fill="#863C35"/>
<path d="M1304.67 766.667L1314 873.333L1282 1014.67L1304.67 804L1263.33 758.667L1304.67 766.667Z" fill="#60261C"/>
<path d="M1334 1020L1350 1014.67L1334 980V1020Z" fill="#521A15"/>
<path d="M1352.67 841.333L1323.33 946.667L1314 873.333L1304.67 766.667L1334 810.667L1352.67 841.333Z" fill="#79332B"/>
<path d="M1304.67 1020H1334V980L1323.33 946.667L1314 873.333L1304.67 1020Z" fill="#7E3530"/>
<path d="M1342 879.637L1323.33 946.666L1334 980L1342 879.637Z" fill="#521A15"/>
<path d="M1512.67 574.667L1561.37 511.233L1570 500L1523.33 512L1512.67 574.667Z" fill="#C687A4"/>
<path d="M1416.67 270.667L1454 218.667L1403.33 252L1416.67 270.667Z" fill="#7B1F42"/>
<path d="M1160.36 542.667L1171.33 661.333L1232.67 725.333L1304.67 766.667L1186 650.667L1160.36 542.667Z" fill="#692821"/>
<path d="M1514 468L1628.67 429.333L1519.33 452L1514 468Z" fill="#7D372F"/>
<path d="M1420.67 634.667L1450 493.333L1439.13 529.989L1428.64 565.333L1403.33 650.667L1420.67 634.667Z" fill="#76322C"/>
<path d="M1108.67 530.667L1014 568L1116.67 565.333L1131.33 554.667L1108.67 530.667Z" fill="#D76191"/>
</svg>
