<svg width="128" height="129" viewBox="0 0 128 129" fill="none" xmlns="http://www.w3.org/2000/svg">
<path id="Vector" fill-rule="evenodd" clip-rule="evenodd" d="M1.89384 4.14796L3.98181 5.54494L5.80778 6.59792C16.7826 9.46888 30.9204 22.7397 35.9723 33.1105C38.4753 38.2504 39.7622 41.9864 40.5232 41.6384C40.7472 41.5354 42.7292 41.7964 43.3182 41.4844C45.3132 40.4294 46.9181 36.9665 47.0321 30.2676C47.2051 20.0687 51.7431 9.66688 61.3569 4.83895C62.6249 3.66597 65.3059 2.15499 66.4298 0.931012C68.0948 -0.23797 71.2628 -0.439967 72.5037 1.10401C73.7967 2.71398 73.7727 6.00493 73.7907 8.1359L73.7937 9.15788C75.0547 12.3718 73.7147 21.6857 72.5287 25.1606C71.3208 28.7006 69.4398 32.3535 68.1588 34.0365L66.7928 35.5985C64.8899 38.3204 62.7989 38.7444 61.8769 41.2934C61.5329 42.2474 61.2209 43.2424 61.0549 44.1473C60.2149 48.7293 59.8799 47.0973 60.1649 48.7883C60.5519 51.0802 61.7239 51.6112 62.8879 51.1012C74.9437 45.8143 84.2796 42.4494 95.4014 44.4913C99.1903 45.1863 107.534 47.4203 110.797 49.1213C114.725 51.1692 118.399 54.4872 121.718 59.5761C126.742 67.277 126.058 68.498 127.525 77.4218C128.082 83.4237 129.056 93.8216 123.76 99.9955L123.703 100.055C125.272 101.77 124.369 105.247 124.286 107.477C124.154 111.051 125.395 116.129 121.271 118.095L120.72 118.335L116.695 119.729C115.094 119.973 114.723 119.983 113.267 120.736C112.294 121.24 111.402 121.748 110.361 122.291C109.044 122.98 107.419 123.745 106.825 123.953C105.035 124.579 102.399 124.706 100.824 124.538C99.0213 124.347 98.7203 124.107 96.8714 124.303C95.2214 124.479 94.5834 124.71 93.2954 123.833C92.0164 123.597 90.7165 122.687 90.0415 121.704C87.7875 117.838 95.0164 114.813 95.3294 111.976C95.1654 112.069 93.0074 112.377 92.4374 112.456C88.4405 113.01 75.8307 113.19 74.2267 112.739C73.8537 112.634 73.3087 113.095 73.1087 113.393C71.4588 116.225 67.5018 122.067 67.1328 125.16C67.0158 126.145 67.1148 127.068 66.4308 127.518C66.1458 127.706 65.3839 127.966 65.0249 128.123C63.5699 128.438 62.8879 128.486 61.4239 128.449L57.684 128.43L50.9391 128.153L49.9311 127.776L48.3621 126.724C48.1181 126.502 47.3931 126.434 47.8221 124.195C47.8981 123.799 48.4081 122.496 48.5991 122.067C49.6151 120.393 49.7221 119.876 51.1451 119.119C52.895 117.848 53.552 116.863 53.836 116.033C54.535 113.989 55.331 111.71 55.867 109.624C54.461 110.071 52.5441 109.921 51.9791 109.833L50.1971 112.45C49.8551 112.843 48.9271 114.529 48.5991 115.535C48.4321 116.049 48.4271 116.14 48.2751 116.519C48.0611 117.051 48.1831 116.982 47.9301 117.871C47.4821 119.445 46.8151 119.718 45.2392 120.019C44.2862 120.378 37.4563 121.27 37.1433 120.142L34.4103 120.253C32.4294 120.302 30.8084 120.331 28.9704 119.558C27.1874 117.881 29.3344 113.555 31.3324 112.595C32.1234 111.137 33.5373 111.046 34.8383 110.443L37.6283 109.449C38.9273 108.907 38.8813 108.808 39.1873 107.567L39.3643 104.522L39.3423 102.624C39.2873 100.697 39.8092 101.302 39.0703 99.7735C38.6223 98.8475 38.3063 98.4625 37.5603 97.9045C36.7043 97.2635 36.0143 96.5365 35.5253 95.5925C34.7243 94.0456 33.1724 91.2736 32.7674 89.2946C32.6544 88.7386 32.5504 88.2087 32.6294 87.6347C32.6694 87.3447 32.7344 87.0307 32.8134 86.7017C32.5654 86.9497 32.0164 87.0787 30.9844 87.0237C29.1214 86.9227 27.1234 85.9397 25.3165 85.5837C21.0465 86.2807 19.7296 82.3127 19.2276 78.9608C18.7466 75.7459 22.4565 64.909 22.8675 61.3731C23.3375 57.3281 23.7405 53.2352 26.4075 50.4962C27.0804 49.8052 27.1984 49.5933 27.7574 48.8923C28.3494 48.1513 28.9534 48.0493 29.2394 46.6913C27.8294 45.6043 27.1384 44.1883 26.6925 42.3944C25.9805 41.1324 26.5385 40.7444 25.0105 39.0674C24.0245 37.9844 23.5155 37.6694 22.4135 36.7135C17.7806 33.4135 14.7066 29.6816 12.6367 25.6696C9.70172 19.9807 6.58677 14.1558 3.86781 8.3949L1.89284 6.69592C0.531859 6.01693 -0.436125 4.78195 0.205865 3.34697C1.79484 3.61897 0.636858 3.55597 1.89384 4.14796Z" fill="black"/>
</svg>
