<svg width="542" height="944" viewBox="0 0 542 944" fill="none" xmlns="http://www.w3.org/2000/svg">
<path d="M408.169 162.729L334.046 149.949L259.072 -0.000106812L408.169 162.729Z" fill="#D1AF74"/>
<path d="M408.169 162.729L325.528 41.7479L259.072 -0.000106812L408.169 162.729Z" fill="#F7EDB9"/>
<path d="M198.582 147.393L334.047 149.949L259.072 0.00012207L198.582 147.393Z" fill="#F3E4AC"/>
<path d="M198.581 147.393L119.346 172.953L259.072 4.57764e-05L198.581 147.393Z" fill="#F7EDB9"/>
<path d="M195.173 49.428L119.346 172.953L259.072 4.57764e-05L195.173 49.428Z" fill="#F3E4AC"/>
<path d="M198.582 147.393L334.047 149.949L266.314 191.696L198.582 147.393Z" fill="#E9CC7B"/>
<path d="M198.581 147.393L99.7505 224.072L266.313 191.696L198.581 147.393Z" fill="#F7EDB9"/>
<path d="M198.581 147.393L99.7505 224.072L119.347 172.953L198.581 147.393Z" fill="#F3E4AC"/>
<path d="M424.357 208.736L334.046 149.949L266.313 191.696L424.357 208.736Z" fill="#D1AF74"/>
<path d="M424.357 208.736L334.046 149.949L408.169 162.729L424.357 208.736Z" fill="#F7EDB9"/>
<path d="M175.577 230.888L99.7505 224.072L266.313 191.696L175.577 230.888Z" fill="#F3E4AC"/>
<path d="M424.357 208.736L351.086 224.072L266.313 191.696L424.357 208.736Z" fill="#E9CC7B"/>
<path d="M175.577 230.888L99.7505 224.072L81.8599 318.643L175.577 230.888Z" fill="#F7EDB9"/>
<path d="M175.577 230.888L167.057 324.607L81.8599 318.643L175.577 230.888Z" fill="#F3E4AC"/>
<path d="M81.8599 423.437L167.057 324.607L81.8599 318.643V423.437Z" fill="#F7EDB9"/>
<path d="M424.357 208.736L351.086 224.072L367.274 310.975L424.357 208.736Z" fill="#D1AF74"/>
<path d="M424.358 208.736L449.918 305.011L367.275 310.975L424.358 208.736Z" fill="#E9CC7B"/>
<path d="M449.918 415.769V305.011L367.275 310.975L449.918 415.769Z" fill="#ED8252"/>
<path d="M81.8599 423.437L167.057 324.607V449.848L81.8599 423.437Z" fill="#F3E4AC"/>
<path d="M449.918 415.769L367.275 438.773V310.975L449.918 415.769Z" fill="#D1AF74"/>
<path d="M329.787 371.04L367.275 438.773V310.975L329.787 371.04Z" fill="#ED8252"/>
<path d="M213.917 374.873L167.057 324.607V449.848L213.917 374.873Z" fill="#F7EDB9"/>
<path d="M213.917 374.873L271 458.368L167.057 449.848L213.917 374.873Z" fill="#E9CC7B"/>
<path d="M329.786 371.04L367.274 438.773L271 458.368L329.786 371.04Z" fill="#D1AF74"/>
<path d="M329.787 371.04L213.917 374.873L271 458.368L329.787 371.04Z" fill="#F3E4AC"/>
<path d="M81.8599 423.437L113.383 564.015L167.057 449.848L81.8599 423.437Z" fill="#F7EDB9"/>
<path d="M189.209 582.757L113.382 564.015L167.057 449.848L189.209 582.757Z" fill="#F3E4AC"/>
<path d="M189.209 582.757L113.382 564.015L138.09 616.837L189.209 582.757Z" fill="#F03B39"/>
<path d="M189.209 582.757L198.581 638.989L138.09 616.837L189.209 582.757Z" fill="#F2583A"/>
<path d="M449.917 415.769L367.274 438.773L363.865 582.332L449.917 415.769Z" fill="#ED8252"/>
<path d="M449.917 415.769L428.617 548.679L363.865 582.332L449.917 415.769Z" fill="#D1AF74"/>
<path d="M355.346 638.989L428.617 548.679L363.865 582.332L355.346 638.989Z" fill="#BE1E24"/>
<path d="M355.346 638.989L428.617 548.679L410.725 616.837L355.346 638.989Z" fill="#EF2F28"/>
<path d="M276.112 596.389L367.274 438.773L363.865 582.332L276.112 596.389Z" fill="#D1AF74"/>
<path d="M189.209 582.757L276.112 596.389L167.057 449.848L189.209 582.757Z" fill="#E9CC7B"/>
<path d="M276.112 596.389L367.274 438.773L271 458.368L276.112 596.389Z" fill="#E9CC7B"/>
<path d="M271 458.368L276.112 596.389L167.057 449.848L271 458.368Z" fill="#F3E4AC"/>
<path d="M189.209 582.757L276.112 596.389L198.581 638.989L189.209 582.757Z" fill="#ED1E24"/>
<path d="M276.112 596.389L355.346 638.989L363.865 582.332L276.112 596.389Z" fill="#8C191D"/>
<path d="M276.112 596.389L355.346 638.989L276.112 646.408V596.389Z" fill="#ED1C24"/>
<path d="M276.112 646.408V596.389L198.582 638.989L276.112 646.408Z" fill="#EF2F28"/>
<path d="M48.6323 697.776L113.383 564.015L138.091 616.837L48.6323 697.776Z" fill="#F3E4AC"/>
<path d="M48.6315 697.776L113.382 564.015L27.3315 638.989L48.6315 697.776Z" fill="#F7EDB9"/>
<path d="M498.48 679.884L428.617 548.679L410.725 616.837L498.48 679.884Z" fill="#D1AF74"/>
<path d="M498.479 679.884L428.617 548.679L513.815 621.399L498.479 679.884Z" fill="#ED8252"/>
<path d="M276.112 646.408L213.918 685.849L198.582 638.989L276.112 646.408Z" fill="#E9CC7B"/>
<path d="M276.112 646.408L213.917 685.849L276.112 692.664V646.408Z" fill="#D1AF74"/>
<path d="M276.112 692.664L355.346 638.989L276.112 646.408V692.664Z" fill="#ED8252"/>
<path d="M276.112 692.664L355.346 638.989L347.038 682.44L276.112 692.664Z" fill="#D1AF74"/>
<path d="M48.6314 697.776L8.5874 655.177L27.3314 638.989L48.6314 697.776Z" fill="#8C191D"/>
<path d="M0.0678711 590.425L8.58787 655.177L27.3319 638.989L0.0678711 590.425Z" fill="#ED1C24"/>
<path d="M48.6314 697.776L8.5874 655.177L28.6101 712.26L48.6314 697.776Z" fill="#F03B39"/>
<path d="M498.48 679.884L538.524 638.989L513.816 621.399L498.48 679.884Z" fill="#F03B39"/>
<path d="M498.48 679.884L538.524 638.989L523.188 692.664L498.48 679.884Z" fill="#8C191D"/>
<path d="M541.931 582.332L538.524 638.989L513.816 621.399L541.931 582.332Z" fill="#ED1C24"/>
<path d="M175.578 230.888L227.55 224.072L266.314 191.696L175.578 230.888Z" fill="#F03B39"/>
<path d="M213.917 374.873L167.057 324.607L206.249 335.683L213.917 374.873Z" fill="#8C191D"/>
<path d="M329.787 371.04L213.917 374.873L266.314 364.649L329.787 371.04Z" fill="#D72125"/>
<path d="M340.863 277.748L351.087 224.072L367.275 310.975L340.863 277.748Z" fill="#ED1C24"/>
<path d="M297.412 224.072H351.086L266.313 191.696L297.412 224.072Z" fill="#F2563C"/>
<path d="M329.787 371.04V329.719L367.275 310.975L329.787 371.04Z" fill="#EF2F28"/>
<path d="M175.577 230.888L167.057 324.607L190.488 283.711L175.577 230.888Z" fill="#F03B39"/>
<path d="M175.578 230.888L227.55 224.072L190.488 283.711L175.578 230.888Z" fill="#F2583A"/>
<path d="M297.412 224.072H227.549L266.313 191.696L297.412 224.072Z" fill="#ED1E24"/>
<path d="M340.862 277.748L351.086 224.072H297.412L340.862 277.748Z" fill="#F03935"/>
<path d="M340.863 277.748L329.787 329.719L367.275 310.975L340.863 277.748Z" fill="#F2563C"/>
<path d="M329.786 371.04V329.719L266.313 364.649L329.786 371.04Z" fill="#8C191D"/>
<path d="M213.917 374.873L266.314 364.649L206.25 335.683L213.917 374.873Z" fill="#ED1C24"/>
<path d="M190.488 283.711L167.057 324.607L206.249 335.683L190.488 283.711Z" fill="#ED1C24"/>
<path d="M190.488 283.711L264.184 287.119L206.249 335.683L190.488 283.711Z" fill="#54B3AF"/>
<path d="M264.184 287.119L227.549 224.072L190.488 283.711L264.184 287.119Z" fill="#CDEDD6"/>
<path d="M297.412 224.072H227.549L264.184 287.119L297.412 224.072Z" fill="#CEEDD8"/>
<path d="M340.863 277.748L264.184 287.119L297.412 224.072L340.863 277.748Z" fill="#54B3AF"/>
<path d="M340.863 277.748L329.787 329.719L264.184 287.119L340.863 277.748Z" fill="#4A9EA6"/>
<path d="M264.184 287.119L329.787 329.719L266.313 364.649L264.184 287.119Z" fill="#45989D"/>
<path d="M264.184 287.119L266.314 364.649L206.25 335.683L264.184 287.119Z" fill="#4A9EA6"/>
<path d="M302.523 725.892H236.281L271.851 813.646L302.523 725.892Z" fill="#EF2F28"/>
<path d="M270.999 906.514L236.281 725.892L271.851 813.645L270.999 906.514Z" fill="#ED1E24"/>
<path d="M302.524 725.892L271 906.514L271.851 813.645L302.524 725.892Z" fill="#BE1E24"/>
<path d="M302.524 725.892L271 906.514L351.086 809.387L302.524 725.892Z" fill="#EF2F28"/>
<path d="M271 906.514L236.282 725.892L198.582 809.387L271 906.514Z" fill="#EF2F28"/>
<path d="M302.524 725.892L377.499 791.495L351.087 809.387L302.524 725.892Z" fill="#ED1E24"/>
<path d="M162.797 797.459L236.281 725.892L198.581 809.387L162.797 797.459Z" fill="#EF342A"/>
<path d="M162.797 797.459V865.617L198.581 809.387L162.797 797.459Z" fill="#F2583A"/>
<path d="M387.721 865.288L377.498 791.495L351.086 809.387L387.721 865.288Z" fill="#BE1E24"/>
<path d="M319.989 896.289L271 906.514L351.086 809.387L319.989 896.289Z" fill="#ED1E24"/>
<path d="M271 906.514L227.55 897.992L198.582 809.387L271 906.514Z" fill="#ED1E24"/>
<path d="M271 906.514L227.549 897.992L276.112 944L271 906.514Z" fill="#BE1E24"/>
<path d="M319.989 896.289L271 906.514L276.112 944L319.989 896.289Z" fill="#8C191D"/>
</svg>
