<svg width="2917" height="1971" viewBox="0 0 2917 1971" fill="none" xmlns="http://www.w3.org/2000/svg">
<g id="stars">
<path id="ellipse69408" d="M2556.66 153.639C2563.76 153.639 2569.51 148.755 2569.51 142.73C2569.51 136.705 2563.76 131.82 2556.66 131.82C2549.57 131.82 2543.82 136.705 2543.82 142.73C2543.82 148.755 2549.57 153.639 2556.66 153.639Z" fill="white"/>
<path id="ellipse69410" d="M2556.66 153.639C2563.76 153.639 2569.51 148.755 2569.51 142.73C2569.51 136.705 2563.76 131.82 2556.66 131.82C2549.57 131.82 2543.82 136.705 2543.82 142.73C2543.82 148.755 2549.57 153.639 2556.66 153.639Z" fill="white"/>
<path id="ellipse69490" d="M2713.27 364.934C2720.36 364.934 2726.11 360.05 2726.11 354.025C2726.11 347.999 2720.36 343.115 2713.27 343.115C2706.17 343.115 2700.42 347.999 2700.42 354.025C2700.42 360.05 2706.17 364.934 2713.27 364.934Z" fill="white"/>
<path id="ellipse69492" d="M2045.25 457.951C2052.35 457.951 2058.1 453.067 2058.1 447.042C2058.1 441.017 2052.35 436.133 2045.25 436.133C2038.16 436.133 2032.41 441.017 2032.41 447.042C2032.41 453.067 2038.16 457.951 2045.25 457.951Z" fill="white"/>
<path id="ellipse69494" d="M2045.25 457.951C2052.35 457.951 2058.1 453.067 2058.1 447.042C2058.1 441.017 2052.35 436.133 2045.25 436.133C2038.16 436.133 2032.41 441.017 2032.41 447.042C2032.41 453.067 2038.16 457.951 2045.25 457.951Z" fill="white"/>
<path id="ellipse69496" d="M2566.45 889.733C2573.55 889.733 2579.3 884.849 2579.3 878.824C2579.3 872.799 2573.55 867.914 2566.45 867.914C2559.36 867.914 2553.6 872.799 2553.6 878.824C2553.6 884.849 2559.36 889.733 2566.45 889.733Z" fill="white"/>
<path id="ellipse69498" d="M1984.08 616.423C1991.18 616.423 1996.93 611.539 1996.93 605.514C1996.93 599.489 1991.18 594.605 1984.08 594.605C1976.99 594.605 1971.24 599.489 1971.24 605.514C1971.24 611.539 1976.99 616.423 1984.08 616.423Z" fill="white"/>
<path id="ellipse69500" d="M2686.35 825.425C2693.45 825.425 2699.2 820.541 2699.2 814.516C2699.2 808.49 2693.45 803.606 2686.35 803.606C2679.26 803.606 2673.5 808.49 2673.5 814.516C2673.5 820.541 2679.26 825.425 2686.35 825.425Z" fill="white"/>
<path id="ellipse69502" d="M1925.36 1144.67C1932.45 1144.67 1938.2 1139.78 1938.2 1133.76C1938.2 1127.73 1932.45 1122.85 1925.36 1122.85C1918.26 1122.85 1912.51 1127.73 1912.51 1133.76C1912.51 1139.78 1918.26 1144.67 1925.36 1144.67Z" fill="white"/>
<path id="ellipse69504" d="M1707.58 726.665C1714.67 726.665 1720.43 721.78 1720.43 715.755C1720.43 709.73 1714.67 704.846 1707.58 704.846C1700.48 704.846 1694.73 709.73 1694.73 715.755C1694.73 721.78 1700.48 726.665 1707.58 726.665Z" fill="white"/>
<path id="ellipse69506" d="M1653.75 807.05C1660.84 807.05 1666.59 802.166 1666.59 796.141C1666.59 790.115 1660.84 785.231 1653.75 785.231C1646.65 785.231 1640.9 790.115 1640.9 796.141C1640.9 802.166 1646.65 807.05 1653.75 807.05Z" fill="white"/>
<path id="ellipse69508" d="M1886.21 451.062C1893.3 451.062 1899.05 446.177 1899.05 440.152C1899.05 434.127 1893.3 429.243 1886.21 429.243C1879.11 429.243 1873.36 434.127 1873.36 440.152C1873.36 446.177 1879.11 451.062 1886.21 451.062Z" fill="white"/>
<path id="ellipse69510" d="M1367.46 423.503C1374.55 423.503 1380.3 418.619 1380.3 412.594C1380.3 406.569 1374.55 401.685 1367.46 401.685C1360.36 401.685 1354.61 406.569 1354.61 412.594C1354.61 418.619 1360.36 423.503 1367.46 423.503Z" fill="white"/>
<path id="ellipse69512" d="M1736.94 58.3237C1744.04 58.3237 1749.79 53.4393 1749.79 47.4142C1749.79 41.3891 1744.04 36.5049 1736.94 36.5049C1729.85 36.5049 1724.1 41.3891 1724.1 47.4142C1724.1 53.4393 1729.85 58.3237 1736.94 58.3237Z" fill="white"/>
<path id="ellipse69518" d="M1252.03 253.546C1259.13 253.546 1264.88 248.661 1264.88 242.636C1264.88 236.611 1259.13 231.727 1252.03 231.727C1244.94 231.727 1239.19 236.611 1239.19 242.636C1239.19 248.661 1244.94 253.546 1252.03 253.546Z" fill="white"/>
<path id="ellipse69520" d="M847.156 334.745C854.251 334.745 860.002 329.861 860.002 323.836C860.002 317.811 854.251 312.927 847.156 312.927C840.061 312.927 834.31 317.811 834.31 323.836C834.31 329.861 840.061 334.745 847.156 334.745Z" fill="white"/>
<path id="ellipse69522" d="M829.853 243.8C836.948 243.8 842.699 238.916 842.699 232.89C842.699 226.865 836.948 221.981 829.853 221.981C822.758 221.981 817.006 226.865 817.006 232.89C817.006 238.916 822.758 243.8 829.853 243.8Z" fill="white"/>
<path id="ellipse69524" d="M310.782 211.322C317.877 211.322 323.629 206.438 323.629 200.413C323.629 194.388 317.877 189.504 310.782 189.504C303.687 189.504 297.936 194.388 297.936 200.413C297.936 206.438 303.687 211.322 310.782 211.322Z" fill="white"/>
<path id="ellipse69526" d="M269.254 464.667C276.349 464.667 282.101 459.783 282.101 453.758C282.101 447.733 276.349 442.849 269.254 442.849C262.159 442.849 256.408 447.733 256.408 453.758C256.408 459.783 262.159 464.667 269.254 464.667Z" fill="white"/>
<path id="ellipse69528" d="M366.149 659.548C373.244 659.548 378.995 654.663 378.995 648.638C378.995 642.613 373.244 637.729 366.149 637.729C359.054 637.729 353.302 642.613 353.302 648.638C353.302 654.663 359.054 659.548 366.149 659.548Z" fill="white"/>
<path id="ellipse69530" d="M629.145 821.951C636.24 821.951 641.991 817.067 641.991 811.042C641.991 805.017 636.24 800.133 629.145 800.133C622.05 800.133 616.299 805.017 616.299 811.042C616.299 817.067 622.05 821.951 629.145 821.951Z" fill="white"/>
<path id="ellipse69514" d="M629.145 818.704C636.24 818.704 641.991 813.82 641.991 807.795C641.991 801.77 636.24 796.885 629.145 796.885C622.05 796.885 616.299 801.77 616.299 807.795C616.299 813.82 622.05 818.704 629.145 818.704Z" fill="white"/>
<path id="ellipse69516" d="M1421.29 811.646C1428.38 811.646 1434.14 806.762 1434.14 800.736C1434.14 794.711 1428.38 789.827 1421.29 789.827C1414.19 789.827 1408.44 794.711 1408.44 800.736C1408.44 806.762 1414.19 811.646 1421.29 811.646Z" fill="white"/>
<path id="ellipse69412" d="M1421.29 811.646C1428.38 811.646 1434.14 806.762 1434.14 800.736C1434.14 794.711 1428.38 789.827 1421.29 789.827C1414.19 789.827 1408.44 794.711 1408.44 800.736C1408.44 806.762 1414.19 811.646 1421.29 811.646Z" fill="white"/>
<path id="ellipse69414" d="M2720.61 205.315C2727.7 205.315 2733.45 200.43 2733.45 194.405C2733.45 188.38 2727.7 183.496 2720.61 183.496C2713.51 183.496 2707.76 188.38 2707.76 194.405C2707.76 200.43 2713.51 205.315 2720.61 205.315Z" fill="white"/>
<path id="path69406" d="M2539.53 274.214C2546.63 274.214 2552.38 269.33 2552.38 263.305C2552.38 257.28 2546.63 252.396 2539.53 252.396C2532.44 252.396 2526.69 257.28 2526.69 263.305C2526.69 269.33 2532.44 274.214 2539.53 274.214Z" fill="white"/>
</g>
</svg>
