<svg width="1146" height="873" viewBox="0 0 1146 873" fill="none" xmlns="http://www.w3.org/2000/svg">
<path d="M820.667 130.333L858.667 176.333L762.667 160.333L820.667 130.333Z" fill="#FF7CB7"/>
<path d="M908 200.333L858.666 176.333L821.333 131L844 109.667L908 200.333Z" fill="#DB6193"/>
<path d="M762.667 160.333L806.667 209.667L878.667 248.333L858.667 176.333L762.667 160.333Z" fill="#E26C9E"/>
<path d="M908 200.333L878.667 248.333L858.667 176.333L908 200.333Z" fill="#AE3767"/>
<path d="M924 252.333L908 200.333L878.666 248.333L865.333 291L924 252.333Z" fill="#EE6EA2"/>
<path d="M1009.33 255L1028 291L1064 273.667L1009.33 255Z" fill="#FF8DCE"/>
<path d="M980 227L974.667 268.333L1011.95 255.893L980 227Z" fill="#FF8DCE"/>
<path d="M948 245.667L980 227L974.667 268.333L948 245.667Z" fill="#FFA6E9"/>
<path d="M986.667 291H1028L1009.33 255L986.667 291Z" fill="#FC5595"/>
<path d="M974.667 307L986.667 291H1028L1006.67 315L974.667 307Z" fill="#D74E7F"/>
<path d="M945.333 287L974.666 307L986.666 291L945.333 287Z" fill="#C76E92"/>
<path d="M941.333 279L974.666 268.333L1009.33 255L986.666 291L941.333 279Z" fill="#FF6EB4"/>
<path d="M894.667 315L842.667 359L860 307L894.667 315Z" fill="#C76E92"/>
<path d="M918.667 287L986.667 291L941.333 279L918.667 287Z" fill="#FFC1E8"/>
<path d="M924 252.333L908 285.667L865.333 291L924 252.333Z" fill="#D28CAB"/>
<path d="M918.667 321.667L860 307L899.819 293.283L918.667 321.667Z" fill="#D894B2"/>
<path d="M842.667 359L916 339L918.667 321.667L881.333 312.333L842.667 359Z" fill="#D092AC"/>
<path d="M930.667 399L906.667 351L941.333 359L930.667 399Z" fill="#FFCFF5"/>
<path d="M930.666 399L888 367L869.333 393.667L930.666 399Z" fill="#AF728B"/>
<path d="M842.667 359L858.667 413.667L869.333 351L842.667 359Z" fill="#AE6381"/>
<path d="M930.667 399L906.667 351L888.667 374.597L930.667 399Z" fill="#FFB7E0"/>
<path d="M820 387L842.667 359L858.667 413.667L820 387Z" fill="#995371"/>
<path d="M805.333 315L842.667 359L796 332.333L805.333 315Z" fill="#D74E7F"/>
<path d="M805.333 404.333L820 387L821.333 385.667L842.666 359L785.333 369.667L805.333 404.333Z" fill="#9E5D78"/>
<path d="M796 332.333L785.333 369.667L842.666 359L796 332.333Z" fill="#D1658F"/>
<path d="M805.333 404.333H780L786.667 369.667L805.333 404.333Z" fill="#9A5472"/>
<path d="M728 376.333L774.667 404.333L785.333 368.333L796 332.333L728 376.333Z" fill="#B74C77"/>
<path d="M714.667 284.333L728 376.333L805.333 315L714.667 284.333Z" fill="#E09DBD"/>
<path d="M796 332.333L728 376.333L805.333 315L796 332.333Z" fill="#C78AA6"/>
<path d="M714.667 212.334V284.333L806.667 209.667L714.667 212.334Z" fill="#FFBEDF"/>
<path d="M814.666 245.667L805.333 315L842.666 359L865.333 291L878.666 248.333L814.666 245.667Z" fill="#DB6595"/>
<path d="M806.667 209.667L796 228.333L814.667 245.667L878.667 248.333L806.667 209.667Z" fill="#FC5595"/>
<path d="M714.667 284.333L814.667 245.667L805.333 315L714.667 284.333Z" fill="#DA9BB8"/>
<path d="M806.667 209.667L796 228.333L814.667 245.667L714.667 284.333L806.667 209.667Z" fill="#FFBEDF"/>
<path d="M714.667 212.333L762.667 160.333L806.667 209.667L714.667 212.333Z" fill="#FFC2E3"/>
<path d="M698.667 76.3335V143L714.667 212.333L762.667 160.333L821.333 131L762.667 109.667L749.333 91.0002L698.667 76.3335Z" fill="#E3A0BE"/>
<path d="M800 57.6667L749.333 91L698.667 76.3333L800 57.6667Z" fill="#BC668B"/>
<path d="M844 109.667L781.333 83.0001L837.333 81.6667L844 109.667Z" fill="#C85381"/>
<path d="M800 57.6667L781.333 83L837.333 81.6667L800 57.6667Z" fill="#D086A9"/>
<path d="M821.333 131L781.333 83L844 109.667L821.333 131Z" fill="#AE3767"/>
<path d="M762.667 109.667L781.333 83L821.333 131L762.667 109.667Z" fill="#A33762"/>
<path d="M948 245.667L945.333 274.341L974.666 268.333L948 245.667Z" fill="#FFD2F8"/>
<path d="M728 376.333L648 324.333L714.667 284.333L728 376.333Z" fill="#D795B5"/>
<path d="M714.667 212.333L648 324.333L714.667 284.333V212.333Z" fill="#FFE9FF"/>
<path d="M698.667 143L648 324.333L714.667 212.334L698.667 143Z" fill="#FFB7E0"/>
<path d="M622.667 240.333L648 324.333L698.667 144.333L622.667 240.333Z" fill="#F6A4CC"/>
<path d="M609.333 411L676 407L692 408.333L677.333 420.333L609.333 411Z" fill="#B5788F"/>
<path d="M728 376.333L676 407L692 408.333L698.667 404.333L724 420.333L774.667 404.333L728 376.333Z" fill="#B36A87"/>
<path d="M648 324.333L632 359L609.333 411L676 407L728 376.333L648 324.333Z" fill="#ECA7C8"/>
<path d="M578.667 341.667L648 324.333L632 359L578.667 341.667Z" fill="#D485A7"/>
<path d="M609.333 411L566.667 345.667L578.667 341.667L632 359L609.333 411Z" fill="#D795B5"/>
<path d="M581.333 399L609.333 411L566.667 345.667L581.333 399Z" fill="#BC7A98"/>
<path d="M549.333 420.333L581.333 399L566.666 345.667L549.333 420.333Z" fill="#A56983"/>
<path d="M530.667 341.667L549.333 420.333L566.667 345.667L530.667 341.667Z" fill="#B86F8D"/>
<path d="M502.667 368.333L530.667 341.667L549.333 420.333L524 459L502.667 368.333Z" fill="#C37897"/>
<path d="M542.666 271L566.666 345.667L525.333 331L542.666 271Z" fill="#FF76AF"/>
<path d="M565.333 284.333L569.333 321.667L588 275L565.333 284.333Z" fill="#7D372F"/>
<path d="M577.333 216.333L588 275L542.667 271L577.333 216.333Z" fill="#FB6EA9"/>
<path d="M565.333 284.333L542.667 271L588 275L565.333 284.333Z" fill="#C93F75"/>
<path d="M569.333 321.667L566.667 345.667L578.667 341.667L569.333 321.667Z" fill="#D795B5"/>
<path d="M542.667 271L566.667 345.667L569.333 321.667L542.667 271Z" fill="#BF7092"/>
<path d="M565.333 284.333L569.333 321.667L542.667 271L565.333 284.333Z" fill="#EB6098"/>
<path d="M648 324.333L588 275L569.333 321.667L578.666 341.667L648 324.333Z" fill="#FFC3E8"/>
<path d="M622.666 240.333L577.333 216.333L588 275L648 324.333L622.666 240.333Z" fill="#FFD2F8"/>
<path d="M698.667 144.333L650.667 131L698.667 76.3335V144.333Z" fill="#E3A0BE"/>
<path d="M577.333 216.333L650.666 131L698.666 144.334L622.666 240.333L577.333 216.333Z" fill="#FFDFFF"/>
<path d="M733.333 7.00017L698.667 76.3335L800 57.6668L733.333 7.00017Z" fill="#FFDDFF"/>
<path d="M638.667 113.667L698.667 76.3333L650.667 131L638.667 113.667Z" fill="#FFBEDF"/>
<path d="M733.333 7.00009L688 45.6668L638.667 113.667L698.667 76.3334L733.333 7.00009Z" fill="#FFEEFF"/>
<path d="M594.667 148.333L629.333 100.333L638.667 113.667L650.667 131L594.667 148.333Z" fill="#FFECFF"/>
<path d="M577.333 216.333L594.666 148.334L650.666 131L577.333 216.333Z" fill="#FBF9FE"/>
<path d="M566.667 165.667L585.836 182.979L594.667 148.333L566.667 165.667Z" fill="#FF60AC"/>
<path d="M566.667 139V165.667L594.667 148.333L566.667 139Z" fill="#FFAFDA"/>
<path d="M534.667 155L566.667 165.667V139L534.667 155Z" fill="#C93F75"/>
<path d="M577.333 216.333L566.667 165.667L588 183L577.333 216.333Z" fill="#FF8ED4"/>
<path d="M534.667 155L577.333 216.333L566.667 165.667L534.667 155Z" fill="#FF6EB4"/>
<path d="M520 120.333L534.667 155L566.667 139L520 120.333Z" fill="#EB86AD"/>
<path d="M577.333 216.333L542.667 271V223L510.667 176.333L520 120.333L534.667 155L577.333 216.333Z" fill="#FF8ED4"/>
<path d="M450.667 165.667L510.667 176.333L520 120.333L450.667 165.667Z" fill="#FC5595"/>
<path d="M460 124.333L450.667 165.667L520 120.333L460 124.333Z" fill="#FF8ECA"/>
<path d="M434.667 131L460 124.333L450.667 165.667L434.667 131Z" fill="#FF70AE"/>
<path d="M485.333 228.333L510.667 176.333L450.667 165.667L485.333 228.333Z" fill="#C93F75"/>
<path d="M517.333 228.333L542.667 223V271L510.667 252.333L517.333 228.333Z" fill="#D24A7E"/>
<path d="M485.333 228.333H517.333L510.666 176.333L485.333 228.333Z" fill="#FF5D9F"/>
<path d="M542.667 223L517.333 228.333L510.667 176.333L542.667 223Z" fill="#FC5595"/>
<path d="M485.333 280.333L542.666 271L510.666 252.333L485.333 280.333Z" fill="#7B1F42"/>
<path d="M485.333 312.333L502.666 368.333L530.666 341.667L485.333 312.333Z" fill="#F272A8"/>
<path d="M477.333 393.667V324.333L502.666 368.333L477.333 393.667Z" fill="#D14F81"/>
<path d="M506.666 309.667L530.666 341.667L566.666 345.667L526.666 329.667L542.666 271L485.333 280.333L506.666 309.667Z" fill="#D74A81"/>
<path d="M485.333 312.333L530.666 341.667L506.977 309.616L485.333 280.333V312.333Z" fill="#FF76AF"/>
<path d="M477.333 324.333L502.666 368.333L485.333 312.333L477.333 324.333Z" fill="#FF72AD"/>
<path d="M454.667 369.667L477.333 324.333V393.667L454.667 369.667Z" fill="#FF9DE1"/>
<path d="M485.333 228.333L510.666 252.333L517.333 228.333H485.333Z" fill="#A33762"/>
<path d="M440 321.667L477.333 324.333L454.667 369.667L440 321.667Z" fill="#FF85C4"/>
<path d="M485.333 228.333L440 321.667L477.333 324.333L485.333 312.333V280.333V228.333Z" fill="#F272A8"/>
<path d="M498 240.333L485.333 280.333L510.666 252.333L498 240.333Z" fill="#C93F75"/>
<path d="M485.333 228.333V280.333L498.666 240.333L485.333 228.333Z" fill="#C93F75"/>
<path d="M422.667 277.667L485.333 228.333L440 321.667L422.667 277.667Z" fill="#E05C8E"/>
<path d="M310.667 269.667L422.666 277.667L440 321.667L310.667 269.667Z" fill="#FF75B0"/>
<path d="M328 351L454.667 369.667L440 321.667L310.667 269.667L328 351Z" fill="#FF89C8"/>
<path d="M277.333 367L328 351L308 372.333L265.333 385.667L277.333 367Z" fill="#FF81BF"/>
<path d="M265.333 335L277.333 367L328 351L265.333 335Z" fill="#FF73AE"/>
<path d="M297.333 303L328 351L265.333 335L297.333 303Z" fill="#FFA5EB"/>
<path d="M328 351L308 372.333L345.333 377.667L360 407L454.667 369.667L328 351Z" fill="#E06698"/>
<path d="M360 228.333H485.333L422.666 277.667L310.667 269.667L360 228.333Z" fill="#FF90D0"/>
<path d="M398.667 160.334L434.667 131L485.333 228.333H360L397.333 201.667L398.667 160.334Z" fill="#FF9DE1"/>
<path d="M352 179L360 228.333L397.333 201.667L352 179Z" fill="#FF75AF"/>
<path d="M398.667 160.333L397.333 201.667L352 179L398.667 160.333Z" fill="#FFA9F3"/>
<path d="M325.333 209.667L352 179L360 228.333L325.333 209.667Z" fill="#FF90D8"/>
<path d="M310.667 269.667L325.333 209.667L360 228.333L310.667 269.667Z" fill="#FFA7EC"/>
<path d="M297.333 303L310.666 269.667L328 351L297.333 303Z" fill="#FF74AF"/>
<path d="M281.333 248.333L325.333 209.667L297.333 269.667L281.333 248.333Z" fill="#FF7FC0"/>
<path d="M297.333 303V269.667H310.666L297.333 303Z" fill="#E05C8E"/>
<path d="M281.333 248.333L297.333 303V269.667L281.333 248.333Z" fill="#FF74AF"/>
<path d="M325.333 209.667L310.666 269.667H297.333L325.333 209.667Z" fill="#C8497A"/>
<path d="M385.333 406.412L384 431L410.667 404.333L385.333 406.412Z" fill="#CD7EA0"/>
<path d="M476 424.333L462.667 404.333L399.36 403L476 424.333Z" fill="#D47EA2"/>
<path d="M609.333 597.667L578.667 564.333L650.667 605.667L609.333 597.667Z" fill="#79332B"/>
<path d="M609.333 411L576 543L588 553.667L609.333 411Z" fill="#612422"/>
<path d="M680 649.667L704 603L698.667 680.333L680 649.667Z" fill="#521A15"/>
<path d="M676 420.334C676 420.334 692 452.334 685.333 515L673.333 564.333L650.667 605.667L665.333 628.333L696 515C696 515 702.667 421.667 692 407C681.333 392.334 676 420.334 676 420.334Z" fill="#612422"/>
<path d="M704 553.667L696 515L665.333 628.333L680 649.667L704 603L728 535L704 564.333V553.667Z" fill="#79312A"/>
<path d="M714.667 545.667L704 550.307V564.333L728 535L766.667 473.667L749.333 489.667L730.667 507L714.667 545.667Z" fill="#813730"/>
<path d="M836.07 398.333L799.999 436.333L766.666 461.667V473.667L805.333 440.333L844.913 404.333L836.07 398.333Z" fill="#52221C"/>
<path d="M477.333 393.667L497.333 451L514.552 470.257L517.333 500.333L477.333 521.667L452 553.667L458.666 532.333L470.666 519L338.667 536.333L485.333 509.667L510.666 489.667L477.333 427L462.666 404.333L477.333 393.667Z" fill="#692821"/>
<path d="M452 553.667L468 564.333L436 575L452 553.667Z" fill="#C37897"/>
<path d="M468 589.667L436 575L468 564.333V589.667Z" fill="#FF74AF"/>
<path d="M428 600.333L396 575H436L428 600.333Z" fill="#E06698"/>
<path d="M385.333 591L428 600.333L396 575L385.333 591Z" fill="#DFB9C9"/>
<path d="M338.667 536.333L369.333 612.333L396 575L338.667 536.333Z" fill="#FF74AF"/>
<path d="M304 560.333L338.667 536.333L368 612.333L304 560.333Z" fill="#C37897"/>
<path d="M256 553.667L304 560.333L338.667 536.333H308L256 553.667Z" fill="#FFA5EB"/>
<path d="M352 455L308 536.333L304 493.667L352 455Z" fill="#FF74AF"/>
<path d="M338.667 536.333L381.333 493.667L308 536.333H338.667Z" fill="#E15A8E"/>
<path d="M352 455L308 536.333L381.333 493.667L352 455Z" fill="#E06698"/>
<path d="M338.667 536.333L402.027 524.813L381.333 493.667L338.667 536.333Z" fill="#C94072"/>
<path d="M256 553.667L282.667 580.333L304 560.333L256 553.667Z" fill="#FF74AF"/>
<path d="M336 597.667L338.666 612.333L321.333 615L336 597.667Z" fill="#FFA7EC"/>
<path d="M352 636.333V659L360 647L352 636.333Z" fill="#E06698"/>
<path d="M304 493.667L256 553.667L308 536.333L304 493.667Z" fill="#FFA7EC"/>
<path d="M628 853.667L650.667 859L660 712.333L628 853.667Z" fill="#863C35"/>
<path d="M650.666 605.667L660 712.333L628 853.667L650.666 643L609.333 597.667L650.666 605.667Z" fill="#60261C"/>
<path d="M680 859L696 853.667L680 819V859Z" fill="#521A15"/>
<path d="M698.667 680.333L669.333 785.667L660 712.333L650.667 605.667L680 649.667L698.667 680.333Z" fill="#79332B"/>
<path d="M650.667 859H680V819L669.333 785.667L660 712.333L650.667 859Z" fill="#7E3530"/>
<path d="M688 718.637L669.333 785.666L680 819L688 718.637Z" fill="#521A15"/>
<path d="M858.667 413.667L907.375 350.233L916 339L869.333 351L858.667 413.667Z" fill="#C687A4"/>
<path d="M762.666 109.667L800 57.6667L749.333 91.0001L762.666 109.667Z" fill="#7B1F42"/>
<path d="M506.358 381.667L517.333 500.333L578.666 564.333L650.666 605.667L532 489.667L506.358 381.667Z" fill="#692821"/>
<path d="M860 307L974.667 268.333L865.333 291L860 307Z" fill="#7D372F"/>
<path d="M766.666 473.667L796 332.333L785.128 368.989L774.644 404.333L749.333 489.667L766.666 473.667Z" fill="#76322C"/>
<path d="M454.667 369.667L360 407L462.667 404.333L477.333 393.667L454.667 369.667Z" fill="#D76191"/>
<path d="M560 583H573.333L549.333 600.333L560 583Z" fill="#FFA5EB"/>
<path d="M260 612.333H288L274.667 628.333L260 612.333Z" fill="#E26C9E"/>
<path d="M120 583L168 553.667L165.333 568.333L120 583Z" fill="#FFA7EC"/>
<path d="M50.6665 732.333L142.667 671L114.667 709.667L50.6665 732.333Z" fill="#FFDCFF"/>
<path d="M433.333 628.333V659L409.333 643L433.333 628.333Z" fill="#FFDFFF"/>
<path d="M242.667 628.333V649.666L200 668.333L242.667 628.333Z" fill="#E05C8E"/>
<path d="M142.667 483L133.333 515L122.667 503L142.667 483Z" fill="#E06698"/>
<path d="M38.6667 617.667L42.6667 636.333H20L38.6667 617.667Z" fill="#BB7894"/>
<path d="M665.333 465.667L650.667 489.667L669.333 487L665.333 465.667Z" fill="#E06698"/>
<path d="M178.667 420.333H210.667L190.667 445.667L178.667 420.333Z" fill="#C93F75"/>
<path d="M506.667 575L549.333 551L528 545.667L506.667 575Z" fill="#E06698"/>
<path d="M116 624.333L133.333 628.333L86.6665 652.333L116 624.333Z" fill="#E06698"/>
</svg>
