<svg width="2741" height="2130" viewBox="0 0 2741 2130" fill="none" xmlns="http://www.w3.org/2000/svg">
<g clip-path="url(#clip0)">
<path d="M2740.01 0.987549H3.13306V2129.01H2740.01V0.987549Z" fill="url(#paint0_linear)" stroke="white" stroke-width="0.1" stroke-linecap="round" stroke-linejoin="round"/>
<path d="M2388.96 312.627C2395.62 312.627 2401.02 307.742 2401.02 301.717C2401.02 295.692 2395.62 290.808 2388.96 290.808C2382.31 290.808 2376.91 295.692 2376.91 301.717C2376.91 307.742 2382.31 312.627 2388.96 312.627Z" fill="white"/>
<path d="M2388.96 312.627C2395.62 312.627 2401.02 307.742 2401.02 301.717C2401.02 295.692 2395.62 290.808 2388.96 290.808C2382.31 290.808 2376.91 295.692 2376.91 301.717C2376.91 307.742 2382.31 312.627 2388.96 312.627Z" fill="white"/>
<path d="M2535.91 523.921C2542.57 523.921 2547.96 519.037 2547.96 513.012C2547.96 506.987 2542.57 502.103 2535.91 502.103C2529.25 502.103 2523.85 506.987 2523.85 513.012C2523.85 519.037 2529.25 523.921 2535.91 523.921Z" fill="white"/>
<path d="M1909.1 616.939C1915.76 616.939 1921.15 612.054 1921.15 606.029C1921.15 600.004 1915.76 595.12 1909.1 595.12C1902.44 595.12 1897.04 600.004 1897.04 606.029C1897.04 612.054 1902.44 616.939 1909.1 616.939Z" fill="white"/>
<path d="M1909.1 616.939C1915.76 616.939 1921.15 612.054 1921.15 606.029C1921.15 600.004 1915.76 595.12 1909.1 595.12C1902.44 595.12 1897.04 600.004 1897.04 606.029C1897.04 612.054 1902.44 616.939 1909.1 616.939Z" fill="white"/>
<path d="M2398.15 1048.72C2404.8 1048.72 2410.2 1043.84 2410.2 1037.81C2410.2 1031.79 2404.8 1026.9 2398.15 1026.9C2391.49 1026.9 2386.09 1031.79 2386.09 1037.81C2386.09 1043.84 2391.49 1048.72 2398.15 1048.72Z" fill="white"/>
<path d="M1851.7 775.411C1858.36 775.411 1863.75 770.527 1863.75 764.502C1863.75 758.477 1858.36 753.592 1851.7 753.592C1845.04 753.592 1839.65 758.477 1839.65 764.502C1839.65 770.527 1845.04 775.411 1851.7 775.411Z" fill="white"/>
<path d="M2510.65 984.412C2517.31 984.412 2522.71 979.528 2522.71 973.503C2522.71 967.478 2517.31 962.594 2510.65 962.594C2503.99 962.594 2498.6 967.478 2498.6 973.503C2498.6 979.528 2503.99 984.412 2510.65 984.412Z" fill="white"/>
<path d="M1796.6 1303.65C1803.25 1303.65 1808.65 1298.77 1808.65 1292.75C1808.65 1286.72 1803.25 1281.84 1796.6 1281.84C1789.94 1281.84 1784.54 1286.72 1784.54 1292.75C1784.54 1298.77 1789.94 1303.65 1796.6 1303.65Z" fill="white"/>
<path d="M1592.25 885.652C1598.91 885.652 1604.31 880.768 1604.31 874.743C1604.31 868.718 1598.91 863.833 1592.25 863.833C1585.59 863.833 1580.2 868.718 1580.2 874.743C1580.2 880.768 1585.59 885.652 1592.25 885.652Z" fill="white"/>
<path d="M1541.74 966.037C1548.4 966.037 1553.79 961.153 1553.79 955.128C1553.79 949.103 1548.4 944.219 1541.74 944.219C1535.08 944.219 1529.69 949.103 1529.69 955.128C1529.69 961.153 1535.08 966.037 1541.74 966.037Z" fill="white"/>
<path d="M1759.86 610.049C1766.52 610.049 1771.91 605.165 1771.91 599.14C1771.91 593.115 1766.52 588.23 1759.86 588.23C1753.2 588.23 1747.81 593.115 1747.81 599.14C1747.81 605.165 1753.2 610.049 1759.86 610.049Z" fill="white"/>
<path d="M1273.11 582.491C1279.76 582.491 1285.16 577.607 1285.16 571.582C1285.16 565.557 1279.76 560.672 1273.11 560.672C1266.45 560.672 1261.05 565.557 1261.05 571.582C1261.05 577.607 1266.45 582.491 1273.11 582.491Z" fill="white"/>
<path d="M1619.8 217.311C1626.46 217.311 1631.86 212.427 1631.86 206.402C1631.86 200.377 1626.46 195.492 1619.8 195.492C1613.15 195.492 1607.75 200.377 1607.75 206.402C1607.75 212.427 1613.15 217.311 1619.8 217.311Z" fill="white"/>
<path d="M1164.8 412.533C1171.46 412.533 1176.86 407.649 1176.86 401.624C1176.86 395.599 1171.46 390.715 1164.8 390.715C1158.14 390.715 1152.75 395.599 1152.75 401.624C1152.75 407.649 1158.14 412.533 1164.8 412.533Z" fill="white"/>
<path d="M784.9 493.733C791.557 493.733 796.953 488.848 796.953 482.823C796.953 476.798 791.557 471.914 784.9 471.914C778.242 471.914 772.845 476.798 772.845 482.823C772.845 488.848 778.242 493.733 784.9 493.733Z" fill="white"/>
<path d="M768.664 402.787C775.321 402.787 780.718 397.903 780.718 391.878C780.718 385.853 775.321 380.969 768.664 380.969C762.006 380.969 756.61 385.853 756.61 391.878C756.61 397.903 762.006 402.787 768.664 402.787Z" fill="white"/>
<path d="M281.61 370.31C288.267 370.31 293.664 365.426 293.664 359.401C293.664 353.375 288.267 348.491 281.61 348.491C274.952 348.491 269.556 353.375 269.556 359.401C269.556 365.426 274.952 370.31 281.61 370.31Z" fill="white"/>
<path d="M242.643 623.655C249.3 623.655 254.697 618.771 254.697 612.746C254.697 606.72 249.3 601.836 242.643 601.836C235.986 601.836 230.589 606.72 230.589 612.746C230.589 618.771 235.986 623.655 242.643 623.655Z" fill="white"/>
<path d="M333.561 818.535C340.218 818.535 345.615 813.651 345.615 807.626C345.615 801.601 340.218 796.717 333.561 796.717C326.904 796.717 321.507 801.601 321.507 807.626C321.507 813.651 326.904 818.535 333.561 818.535Z" fill="white"/>
<path d="M580.335 980.939C586.993 980.939 592.389 976.055 592.389 970.029C592.389 964.004 586.993 959.12 580.335 959.12C573.678 959.12 568.281 964.004 568.281 970.029C568.281 976.055 573.678 980.939 580.335 980.939Z" fill="white"/>
<path d="M580.335 977.691C586.993 977.691 592.389 972.807 592.389 966.782C592.389 960.757 586.993 955.873 580.335 955.873C573.678 955.873 568.281 960.757 568.281 966.782C568.281 972.807 573.678 977.691 580.335 977.691Z" fill="white"/>
<path d="M1323.62 970.633C1330.28 970.633 1335.67 965.749 1335.67 959.724C1335.67 953.699 1330.28 948.815 1323.62 948.815C1316.96 948.815 1311.57 953.699 1311.57 959.724C1311.57 965.749 1316.96 970.633 1323.62 970.633Z" fill="white"/>
<path d="M1323.62 970.633C1330.28 970.633 1335.67 965.749 1335.67 959.724C1335.67 953.699 1330.28 948.815 1323.62 948.815C1316.96 948.815 1311.57 953.699 1311.57 959.724C1311.57 965.749 1316.96 970.633 1323.62 970.633Z" fill="white"/>
<path d="M2542.8 364.302C2549.45 364.302 2554.85 359.418 2554.85 353.393C2554.85 347.368 2549.45 342.484 2542.8 342.484C2536.14 342.484 2530.74 347.368 2530.74 353.393C2530.74 359.418 2536.14 364.302 2542.8 364.302Z" fill="white"/>
<path d="M2372.89 433.202C2379.55 433.202 2384.94 428.318 2384.94 422.293C2384.94 416.268 2379.55 411.383 2372.89 411.383C2366.23 411.383 2360.84 416.268 2360.84 422.293C2360.84 428.318 2366.23 433.202 2372.89 433.202Z" fill="white"/>
<path d="M1559.42 555.684L1588.2 567.203L1585.11 531.763L1553.22 503.413L1559.42 555.684Z" fill="#807D8E"/>
<path d="M1523.11 482.595L1553.22 503.414L1559.42 555.685L1525.76 542.84L1523.11 482.595Z" fill="#7F7990"/>
<path d="M1588.2 567.201L1604.59 553.468L1608.13 507.398L1585.11 531.761L1588.2 567.201Z" fill="#5F5C6D"/>
<path d="M1608.13 507.398L1634.7 537.963L1632.93 583.148L1604.59 553.468L1608.13 507.398Z" fill="#6E7180"/>
<path d="M1608.13 507.398L1671.9 491.451L1634.7 537.963L1608.13 507.398Z" fill="#898697"/>
<path d="M1671.9 491.451L1634.7 537.963L1632.93 583.148L1695.81 576.503L1671.9 491.451Z" fill="#8F90A2"/>
<path d="M1553.22 503.413L1608.13 507.4L1585.11 531.763L1553.22 503.413Z" fill="#888596"/>
<path d="M1553.22 503.411L1589.53 505.625L1596.18 451.583L1547.46 452.025L1523.11 482.592L1553.22 503.411Z" fill="#B6B4BF"/>
<path d="M1589.53 505.625L1608.13 507.397L1596.18 451.583L1589.53 505.625Z" fill="#A1A0AE"/>
<path d="M1596.18 451.584L1607.69 427.663L1627.17 469.745L1608.13 507.398L1596.18 451.584Z" fill="#969AAB"/>
<path d="M1627.17 469.746L1671.9 491.452L1608.13 507.399L1627.17 469.746Z" fill="#B2B0BE"/>
<path d="M1627.18 469.746L1671.9 491.452L1650.65 413.932L1607.69 427.665L1627.18 469.746Z" fill="#ABA9B7"/>
<path d="M1650.65 413.932L1698.47 405.958L1738 430.577L1650.65 413.932Z" fill="#FCF7EB"/>
<path d="M1650.65 413.932L1738 430.577L1752.06 458.673L1742.31 485.251L1729.03 497.654L1671.9 491.452L1650.65 413.932Z" fill="#CDCBD8"/>
<path d="M1671.9 491.451L1729.03 497.652L1750.28 558.341L1695.82 576.503L1671.9 491.451Z" fill="#9695A5"/>
<path d="M1729.03 497.653L1742.31 485.25L1754.27 542.395L1750.28 558.342L1729.03 497.653Z" fill="#918A9E"/>
<path d="M1742.31 485.25L1784.38 494.996L1754.27 542.395L1742.31 485.25Z" fill="#8C8B99"/>
<path d="M1784.38 494.997L1812.28 523.348L1762.24 549.484L1754.27 542.396L1784.38 494.997Z" fill="#787F8B"/>
<path d="M1784.38 494.994L1811.84 461.772L1764.01 443.167L1752.06 458.671L1742.31 485.248L1784.38 494.994Z" fill="#C0BFC9"/>
<path d="M1812.28 523.347L1811.84 461.773L1784.38 494.995L1812.28 523.347Z" fill="#FFE4D2"/>
<path d="M2018.7 703.458L2065.41 733.841L2075.02 810.125L2022.82 791.378L2018.7 703.458Z" fill="#8F8D9C"/>
<path d="M2075.02 810.128L2104 823.806L2114.85 775.218L2065.4 733.844L2075.02 810.128Z" fill="#9795A3"/>
<path d="M2104 823.802L2140.06 799.376L2150.57 739.659L2114.86 775.215L2104 823.802Z" fill="#5D6079"/>
<path d="M2150.57 739.659L2185.52 752.003L2241.64 844.569L2189.03 850.208L2140.06 799.377L2150.57 739.659Z" fill="#7E7D8D"/>
<path d="M2150.57 739.66L2254.34 728.791L2185.52 752.004L2150.57 739.66Z" fill="#B5B4C2"/>
<path d="M2254.34 728.791L2185.52 752.004L2241.64 844.57L2286.56 840.512L2254.34 728.791Z" fill="#9897A7"/>
<path d="M2065.4 733.843L2127.04 725.115L2150.57 739.661L2114.85 775.217L2065.4 733.843Z" fill="#8D8B99"/>
<path d="M2065.41 733.845L2127.04 725.117L2132.03 658.209L2056.48 658.854L2018.7 703.462L2065.41 733.845Z" fill="#CDCDD9"/>
<path d="M2127.04 725.117L2150.57 739.663L2132.02 658.209L2127.04 725.117Z" fill="#B1AFBD"/>
<path d="M2132.03 658.209L2149.88 623.3L2180.1 684.713L2150.57 739.663L2132.03 658.209Z" fill="#A19FAC"/>
<path d="M2180.1 684.712L2254.34 728.792L2150.57 739.662L2180.1 684.712Z" fill="#C7C7D3"/>
<path d="M2180.1 684.711L2254.34 728.792L2216.5 603.257L2149.88 623.298L2180.1 684.711Z" fill="#CBCBD7"/>
<path d="M2216.5 603.259L2290.68 591.622L2351.99 627.55L2216.5 603.259Z" fill="#FCF6F0"/>
<path d="M2216.5 603.257L2351.99 627.548L2373.78 668.551L2358.68 707.338L2341.17 744.487L2254.34 728.792L2216.5 603.257Z" fill="#D3D3DF"/>
<path d="M2254.34 728.791L2341.17 744.486L2348.8 816.199L2286.56 840.512L2254.34 728.791Z" fill="#999AA8"/>
<path d="M2341.17 744.486L2358.68 707.337L2377.22 790.733L2358.51 793.959L2341.17 744.486Z" fill="#878694"/>
<path d="M2358.67 707.337L2412.66 733.542L2377.22 790.733L2358.67 707.337Z" fill="#868997"/>
<path d="M2412.66 733.541L2452.78 768.885L2389.58 801.076L2377.22 790.732L2412.66 733.541Z" fill="#878496"/>
<path d="M2412.66 733.543L2466.5 673.076L2392.33 645.924L2373.78 668.551L2358.67 707.338L2412.66 733.543Z" fill="#DCD6E1"/>
<path d="M2452.78 768.889L2466.5 673.077L2412.66 733.544L2452.78 768.889Z" fill="#FAE6DE"/>
<path d="M2348.8 816.199L2358.51 793.96L2341.17 744.487L2348.8 816.199Z" fill="#AEAEB7"/>
<path d="M1952.52 1531.69L2740.01 1622.64V2129.01H3.1377V1620.71L127.265 1619.74L1952.52 1531.69Z" fill="url(#paint1_linear)"/>
<path d="M1066.78 1643.03L1141.39 1721.06L1324.12 1811.08L1401.84 1673.32L1249.67 1633.39L1066.78 1643.03Z" fill="#6C7D53"/>
<path d="M127.262 1621.38L169.687 1744.83L268.037 1729.4L304.677 1785.34L459.003 1682.89L507.163 1685.03L466.666 1789.2L487.878 1818.14L634.439 1794.99L686.507 1767.98L927.225 1628.84L566.944 1484.42L235.14 1590.12L127.262 1621.38Z" fill="#506850"/>
<path d="M350.682 1552.02L418.877 1424.21L594.233 1146.06L822.196 905.503L909.874 1183.65L1000.06 1331.5L1066.78 1643.03L467.68 1648.17L350.682 1552.02Z" fill="#320D40"/>
<path d="M594.234 1146.06L759.207 748.823L822.197 905.502L594.234 1146.06" fill="#898795"/>
<path d="M759.208 748.821L935.459 647.822L1084.25 1116.49L822.198 905.5L759.208 748.821Z" fill="#BAB8C5"/>
<path d="M935.457 647.822L1094.88 861.337L1166.62 994.23L1084.25 1116.49L935.457 647.822Z" fill="#FFFFD7"/>
<path d="M1278.22 1599.34L1249.67 1633.39L1127.77 1656.99L1066.78 1643.03L1000.06 1331.5L1084.25 1400L1278.22 1599.34Z" fill="#4B1B43"/>
<path d="M1084.25 1116.49L1166.62 994.232L1282.65 1243.19L1405.75 1350.39L1367.64 1507.52L1308.66 1554.72L1278.22 1599.34L1186.99 1214.83L1084.25 1116.49Z" fill="#662044"/>
<path d="M1374.76 1033.21L1329.59 1283.94L1282.64 1243.18L1233.93 1138.64L1374.76 1033.21Z" fill="#391342"/>
<path d="M1405.76 1350.39L1452.7 1303.43L1374.76 1033.21L1329.59 1283.94L1405.76 1350.39Z" fill="#4D1B41"/>
<path d="M1374.76 1033.21L1505.84 1209.52L1452.7 1303.43L1374.76 1033.21Z" fill="#5F2141"/>
<path d="M1505.84 1209.52L1594.41 1220.59L1452.7 1303.43L1505.84 1209.52Z" fill="#381444"/>
<path d="M1594.41 1220.59L1713.69 1420.98L1576.06 1479.98L1452.7 1303.43L1594.41 1220.59Z" fill="#3C1742"/>
<path d="M1405.75 1350.39L1452.7 1303.43L1576.05 1479.99L1532.8 1531.12L1405.75 1350.39Z" fill="#632244"/>
<path d="M1367.64 1507.52L1405.76 1350.38L1532.8 1531.12L1367.64 1507.52Z" fill="#571D43"/>
<path d="M1174.15 1007.96L1296.82 1000.43L1194.52 1052.7L1174.15 1007.96Z" fill="#FEDAD1"/>
<path d="M1278.22 1599.34L1401.84 1673.32L1249.67 1633.39L1278.22 1599.34Z" fill="#7A8953"/>
<path d="M1427.07 1603.75L1496.61 1600.34L1532.8 1531.12L1367.64 1507.52L1427.07 1603.75Z" fill="#8C9552"/>
<path d="M1427.07 1603.75L1428.43 1644.67L1401.84 1673.32L1278.22 1599.34L1308.66 1554.72L1367.64 1507.52L1427.07 1603.75Z" fill="#9A9E54"/>
<path d="M1427.07 1603.75L1496.61 1600.34L1592.75 1578.52L1650.02 1609.21L1712.74 1630.35H1633.65L1475.48 1669.91L1428.43 1644.67L1427.07 1603.75Z" fill="#607C54"/>
<path d="M1532.8 1531.12L1592.75 1578.52L1496.61 1600.34L1532.8 1531.12Z" fill="#748455"/>
<path d="M1576.05 1479.98L1677.29 1605.11L1712.74 1630.35L1650.02 1609.21L1592.75 1578.52L1532.8 1531.12L1576.05 1479.98Z" fill="#9D9F54"/>
<path d="M1576.05 1479.99L1713.68 1420.98L1688.88 1463.94L1677.29 1605.12L1576.05 1479.99Z" fill="#677D53"/>
<path d="M1633.65 1630.35L1600.25 1725.15L1475.48 1669.91L1633.65 1630.35Z" fill="#738458"/>
<path d="M1428.43 1644.67L1475.48 1669.91L1600.25 1725.15L1555.93 1779.03L1401.84 1673.32L1428.43 1644.67Z" fill="#979B58"/>
<path d="M1401.84 1673.32L1555.93 1779.03L1476.84 1858.82L1324.12 1811.08L1401.84 1673.32Z" fill="#7F8E57"/>
<path d="M1713.69 1420.98L1761.61 1509.01L1807.89 1607.88L1817.05 1642.6L1712.74 1630.35L1677.29 1605.12L1688.88 1463.94L1713.69 1420.98Z" fill="#7B8956"/>
<path d="M1713.68 1420.98L1855.25 1472.12L1926.03 1519.32L1952.52 1533.61L1952.04 1654.17L1817.05 1642.6L1807.89 1607.88L1713.68 1420.98Z" fill="#989B56"/>
<path d="M822.196 905.503L909.874 1183.65L1000.06 1331.5L1278.22 1599.34L1186.99 1214.84L1084.25 1116.49L822.196 905.503Z" fill="#3B1641"/>
<path d="M1194.52 1052.7L1296.81 1000.43L1374.75 1033.21L1233.93 1138.64L1194.52 1052.7Z" fill="#BEBDC5"/>
<path d="M1769.13 1477.12L1751.47 1510.18L1771.47 1496.9L1769.13 1477.12Z" fill="#2D4042"/>
<path d="M1751.47 1510.18L1768.95 1538.31L1773.23 1565.1L1787.82 1560.41L1814.53 1498.51L1771.48 1496.9L1751.47 1510.18Z" fill="#282F3F"/>
<path d="M1769.14 1477.11L1791.37 1460.06L1847.35 1470.35L1814.54 1498.5L1771.47 1496.9L1769.14 1477.11Z" fill="#445D4C"/>
<path d="M1814.54 1498.5L1839.97 1515.17L1847.35 1470.35L1814.54 1498.5Z" fill="#55664F"/>
<path d="M1814.54 1498.5L1839.97 1515.17L1846.77 1555.47L1827.51 1566.66L1787.82 1560.41L1814.54 1498.5Z" fill="#324043"/>
<path d="M1797.93 1567.68L1790.08 1649.41H1821.45L1813.61 1567.32L1797.93 1567.68Z" fill="#431B40"/>
<path d="M1773.22 1565.1L1803.23 1575.49L1827.51 1566.66L1787.82 1560.41L1773.22 1565.1Z" fill="#2D2A3D"/>
<path d="M1847.36 1470.35L1866.7 1511.52L1866.62 1535.42L1846.77 1555.47L1839.97 1515.17L1847.36 1470.35Z" fill="#52624F"/>
<path d="M1751.47 1510.18L1754.13 1546.62L1773.23 1565.1L1768.95 1538.31L1751.47 1510.18Z" fill="#232134"/>
<path d="M2087.42 1479.68L2068.13 1507.41L2087.73 1496.99L2087.42 1479.68Z" fill="#2D4042"/>
<path d="M2068.13 1507.41L2081.58 1532.83L2083.04 1556.35L2096.88 1553.09L2127.15 1500.8L2087.74 1496.99L2068.13 1507.41Z" fill="#282F3F"/>
<path d="M2087.42 1479.67L2109.42 1466.1L2159.9 1478.17L2127.15 1500.8L2087.73 1496.99L2087.42 1479.67Z" fill="#445D4C"/>
<path d="M2127.15 1500.8L2148.97 1516.7L2159.9 1478.17L2127.15 1500.8Z" fill="#55664F"/>
<path d="M2126 1551.59L2153.94 1598.95L2148.01 1694.71L2177.22 1694.18L2172.62 1601.37L2201.35 1556.88L2193.25 1556.78L2166.6 1588.81L2131.11 1542.16L2126 1551.59Z" fill="#431B40"/>
<path d="M2127.15 1500.8L2148.97 1516.7L2151.49 1552.1L2132.75 1560.74L2096.87 1553.1L2127.15 1500.8Z" fill="#324043"/>
<path d="M2083.03 1556.35L2109.63 1567.06L2132.76 1560.74L2096.87 1553.09L2083.03 1556.35Z" fill="#2D2A3D"/>
<path d="M2159.9 1478.17L2173.86 1515.03L2171.58 1535.79L2151.49 1552.1L2148.97 1516.7L2159.9 1478.17Z" fill="#52624F"/>
<path d="M2068.13 1507.41L2067.2 1539.23L2083.04 1556.35L2081.58 1532.83L2068.13 1507.41Z" fill="#232134"/>
<path d="M2204.48 1500.54L2187.53 1512.99L2200.45 1512.54L2204.48 1500.54Z" fill="#2D4042"/>
<path d="M2187.53 1512.99L2188.5 1535.06L2183.58 1551.71L2191.7 1554.21L2220.42 1528.66L2200.45 1512.55L2187.53 1512.99Z" fill="#282F3F"/>
<path d="M2204.48 1500.55L2219.43 1498.75L2243.27 1524.33L2220.42 1528.66L2200.45 1512.55L2204.48 1500.55Z" fill="#445D4C"/>
<path d="M2220.42 1528.65L2228.14 1547.05L2243.27 1524.33L2220.42 1528.65Z" fill="#55664F"/>
<path d="M2220.42 1528.65L2228.14 1547.05L2220.9 1572.22L2208.87 1571.75L2191.7 1554.21L2220.42 1528.65Z" fill="#324043"/>
<path d="M2183.57 1551.71L2195.09 1568.17L2208.87 1571.75L2191.7 1554.21L2183.57 1551.71Z" fill="#2D2A3D"/>
<path d="M2243.27 1524.33L2241.74 1554.42L2235.5 1567.9L2220.9 1572.22L2228.14 1547.05L2243.27 1524.33Z" fill="#52624F"/>
<path d="M2187.53 1512.99L2179.33 1534.53L2183.58 1551.71L2188.5 1535.06L2187.53 1512.99Z" fill="#232134"/>
<path d="M2443.46 1534.71L2426.32 1573.23L2447.32 1556.43L2443.46 1534.71Z" fill="#2D4042"/>
<path d="M2426.32 1573.23L2447.3 1602.64L2453.75 1631.94L2469.41 1625.23L2494.55 1553.76L2447.34 1556.43L2426.32 1573.23Z" fill="#282F3F"/>
<path d="M2443.46 1534.72L2466.66 1513.49L2528.6 1519.12L2494.55 1553.76L2447.33 1556.43L2443.46 1534.72Z" fill="#445D4C"/>
<path d="M2494.55 1553.76L2523.48 1569.62L2528.59 1519.12L2494.55 1553.76Z" fill="#55664F"/>
<path d="M2505.73 1623.62L2533.67 1670.98L2527.74 1766.74L2556.95 1766.21L2552.34 1673.4L2581.08 1628.91L2572.98 1628.81L2546.33 1660.84L2510.84 1614.19L2505.73 1623.62Z" fill="#431B40"/>
<path d="M2494.55 1553.76L2523.48 1569.62L2533.58 1613.64L2513.24 1628.06L2469.4 1625.23L2494.55 1553.76Z" fill="#324043"/>
<path d="M2453.74 1631.94L2487.26 1640.37L2513.24 1628.06L2469.4 1625.23L2453.74 1631.94Z" fill="#2D2A3D"/>
<path d="M2528.6 1519.12L2552.48 1562.82L2553.97 1589.35L2533.58 1613.65L2523.48 1569.63L2528.6 1519.12Z" fill="#52624F"/>
<path d="M2426.32 1573.23L2431.64 1613.41L2453.75 1631.94L2447.3 1602.64L2426.32 1573.23Z" fill="#232134"/>
<path d="M2588.73 1575.14L2567.83 1587.59L2583.76 1587.15L2588.73 1575.14Z" fill="#2D4042"/>
<path d="M2567.83 1587.59L2569.03 1609.66L2562.96 1626.31L2572.98 1628.81L2608.41 1603.26L2583.77 1587.15L2567.83 1587.59Z" fill="#282F3F"/>
<path d="M2588.73 1575.14L2607.18 1573.35L2636.59 1598.93L2608.4 1603.26L2583.76 1587.15L2588.73 1575.14Z" fill="#445D4C"/>
<path d="M2608.41 1603.26L2617.93 1621.65L2636.59 1598.93L2608.41 1603.26Z" fill="#55664F"/>
<path d="M2608.41 1603.26L2617.93 1621.65L2609 1646.83L2594.16 1646.35L2572.97 1628.81L2608.41 1603.26Z" fill="#324043"/>
<path d="M2562.95 1626.31L2577.15 1642.77L2594.16 1646.35L2572.97 1628.81L2562.95 1626.31Z" fill="#2D2A3D"/>
<path d="M2636.59 1598.93L2634.71 1629.03L2627.01 1642.51L2609 1646.83L2617.93 1621.65L2636.59 1598.93Z" fill="#52624F"/>
<path d="M2567.83 1587.59L2557.71 1609.13L2562.95 1626.31L2569.03 1609.66L2567.83 1587.59Z" fill="#232134"/>
<path d="M2294.02 1515.59L2276.35 1548.65L2296.36 1535.37L2294.02 1515.59Z" fill="#2D4042"/>
<path d="M2276.35 1548.65L2293.83 1576.78L2298.12 1603.57L2312.71 1598.88L2339.42 1536.97L2296.36 1535.37L2276.35 1548.65Z" fill="#282F3F"/>
<path d="M2294.02 1515.58L2316.25 1498.53L2372.24 1508.82L2339.42 1536.97L2296.36 1535.37L2294.02 1515.58Z" fill="#445D4C"/>
<path d="M2339.42 1536.97L2364.86 1553.64L2372.24 1508.82L2339.42 1536.97Z" fill="#55664F"/>
<path d="M2339.42 1536.97L2364.86 1553.64L2371.66 1593.94L2352.39 1605.13L2312.7 1598.88L2339.42 1536.97Z" fill="#324043"/>
<path d="M2322.81 1606.15L2314.97 1687.88H2346.34L2338.5 1605.79L2322.81 1606.15Z" fill="#431B40"/>
<path d="M2298.11 1603.57L2328.12 1613.96L2352.39 1605.13L2312.7 1598.88L2298.11 1603.57Z" fill="#2D2A3D"/>
<path d="M2372.24 1508.82L2391.58 1549.99L2391.5 1573.89L2371.66 1593.94L2364.86 1553.64L2372.24 1508.82Z" fill="#52624F"/>
<path d="M2276.35 1548.65L2279.02 1585.09L2298.12 1603.57L2293.83 1576.78L2276.35 1548.65Z" fill="#232134"/>
<path d="M956.699 1577.14L927.223 1628.84L960.595 1608.08L956.699 1577.14Z" fill="#2D4042"/>
<path d="M927.223 1628.84L956.387 1672.82L963.532 1714.71L987.882 1707.38L1032.45 1610.59L960.611 1608.07L927.223 1628.84Z" fill="#282F3F"/>
<path d="M956.699 1577.14L993.796 1550.47L1087.21 1566.56L1032.45 1610.59L960.595 1608.07L956.699 1577.14Z" fill="#445D4C"/>
<path d="M1032.45 1610.59L1074.9 1636.64L1087.21 1566.56L1032.45 1610.59Z" fill="#55664F"/>
<path d="M1032.45 1610.58L1074.9 1636.64L1086.24 1699.65L1054.1 1717.15L987.868 1707.38L1032.45 1610.58Z" fill="#324043"/>
<path d="M1004.74 1718.75L991.654 1846.53H1044L1030.91 1718.18L1004.74 1718.75Z" fill="#431B40"/>
<path d="M963.517 1714.71L1013.59 1730.96L1054.1 1717.15L987.867 1707.38L963.517 1714.71Z" fill="#2D2A3D"/>
<path d="M1087.21 1566.56L1119.49 1630.95L1119.36 1668.31L1086.24 1699.65L1074.9 1636.64L1087.21 1566.56Z" fill="#52624F"/>
<path d="M927.223 1628.83L931.667 1685.82L963.532 1714.71L956.388 1672.82L927.223 1628.83Z" fill="#232134"/>
<path d="M633.505 1520.39L586.661 1543.69L622.368 1542.86L633.505 1520.39Z" fill="#2D4042"/>
<path d="M586.66 1543.69L589.357 1585L575.74 1616.17L598.204 1620.86L677.587 1573.02L622.38 1542.87L586.66 1543.69Z" fill="#282F3F"/>
<path d="M633.506 1520.39L674.847 1517.03L740.748 1564.91L677.588 1573.01L622.369 1542.86L633.506 1520.39Z" fill="#445D4C"/>
<path d="M677.588 1573.02L698.927 1607.46L740.748 1564.92L677.588 1573.02Z" fill="#55664F"/>
<path d="M680.276 1638.55L717.618 1699.18L709.69 1821.76L748.737 1821.07L742.58 1702.27L780.992 1645.32L770.162 1645.18L734.542 1686.19L687.103 1626.46L680.276 1638.55Z" fill="#431B40"/>
<path d="M677.589 1573.02L698.928 1607.45L678.914 1654.58L645.669 1653.69L598.193 1620.85L677.589 1573.02Z" fill="#324043"/>
<path d="M575.728 1616.17L607.552 1646.99L645.667 1653.69L598.192 1620.85L575.728 1616.17Z" fill="#2D2A3D"/>
<path d="M740.747 1564.92L736.525 1621.26L719.275 1646.49L678.915 1654.58L698.926 1607.46L740.747 1564.92Z" fill="#52624F"/>
<path d="M586.66 1543.69L563.995 1584.01L575.74 1616.18L589.357 1585L586.66 1543.69Z" fill="#232134"/>
<path d="M789.38 1586.24L763.887 1599.92L783.319 1599.43L789.38 1586.24Z" fill="#2D4042"/>
<path d="M763.887 1599.92L765.355 1624.15L757.944 1642.44L770.169 1645.19L813.371 1617.12L783.326 1599.43L763.887 1599.92Z" fill="#282F3F"/>
<path d="M789.38 1586.24L811.878 1584.27L847.743 1612.37L813.37 1617.12L783.319 1599.43L789.38 1586.24Z" fill="#445D4C"/>
<path d="M813.37 1617.12L824.983 1637.32L847.743 1612.37L813.37 1617.12Z" fill="#55664F"/>
<path d="M813.371 1617.12L824.984 1637.32L814.092 1664.97L795.999 1664.45L770.163 1645.18L813.371 1617.12Z" fill="#324043"/>
<path d="M757.937 1642.44L775.256 1660.52L795.999 1664.45L770.162 1645.18L757.937 1642.44Z" fill="#2D2A3D"/>
<path d="M847.743 1612.37L845.445 1645.42L836.057 1660.23L814.093 1664.97L824.983 1637.32L847.743 1612.37Z" fill="#52624F"/>
<path d="M763.887 1599.91L751.552 1623.57L757.944 1642.44L765.355 1624.15L763.887 1599.91Z" fill="#232134"/>
<path d="M267.318 1473.07L241.64 1505.02L269.823 1496.88L267.318 1473.07Z" fill="#2C3743"/>
<path d="M241.641 1505.02L237.884 1547L271.702 1578.95L287.359 1573.31L300.511 1511.29L269.823 1496.88L241.641 1505.02Z" fill="#283048"/>
<path d="M267.318 1473.08L308.758 1455.45L351.239 1464.93L300.511 1511.29L269.824 1496.88L267.318 1473.08Z" fill="#495A47"/>
<path d="M300.51 1511.29L362.198 1515.68L351.238 1464.93L300.51 1511.29Z" fill="#53614B"/>
<path d="M351.239 1464.93L372.769 1507.52L371.906 1543.24L350.612 1567.36L362.198 1515.68L351.239 1464.93Z" fill="#66724A"/>
<path d="M300.511 1511.29L362.199 1515.67L350.613 1567.36L329.946 1580.83L287.359 1573.31L300.511 1511.29Z" fill="#3D414A"/>
<path d="M298.208 1582.06L289.794 1680.4H323.45L315.036 1581.61L298.208 1582.06Z" fill="#3B1A47"/>
<path d="M271.701 1578.95L303.898 1591.45L329.945 1580.83L287.358 1573.31L271.701 1578.95Z" fill="#1E1834"/>
<path d="M267.318 1473.07L241.64 1505.02L269.823 1496.88L267.318 1473.07Z" fill="#2C3743"/>
<path d="M241.641 1505.02L237.884 1547L271.702 1578.95L287.359 1573.31L300.511 1511.29L269.823 1496.88L241.641 1505.02Z" fill="#283048"/>
<path d="M267.318 1473.08L308.758 1455.45L351.239 1464.93L300.511 1511.29L269.824 1496.88L267.318 1473.08Z" fill="#495A47"/>
<path d="M300.51 1511.29L362.198 1515.68L351.238 1464.93L300.51 1511.29Z" fill="#53614B"/>
<path d="M351.239 1464.93L372.769 1507.52L371.906 1543.24L350.612 1567.36L362.198 1515.68L351.239 1464.93Z" fill="#66724A"/>
<path d="M300.511 1511.29L362.199 1515.67L350.613 1567.36L329.946 1580.83L287.359 1573.31L300.511 1511.29Z" fill="#3D414A"/>
<path d="M298.208 1582.06L289.794 1680.4H323.45L315.036 1581.61L298.208 1582.06Z" fill="#3B1A47"/>
<path d="M271.701 1578.95L303.898 1591.45L329.945 1580.83L287.358 1573.31L271.701 1578.95Z" fill="#1E1834"/>
<path d="M1825.96 1831.49L1948.93 1805.22L2058.77 1799.25L2150.71 1805.22L2282.04 1793.28L2527.74 1766.74L2556.95 1766.21L2276.07 1810L2211.6 1817.16L2107.73 1824.33L1941.77 1838.66L1825.96 1831.49Z" fill="#648155"/>
<path d="M1875.51 1753.16L1954.72 1726.89L2025.47 1720.91L2084.68 1726.89L2169.27 1714.94L2314.97 1687.88H2346.34L2165.43 1731.66L2123.9 1738.83L2057 1745.99L1950.11 1760.33L1875.51 1753.16Z" fill="#648155"/>
<path d="M1797.43 1725.77L1861.43 1699.5L1918.59 1693.53L1966.44 1699.5L2034.47 1698.06L2148.01 1694.71L2177.23 1694.18L2140.16 1702.93L1998.13 1711.44L1944.07 1718.61L1857.7 1732.94L1797.43 1725.77Z" fill="#648155"/>
<path d="M1526.61 1681.01L1576.29 1654.73L1620.67 1648.76L1657.81 1654.73L1710.63 1653.3L1797.1 1649.41H1821.45L1792.68 1658.16L1682.42 1666.68L1640.45 1673.84L1573.4 1688.17L1526.61 1681.01Z" fill="#607C54"/>
<path d="M573.17 1911.82L652.377 1885.54L723.125 1879.57L782.339 1885.54L866.929 1873.6L991.654 1846.53H1044L863.084 1890.32L821.558 1897.48L754.655 1904.65L647.763 1918.98L573.17 1911.82Z" fill="#425C42"/>
<path d="M0 1723.74L53.2119 1697.47L100.741 1691.5L140.521 1683.89L197.349 1685.53L289.794 1680.4H323.45L194.766 1702.25L166.868 1695.83L121.922 1716.58L50.1122 1730.91L0 1723.74Z" fill="#425C42"/>
<path d="M392.793 1826.01L456.345 1810.81L497.227 1807.8L565.809 1824.57L622.637 1826.2L715.082 1821.08H748.738L620.054 1842.92L587.725 1850.54L497.73 1880.9L422.966 1863.46L392.793 1826.01Z" fill="#425C42"/>
<path d="M2740.01 1959.99L2595.85 1992.11L2430.44 2005.86L2261.66 2041.94L2065.88 2047.09L1832.96 2067.71L1772.2 2103.79L1519.03 2093.49L1376.01 2121.03L1255.22 2130.92L1378.99 2131.08L1519.03 2110.67L1762.07 2117.54L1863.34 2083.18L2092.88 2066L2251.54 2060.84L2437.2 2019.61H2602.6L2739.6 1987.67L2740.01 1959.99Z" fill="#402F14"/>
<path d="M2675.06 2003.07L2739.45 2037.42L2739.61 1987.67L2675.06 2003.07Z" fill="#94B2A8"/>
<path d="M2602.6 2019.6L2682.33 2046.79L2675.06 2003.07L2602.6 2019.6Z" fill="#ACCCBB"/>
<path d="M2469.41 2044.71L2602.6 2019.6H2437.19L2469.41 2044.71Z" fill="#94B2A8"/>
<path d="M2604.43 2059.29L2682.33 2046.79L2602.6 2019.6L2604.43 2059.29Z" fill="#8CB8A1"/>
<path d="M2495.37 2063.45L2602.6 2019.6L2469.41 2044.71L2495.37 2063.45Z" fill="#87A99D"/>
<path d="M2361.82 2064.64L2437.2 2019.6L2345.7 2039.76L2361.82 2064.64Z" fill="#94B2A8"/>
<path d="M2495.37 2063.45L2604.43 2059.29L2602.6 2019.6L2495.37 2063.45Z" fill="#6D9790"/>
<path d="M2361.82 2064.64L2469.41 2044.71L2437.2 2019.6L2361.82 2064.64Z" fill="#6D9790"/>
<path d="M2361.82 2064.65L2421.63 2078.55L2469.41 2044.71L2361.82 2064.65Z" fill="#709993"/>
<path d="M2281.3 2082.89L2345.69 2039.76L2248.25 2060.84L2281.3 2082.89Z" fill="#CCEDD3"/>
<path d="M2421.63 2078.55L2495.37 2063.45L2469.41 2044.71L2421.63 2078.55Z" fill="#8FAFAA"/>
<path d="M2281.3 2082.89L2361.82 2064.65L2345.69 2039.76L2281.3 2082.89Z" fill="#BAD4C6"/>
<path d="M2370.74 2095.21L2421.63 2078.55L2361.82 2064.65L2370.74 2095.21Z" fill="#668A80"/>
<path d="M2102.1 2093.23L2174 2063.3L2092.88 2066L2102.1 2093.23Z" fill="#94B2A8"/>
<path d="M2102.1 2093.23L2178.48 2099.86L2173.99 2063.3L2102.1 2093.23Z" fill="#6D9790"/>
<path d="M2281.3 2082.89L2370.74 2095.21L2361.82 2064.65L2281.3 2082.89Z" fill="#ACCCBB"/>
<path d="M2178.48 2099.86L2248.25 2060.84L2174 2063.3L2178.48 2099.86Z" fill="#94B2A8"/>
<path d="M1991.94 2072.62L2102.1 2093.23L2092.88 2065.99L1991.94 2072.62Z" fill="#CCEDD3"/>
<path d="M2178.48 2099.86L2281.3 2082.89L2248.26 2060.84L2178.48 2099.86Z" fill="#8FAFAA"/>
<path d="M1872.23 2104.65L1991.94 2072.62L1850.93 2084.03L1872.23 2104.65Z" fill="#D0F1D4"/>
<path d="M1992.67 2100.97L2102.1 2093.24L1991.94 2072.62L1992.67 2100.97Z" fill="#8FAFAA"/>
<path d="M2279.78 2101.93L2370.74 2095.21L2281.3 2082.88L2279.78 2101.93Z" fill="#8CB8A1"/>
<path d="M2178.48 2099.86L2279.78 2101.93L2281.3 2082.88L2178.48 2099.86Z" fill="#8FAFAA"/>
<path d="M1872.23 2104.65L1992.67 2100.97L1991.94 2072.62L1872.23 2104.65Z" fill="#B5D1C2"/>
<path d="M1928.04 2131.52L1992.67 2100.96L1872.23 2104.65L1928.04 2131.52Z" fill="#99B9AD"/>
<path d="M2182.23 2117.24L2279.78 2101.93L2178.48 2099.86L2182.23 2117.24Z" fill="#8FAFAA"/>
<path d="M1850.93 2084.03L1834.04 2131.88L1872.23 2104.64L1850.93 2084.03Z" fill="#ADCBC0"/>
<path d="M1657.04 2132.62L1750.6 2116.55L1610.77 2115.69L1657.04 2132.62Z" fill="#C8E4D5"/>
<path d="M1992.67 2100.96L2077.13 2131.51L2102.1 2093.23L1992.67 2100.96Z" fill="#ACCCBB"/>
<path d="M1750.59 2116.55L1834.04 2131.88L1850.93 2084.03L1750.59 2116.55Z" fill="#8DAAA0"/>
<path d="M2102.1 2093.23L2182.23 2117.24L2178.48 2099.86L2102.1 2093.23Z" fill="#709993"/>
<path d="M1510.89 2132.25L1610.77 2115.69L1505.01 2110.17L1510.89 2132.25Z" fill="#5F8892"/>
<path d="M2077.13 2131.51L2182.23 2117.24L2102.1 2093.23L2077.13 2131.51Z" fill="#72978D"/>
<path d="M1834.04 2131.88L1928.04 2131.51L1872.23 2104.64L1834.04 2131.88Z" fill="#586D6B"/>
<path d="M1359.6 2128.94L1510.89 2132.25L1505.01 2110.17L1359.6 2128.94Z" fill="#BFDBCA"/>
<path d="M1928.04 2131.52H2077.13L1992.67 2100.96L1928.04 2131.52Z" fill="#94B2A8"/>
<path d="M1510.89 2132.25L1657.04 2132.62L1610.77 2115.69L1510.89 2132.25Z" fill="#86A7A0"/>
<path d="M1657.04 2132.62L1834.04 2131.88L1750.6 2116.55L1657.04 2132.62Z" fill="#98B9B1"/>
<path d="M2421.63 2078.55L2604.43 2059.29L2495.37 2063.45L2421.63 2078.55Z" fill="#668A80"/>
<path d="M2682.33 2046.79L2739.45 2037.42L2675.06 2003.07L2682.33 2046.79Z" fill="#8CB8A1"/>
<path d="M2077.13 2131.51L2083.93 2130.45L2182.23 2117.24L2279.78 2101.93L2370.74 2095.21L2421.63 2078.55L2604.43 2059.29L2682.33 2046.79L2739.45 2037.42L2739.21 2054.87L2686.63 2052.47L2609.04 2068.28L2584.52 2075.43L2499.87 2072.5L2430.98 2092.8L2385.16 2105.1L2285.94 2114.29L2183.92 2122.48L2106.12 2130.87L2077.13 2131.51Z" fill="#B4C02B"/>
</g>
<defs>
<linearGradient id="paint0_linear" x1="1376.88" y1="0.98709" x2="1415.48" y2="2129.01" gradientUnits="userSpaceOnUse">
<stop stop-color="#152F48"/>
<stop offset="1" stop-color="#28557E"/>
</linearGradient>
<linearGradient id="paint1_linear" x1="3.13776" y1="1753.27" x2="2740.01" y2="1780.17" gradientUnits="userSpaceOnUse">
<stop stop-color="#7F8954"/>
<stop offset="1" stop-color="#879755"/>
</linearGradient>
<clipPath id="clip0">
<rect width="2741" height="2130" fill="white"/>
</clipPath>
</defs>
</svg>
